{
	"patcher" : 	{
		"fileversion" : 1,
		"appversion" : 		{
			"major" : 8,
			"minor" : 5,
			"revision" : 6,
			"architecture" : "x64",
			"modernui" : 1
		}
,
		"classnamespace" : "box",
		"rect" : [ 402.0, 79.0, 1212.0, 687.0 ],
		"bglocked" : 0,
		"openinpresentation" : 0,
		"default_fontsize" : 12.0,
		"default_fontface" : 0,
		"default_fontname" : "Arial",
		"gridonopen" : 1,
		"gridsize" : [ 5.0, 5.0 ],
		"gridsnaponopen" : 1,
		"objectsnaponopen" : 1,
		"statusbarvisible" : 2,
		"toolbarvisible" : 1,
		"lefttoolbarpinned" : 0,
		"toptoolbarpinned" : 0,
		"righttoolbarpinned" : 0,
		"bottomtoolbarpinned" : 0,
		"toolbars_unpinned_last_save" : 0,
		"tallnewobj" : 0,
		"boxanimatetime" : 200,
		"enablehscroll" : 1,
		"enablevscroll" : 1,
		"devicewidth" : 0.0,
		"description" : "",
		"digest" : "",
		"tags" : "",
		"style" : "",
		"subpatcher_template" : "",
		"assistshowspatchername" : 0,
		"boxes" : [ 			{
				"box" : 				{
					"hidden" : 1,
					"id" : "obj-8",
					"maxclass" : "newobj",
					"numinlets" : 1,
					"numoutlets" : 1,
					"outlettype" : [ "bang" ],
					"patching_rect" : [ 53.666663999999997, 107.0, 58.0, 22.0 ],
					"text" : "loadbang"
				}

			}
, 			{
				"box" : 				{
					"fontname" : "Arial",
					"fontsize" : 14.0,
					"id" : "obj-16",
					"linecount" : 2,
					"maxclass" : "comment",
					"numinlets" : 1,
					"numoutlets" : 0,
					"patching_rect" : [ 70.666663999999997, 59.5, 395.0, 38.0 ],
					"text" : "Tag soundfiles by directory name. UI version incorporated in camu.key.value and both modules work with camu.key.select"
				}

			}
, 			{
				"box" : 				{
					"border" : 0,
					"filename" : "helpname_camu.js",
					"id" : "obj-36",
					"ignoreclick" : 1,
					"jsarguments" : [ "camu.key.soundset" ],
					"maxclass" : "jsui",
					"numinlets" : 1,
					"numoutlets" : 1,
					"outlettype" : [ "" ],
					"parameter_enable" : 0,
					"patching_rect" : [ 10.0, 10.0, 470.59185791015625, 57.599853515625 ]
				}

			}
, 			{
				"box" : 				{
					"bubble" : 1,
					"id" : "obj-4",
					"linecount" : 2,
					"maxclass" : "comment",
					"numinlets" : 1,
					"numoutlets" : 0,
					"patching_rect" : [ 340.666655999999989, 218.5, 175.0, 37.0 ],
					"text" : "tag buffers automatically by directory"
				}

			}
, 			{
				"box" : 				{
					"bubble" : 1,
					"id" : "obj-7",
					"linecount" : 4,
					"maxclass" : "comment",
					"numinlets" : 1,
					"numoutlets" : 0,
					"patching_rect" : [ 340.666655999999989, 261.5, 172.0, 64.0 ],
					"text" : "open to enable or disable keys (works best when several buffers with different keys are defined)"
				}

			}
, 			{
				"box" : 				{
					"fontname" : "Arial",
					"fontsize" : 14.0,
					"id" : "obj-131",
					"linecount" : 2,
					"maxclass" : "newobj",
					"numinlets" : 1,
					"numoutlets" : 2,
					"outlettype" : [ "", "" ],
					"patching_rect" : [ 117.666663999999997, 265.0, 138.999999999999972, 40.0 ],
					"presentation" : 1,
					"presentation_linecount" : 4,
					"presentation_rect" : [ 373.5, 271.125, 105.0, 71.0 ],
					"text" : "camu.key.select key-soundset-corpus",
					"varname" : "select-by-key"
				}

			}
, 			{
				"box" : 				{
					"id" : "obj-67",
					"lastchannelcount" : 0,
					"maxclass" : "live.gain~",
					"numinlets" : 2,
					"numoutlets" : 5,
					"outlettype" : [ "signal", "signal", "", "float", "list" ],
					"parameter_enable" : 1,
					"patching_rect" : [ 113.666663999999997, 588.0, 38.0, 98.0 ],
					"saved_attribute_attributes" : 					{
						"valueof" : 						{
							"parameter_longname" : "live.gain~",
							"parameter_mmax" : 6.0,
							"parameter_mmin" : -70.0,
							"parameter_shortname" : "live.gain~",
							"parameter_type" : 0,
							"parameter_unitstyle" : 4
						}

					}
,
					"showname" : 0,
					"varname" : "live.gain~"
				}

			}
, 			{
				"box" : 				{
					"bubble" : 1,
					"id" : "obj-37",
					"linecount" : 2,
					"maxclass" : "comment",
					"numinlets" : 1,
					"numoutlets" : 0,
					"patching_rect" : [ 384.666663999999969, 97.0, 69.0, 37.0 ],
					"text" : "load corpus"
				}

			}
, 			{
				"box" : 				{
					"bubble" : 1,
					"bubbleside" : 2,
					"id" : "obj-44",
					"linecount" : 2,
					"maxclass" : "comment",
					"numinlets" : 1,
					"numoutlets" : 0,
					"patching_rect" : [ 1083.0, 611.0, 114.0, 52.0 ],
					"text" : "click on \"i\" icon to show key values"
				}

			}
, 			{
				"box" : 				{
					"hidden" : 1,
					"id" : "obj-33",
					"maxclass" : "newobj",
					"numinlets" : 1,
					"numoutlets" : 1,
					"outlettype" : [ "" ],
					"patching_rect" : [ -34.333336000000003, 312.5, 134.0, 22.0 ],
					"text" : "loadmess symbol fence"
				}

			}
, 			{
				"box" : 				{
					"fontname" : "Arial",
					"fontsize" : 14.0,
					"id" : "obj-12",
					"linecount" : 2,
					"maxclass" : "newobj",
					"numinlets" : 1,
					"numoutlets" : 1,
					"outlettype" : [ "bang" ],
					"patching_rect" : [ 117.666663999999997, 218.5, 138.999999999999972, 40.0 ],
					"text" : "camu.key.soundset key-soundset-corpus",
					"varname" : "select-by-key[1]"
				}

			}
, 			{
				"box" : 				{
					"fontname" : "Arial",
					"fontsize" : 12.0,
					"hidden" : 1,
					"id" : "obj-5",
					"maxclass" : "newobj",
					"numinlets" : 1,
					"numoutlets" : 1,
					"outlettype" : [ "" ],
					"patching_rect" : [ 340.666655999999989, 443.0, 79.0, 22.0 ],
					"text" : "loadmess 2"
				}

			}
, 			{
				"box" : 				{
					"id" : "obj-10",
					"items" : [ "first", ",", "random", ",", "urn" ],
					"maxclass" : "umenu",
					"numinlets" : 1,
					"numoutlets" : 3,
					"outlettype" : [ "int", "", "" ],
					"parameter_enable" : 0,
					"patching_rect" : [ 243.0, 443.0, 90.0, 22.0 ]
				}

			}
, 			{
				"box" : 				{
					"hidden" : 1,
					"id" : "obj-9",
					"maxclass" : "newobj",
					"numinlets" : 1,
					"numoutlets" : 2,
					"outlettype" : [ "int", "int" ],
					"patching_rect" : [ 164.666655999999989, 471.0, 61.0, 22.0 ],
					"text" : "unpack i i"
				}

			}
, 			{
				"box" : 				{
					"fontname" : "Arial",
					"fontsize" : 12.0,
					"id" : "obj-66",
					"maxclass" : "comment",
					"numinlets" : 1,
					"numoutlets" : 0,
					"patching_rect" : [ 113.666663999999997, 305.999985000000038, 88.0, 20.0 ],
					"text" : "trigger mode..."
				}

			}
, 			{
				"box" : 				{
					"args" : [ "key-soundset-corpus", "descr", "color", "FrequencyMean" ],
					"bgmode" : 0,
					"border" : 0,
					"clickthrough" : 0,
					"enablehscroll" : 0,
					"enablevscroll" : 0,
					"id" : "obj-55",
					"lockeddragscroll" : 0,
					"lockedsize" : 0,
					"maxclass" : "bpatcher",
					"name" : "camu.menu.maxpat",
					"numinlets" : 1,
					"numoutlets" : 2,
					"offset" : [ 0.0, 0.0 ],
					"outlettype" : [ "int", "" ],
					"patching_rect" : [ 875.5, 21.0, 317.0, 22.0 ],
					"viewvisibility" : 1
				}

			}
, 			{
				"box" : 				{
					"args" : [ "key-soundset-corpus", "descr", "size", "LoudnessMean" ],
					"bgmode" : 0,
					"border" : 0,
					"clickthrough" : 0,
					"enablehscroll" : 0,
					"enablevscroll" : 0,
					"id" : "obj-54",
					"lockeddragscroll" : 0,
					"lockedsize" : 0,
					"maxclass" : "bpatcher",
					"name" : "camu.menu.maxpat",
					"numinlets" : 1,
					"numoutlets" : 2,
					"offset" : [ 0.0, 0.0 ],
					"outlettype" : [ "int", "" ],
					"patching_rect" : [ 875.5, 68.0, 317.0, 22.0 ],
					"viewvisibility" : 1
				}

			}
, 			{
				"box" : 				{
					"id" : "obj-47",
					"maxclass" : "button",
					"numinlets" : 1,
					"numoutlets" : 1,
					"outlettype" : [ "bang" ],
					"parameter_enable" : 0,
					"patching_rect" : [ 70.666663999999997, 484.0, 24.0, 24.0 ]
				}

			}
, 			{
				"box" : 				{
					"args" : [ "key-soundset-corpus", "descr", "y", "PeriodicityMean" ],
					"bgmode" : 0,
					"border" : 0,
					"clickthrough" : 0,
					"enablehscroll" : 0,
					"enablevscroll" : 0,
					"id" : "obj-43",
					"lockeddragscroll" : 0,
					"lockedsize" : 0,
					"maxclass" : "bpatcher",
					"name" : "camu.menu.maxpat",
					"numinlets" : 1,
					"numoutlets" : 2,
					"offset" : [ 0.0, 0.0 ],
					"outlettype" : [ "int", "" ],
					"patching_rect" : [ 551.5, 68.0, 320.0, 22.0 ],
					"viewvisibility" : 1
				}

			}
, 			{
				"box" : 				{
					"fontname" : "Arial",
					"fontsize" : 12.0,
					"id" : "obj-32",
					"maxclass" : "message",
					"numinlets" : 2,
					"numoutlets" : 1,
					"outlettype" : [ "" ],
					"patching_rect" : [ 269.166663999999969, 133.0, 286.0, 22.0 ],
					"text" : "readfolder @name audio @recursive 1 @type audio"
				}

			}
, 			{
				"box" : 				{
					"args" : [ "key-soundset-corpus", "descr", "x", "CentroidMean" ],
					"bgmode" : 0,
					"border" : 0,
					"clickthrough" : 0,
					"enablehscroll" : 0,
					"enablevscroll" : 0,
					"id" : "obj-17",
					"lockeddragscroll" : 0,
					"lockedsize" : 0,
					"maxclass" : "bpatcher",
					"name" : "camu.menu.maxpat",
					"numinlets" : 1,
					"numoutlets" : 2,
					"offset" : [ 0.0, 0.0 ],
					"outlettype" : [ "int", "" ],
					"patching_rect" : [ 551.5, 21.0, 320.0, 22.0 ],
					"viewvisibility" : 1
				}

			}
, 			{
				"box" : 				{
					"id" : "obj-2",
					"maxclass" : "newobj",
					"numinlets" : 4,
					"numoutlets" : 3,
					"outlettype" : [ "int", "int", "int" ],
					"patching_rect" : [ 113.666663999999997, 443.0, 128.333344000000011, 22.0 ],
					"text" : "camu.random"
				}

			}
, 			{
				"box" : 				{
					"bubble" : 1,
					"id" : "obj-61",
					"linecount" : 2,
					"maxclass" : "comment",
					"numinlets" : 1,
					"numoutlets" : 0,
					"patching_rect" : [ 202.666655999999989, 627.0, 59.0, 37.0 ],
					"text" : "audio on"
				}

			}
, 			{
				"box" : 				{
					"fontname" : "Arial",
					"fontsize" : 12.0,
					"hidden" : 1,
					"id" : "obj-59",
					"maxclass" : "newobj",
					"numinlets" : 1,
					"numoutlets" : 1,
					"outlettype" : [ "" ],
					"patching_rect" : [ 419.666655999999989, 383.200012000000015, 67.0, 22.0 ],
					"text" : "pvar editor"
				}

			}
, 			{
				"box" : 				{
					"fontname" : "Arial",
					"fontsize" : 12.0,
					"id" : "obj-19",
					"maxclass" : "message",
					"numinlets" : 2,
					"numoutlets" : 1,
					"outlettype" : [ "" ],
					"patching_rect" : [ 113.666663999999997, 107.0, 269.0, 22.0 ],
					"text" : "readappend Gouttes-LeNaun.wav @name audio"
				}

			}
, 			{
				"box" : 				{
					"color" : [ 0.5, 0.5, 0.5, 1.0 ],
					"fontname" : "Arial",
					"fontsize" : 12.0,
					"hidden" : 1,
					"id" : "obj-241",
					"maxclass" : "newobj",
					"numinlets" : 1,
					"numoutlets" : 0,
					"patching_rect" : [ 439.666655999999989, 513.0, 99.0, 22.0 ],
					"text" : "s selected-buffer"
				}

			}
, 			{
				"box" : 				{
					"color" : [ 0.5, 0.5, 0.5, 1.0 ],
					"fontname" : "Arial",
					"fontsize" : 12.0,
					"hidden" : 1,
					"id" : "obj-240",
					"maxclass" : "newobj",
					"numinlets" : 1,
					"numoutlets" : 0,
					"patching_rect" : [ 330.666655999999989, 513.0, 106.0, 22.0 ],
					"text" : "s selected-marker"
				}

			}
, 			{
				"box" : 				{
					"fontname" : "Arial",
					"fontsize" : 12.0,
					"id" : "obj-191",
					"maxclass" : "comment",
					"numinlets" : 1,
					"numoutlets" : 0,
					"patching_rect" : [ 872.0, 0.0, 146.0, 20.0 ],
					"text" : "colour descriptor index"
				}

			}
, 			{
				"box" : 				{
					"fontname" : "Arial",
					"fontsize" : 12.0,
					"id" : "obj-210",
					"maxclass" : "comment",
					"numinlets" : 1,
					"numoutlets" : 0,
					"patching_rect" : [ 872.0, 46.0, 149.0, 20.0 ],
					"text" : "fixed size descriptor index"
				}

			}
, 			{
				"box" : 				{
					"alignviewbounds" : 0,
					"autobounds" : 0,
					"autorefreshrate" : 0,
					"autoupdate" : 100.0,
					"bgcolor" : [ 1.0, 1.0, 1.0, 1.0 ],
					"bufferchooser_bgcolor" : [ 1.0, 1.0, 1.0, 1.0 ],
					"bufferchooser_fgcolor" : [ 0.0, 0.0, 0.0, 1.0 ],
					"bufferchooser_position" : 1,
					"bufferchooser_shape" : "buttons",
					"bufferchooser_size" : 12,
					"bufferchooser_visible" : 1,
					"continousediting" : 0,
					"cursor_circleedgecolor" : [ 1.0, 0.0, 0.0, 1.0 ],
					"cursor_circlefillcolor" : [ 1.0, 0.0, 0.0, 1.0 ],
					"cursor_circlefilled" : 1,
					"cursor_circleheight" : 0.0,
					"cursor_circlewidth" : 0.0,
					"cursor_color" : [ 0.776471, 0.066667, 0.066667, 0.286275 ],
					"cursor_followmouse" : 0,
					"cursor_nearest" : 0,
					"cursor_nearestcolor" : [ 1.0, 0.0, 0.0, 1.0 ],
					"cursor_noringoffset" : 0,
					"cursor_position" : 1329.516909767701691,
					"cursor_shape" : "cross",
					"cursor_size" : 3,
					"cursor_sizeunit" : 0,
					"cursor_visible" : 1,
					"domain_bounds" : [ 1340.628142075614505, 4646.219753679705718 ],
					"domainruler_bgcolor" : [ 1.0, 1.0, 1.0, 1.0 ],
					"domainruler_fgcolor" : [ 0.0, 0.0, 0.0, 1.0 ],
					"domainruler_grid" : 0,
					"domainruler_position" : 0,
					"domainruler_size" : 15,
					"domainruler_unit" : 0,
					"domainruler_visible" : 1,
					"domainscrollbar_color" : [ 1.0, 1.0, 1.0, 1.0 ],
					"domainscrollbar_size" : 10,
					"domainscrollbar_visible" : 0,
					"embed" : 0,
					"externalfiles" : 1,
					"freeze" : 0,
					"id" : "obj-216",
					"layout" : 0,
					"maintrack" : -1,
					"maxclass" : "imubu",
					"mousewheelscroll" : 0,
					"name" : "key-soundset-corpus",
					"numinlets" : 1,
					"numoutlets" : 1,
					"opacity" : 0.0,
					"opacityprogressive" : 0,
					"orientation" : 0,
					"outlettype" : [ "" ],
					"outputkeys" : 1,
					"outputmouse" : 1,
					"outputselection" : 1,
					"outputtimeselection" : 0,
					"outputvalues" : 1,
					"outputviewname" : 0,
					"parameter_enable" : 0,
					"patching_rect" : [ 565.0, 161.0, 632.0, 521.0 ],
					"rangeruler_grid" : 0,
					"rangeruler_size" : 35,
					"rangeruler_visible" : 1,
					"region_bounds" : [ 0.0, 0.0 ],
					"region_color" : [ 0.8, 0.7, 0.7, 1.0 ],
					"region_visible" : 1,
					"resamplefiles" : 0,
					"snaprate" : 1000.0,
					"split_color" : [ 1.0, 0.0, 0.0, 1.0 ],
					"split_size" : 2,
					"split_visible" : 1,
					"tabs_position" : 0,
					"tabs_size" : 20,
					"tabs_visible" : 1,
					"tool" : "edit",
					"toolbar_bgcolor" : [ 1.0, 1.0, 1.0, 1.0 ],
					"toolbar_position" : 1,
					"toolbar_size" : 30,
					"toolbar_visible" : 2,
					"useplaceholders" : 1,
					"varname" : "editor",
					"verbose" : 1,
					"windresize" : 0
				}

			}
, 			{
				"box" : 				{
					"fontname" : "Arial",
					"fontsize" : 12.0,
					"id" : "obj-217",
					"maxclass" : "comment",
					"numinlets" : 1,
					"numoutlets" : 0,
					"patching_rect" : [ 551.5, 46.0, 130.0, 20.0 ],
					"text" : "y-axis descriptor index"
				}

			}
, 			{
				"box" : 				{
					"fontname" : "Arial",
					"fontsize" : 12.0,
					"id" : "obj-218",
					"maxclass" : "comment",
					"numinlets" : 1,
					"numoutlets" : 0,
					"patching_rect" : [ 551.5, 0.0, 130.0, 20.0 ],
					"text" : "x-axis descriptor index"
				}

			}
, 			{
				"box" : 				{
					"fontname" : "Arial",
					"fontsize" : 12.0,
					"id" : "obj-230",
					"maxclass" : "comment",
					"numinlets" : 1,
					"numoutlets" : 0,
					"patching_rect" : [ 651.5, 95.0, 173.0, 20.0 ],
					"text" : "selected marker / buffer  index"
				}

			}
, 			{
				"box" : 				{
					"allowdrag" : 0,
					"id" : "obj-82",
					"items" : [ "bow", ",", "fence", ",", "beat", ",", "beatmove", ",", "loop", ",", "loopmove", ",", "cont" ],
					"maxclass" : "umenu",
					"numinlets" : 1,
					"numoutlets" : 3,
					"outlettype" : [ "int", "", "" ],
					"parameter_enable" : 0,
					"patching_rect" : [ 113.666663999999997, 329.999985000000038, 89.0, 22.0 ]
				}

			}
, 			{
				"box" : 				{
					"fontname" : "Arial",
					"fontsize" : 12.0,
					"id" : "obj-81",
					"maxclass" : "newobj",
					"numinlets" : 1,
					"numoutlets" : 2,
					"outlettype" : [ "", "int" ],
					"patching_rect" : [ 113.666663999999997, 352.999985000000038, 107.0, 22.0 ],
					"text" : "camu.triggermode"
				}

			}
, 			{
				"box" : 				{
					"hidden" : 1,
					"id" : "obj-72",
					"maxclass" : "button",
					"numinlets" : 1,
					"numoutlets" : 1,
					"outlettype" : [ "bang" ],
					"parameter_enable" : 0,
					"patching_rect" : [ 88.166663999999997, 186.0, 20.0, 20.0 ]
				}

			}
, 			{
				"box" : 				{
					"fontname" : "Arial",
					"fontsize" : 12.0,
					"id" : "obj-70",
					"maxclass" : "message",
					"numinlets" : 2,
					"numoutlets" : 1,
					"outlettype" : [ "" ],
					"patching_rect" : [ 269.166663999999969, 159.0, 49.0, 22.0 ],
					"text" : "clearall"
				}

			}
, 			{
				"box" : 				{
					"fontname" : "Arial",
					"fontsize" : 12.0,
					"id" : "obj-69",
					"maxclass" : "newobj",
					"numinlets" : 1,
					"numoutlets" : 2,
					"outlettype" : [ "", "" ],
					"patcher" : 					{
						"fileversion" : 1,
						"appversion" : 						{
							"major" : 8,
							"minor" : 5,
							"revision" : 6,
							"architecture" : "x64",
							"modernui" : 1
						}
,
						"classnamespace" : "box",
						"rect" : [ 73.0, 619.0, 1173.0, 507.0 ],
						"bglocked" : 0,
						"openinpresentation" : 0,
						"default_fontsize" : 10.0,
						"default_fontface" : 0,
						"default_fontname" : "Geneva",
						"gridonopen" : 1,
						"gridsize" : [ 10.0, 10.0 ],
						"gridsnaponopen" : 1,
						"objectsnaponopen" : 1,
						"statusbarvisible" : 2,
						"toolbarvisible" : 1,
						"lefttoolbarpinned" : 0,
						"toptoolbarpinned" : 0,
						"righttoolbarpinned" : 0,
						"bottomtoolbarpinned" : 0,
						"toolbars_unpinned_last_save" : 0,
						"tallnewobj" : 0,
						"boxanimatetime" : 200,
						"enablehscroll" : 1,
						"enablevscroll" : 1,
						"devicewidth" : 0.0,
						"description" : "",
						"digest" : "",
						"tags" : "",
						"style" : "",
						"subpatcher_template" : "",
						"assistshowspatchername" : 0,
						"boxes" : [ 							{
								"box" : 								{
									"id" : "obj-4",
									"maxclass" : "newobj",
									"numinlets" : 1,
									"numoutlets" : 1,
									"outlettype" : [ "" ],
									"patching_rect" : [ 44.0, 262.0, 100.0, 21.0 ],
									"text" : "loadmess size 1"
								}

							}
, 							{
								"box" : 								{
									"fontname" : "Geneva",
									"fontsize" : 10.0,
									"id" : "obj-14",
									"maxclass" : "newobj",
									"numinlets" : 5,
									"numoutlets" : 5,
									"outlettype" : [ "", "", "", "", "" ],
									"patching_rect" : [ 10.0, 47.5, 200.0, 21.0 ],
									"text" : "route bang read readappend readfolder"
								}

							}
, 							{
								"box" : 								{
									"comment" : "",
									"id" : "obj-3",
									"index" : 1,
									"maxclass" : "outlet",
									"numinlets" : 1,
									"numoutlets" : 0,
									"patching_rect" : [ 44.0, 338.0, 25.0, 25.0 ]
								}

							}
, 							{
								"box" : 								{
									"fontname" : "Arial",
									"fontsize" : 12.0,
									"id" : "obj-5",
									"maxclass" : "newobj",
									"numinlets" : 1,
									"numoutlets" : 1,
									"outlettype" : [ "" ],
									"patching_rect" : [ 605.5, 322.0, 68.0, 22.0 ],
									"text" : "deferlow"
								}

							}
, 							{
								"box" : 								{
									"bgcolor" : [ 1.0, 1.0, 1.0, 1.0 ],
									"id" : "obj-13",
									"maxclass" : "multislider",
									"numinlets" : 1,
									"numoutlets" : 2,
									"orientation" : 0,
									"outlettype" : [ "", "" ],
									"parameter_enable" : 0,
									"patching_rect" : [ 10.0, 297.0, 394.0, 36.0 ],
									"setminmax" : [ 0.0, 1.0 ],
									"setstyle" : 1,
									"slidercolor" : [ 0.516304, 0.516304, 0.516304, 1.0 ],
									"spacing" : 1
								}

							}
, 							{
								"box" : 								{
									"fontname" : "Arial",
									"fontsize" : 12.0,
									"id" : "obj-19",
									"maxclass" : "newobj",
									"numinlets" : 3,
									"numoutlets" : 3,
									"outlettype" : [ "", "", "" ],
									"patching_rect" : [ 560.0, 241.199996999999996, 110.0, 22.0 ],
									"text" : "route done alldone"
								}

							}
, 							{
								"box" : 								{
									"id" : "obj-15",
									"maxclass" : "button",
									"numinlets" : 1,
									"numoutlets" : 1,
									"outlettype" : [ "bang" ],
									"parameter_enable" : 0,
									"patching_rect" : [ 605.5, 297.0, 20.0, 20.0 ]
								}

							}
, 							{
								"box" : 								{
									"fontname" : "Geneva",
									"fontsize" : 10.0,
									"id" : "obj-2",
									"maxclass" : "message",
									"numinlets" : 2,
									"numoutlets" : 1,
									"outlettype" : [ "" ],
									"patching_rect" : [ 64.0, 144.0, 63.0, 21.0 ],
									"text" : "process $1"
								}

							}
, 							{
								"box" : 								{
									"comment" : "",
									"id" : "obj-58",
									"index" : 2,
									"maxclass" : "outlet",
									"numinlets" : 1,
									"numoutlets" : 0,
									"patching_rect" : [ 605.5, 347.0, 25.0, 25.0 ]
								}

							}
, 							{
								"box" : 								{
									"id" : "obj-43",
									"maxclass" : "button",
									"numinlets" : 1,
									"numoutlets" : 1,
									"outlettype" : [ "bang" ],
									"parameter_enable" : 0,
									"patching_rect" : [ 10.0, 121.0, 20.0, 20.0 ]
								}

							}
, 							{
								"box" : 								{
									"comment" : "",
									"id" : "obj-39",
									"index" : 1,
									"maxclass" : "inlet",
									"numinlets" : 0,
									"numoutlets" : 1,
									"outlettype" : [ "bang" ],
									"patching_rect" : [ 10.0, 8.5, 25.0, 25.0 ]
								}

							}
, 							{
								"box" : 								{
									"fontname" : "Verdana",
									"fontsize" : 10.0,
									"hidden" : 1,
									"id" : "obj-139",
									"maxclass" : "comment",
									"numinlets" : 1,
									"numoutlets" : 0,
									"patching_rect" : [ 124.0, 144.0, 143.0, 19.0 ],
									"text" : "activate real-time analysis"
								}

							}
, 							{
								"box" : 								{
									"id" : "obj-60",
									"maxclass" : "toggle",
									"numinlets" : 1,
									"numoutlets" : 1,
									"outlettype" : [ "int" ],
									"parameter_enable" : 0,
									"patching_rect" : [ 44.0, 144.0, 20.0, 20.0 ]
								}

							}
, 							{
								"box" : 								{
									"bgcolor" : [ 0.854902, 0.839216, 0.917647, 1.0 ],
									"color" : [ 0.478431, 0.462745, 0.815686, 1.0 ],
									"fontface" : 0,
									"fontname" : "Verdana",
									"fontsize" : 14.0,
									"id" : "obj-1",
									"linecount" : 3,
									"maxclass" : "newobj",
									"numinlets" : 2,
									"numoutlets" : 4,
									"outlettype" : [ "", "", "int", "" ],
									"patching_rect" : [ 10.0, 177.0, 569.0, 60.0 ],
									"text" : "mubu.process key-soundset-corpus audio descr:chop @name descr @process 0 @progressoutput input @timetagged 1 @descr.winsize 3420 @descr.moments 2 @chop.size 145 @chop.mean 1",
									"textcolor" : [ 0.0, 0.0, 0.0, 1.0 ]
								}

							}
 ],
						"lines" : [ 							{
								"patchline" : 								{
									"destination" : [ "obj-13", 0 ],
									"order" : 1,
									"source" : [ "obj-1", 0 ]
								}

							}
, 							{
								"patchline" : 								{
									"destination" : [ "obj-19", 0 ],
									"source" : [ "obj-1", 3 ]
								}

							}
, 							{
								"patchline" : 								{
									"destination" : [ "obj-3", 0 ],
									"order" : 0,
									"source" : [ "obj-1", 0 ]
								}

							}
, 							{
								"patchline" : 								{
									"destination" : [ "obj-43", 0 ],
									"source" : [ "obj-14", 3 ]
								}

							}
, 							{
								"patchline" : 								{
									"destination" : [ "obj-43", 0 ],
									"source" : [ "obj-14", 2 ]
								}

							}
, 							{
								"patchline" : 								{
									"destination" : [ "obj-43", 0 ],
									"source" : [ "obj-14", 1 ]
								}

							}
, 							{
								"patchline" : 								{
									"destination" : [ "obj-43", 0 ],
									"source" : [ "obj-14", 0 ]
								}

							}
, 							{
								"patchline" : 								{
									"destination" : [ "obj-5", 0 ],
									"source" : [ "obj-15", 0 ]
								}

							}
, 							{
								"patchline" : 								{
									"destination" : [ "obj-15", 0 ],
									"source" : [ "obj-19", 1 ]
								}

							}
, 							{
								"patchline" : 								{
									"destination" : [ "obj-1", 0 ],
									"source" : [ "obj-2", 0 ]
								}

							}
, 							{
								"patchline" : 								{
									"destination" : [ "obj-14", 0 ],
									"source" : [ "obj-39", 0 ]
								}

							}
, 							{
								"patchline" : 								{
									"destination" : [ "obj-13", 0 ],
									"order" : 1,
									"source" : [ "obj-4", 0 ]
								}

							}
, 							{
								"patchline" : 								{
									"destination" : [ "obj-3", 0 ],
									"order" : 0,
									"source" : [ "obj-4", 0 ]
								}

							}
, 							{
								"patchline" : 								{
									"destination" : [ "obj-1", 0 ],
									"source" : [ "obj-43", 0 ]
								}

							}
, 							{
								"patchline" : 								{
									"destination" : [ "obj-58", 0 ],
									"source" : [ "obj-5", 0 ]
								}

							}
, 							{
								"patchline" : 								{
									"destination" : [ "obj-2", 0 ],
									"source" : [ "obj-60", 0 ]
								}

							}
 ]
					}
,
					"patching_rect" : [ 113.666663999999997, 186.0, 121.0, 22.0 ],
					"saved_object_attributes" : 					{
						"description" : "",
						"digest" : "",
						"fontname" : "Geneva",
						"fontsize" : 10.0,
						"globalpatchername" : "",
						"tags" : ""
					}
,
					"text" : "p descriptor-analysis"
				}

			}
, 			{
				"box" : 				{
					"fontname" : "Arial",
					"fontsize" : 12.0,
					"hidden" : 1,
					"id" : "obj-1",
					"maxclass" : "newobj",
					"numinlets" : 1,
					"numoutlets" : 0,
					"patching_rect" : [ 37.666663999999997, 159.0, 67.0, 22.0 ],
					"text" : "print mubu"
				}

			}
, 			{
				"box" : 				{
					"fontname" : "Arial",
					"fontsize" : 12.0,
					"id" : "obj-27",
					"maxclass" : "comment",
					"numinlets" : 1,
					"numoutlets" : 0,
					"patching_rect" : [ 557.5, 95.0, 110.0, 20.0 ],
					"text" : "refresh display"
				}

			}
, 			{
				"box" : 				{
					"id" : "obj-20",
					"maxclass" : "button",
					"numinlets" : 1,
					"numoutlets" : 1,
					"outlettype" : [ "bang" ],
					"parameter_enable" : 0,
					"patching_rect" : [ 571.0, 114.0, 24.0, 24.0 ]
				}

			}
, 			{
				"box" : 				{
					"fontname" : "Arial",
					"fontsize" : 12.0,
					"id" : "obj-3",
					"maxclass" : "message",
					"numinlets" : 2,
					"numoutlets" : 1,
					"outlettype" : [ "" ],
					"patching_rect" : [ 113.666663999999997, 133.0, 153.0, 22.0 ],
					"text" : "readappend @name audio"
				}

			}
, 			{
				"box" : 				{
					"fontname" : "Arial",
					"fontsize" : 12.0,
					"hidden" : 1,
					"id" : "obj-18",
					"maxclass" : "message",
					"numinlets" : 2,
					"numoutlets" : 1,
					"outlettype" : [ "" ],
					"patching_rect" : [ 327.666663999999969, 159.0, 46.0, 22.0 ],
					"text" : "printall"
				}

			}
, 			{
				"box" : 				{
					"fontname" : "Arial",
					"fontsize" : 12.0,
					"id" : "obj-6",
					"maxclass" : "newobj",
					"numinlets" : 1,
					"numoutlets" : 1,
					"outlettype" : [ "" ],
					"patching_rect" : [ 113.666663999999997, 159.0, 153.0, 22.0 ],
					"saved_object_attributes" : 					{
						"embed" : 0,
						"externalfiles" : 1,
						"parameter_enable" : 0,
						"parameter_mappable" : 0,
						"resamplefiles" : 0,
						"savegui" : 0,
						"snaprate" : 1000.0,
						"verbose" : 1
					}
,
					"text" : "mubu key-soundset-corpus"
				}

			}
, 			{
				"box" : 				{
					"id" : "obj-23",
					"local" : 1,
					"maxclass" : "ezdac~",
					"numinlets" : 2,
					"numoutlets" : 0,
					"patching_rect" : [ 154.666655999999989, 627.0, 45.0, 45.0 ]
				}

			}
, 			{
				"box" : 				{
					"color" : [ 0.5, 0.5, 0.5, 1.0 ],
					"fontname" : "Arial",
					"fontsize" : 14.0,
					"id" : "obj-30",
					"linecount" : 2,
					"maxclass" : "newobj",
					"numinlets" : 1,
					"numoutlets" : 3,
					"outlettype" : [ "signal", "signal", "" ],
					"patching_rect" : [ 113.666663999999997, 542.0, 424.99999200000002, 40.0 ],
					"saved_object_attributes" : 					{
						"outputstate" : 0,
						"resampleaudioinput" : 0
					}
,
					"text" : "mubu.concat~ 2 key-soundset-corpus @audio audio @markers descr @play 0 @autotrigger 1 @duplicatechannels 1"
				}

			}
, 			{
				"box" : 				{
					"fontname" : "Arial",
					"fontsize" : 12.0,
					"id" : "obj-22",
					"maxclass" : "message",
					"numinlets" : 2,
					"numoutlets" : 1,
					"outlettype" : [ "" ],
					"patching_rect" : [ 222.666655999999989, 513.0, 86.0, 22.0 ],
					"text" : "bufferindex $1"
				}

			}
, 			{
				"box" : 				{
					"fontname" : "Arial",
					"fontsize" : 12.0,
					"id" : "obj-24",
					"maxclass" : "comment",
					"numinlets" : 1,
					"numoutlets" : 0,
					"patching_rect" : [ 340.666655999999989, 464.0, 55.0, 20.0 ],
					"text" : "distance"
				}

			}
, 			{
				"box" : 				{
					"fontname" : "Arial",
					"fontsize" : 12.0,
					"id" : "obj-25",
					"maxclass" : "comment",
					"numinlets" : 1,
					"numoutlets" : 0,
					"patching_rect" : [ 232.666655999999989, 464.0, 73.0, 20.0 ],
					"text" : "buffer index"
				}

			}
, 			{
				"box" : 				{
					"fontname" : "Arial",
					"fontsize" : 12.0,
					"id" : "obj-26",
					"maxclass" : "comment",
					"numinlets" : 1,
					"numoutlets" : 0,
					"patching_rect" : [ 123.666663999999997, 464.0, 66.0, 20.0 ],
					"text" : "data index"
				}

			}
, 			{
				"box" : 				{
					"fontname" : "Arial",
					"fontsize" : 12.0,
					"format" : 6,
					"id" : "obj-28",
					"maxclass" : "flonum",
					"numinlets" : 1,
					"numoutlets" : 2,
					"outlettype" : [ "", "bang" ],
					"parameter_enable" : 0,
					"patching_rect" : [ 330.666655999999989, 484.0, 72.0, 22.0 ]
				}

			}
, 			{
				"box" : 				{
					"fontname" : "Arial",
					"fontsize" : 12.0,
					"id" : "obj-29",
					"maxclass" : "number",
					"numinlets" : 1,
					"numoutlets" : 2,
					"outlettype" : [ "", "bang" ],
					"parameter_enable" : 0,
					"patching_rect" : [ 222.666655999999989, 484.0, 50.0, 22.0 ]
				}

			}
, 			{
				"box" : 				{
					"id" : "obj-31",
					"maxclass" : "incdec",
					"numinlets" : 1,
					"numoutlets" : 1,
					"outlettype" : [ "float" ],
					"parameter_enable" : 0,
					"patching_rect" : [ 164.666655999999989, 484.0, 20.0, 20.0 ]
				}

			}
, 			{
				"box" : 				{
					"fontname" : "Arial",
					"fontsize" : 12.0,
					"id" : "obj-42",
					"maxclass" : "message",
					"numinlets" : 2,
					"numoutlets" : 1,
					"outlettype" : [ "" ],
					"patching_rect" : [ 113.666663999999997, 513.0, 93.0, 22.0 ],
					"text" : "markerindex $1"
				}

			}
, 			{
				"box" : 				{
					"fontname" : "Arial",
					"fontsize" : 12.0,
					"id" : "obj-45",
					"maxclass" : "number",
					"numinlets" : 1,
					"numoutlets" : 2,
					"outlettype" : [ "", "bang" ],
					"parameter_enable" : 0,
					"patching_rect" : [ 113.666663999999997, 484.0, 50.0, 22.0 ]
				}

			}
, 			{
				"box" : 				{
					"color" : [ 0.5, 0.5, 0.5, 1.0 ],
					"fontname" : "Arial",
					"fontsize" : 14.0,
					"id" : "obj-46",
					"maxclass" : "newobj",
					"numinlets" : 1,
					"numoutlets" : 4,
					"outlettype" : [ "list", "list", "list", "list" ],
					"patching_rect" : [ 113.666663999999997, 412.0, 347.0, 24.0 ],
					"text" : "mubu.knn key-soundset-corpus descr @radius 0 @k 1"
				}

			}
, 			{
				"box" : 				{
					"fontname" : "Arial",
					"fontsize" : 12.0,
					"hidden" : 1,
					"id" : "obj-56",
					"maxclass" : "newobj",
					"numinlets" : 3,
					"numoutlets" : 1,
					"outlettype" : [ "" ],
					"patcher" : 					{
						"fileversion" : 1,
						"appversion" : 						{
							"major" : 8,
							"minor" : 5,
							"revision" : 6,
							"architecture" : "x64",
							"modernui" : 1
						}
,
						"classnamespace" : "box",
						"rect" : [ 210.0, 619.0, 921.0, 529.0 ],
						"bglocked" : 0,
						"openinpresentation" : 0,
						"default_fontsize" : 12.0,
						"default_fontface" : 0,
						"default_fontname" : "Arial",
						"gridonopen" : 1,
						"gridsize" : [ 15.0, 15.0 ],
						"gridsnaponopen" : 1,
						"objectsnaponopen" : 1,
						"statusbarvisible" : 2,
						"toolbarvisible" : 1,
						"lefttoolbarpinned" : 0,
						"toptoolbarpinned" : 0,
						"righttoolbarpinned" : 0,
						"bottomtoolbarpinned" : 0,
						"toolbars_unpinned_last_save" : 0,
						"tallnewobj" : 0,
						"boxanimatetime" : 200,
						"enablehscroll" : 1,
						"enablevscroll" : 1,
						"devicewidth" : 0.0,
						"description" : "",
						"digest" : "",
						"tags" : "",
						"style" : "",
						"subpatcher_template" : "",
						"assistshowspatchername" : 0,
						"boxes" : [ 							{
								"box" : 								{
									"fontname" : "Arial",
									"fontsize" : 12.0,
									"id" : "obj-2",
									"maxclass" : "comment",
									"numinlets" : 1,
									"numoutlets" : 0,
									"patching_rect" : [ 319.600006000000008, 12.0, 81.0, 20.0 ],
									"text" : "to imubu"
								}

							}
, 							{
								"box" : 								{
									"comment" : "",
									"id" : "obj-4",
									"index" : 2,
									"maxclass" : "inlet",
									"numinlets" : 0,
									"numoutlets" : 1,
									"outlettype" : [ "" ],
									"patching_rect" : [ 319.600006000000008, 34.0, 30.0, 30.0 ]
								}

							}
, 							{
								"box" : 								{
									"fontname" : "Arial",
									"fontsize" : 12.0,
									"id" : "obj-13",
									"maxclass" : "comment",
									"numinlets" : 1,
									"numoutlets" : 0,
									"patching_rect" : [ 46.0, 7.0, 75.0, 20.0 ],
									"text" : "from refresh"
								}

							}
, 							{
								"box" : 								{
									"fontname" : "Arial",
									"fontsize" : 12.0,
									"id" : "obj-12",
									"maxclass" : "comment",
									"numinlets" : 1,
									"numoutlets" : 0,
									"patching_rect" : [ 89.600005999999993, 489.582885999999974, 57.0, 20.0 ],
									"text" : "to imubu"
								}

							}
, 							{
								"box" : 								{
									"fontname" : "Arial",
									"fontsize" : 12.0,
									"id" : "obj-11",
									"maxclass" : "comment",
									"numinlets" : 1,
									"numoutlets" : 0,
									"patching_rect" : [ 450.5, 12.0, 81.0, 20.0 ],
									"text" : "to view descr"
								}

							}
, 							{
								"box" : 								{
									"comment" : "",
									"id" : "obj-49",
									"index" : 3,
									"maxclass" : "inlet",
									"numinlets" : 0,
									"numoutlets" : 1,
									"outlettype" : [ "" ],
									"patching_rect" : [ 450.5, 34.0, 30.0, 30.0 ]
								}

							}
, 							{
								"box" : 								{
									"id" : "obj-6",
									"maxclass" : "button",
									"numinlets" : 1,
									"numoutlets" : 1,
									"outlettype" : [ "bang" ],
									"parameter_enable" : 0,
									"patching_rect" : [ 17.0, 278.0, 20.0, 20.0 ]
								}

							}
, 							{
								"box" : 								{
									"fontname" : "Arial",
									"fontsize" : 12.0,
									"id" : "obj-3",
									"maxclass" : "newobj",
									"numinlets" : 1,
									"numoutlets" : 0,
									"patching_rect" : [ 46.0, 278.0, 171.0, 22.0 ],
									"text" : "s key-soundset-corpus-refresh"
								}

							}
, 							{
								"box" : 								{
									"fontname" : "Arial",
									"fontsize" : 12.0,
									"id" : "obj-1",
									"maxclass" : "newobj",
									"numinlets" : 1,
									"numoutlets" : 1,
									"outlettype" : [ "" ],
									"patching_rect" : [ 96.0, 151.0, 57.0, 22.0 ],
									"text" : "deferlow"
								}

							}
, 							{
								"box" : 								{
									"id" : "obj-19",
									"maxclass" : "toggle",
									"numinlets" : 1,
									"numoutlets" : 1,
									"outlettype" : [ "int" ],
									"parameter_enable" : 0,
									"patching_rect" : [ 264.0, 217.275269000000009, 20.0, 20.0 ]
								}

							}
, 							{
								"box" : 								{
									"fontname" : "Arial",
									"fontsize" : 12.0,
									"id" : "obj-39",
									"maxclass" : "message",
									"numinlets" : 2,
									"numoutlets" : 1,
									"outlettype" : [ "" ],
									"patching_rect" : [ 264.0, 243.0, 110.0, 22.0 ],
									"text" : "allbuffersvisible $1"
								}

							}
, 							{
								"box" : 								{
									"fontname" : "Arial",
									"fontsize" : 12.0,
									"id" : "obj-101",
									"linecount" : 2,
									"maxclass" : "message",
									"numinlets" : 2,
									"numoutlets" : 1,
									"outlettype" : [ "" ],
									"patching_rect" : [ 133.199996999999996, 310.192383000000007, 378.0, 35.0 ],
									"text" : "interface scatterplot, domainalign, autobounds 1, paramdisplayrange fixedwidth 4 20, paramdisplayrange fixedheight 4 20"
								}

							}
, 							{
								"box" : 								{
									"fontname" : "Arial",
									"fontsize" : 12.0,
									"id" : "obj-125",
									"maxclass" : "newobj",
									"numinlets" : 1,
									"numoutlets" : 1,
									"outlettype" : [ "" ],
									"patching_rect" : [ 309.5, 380.0, 116.0, 22.0 ],
									"text" : "prepend view descr"
								}

							}
, 							{
								"box" : 								{
									"fontname" : "Arial",
									"fontsize" : 12.0,
									"id" : "obj-193",
									"maxclass" : "message",
									"numinlets" : 2,
									"numoutlets" : 1,
									"outlettype" : [ "" ],
									"patching_rect" : [ 204.5, 278.0, 221.0, 22.0 ],
									"text" : "view 0 hidenotforemost 1, domain reset"
								}

							}
, 							{
								"box" : 								{
									"fontname" : "Arial",
									"fontsize" : 12.0,
									"id" : "obj-213",
									"maxclass" : "message",
									"numinlets" : 2,
									"numoutlets" : 1,
									"outlettype" : [ "" ],
									"patching_rect" : [ 89.600005999999993, 380.0, 91.0, 22.0 ],
									"text" : "foremost descr"
								}

							}
, 							{
								"box" : 								{
									"fontname" : "Arial",
									"fontsize" : 12.0,
									"id" : "obj-214",
									"maxclass" : "newobj",
									"numinlets" : 1,
									"numoutlets" : 6,
									"outlettype" : [ "bang", "bang", "bang", "bang", "bang", "int" ],
									"patching_rect" : [ 46.0, 189.275269000000009, 237.0, 22.0 ],
									"text" : "t b b b b b 1"
								}

							}
, 							{
								"box" : 								{
									"fontname" : "Arial",
									"fontsize" : 12.0,
									"id" : "obj-215",
									"maxclass" : "newobj",
									"numinlets" : 1,
									"numoutlets" : 2,
									"outlettype" : [ "", "" ],
									"patching_rect" : [ 89.600005999999993, 420.0, 48.0, 22.0 ],
									"text" : "t l l"
								}

							}
, 							{
								"box" : 								{
									"id" : "obj-227",
									"maxclass" : "button",
									"numinlets" : 1,
									"numoutlets" : 1,
									"outlettype" : [ "bang" ],
									"parameter_enable" : 0,
									"patching_rect" : [ 46.0, 158.0, 20.0, 20.0 ]
								}

							}
, 							{
								"box" : 								{
									"fontname" : "Arial",
									"fontsize" : 12.0,
									"id" : "obj-232",
									"maxclass" : "comment",
									"numinlets" : 1,
									"numoutlets" : 0,
									"patching_rect" : [ 100.5, 122.0, 43.0, 20.0 ],
									"text" : "set up"
								}

							}
, 							{
								"box" : 								{
									"fontname" : "Arial",
									"fontsize" : 12.0,
									"id" : "obj-234",
									"maxclass" : "newobj",
									"numinlets" : 1,
									"numoutlets" : 1,
									"outlettype" : [ "" ],
									"patching_rect" : [ 46.0, 122.0, 57.0, 22.0 ],
									"text" : "deferlow"
								}

							}
, 							{
								"box" : 								{
									"id" : "obj-235",
									"maxclass" : "toggle",
									"numinlets" : 1,
									"numoutlets" : 1,
									"outlettype" : [ "int" ],
									"parameter_enable" : 0,
									"patching_rect" : [ 128.600006000000008, 457.582885999999974, 20.0, 20.0 ]
								}

							}
, 							{
								"box" : 								{
									"fontname" : "Arial",
									"fontsize" : 12.0,
									"id" : "obj-236",
									"maxclass" : "newobj",
									"numinlets" : 2,
									"numoutlets" : 1,
									"outlettype" : [ "" ],
									"patching_rect" : [ 148.600006000000008, 457.582885999999974, 35.0, 22.0 ],
									"text" : "gate"
								}

							}
, 							{
								"box" : 								{
									"fontname" : "Arial",
									"fontsize" : 12.0,
									"id" : "obj-237",
									"maxclass" : "newobj",
									"numinlets" : 1,
									"numoutlets" : 0,
									"patching_rect" : [ 178.600006000000008, 457.582885999999974, 68.0, 22.0 ],
									"text" : "print toed2"
								}

							}
, 							{
								"box" : 								{
									"comment" : "",
									"id" : "obj-5",
									"index" : 1,
									"maxclass" : "inlet",
									"numinlets" : 0,
									"numoutlets" : 1,
									"outlettype" : [ "bang" ],
									"patching_rect" : [ 46.0, 29.0, 30.0, 30.0 ]
								}

							}
, 							{
								"box" : 								{
									"comment" : "",
									"id" : "obj-9",
									"index" : 1,
									"maxclass" : "outlet",
									"numinlets" : 1,
									"numoutlets" : 0,
									"patching_rect" : [ 89.600005999999993, 457.582885999999974, 30.0, 30.0 ]
								}

							}
 ],
						"lines" : [ 							{
								"patchline" : 								{
									"destination" : [ "obj-227", 0 ],
									"source" : [ "obj-1", 0 ]
								}

							}
, 							{
								"patchline" : 								{
									"destination" : [ "obj-125", 0 ],
									"source" : [ "obj-101", 0 ]
								}

							}
, 							{
								"patchline" : 								{
									"destination" : [ "obj-215", 0 ],
									"source" : [ "obj-125", 0 ]
								}

							}
, 							{
								"patchline" : 								{
									"destination" : [ "obj-39", 0 ],
									"source" : [ "obj-19", 0 ]
								}

							}
, 							{
								"patchline" : 								{
									"destination" : [ "obj-215", 0 ],
									"source" : [ "obj-193", 0 ]
								}

							}
, 							{
								"patchline" : 								{
									"destination" : [ "obj-215", 0 ],
									"source" : [ "obj-213", 0 ]
								}

							}
, 							{
								"patchline" : 								{
									"destination" : [ "obj-101", 0 ],
									"source" : [ "obj-214", 2 ]
								}

							}
, 							{
								"patchline" : 								{
									"destination" : [ "obj-19", 0 ],
									"source" : [ "obj-214", 5 ]
								}

							}
, 							{
								"patchline" : 								{
									"destination" : [ "obj-193", 0 ],
									"source" : [ "obj-214", 3 ]
								}

							}
, 							{
								"patchline" : 								{
									"destination" : [ "obj-213", 0 ],
									"source" : [ "obj-214", 1 ]
								}

							}
, 							{
								"patchline" : 								{
									"destination" : [ "obj-3", 0 ],
									"source" : [ "obj-214", 4 ]
								}

							}
, 							{
								"patchline" : 								{
									"destination" : [ "obj-3", 0 ],
									"source" : [ "obj-214", 0 ]
								}

							}
, 							{
								"patchline" : 								{
									"destination" : [ "obj-236", 1 ],
									"source" : [ "obj-215", 1 ]
								}

							}
, 							{
								"patchline" : 								{
									"destination" : [ "obj-9", 0 ],
									"source" : [ "obj-215", 0 ]
								}

							}
, 							{
								"patchline" : 								{
									"destination" : [ "obj-214", 0 ],
									"source" : [ "obj-227", 0 ]
								}

							}
, 							{
								"patchline" : 								{
									"destination" : [ "obj-1", 0 ],
									"order" : 0,
									"source" : [ "obj-234", 0 ]
								}

							}
, 							{
								"patchline" : 								{
									"destination" : [ "obj-227", 0 ],
									"order" : 1,
									"source" : [ "obj-234", 0 ]
								}

							}
, 							{
								"patchline" : 								{
									"destination" : [ "obj-236", 0 ],
									"source" : [ "obj-235", 0 ]
								}

							}
, 							{
								"patchline" : 								{
									"destination" : [ "obj-237", 0 ],
									"source" : [ "obj-236", 0 ]
								}

							}
, 							{
								"patchline" : 								{
									"destination" : [ "obj-125", 0 ],
									"source" : [ "obj-39", 0 ]
								}

							}
, 							{
								"patchline" : 								{
									"destination" : [ "obj-215", 0 ],
									"source" : [ "obj-4", 0 ]
								}

							}
, 							{
								"patchline" : 								{
									"destination" : [ "obj-125", 0 ],
									"source" : [ "obj-49", 0 ]
								}

							}
, 							{
								"patchline" : 								{
									"destination" : [ "obj-234", 0 ],
									"source" : [ "obj-5", 0 ]
								}

							}
, 							{
								"patchline" : 								{
									"destination" : [ "obj-3", 0 ],
									"source" : [ "obj-6", 0 ]
								}

							}
 ]
					}
,
					"patching_rect" : [ 565.0, 138.0, 87.0, 22.0 ],
					"saved_object_attributes" : 					{
						"description" : "",
						"digest" : "",
						"globalpatchername" : "",
						"tags" : ""
					}
,
					"text" : "p imubu-setup"
				}

			}
, 			{
				"box" : 				{
					"background" : 1,
					"bgcolor" : [ 1.0, 0.788235, 0.470588, 1.0 ],
					"fontface" : 1,
					"hint" : "",
					"id" : "obj-64",
					"ignoreclick" : 1,
					"legacytextcolor" : 1,
					"maxclass" : "textbutton",
					"numinlets" : 1,
					"numoutlets" : 3,
					"outlettype" : [ "", "", "int" ],
					"parameter_enable" : 0,
					"patching_rect" : [ 514.666655999999989, 227.0, 20.0, 20.0 ],
					"rounded" : 60.0,
					"text" : "3",
					"textcolor" : [ 0.34902, 0.34902, 0.34902, 1.0 ]
				}

			}
, 			{
				"box" : 				{
					"background" : 1,
					"bgcolor" : [ 1.0, 0.788235, 0.470588, 1.0 ],
					"fontface" : 1,
					"hint" : "",
					"id" : "obj-62",
					"ignoreclick" : 1,
					"legacytextcolor" : 1,
					"maxclass" : "textbutton",
					"numinlets" : 1,
					"numoutlets" : 3,
					"outlettype" : [ "", "", "int" ],
					"parameter_enable" : 0,
					"patching_rect" : [ 226.0, 606.0, 20.0, 20.0 ],
					"rounded" : 60.0,
					"text" : "2",
					"textcolor" : [ 0.34902, 0.34902, 0.34902, 1.0 ]
				}

			}
, 			{
				"box" : 				{
					"bgcolor" : [ 1.0, 1.0, 1.0, 1.0 ],
					"id" : "obj-13",
					"maxclass" : "multislider",
					"numinlets" : 1,
					"numoutlets" : 2,
					"orientation" : 0,
					"outlettype" : [ "", "" ],
					"parameter_enable" : 0,
					"patching_rect" : [ 235.666663999999969, 189.0, 121.0, 19.0 ],
					"setminmax" : [ 0.0, 1.0 ],
					"setstyle" : 1,
					"slidercolor" : [ 0.516304, 0.516304, 0.516304, 1.0 ],
					"spacing" : 1
				}

			}
, 			{
				"box" : 				{
					"background" : 1,
					"bgcolor" : [ 1.0, 0.788235, 0.470588, 1.0 ],
					"fontface" : 1,
					"hint" : "",
					"id" : "obj-58",
					"ignoreclick" : 1,
					"legacytextcolor" : 1,
					"maxclass" : "textbutton",
					"numinlets" : 1,
					"numoutlets" : 3,
					"outlettype" : [ "", "", "int" ],
					"parameter_enable" : 0,
					"patching_rect" : [ 1193.5, 623.0, 20.0, 20.0 ],
					"rounded" : 60.0,
					"text" : "4",
					"textcolor" : [ 0.34902, 0.34902, 0.34902, 1.0 ]
				}

			}
, 			{
				"box" : 				{
					"background" : 1,
					"bgcolor" : [ 1.0, 0.788235, 0.470588, 1.0 ],
					"fontface" : 1,
					"hint" : "",
					"id" : "obj-21",
					"ignoreclick" : 1,
					"legacytextcolor" : 1,
					"maxclass" : "textbutton",
					"numinlets" : 1,
					"numoutlets" : 3,
					"outlettype" : [ "", "", "int" ],
					"parameter_enable" : 0,
					"patching_rect" : [ 514.666655999999989, 283.5, 20.0, 20.0 ],
					"rounded" : 60.0,
					"text" : "5",
					"textcolor" : [ 0.34902, 0.34902, 0.34902, 1.0 ]
				}

			}
, 			{
				"box" : 				{
					"angle" : 0.0,
					"background" : 1,
					"bgcolor" : [ 0.898039215686275, 0.898039215686275, 0.898039215686275, 1.0 ],
					"border" : 5,
					"bordercolor" : [ 0.99082624912262, 0.417732149362564, 0.035001322627068, 1.0 ],
					"id" : "obj-60",
					"maxclass" : "panel",
					"mode" : 0,
					"numinlets" : 1,
					"numoutlets" : 0,
					"patching_rect" : [ 109.166663999999969, 213.474953881168403, 235.0, 97.025046118831597 ],
					"presentation" : 1,
					"presentation_rect" : [ 597.317565999999943, 408.0, 183.349090999999987, 94.0 ],
					"proportion" : 0.39,
					"rounded" : 24
				}

			}
, 			{
				"box" : 				{
					"background" : 1,
					"bgcolor" : [ 1.0, 0.788235, 0.470588, 1.0 ],
					"fontface" : 1,
					"hint" : "",
					"id" : "obj-74",
					"ignoreclick" : 1,
					"legacytextcolor" : 1,
					"maxclass" : "textbutton",
					"numinlets" : 1,
					"numoutlets" : 3,
					"outlettype" : [ "", "", "int" ],
					"parameter_enable" : 0,
					"patching_rect" : [ 455.666663999999969, 107.0, 20.0, 20.0 ],
					"rounded" : 60.0,
					"text" : "1",
					"textcolor" : [ 0.34902, 0.34902, 0.34902, 1.0 ]
				}

			}
, 			{
				"box" : 				{
					"hidden" : 1,
					"id" : "obj-11",
					"maxclass" : "newobj",
					"numinlets" : 2,
					"numoutlets" : 1,
					"outlettype" : [ "" ],
					"patching_rect" : [ 384.666663999999969, 171.200012000000015, 48.0, 22.0 ],
					"text" : "pak 1 2"
				}

			}
, 			{
				"box" : 				{
					"fontname" : "Arial",
					"fontsize" : 12.0,
					"hidden" : 1,
					"id" : "obj-39",
					"maxclass" : "comment",
					"numinlets" : 1,
					"numoutlets" : 0,
					"patching_rect" : [ 438.50000799999998, 171.200012000000015, 129.0, 20.0 ],
					"text" : "descriptor choices x, y"
				}

			}
, 			{
				"box" : 				{
					"fontname" : "Arial",
					"fontsize" : 12.0,
					"id" : "obj-41",
					"maxclass" : "newobj",
					"numinlets" : 4,
					"numoutlets" : 2,
					"outlettype" : [ "", "" ],
					"patching_rect" : [ 149.666655999999989, 383.200012000000015, 261.0, 22.0 ],
					"text" : "camu.imubu.control key-soundset-corpus descr"
				}

			}
 ],
		"lines" : [ 			{
				"patchline" : 				{
					"destination" : [ "obj-2", 2 ],
					"hidden" : 1,
					"source" : [ "obj-10", 0 ]
				}

			}
, 			{
				"patchline" : 				{
					"destination" : [ "obj-41", 2 ],
					"hidden" : 1,
					"source" : [ "obj-11", 0 ]
				}

			}
, 			{
				"patchline" : 				{
					"color" : [ 0.990415692329407, 0.500269114971161, 0.032865822315216, 1.0 ],
					"destination" : [ "obj-20", 0 ],
					"midpoints" : [ 127.166663999999997, 261.5, 558.833331999999928, 261.5, 558.833331999999928, 113.0, 580.5, 113.0 ],
					"source" : [ "obj-12", 0 ]
				}

			}
, 			{
				"patchline" : 				{
					"destination" : [ "obj-216", 0 ],
					"hidden" : 1,
					"source" : [ "obj-131", 1 ]
				}

			}
, 			{
				"patchline" : 				{
					"destination" : [ "obj-46", 0 ],
					"hidden" : 1,
					"source" : [ "obj-131", 0 ]
				}

			}
, 			{
				"patchline" : 				{
					"destination" : [ "obj-11", 0 ],
					"hidden" : 1,
					"source" : [ "obj-17", 0 ]
				}

			}
, 			{
				"patchline" : 				{
					"destination" : [ "obj-56", 1 ],
					"hidden" : 1,
					"source" : [ "obj-17", 1 ]
				}

			}
, 			{
				"patchline" : 				{
					"destination" : [ "obj-6", 0 ],
					"hidden" : 1,
					"source" : [ "obj-18", 0 ]
				}

			}
, 			{
				"patchline" : 				{
					"destination" : [ "obj-6", 0 ],
					"source" : [ "obj-19", 0 ]
				}

			}
, 			{
				"patchline" : 				{
					"destination" : [ "obj-29", 0 ],
					"source" : [ "obj-2", 1 ]
				}

			}
, 			{
				"patchline" : 				{
					"destination" : [ "obj-45", 0 ],
					"order" : 0,
					"source" : [ "obj-2", 0 ]
				}

			}
, 			{
				"patchline" : 				{
					"destination" : [ "obj-47", 0 ],
					"order" : 1,
					"source" : [ "obj-2", 0 ]
				}

			}
, 			{
				"patchline" : 				{
					"destination" : [ "obj-56", 0 ],
					"hidden" : 1,
					"source" : [ "obj-20", 0 ]
				}

			}
, 			{
				"patchline" : 				{
					"destination" : [ "obj-30", 0 ],
					"midpoints" : [ 232.166655999999989, 538.0, 123.166663999999997, 538.0 ],
					"source" : [ "obj-22", 0 ]
				}

			}
, 			{
				"patchline" : 				{
					"destination" : [ "obj-22", 0 ],
					"order" : 1,
					"source" : [ "obj-29", 0 ]
				}

			}
, 			{
				"patchline" : 				{
					"destination" : [ "obj-241", 0 ],
					"hidden" : 1,
					"order" : 0,
					"source" : [ "obj-29", 0 ]
				}

			}
, 			{
				"patchline" : 				{
					"destination" : [ "obj-6", 0 ],
					"hidden" : 1,
					"source" : [ "obj-3", 0 ]
				}

			}
, 			{
				"patchline" : 				{
					"destination" : [ "obj-67", 1 ],
					"midpoints" : [ 326.166659999999979, 584.5, 142.166663999999997, 584.5 ],
					"source" : [ "obj-30", 1 ]
				}

			}
, 			{
				"patchline" : 				{
					"destination" : [ "obj-67", 0 ],
					"source" : [ "obj-30", 0 ]
				}

			}
, 			{
				"patchline" : 				{
					"destination" : [ "obj-45", 0 ],
					"hidden" : 1,
					"source" : [ "obj-31", 0 ]
				}

			}
, 			{
				"patchline" : 				{
					"destination" : [ "obj-6", 0 ],
					"hidden" : 1,
					"source" : [ "obj-32", 0 ]
				}

			}
, 			{
				"patchline" : 				{
					"destination" : [ "obj-82", 0 ],
					"hidden" : 1,
					"source" : [ "obj-33", 0 ]
				}

			}
, 			{
				"patchline" : 				{
					"destination" : [ "obj-46", 0 ],
					"source" : [ "obj-41", 0 ]
				}

			}
, 			{
				"patchline" : 				{
					"destination" : [ "obj-59", 0 ],
					"hidden" : 1,
					"source" : [ "obj-41", 1 ]
				}

			}
, 			{
				"patchline" : 				{
					"destination" : [ "obj-30", 0 ],
					"source" : [ "obj-42", 0 ]
				}

			}
, 			{
				"patchline" : 				{
					"destination" : [ "obj-11", 1 ],
					"hidden" : 1,
					"source" : [ "obj-43", 0 ]
				}

			}
, 			{
				"patchline" : 				{
					"destination" : [ "obj-56", 1 ],
					"hidden" : 1,
					"source" : [ "obj-43", 1 ]
				}

			}
, 			{
				"patchline" : 				{
					"destination" : [ "obj-240", 0 ],
					"hidden" : 1,
					"order" : 0,
					"source" : [ "obj-45", 0 ]
				}

			}
, 			{
				"patchline" : 				{
					"destination" : [ "obj-31", 0 ],
					"hidden" : 1,
					"order" : 1,
					"source" : [ "obj-45", 0 ]
				}

			}
, 			{
				"patchline" : 				{
					"destination" : [ "obj-42", 0 ],
					"order" : 2,
					"source" : [ "obj-45", 0 ]
				}

			}
, 			{
				"patchline" : 				{
					"destination" : [ "obj-2", 1 ],
					"midpoints" : [ 232.49999733333334, 439.0, 159.611111999999991, 439.0 ],
					"source" : [ "obj-46", 1 ]
				}

			}
, 			{
				"patchline" : 				{
					"destination" : [ "obj-2", 0 ],
					"source" : [ "obj-46", 0 ]
				}

			}
, 			{
				"patchline" : 				{
					"destination" : [ "obj-28", 0 ],
					"source" : [ "obj-46", 2 ]
				}

			}
, 			{
				"patchline" : 				{
					"destination" : [ "obj-41", 1 ],
					"midpoints" : [ 451.166663999999969, 446.0, 506.666659999999979, 446.0, 506.666659999999979, 378.200012000000015, 239.833322666666675, 378.200012000000015 ],
					"source" : [ "obj-46", 3 ]
				}

			}
, 			{
				"patchline" : 				{
					"destination" : [ "obj-10", 0 ],
					"hidden" : 1,
					"source" : [ "obj-5", 0 ]
				}

			}
, 			{
				"patchline" : 				{
					"destination" : [ "obj-56", 1 ],
					"hidden" : 1,
					"source" : [ "obj-54", 1 ]
				}

			}
, 			{
				"patchline" : 				{
					"destination" : [ "obj-56", 1 ],
					"hidden" : 1,
					"source" : [ "obj-55", 1 ]
				}

			}
, 			{
				"patchline" : 				{
					"destination" : [ "obj-216", 0 ],
					"hidden" : 1,
					"source" : [ "obj-56", 0 ]
				}

			}
, 			{
				"patchline" : 				{
					"destination" : [ "obj-41", 3 ],
					"hidden" : 1,
					"source" : [ "obj-59", 0 ]
				}

			}
, 			{
				"patchline" : 				{
					"destination" : [ "obj-1", 0 ],
					"hidden" : 1,
					"order" : 1,
					"source" : [ "obj-6", 0 ]
				}

			}
, 			{
				"patchline" : 				{
					"destination" : [ "obj-69", 0 ],
					"order" : 0,
					"source" : [ "obj-6", 0 ]
				}

			}
, 			{
				"patchline" : 				{
					"destination" : [ "obj-23", 1 ],
					"hidden" : 1,
					"source" : [ "obj-67", 1 ]
				}

			}
, 			{
				"patchline" : 				{
					"destination" : [ "obj-23", 0 ],
					"hidden" : 1,
					"source" : [ "obj-67", 0 ]
				}

			}
, 			{
				"patchline" : 				{
					"color" : [ 0.990415692329407, 0.500269114971161, 0.032865822315216, 1.0 ],
					"destination" : [ "obj-12", 0 ],
					"midpoints" : [ 225.166663999999997, 210.75, 127.166663999999997, 210.75 ],
					"order" : 2,
					"source" : [ "obj-69", 1 ]
				}

			}
, 			{
				"patchline" : 				{
					"destination" : [ "obj-13", 0 ],
					"hidden" : 1,
					"midpoints" : [ 123.166663999999997, 218.0, 123.166663999999969, 218.0, 123.166663999999969, 189.499985000000009, 245.166663999999969, 189.499985000000009 ],
					"source" : [ "obj-69", 0 ]
				}

			}
, 			{
				"patchline" : 				{
					"destination" : [ "obj-131", 0 ],
					"hidden" : 1,
					"order" : 1,
					"source" : [ "obj-69", 1 ]
				}

			}
, 			{
				"patchline" : 				{
					"destination" : [ "obj-20", 0 ],
					"hidden" : 1,
					"midpoints" : [ 225.166663999999997, 210.0, 559.0, 210.0, 559.0, 113.0, 580.5, 113.0 ],
					"order" : 0,
					"source" : [ "obj-69", 1 ]
				}

			}
, 			{
				"patchline" : 				{
					"destination" : [ "obj-6", 0 ],
					"hidden" : 1,
					"source" : [ "obj-70", 0 ]
				}

			}
, 			{
				"patchline" : 				{
					"destination" : [ "obj-69", 0 ],
					"hidden" : 1,
					"source" : [ "obj-72", 0 ]
				}

			}
, 			{
				"patchline" : 				{
					"destination" : [ "obj-19", 0 ],
					"hidden" : 1,
					"source" : [ "obj-8", 0 ]
				}

			}
, 			{
				"patchline" : 				{
					"destination" : [ "obj-30", 0 ],
					"midpoints" : [ 123.166663999999997, 378.000013000000024, 106.666669999999996, 378.000013000000024, 106.666669999999996, 538.333351999999991, 123.166663999999997, 538.333351999999991 ],
					"source" : [ "obj-81", 0 ]
				}

			}
, 			{
				"patchline" : 				{
					"destination" : [ "obj-81", 0 ],
					"source" : [ "obj-82", 0 ]
				}

			}
, 			{
				"patchline" : 				{
					"destination" : [ "obj-29", 0 ],
					"hidden" : 1,
					"source" : [ "obj-9", 1 ]
				}

			}
, 			{
				"patchline" : 				{
					"destination" : [ "obj-45", 0 ],
					"hidden" : 1,
					"source" : [ "obj-9", 0 ]
				}

			}
 ],
		"parameters" : 		{
			"obj-17::obj-113" : [ "umenu", "umenu", 0 ],
			"obj-43::obj-113" : [ "umenu[1]", "umenu", 0 ],
			"obj-54::obj-113" : [ "umenu[2]", "umenu", 0 ],
			"obj-55::obj-113" : [ "umenu[3]", "umenu", 0 ],
			"obj-67" : [ "live.gain~", "live.gain~", 0 ],
			"parameterbanks" : 			{
				"0" : 				{
					"index" : 0,
					"name" : "",
					"parameters" : [ "-", "-", "-", "-", "-", "-", "-", "-" ]
				}

			}
,
			"parameter_overrides" : 			{
				"obj-17::obj-113" : 				{
					"parameter_invisible" : 0,
					"parameter_modmode" : 0,
					"parameter_unitstyle" : 10
				}
,
				"obj-43::obj-113" : 				{
					"parameter_invisible" : 0,
					"parameter_modmode" : 0,
					"parameter_unitstyle" : 10
				}
,
				"obj-54::obj-113" : 				{
					"parameter_invisible" : 0,
					"parameter_modmode" : 0,
					"parameter_unitstyle" : 10
				}
,
				"obj-55::obj-113" : 				{
					"parameter_invisible" : 0,
					"parameter_modmode" : 0,
					"parameter_unitstyle" : 10
				}

			}
,
			"inherited_shortname" : 1
		}
,
		"dependency_cache" : [ 			{
				"name" : "camu.debug.maxpat",
				"bootpath" : "~/src/catart-mubu/patchers/lib",
				"patcherrelativepath" : "../lib",
				"type" : "JSON",
				"implicit" : 1
			}
, 			{
				"name" : "camu.imubu.control.maxpat",
				"bootpath" : "~/src/catart-mubu/patchers/lib",
				"patcherrelativepath" : "../lib",
				"type" : "JSON",
				"implicit" : 1
			}
, 			{
				"name" : "camu.key.select.maxpat",
				"bootpath" : "~/src/catart-mubu/patchers/lib",
				"patcherrelativepath" : "../lib",
				"type" : "JSON",
				"implicit" : 1
			}
, 			{
				"name" : "camu.key.soundset.maxpat",
				"bootpath" : "~/src/catart-mubu/patchers/lib",
				"patcherrelativepath" : "../lib",
				"type" : "JSON",
				"implicit" : 1
			}
, 			{
				"name" : "camu.menu.maxpat",
				"bootpath" : "~/src/catart-mubu/patchers/lib",
				"patcherrelativepath" : "../lib",
				"type" : "JSON",
				"implicit" : 1
			}
, 			{
				"name" : "camu.random.maxpat",
				"bootpath" : "~/src/catart-mubu/patchers/lib",
				"patcherrelativepath" : "../lib",
				"type" : "JSON",
				"implicit" : 1
			}
, 			{
				"name" : "camu.target.maxpat",
				"bootpath" : "~/src/catart-mubu/patchers/lib",
				"patcherrelativepath" : "../lib",
				"type" : "JSON",
				"implicit" : 1
			}
, 			{
				"name" : "camu.triggermode.maxpat",
				"bootpath" : "~/src/catart-mubu/patchers/lib",
				"patcherrelativepath" : "../lib",
				"type" : "JSON",
				"implicit" : 1
			}
, 			{
				"name" : "helpname_camu.js",
				"bootpath" : "~/src/catart-mubu/patchers/help",
				"patcherrelativepath" : ".",
				"type" : "TEXT",
				"implicit" : 1
			}
, 			{
				"name" : "imubu.mxo",
				"type" : "iLaX"
			}
, 			{
				"name" : "mubu.concat~.mxo",
				"type" : "iLaX"
			}
, 			{
				"name" : "mubu.knn.mxo",
				"type" : "iLaX"
			}
, 			{
				"name" : "mubu.mxo",
				"type" : "iLaX"
			}
, 			{
				"name" : "mubu.process.mxo",
				"type" : "iLaX"
			}
, 			{
				"name" : "mubu.track.mxo",
				"type" : "iLaX"
			}
 ],
		"autosave" : 0
	}

}
