{
    "patcher": {
        "fileversion": 1,
        "appversion": {
            "major": 9,
            "minor": 2,
            "revision": 0,
            "architecture": "x64",
            "modernui": 1
        },
        "classnamespace": "box",
        "rect": [ 34.0, 87.0, 956.0, 600.0 ],
        "gridsize": [ 5.0, 5.0 ],
        "boxes": [
            {
                "box": {
                    "fontname": "Arial",
                    "fontsize": 12.0,
                    "id": "obj-17",
                    "linecount": 2,
                    "maxclass": "comment",
                    "numinlets": 1,
                    "numoutlets": 0,
                    "patching_rect": [ 667.0, 298.5, 125.0, 33.0 ],
                    "text": "choose output format [default: short]"
                }
            },
            {
                "box": {
                    "id": "obj-13",
                    "maxclass": "comment",
                    "numinlets": 1,
                    "numoutlets": 0,
                    "patching_rect": [ 78.0, 465.0, 574.0, 20.0 ],
                    "text": "26 202 0.93"
                }
            },
            {
                "box": {
                    "id": "obj-9",
                    "maxclass": "newobj",
                    "numinlets": 1,
                    "numoutlets": 1,
                    "outlettype": [ "" ],
                    "patching_rect": [ 78.0, 428.0, 72.0, 22.0 ],
                    "text": "prepend set"
                }
            },
            {
                "box": {
                    "fontname": "Arial",
                    "fontsize": 12.0,
                    "id": "obj-8",
                    "maxclass": "message",
                    "numinlets": 2,
                    "numoutlets": 1,
                    "outlettype": [ "" ],
                    "patching_rect": [ 74.0, 95.0, 351.0, 22.0 ],
                    "text": "readfolder C74:/media @name audio @recursive 1 @type audio"
                }
            },
            {
                "box": {
                    "id": "obj-20",
                    "maxclass": "button",
                    "numinlets": 1,
                    "numoutlets": 1,
                    "outlettype": [ "bang" ],
                    "parameter_enable": 0,
                    "patching_rect": [ 78.0, 350.0, 24.0, 24.0 ]
                }
            },
            {
                "box": {
                    "id": "obj-15",
                    "maxclass": "message",
                    "numinlets": 2,
                    "numoutlets": 1,
                    "outlettype": [ "" ],
                    "patching_rect": [ 461.0, 346.0, 59.0, 22.0 ],
                    "text": "format $1"
                }
            },
            {
                "box": {
                    "fontsize": 12.0,
                    "id": "obj-83",
                    "maxclass": "live.tab",
                    "num_lines_patching": 1,
                    "num_lines_presentation": 0,
                    "numinlets": 1,
                    "numoutlets": 3,
                    "outlettype": [ "", "", "float" ],
                    "parameter_enable": 1,
                    "patching_rect": [ 461.0, 302.0, 191.0, 26.0 ],
                    "saved_attribute_attributes": {
                        "valueof": {
                            "parameter_enum": [ "list", "short", "long" ],
                            "parameter_longname": "live.tab[1]",
                            "parameter_mmax": 2,
                            "parameter_modmode": 0,
                            "parameter_shortname": "live.tab[8]",
                            "parameter_type": 2,
                            "parameter_unitstyle": 9
                        }
                    },
                    "varname": "live.tab"
                }
            },
            {
                "box": {
                    "color": [ 1.0, 0.490196078431373, 0.262745098039216, 1.0 ],
                    "fontname": "Arial",
                    "fontsize": 16.0,
                    "id": "obj-10",
                    "maxclass": "newobj",
                    "numinlets": 1,
                    "numoutlets": 1,
                    "outlettype": [ "" ],
                    "patching_rect": [ 78.0, 389.0, 581.0, 26.0 ],
                    "text": "camu.content-summary content-summary-help-corpus audio descr @format long",
                    "varname": "camu.analysis[1]"
                }
            },
            {
                "box": {
                    "hidden": 1,
                    "id": "obj-4",
                    "maxclass": "newobj",
                    "numinlets": 1,
                    "numoutlets": 1,
                    "outlettype": [ "" ],
                    "patching_rect": [ 10.0, 123.0, 60.0, 22.0 ],
                    "text": "deferlow"
                }
            },
            {
                "box": {
                    "allowdrag": 0,
                    "id": "obj-37",
                    "items": [ "analysis", ",", "descr-none", ",", "descr-onseg", ",", "descr-chop", ",", "descr-gate", ",", "descr-yin" ],
                    "maxclass": "umenu",
                    "numinlets": 1,
                    "numoutlets": 3,
                    "outlettype": [ "int", "", "" ],
                    "parameter_enable": 0,
                    "patching_rect": [ 329.0, 220.0, 96.0, 22.0 ],
                    "pattrmode": 1,
                    "presentation": 1,
                    "presentation_rect": [ 16.0, 16.0, 119.0, 22.0 ],
                    "varname": "segmentation"
                }
            },
            {
                "box": {
                    "fontname": "Arial",
                    "fontsize": 12.0,
                    "id": "obj-18",
                    "linecount": 2,
                    "maxclass": "comment",
                    "numinlets": 1,
                    "numoutlets": 0,
                    "patching_rect": [ 91.0, 281.0, 326.0, 33.0 ],
                    "text": "connect output of camu.analysis so the summary updates when files/folders are loaded"
                }
            },
            {
                "box": {
                    "fontname": "Arial",
                    "fontsize": 12.0,
                    "id": "obj-16",
                    "linecount": 2,
                    "maxclass": "comment",
                    "numinlets": 1,
                    "numoutlets": 0,
                    "patching_rect": [ 667.0, 385.0, 225.0, 33.0 ],
                    "text": "arguments: mubu name, audio input track, descriptor output track"
                }
            },
            {
                "box": {
                    "hidden": 1,
                    "id": "obj-41",
                    "maxclass": "message",
                    "numinlets": 2,
                    "numoutlets": 1,
                    "outlettype": [ "" ],
                    "patching_rect": [ 329.0, 192.0, 52.0, 22.0 ],
                    "text": "dump, 2"
                }
            },
            {
                "box": {
                    "hidden": 1,
                    "id": "obj-14",
                    "maxclass": "newobj",
                    "numinlets": 1,
                    "numoutlets": 1,
                    "outlettype": [ "bang" ],
                    "patching_rect": [ 329.0, 163.0, 58.0, 22.0 ],
                    "text": "loadbang"
                }
            },
            {
                "box": {
                    "id": "obj-5",
                    "maxclass": "comment",
                    "numinlets": 1,
                    "numoutlets": 0,
                    "patching_rect": [ 105.0, 350.0, 99.0, 20.0 ],
                    "text": "bang for output"
                }
            },
            {
                "box": {
                    "fontsize": 13.0,
                    "id": "obj-68",
                    "maxclass": "comment",
                    "numinlets": 1,
                    "numoutlets": 0,
                    "patching_rect": [ 74.0, 60.0, 394.0, 21.0 ],
                    "text": "output summary of corpus content"
                }
            },
            {
                "box": {
                    "border": 0,
                    "filename": "helpname_camu.js",
                    "id": "obj-25",
                    "ignoreclick": 1,
                    "jsarguments": [ "camu.content-summary" ],
                    "maxclass": "jsui",
                    "numinlets": 1,
                    "numoutlets": 1,
                    "outlettype": [ "" ],
                    "parameter_enable": 0,
                    "patching_rect": [ 10.0, 10.0, 569.7118530273438, 57.599853515625 ]
                }
            },
            {
                "box": {
                    "fontname": "Arial",
                    "fontsize": 12.0,
                    "id": "obj-2",
                    "maxclass": "comment",
                    "numinlets": 1,
                    "numoutlets": 0,
                    "patching_rect": [ 115.0, 217.0, 104.0, 20.0 ],
                    "text": "bang to reanalyse"
                }
            },
            {
                "box": {
                    "fontname": "Arial",
                    "fontsize": 12.0,
                    "id": "obj-32",
                    "maxclass": "message",
                    "numinlets": 2,
                    "numoutlets": 1,
                    "outlettype": [ "" ],
                    "patching_rect": [ 236.0, 123.0, 286.0, 22.0 ],
                    "text": "readfolder @name audio @recursive 1 @type audio"
                }
            },
            {
                "box": {
                    "hidden": 1,
                    "id": "obj-48",
                    "maxclass": "newobj",
                    "numinlets": 1,
                    "numoutlets": 1,
                    "outlettype": [ "bang" ],
                    "patching_rect": [ 10.0, 95.0, 60.0, 22.0 ],
                    "text": "loadbang"
                }
            },
            {
                "box": {
                    "id": "obj-72",
                    "maxclass": "button",
                    "numinlets": 1,
                    "numoutlets": 1,
                    "outlettype": [ "bang" ],
                    "parameter_enable": 0,
                    "patching_rect": [ 91.0, 217.0, 20.0, 20.0 ]
                }
            },
            {
                "box": {
                    "fontname": "Arial",
                    "fontsize": 12.0,
                    "id": "obj-70",
                    "maxclass": "message",
                    "numinlets": 2,
                    "numoutlets": 1,
                    "outlettype": [ "" ],
                    "patching_rect": [ 289.0, 152.0, 49.0, 22.0 ],
                    "presentation": 1,
                    "presentation_rect": [ 276.0, 167.0, 49.0, 22.0 ],
                    "text": "clearall"
                }
            },
            {
                "box": {
                    "fontface": 0,
                    "fontsize": 12.0,
                    "id": "obj-69",
                    "maxclass": "newobj",
                    "numinlets": 2,
                    "numoutlets": 2,
                    "outlettype": [ "bang", "" ],
                    "patching_rect": [ 78.0, 257.0, 347.0, 22.0 ],
                    "text": "camu.analysis content-summary-help-corpus audio descr",
                    "varname": "camu.analysis"
                }
            },
            {
                "box": {
                    "fontname": "Arial",
                    "fontsize": 12.0,
                    "id": "obj-1",
                    "maxclass": "newobj",
                    "numinlets": 1,
                    "numoutlets": 0,
                    "patching_rect": [ 91.0, 182.0, 67.0, 22.0 ],
                    "text": "print mubu"
                }
            },
            {
                "box": {
                    "fontname": "Arial",
                    "fontsize": 12.0,
                    "id": "obj-3",
                    "maxclass": "message",
                    "numinlets": 2,
                    "numoutlets": 1,
                    "outlettype": [ "" ],
                    "patching_rect": [ 74.0, 123.0, 153.0, 22.0 ],
                    "text": "readappend @name audio"
                }
            },
            {
                "box": {
                    "fontname": "Arial",
                    "fontsize": 12.0,
                    "id": "obj-6",
                    "maxclass": "newobj",
                    "numinlets": 1,
                    "numoutlets": 1,
                    "outlettype": [ "" ],
                    "patching_rect": [ 74.0, 152.0, 201.0, 22.0 ],
                    "saved_object_attributes": {
                        "dirtypatcher": 1,
                        "embed": 0,
                        "externalfiles": 1,
                        "maintrack": -1,
                        "parameter_enable": 0,
                        "parameter_mappable": 0,
                        "resamplefiles": 0,
                        "ringmaster": -1,
                        "savegui": 0,
                        "snaprate": 1000.0,
                        "verbose": 1
                    },
                    "text": "mubu content-summary-help-corpus"
                }
            }
        ],
        "lines": [
            {
                "patchline": {
                    "destination": [ "obj-9", 0 ],
                    "source": [ "obj-10", 0 ]
                }
            },
            {
                "patchline": {
                    "destination": [ "obj-41", 0 ],
                    "hidden": 1,
                    "source": [ "obj-14", 0 ]
                }
            },
            {
                "patchline": {
                    "destination": [ "obj-10", 0 ],
                    "source": [ "obj-15", 0 ]
                }
            },
            {
                "patchline": {
                    "destination": [ "obj-10", 0 ],
                    "source": [ "obj-20", 0 ]
                }
            },
            {
                "patchline": {
                    "destination": [ "obj-6", 0 ],
                    "hidden": 1,
                    "source": [ "obj-3", 0 ]
                }
            },
            {
                "patchline": {
                    "destination": [ "obj-6", 0 ],
                    "source": [ "obj-32", 0 ]
                }
            },
            {
                "patchline": {
                    "destination": [ "obj-69", 1 ],
                    "source": [ "obj-37", 2 ]
                }
            },
            {
                "patchline": {
                    "destination": [ "obj-69", 1 ],
                    "source": [ "obj-37", 0 ]
                }
            },
            {
                "patchline": {
                    "destination": [ "obj-8", 0 ],
                    "hidden": 1,
                    "source": [ "obj-4", 0 ]
                }
            },
            {
                "patchline": {
                    "destination": [ "obj-37", 0 ],
                    "hidden": 1,
                    "source": [ "obj-41", 0 ]
                }
            },
            {
                "patchline": {
                    "destination": [ "obj-4", 0 ],
                    "hidden": 1,
                    "source": [ "obj-48", 0 ]
                }
            },
            {
                "patchline": {
                    "destination": [ "obj-1", 0 ],
                    "hidden": 1,
                    "order": 0,
                    "source": [ "obj-6", 0 ]
                }
            },
            {
                "patchline": {
                    "destination": [ "obj-69", 0 ],
                    "midpoints": [ 83.5, 268.5, 87.5, 268.5 ],
                    "order": 1,
                    "source": [ "obj-6", 0 ]
                }
            },
            {
                "patchline": {
                    "destination": [ "obj-20", 0 ],
                    "source": [ "obj-69", 0 ]
                }
            },
            {
                "patchline": {
                    "destination": [ "obj-6", 0 ],
                    "hidden": 1,
                    "source": [ "obj-70", 0 ]
                }
            },
            {
                "patchline": {
                    "destination": [ "obj-69", 0 ],
                    "midpoints": [ 100.5, 243.5, 87.5, 243.5 ],
                    "source": [ "obj-72", 0 ]
                }
            },
            {
                "patchline": {
                    "destination": [ "obj-6", 0 ],
                    "source": [ "obj-8", 0 ]
                }
            },
            {
                "patchline": {
                    "destination": [ "obj-15", 0 ],
                    "order": 0,
                    "source": [ "obj-83", 0 ]
                }
            },
            {
                "patchline": {
                    "destination": [ "obj-20", 0 ],
                    "order": 1,
                    "source": [ "obj-83", 0 ]
                }
            },
            {
                "patchline": {
                    "destination": [ "obj-13", 0 ],
                    "source": [ "obj-9", 0 ]
                }
            }
        ],
        "parameters": {
            "obj-10::obj-83": [ "live.tab[8]", "live.tab[8]", 0 ],
            "obj-69::obj-18": [ "live.tab", "live.tab", 0 ],
            "obj-83": [ "live.tab[1]", "live.tab[8]", 0 ],
            "parameterbanks": {
                "0": {
                    "index": 0,
                    "name": "",
                    "parameters": [ "-", "-", "-", "-", "-", "-", "-", "-" ],
                    "buttons": [ "-", "-", "-", "-", "-", "-", "-", "-" ]
                }
            },
            "inherited_shortname": 1
        },
        "autosave": 0
    }
}