{
	"patcher" : 	{
		"fileversion" : 1,
		"rect" : [ 244.0, 44.0, 719.0, 740.0 ],
		"bglocked" : 0,
		"defrect" : [ 244.0, 44.0, 719.0, 740.0 ],
		"openrect" : [ 0.0, 0.0, 0.0, 0.0 ],
		"openinpresentation" : 0,
		"default_fontsize" : 12.0,
		"default_fontface" : 0,
		"default_fontname" : "Arial",
		"gridonopen" : 0,
		"gridsize" : [ 15.0, 15.0 ],
		"gridsnaponopen" : 0,
		"toolbarvisible" : 1,
		"boxanimatetime" : 200,
		"imprint" : 0,
		"enablehscroll" : 1,
		"enablevscroll" : 1,
		"devicewidth" : 0.0,
		"boxes" : [ 			{
				"box" : 				{
					"maxclass" : "comment",
					"text" : "choose record or match",
					"linecount" : 3,
					"patching_rect" : [ 41.0, 287.0, 60.0, 44.0 ],
					"numoutlets" : 0,
					"id" : "obj-16",
					"fontname" : "Arial",
					"fontface" : 2,
					"fontsize" : 11.0,
					"numinlets" : 1
				}

			}
, 			{
				"box" : 				{
					"maxclass" : "comment",
					"text" : "choose audio file",
					"linecount" : 2,
					"patching_rect" : [ 43.0, 143.0, 55.0, 32.0 ],
					"numoutlets" : 0,
					"id" : "obj-15",
					"fontname" : "Arial",
					"fontface" : 2,
					"fontsize" : 11.0,
					"numinlets" : 1
				}

			}
, 			{
				"box" : 				{
					"maxclass" : "fpic",
					"patching_rect" : [ 50.0, 329.5, 21.0, 40.0 ],
					"numoutlets" : 0,
					"id" : "obj-13",
					"numinlets" : 1,
					"embed" : 1,
					"data" : [ 653, "", "IBkSG0fBZn....PCIgDQRA...TA....JHX....PDyGa4....DLmPIQEBHf.B7g.YHB..BPTRDEDUHkX6T96ZSDFFG+at9Ra5AmzyjaHIRFTrEJmzgpFvePfVHA05f1gV2bnCJ0gtJZ6fSp+CTDTPDsTW5fDmxPFpW2p2PEpgRpl1xEoUuHRvzHo2qCldjK890qFvA8K7N79qOueeeedde.9mVAZtipZN57y8HTbiMvVa8ITpzmgd4uixkqCQQBhESDISl.27F2Fxm3rAbBpEc4QFfB.OaxxRT23v0bmO7QMHHvgzo520Cmu6ftNOWqCDLHAhh835lN0oGfMn6ryOv7ubIW2TnCG104IM2oXwu...YYIL9XWAoROJBGNJHDB1byB38q9V7h4dNRjHI.dpiPsDAmY5qSuycmEc0U2Az0KQeclmg0VaUTa2cQjnGAW3hWC802f9Kp2plXhTNF4SmpeWi7tIWSoTUy4+TJ.fpUq3oSVRIKaVTSqfmI+L+D7jGeOe8qRWuj+.aXrGMRjf9B53icF+A8g2+V9B39sJU9psfsDnV7MK5qC2zDOXJuWTipO9tIHvQML1yymAlfB.5BKLa6GZuGuGpgggyfEEILCE.zFeqsWr9l1bqQlyA0jSNxuMTddNSnVRoFd3K43svNMzP8h3w4Q737Ha1WY+hpWuNUPf6ONxawoDBIv1a+MnnjAczwuFSRpSlbuqRSq.UUMGMe9kMc1nW8jVbphRF+8+2NkO+xz0Wek8AXBsQYx1h7D5Ap7+2RlNsVspsmqeKEwsULe8CER...G6nGxw0vLzXQk..v4N+frtUm06VQgJI0YaMc5+xa8SMFuYoxoOwtJ.....IUjSD4pPfIH" ]
				}

			}
, 			{
				"box" : 				{
					"maxclass" : "fpic",
					"patching_rect" : [ 48.5, 122.0, 50.0, 25.0 ],
					"numoutlets" : 0,
					"id" : "obj-1",
					"numinlets" : 1,
					"embed" : 1,
					"data" : [ 611, "", "IBkSG0fBZn....PCIgDQRA...HC...PFHX....vbT0GQ....DLmPIQEBHf.B7g.YHB..BnQRDEDUXUX6VFDZSCEGF+q1lEZ6niEJl.yt0JzzJUElx.qfBCJcWDJT0ABC5EEAgwbBdcPwIdcGlfvtLY6vfMFHHTvAUPAoWTQjQQE1E8PbHnfTk1N4yK1.0zCMOiUGjev+K+e48kuuP38+A3hKt7eMElJG84yKu2cuM+W6EgY7yNFA.A.GHTv8WAwvXGVbtYX3vCXFB3.Awmi3ttfW+pmxaUbdDIRbzr4OrrtlVXbiqeYB.npdPnqmvbsHibXDW+Dd5UdsiT4Yk3oF6ns80WzRYvP7LmdTVdqMbleCWa0EolpBGdXMlMSZNY9I3cl+llhuxxKvqc0KwTIi4HA32q.9kclfjMSZKhmPeDB.72x78GzO0TUXpjw3ZqtnyDDMUEKunYmt.2b8kbDSexQOhsM5ADIHe9Ke0RuDI0QoRORD4rvyeYU7vGbeaEFgBR85MszKZzXX2c+jHx0QZzngsddgBhrrjkd6sWSH2WehHWaDvuL1b8kP9KdEacbqPAIX.+V58QCCDMZDQjqM912qiZ0pY68ITPTFLjkdke7SP9KbdQjqM73AXngNzerNcEsFvkJYLygc+5jr1t+jHUO8xi4N23D.TRxaqgSD.7cu8Elln51UX4s1fyNcA1eP+cUHjj7xpaWo2EjUVdAd7iEmZpJlkjjWNY9I5nILL1gElJm4dZYbYYIpopvrYRyhyMC+v6eSuKDt3hK6O4m.hC1JIrgDcjC.....IUjSD4pPfIH" ]
				}

			}
, 			{
				"box" : 				{
					"maxclass" : "comment",
					"text" : "This imubu stores the MFCCs and displays the recorded audio.",
					"linecount" : 2,
					"patching_rect" : [ 480.0, 538.0, 194.0, 34.0 ],
					"numoutlets" : 0,
					"id" : "obj-8",
					"fontname" : "Arial",
					"fontsize" : 12.0,
					"numinlets" : 1
				}

			}
, 			{
				"box" : 				{
					"maxclass" : "comment",
					"text" : "Note that the sound you obtain depends very much on the sounds you are using as source and taget. If the two sounds don't have any timbral similarity, the result may be poor.",
					"linecount" : 4,
					"patching_rect" : [ 316.0, 228.0, 301.0, 62.0 ],
					"numoutlets" : 0,
					"id" : "obj-4",
					"fontname" : "Arial",
					"fontsize" : 12.0,
					"numinlets" : 1
				}

			}
, 			{
				"box" : 				{
					"maxclass" : "comment",
					"text" : "matched source",
					"patching_rect" : [ 283.0, 497.0, 96.0, 20.0 ],
					"numoutlets" : 0,
					"id" : "obj-12",
					"fontname" : "Arial",
					"fontsize" : 12.0,
					"numinlets" : 1
				}

			}
, 			{
				"box" : 				{
					"maxclass" : "comment",
					"text" : "input sound",
					"linecount" : 2,
					"patching_rect" : [ 207.0, 483.0, 41.0, 34.0 ],
					"numoutlets" : 0,
					"id" : "obj-11",
					"fontname" : "Arial",
					"fontsize" : 12.0,
					"numinlets" : 1
				}

			}
, 			{
				"box" : 				{
					"maxclass" : "comment",
					"text" : "First choose \"record\" to record an incoming source sound (audio and coefficients) than switch to \"match\" to start matching the incoming target sound frame by frame to the previously recorded source.",
					"linecount" : 4,
					"patching_rect" : [ 316.0, 161.0, 301.0, 62.0 ],
					"numoutlets" : 0,
					"id" : "obj-61",
					"fontname" : "Arial",
					"fontsize" : 12.0,
					"numinlets" : 1
				}

			}
, 			{
				"box" : 				{
					"maxclass" : "comment",
					"text" : "This example performs frame by frame matching of an incoming sound to a previously recorded source sound using MEL frequency cepstral corefficients (MFCC).",
					"linecount" : 3,
					"patching_rect" : [ 316.0, 108.0, 303.0, 48.0 ],
					"numoutlets" : 0,
					"id" : "obj-60",
					"fontname" : "Arial",
					"fontsize" : 12.0,
					"numinlets" : 1
				}

			}
, 			{
				"box" : 				{
					"maxclass" : "comment",
					"text" : "MFCC matching weights",
					"patching_rect" : [ 435.0, 356.0, 141.0, 20.0 ],
					"numoutlets" : 0,
					"id" : "obj-57",
					"fontname" : "Arial",
					"fontsize" : 12.0,
					"numinlets" : 1
				}

			}
, 			{
				"box" : 				{
					"maxclass" : "newobj",
					"text" : "+~",
					"patching_rect" : [ 113.0, 289.0, 86.0, 20.0 ],
					"numoutlets" : 1,
					"id" : "obj-55",
					"fontname" : "Arial",
					"outlettype" : [ "signal" ],
					"fontsize" : 12.0,
					"numinlets" : 2
				}

			}
, 			{
				"box" : 				{
					"maxclass" : "meter~",
					"patching_rect" : [ 205.0, 198.0, 13.0, 77.0 ],
					"numoutlets" : 1,
					"id" : "obj-53",
					"outlettype" : [ "float" ],
					"numinlets" : 1
				}

			}
, 			{
				"box" : 				{
					"maxclass" : "gain~",
					"patching_rect" : [ 180.0, 198.0, 22.0, 77.0 ],
					"numoutlets" : 2,
					"id" : "obj-54",
					"outlettype" : [ "signal", "int" ],
					"numinlets" : 2
				}

			}
, 			{
				"box" : 				{
					"maxclass" : "newobj",
					"text" : "adc~ 1",
					"patching_rect" : [ 180.0, 157.0, 47.0, 20.0 ],
					"numoutlets" : 1,
					"id" : "obj-51",
					"fontname" : "Arial",
					"outlettype" : [ "signal" ],
					"fontsize" : 12.0,
					"numinlets" : 1
				}

			}
, 			{
				"box" : 				{
					"maxclass" : "umenu",
					"types" : [  ],
					"patching_rect" : [ 49.0, 373.0, 50.0, 23.0 ],
					"arrow" : 0,
					"numoutlets" : 3,
					"id" : "obj-50",
					"fontname" : "Arial",
					"outlettype" : [ "int", "", "" ],
					"arrowlink" : 0,
					"arrowframe" : 0,
					"fontsize" : 14.0,
					"items" : [ "off", ",", "record", ",", "match" ],
					"numinlets" : 1
				}

			}
, 			{
				"box" : 				{
					"maxclass" : "comment",
					"text" : "example",
					"patching_rect" : [ 116.0, 11.0, 132.0, 41.0 ],
					"numoutlets" : 0,
					"id" : "obj-44",
					"fontname" : "Arial",
					"fontface" : 1,
					"fontsize" : 30.0,
					"numinlets" : 1
				}

			}
, 			{
				"box" : 				{
					"maxclass" : "comment",
					"text" : "MFCC frame matching",
					"patching_rect" : [ 48.0, 46.0, 193.0, 27.0 ],
					"numoutlets" : 0,
					"id" : "obj-36",
					"fontname" : "Arial",
					"fontsize" : 18.0,
					"numinlets" : 1
				}

			}
, 			{
				"box" : 				{
					"maxclass" : "comment",
					"text" : "MuBu",
					"patching_rect" : [ 8.0, 5.0, 110.0, 48.0 ],
					"numoutlets" : 0,
					"id" : "obj-37",
					"fontname" : "Arial",
					"fontface" : 3,
					"fontsize" : 36.0,
					"numinlets" : 1
				}

			}
, 			{
				"box" : 				{
					"maxclass" : "newobj",
					"text" : "loadmess 128",
					"patching_rect" : [ 88.0, 216.0, 85.0, 20.0 ],
					"numoutlets" : 1,
					"id" : "obj-7",
					"fontname" : "Arial",
					"outlettype" : [ "" ],
					"fontsize" : 12.0,
					"numinlets" : 1,
					"hidden" : 1
				}

			}
, 			{
				"box" : 				{
					"maxclass" : "newobj",
					"text" : "p init",
					"patching_rect" : [ 361.0, 547.0, 36.0, 20.0 ],
					"numoutlets" : 1,
					"id" : "obj-5",
					"fontname" : "Arial",
					"outlettype" : [ "" ],
					"fontsize" : 12.0,
					"numinlets" : 0,
					"patcher" : 					{
						"fileversion" : 1,
						"rect" : [ 186.0, 176.0, 537.0, 393.0 ],
						"bglocked" : 0,
						"defrect" : [ 186.0, 176.0, 537.0, 393.0 ],
						"openrect" : [ 0.0, 0.0, 0.0, 0.0 ],
						"openinpresentation" : 0,
						"default_fontsize" : 12.0,
						"default_fontface" : 0,
						"default_fontname" : "Arial",
						"gridonopen" : 0,
						"gridsize" : [ 15.0, 15.0 ],
						"gridsnaponopen" : 0,
						"toolbarvisible" : 1,
						"boxanimatetime" : 200,
						"imprint" : 0,
						"enablehscroll" : 1,
						"enablevscroll" : 1,
						"devicewidth" : 0.0,
						"boxes" : [ 							{
								"box" : 								{
									"maxclass" : "comment",
									"text" : "wait fort audio buffer",
									"patching_rect" : [ 182.0, 206.0, 119.0, 20.0 ],
									"numoutlets" : 0,
									"id" : "obj-7",
									"fontname" : "Arial",
									"fontsize" : 12.0,
									"numinlets" : 1
								}

							}
, 							{
								"box" : 								{
									"maxclass" : "newobj",
									"text" : "del 1000",
									"patching_rect" : [ 122.0, 205.0, 57.0, 20.0 ],
									"numoutlets" : 1,
									"id" : "obj-5",
									"fontname" : "Arial",
									"outlettype" : [ "bang" ],
									"fontsize" : 12.0,
									"numinlets" : 2
								}

							}
, 							{
								"box" : 								{
									"maxclass" : "message",
									"text" : "view ~ bounds -1 1",
									"patching_rect" : [ 122.0, 235.0, 112.0, 18.0 ],
									"numoutlets" : 1,
									"id" : "obj-3",
									"fontname" : "Arial",
									"outlettype" : [ "" ],
									"fontsize" : 12.0,
									"numinlets" : 2
								}

							}
, 							{
								"box" : 								{
									"maxclass" : "newobj",
									"text" : "loadbang",
									"patching_rect" : [ 50.0, 65.0, 60.0, 20.0 ],
									"numoutlets" : 1,
									"id" : "obj-32",
									"fontname" : "Arial",
									"outlettype" : [ "bang" ],
									"fontsize" : 12.0,
									"numinlets" : 1
								}

							}
, 							{
								"box" : 								{
									"maxclass" : "message",
									"text" : "addtrack 60000 25 1 @timetagged no @name mfcc @extradata none @sampleperiod 5.804989 @info gui sonogram, view 1 depth -5 2, tool scrollzoom",
									"linecount" : 2,
									"patching_rect" : [ 50.0, 131.0, 444.0, 32.0 ],
									"numoutlets" : 1,
									"id" : "obj-37",
									"fontname" : "Arial",
									"outlettype" : [ "" ],
									"fontsize" : 12.0,
									"numinlets" : 2
								}

							}
, 							{
								"box" : 								{
									"maxclass" : "outlet",
									"patching_rect" : [ 50.0, 334.0, 25.0, 25.0 ],
									"numoutlets" : 0,
									"id" : "obj-4",
									"numinlets" : 1,
									"comment" : ""
								}

							}
 ],
						"lines" : [ 							{
								"patchline" : 								{
									"source" : [ "obj-37", 0 ],
									"destination" : [ "obj-4", 0 ],
									"hidden" : 0,
									"midpoints" : [  ]
								}

							}
, 							{
								"patchline" : 								{
									"source" : [ "obj-3", 0 ],
									"destination" : [ "obj-4", 0 ],
									"hidden" : 0,
									"midpoints" : [  ]
								}

							}
, 							{
								"patchline" : 								{
									"source" : [ "obj-5", 0 ],
									"destination" : [ "obj-3", 0 ],
									"hidden" : 0,
									"midpoints" : [  ]
								}

							}
, 							{
								"patchline" : 								{
									"source" : [ "obj-32", 0 ],
									"destination" : [ "obj-37", 0 ],
									"hidden" : 0,
									"midpoints" : [  ]
								}

							}
, 							{
								"patchline" : 								{
									"source" : [ "obj-32", 0 ],
									"destination" : [ "obj-5", 0 ],
									"hidden" : 0,
									"midpoints" : [  ]
								}

							}
 ]
					}
,
					"saved_object_attributes" : 					{
						"fontname" : "Arial",
						"default_fontface" : 0,
						"default_fontname" : "Arial",
						"globalpatchername" : "",
						"fontface" : 0,
						"fontsize" : 12.0,
						"default_fontsize" : 12.0
					}

				}

			}
, 			{
				"box" : 				{
					"maxclass" : "newobj",
					"text" : "p match",
					"patching_rect" : [ 268.0, 463.0, 147.0, 23.0 ],
					"numoutlets" : 1,
					"id" : "obj-24",
					"fontname" : "Arial",
					"outlettype" : [ "signal" ],
					"fontsize" : 14.0,
					"numinlets" : 3,
					"patcher" : 					{
						"fileversion" : 1,
						"rect" : [ 495.0, 44.0, 688.0, 869.0 ],
						"bglocked" : 0,
						"defrect" : [ 495.0, 44.0, 688.0, 869.0 ],
						"openrect" : [ 0.0, 0.0, 0.0, 0.0 ],
						"openinpresentation" : 0,
						"default_fontsize" : 12.0,
						"default_fontface" : 0,
						"default_fontname" : "Arial",
						"gridonopen" : 0,
						"gridsize" : [ 15.0, 15.0 ],
						"gridsnaponopen" : 0,
						"toolbarvisible" : 1,
						"boxanimatetime" : 200,
						"imprint" : 0,
						"enablehscroll" : 1,
						"enablevscroll" : 1,
						"devicewidth" : 0.0,
						"boxes" : [ 							{
								"box" : 								{
									"maxclass" : "comment",
									"text" : "audio sample rate",
									"patching_rect" : [ 431.0, 292.0, 106.0, 20.0 ],
									"numoutlets" : 0,
									"id" : "obj-25",
									"fontname" : "Arial",
									"fontsize" : 12.0,
									"numinlets" : 1
								}

							}
, 							{
								"box" : 								{
									"maxclass" : "comment",
									"text" : "*)",
									"patching_rect" : [ 362.0, 696.0, 19.0, 20.0 ],
									"numoutlets" : 0,
									"id" : "obj-33",
									"fontname" : "Arial",
									"fontsize" : 12.0,
									"numinlets" : 1
								}

							}
, 							{
								"box" : 								{
									"maxclass" : "comment",
									"text" : "adapt conversion from frame index to time as well as grain period (= frame period) and grain duration (= frame duration) to current audio sample rate",
									"linecount" : 3,
									"patching_rect" : [ 316.0, 205.0, 288.0, 48.0 ],
									"numoutlets" : 0,
									"id" : "obj-31",
									"fontname" : "Arial",
									"fontsize" : 12.0,
									"numinlets" : 1
								}

							}
, 							{
								"box" : 								{
									"maxclass" : "toggle",
									"patching_rect" : [ 50.0, 159.0, 20.0, 20.0 ],
									"numoutlets" : 1,
									"id" : "obj-23",
									"outlettype" : [ "int" ],
									"numinlets" : 1
								}

							}
, 							{
								"box" : 								{
									"maxclass" : "newobj",
									"text" : "== 2",
									"patching_rect" : [ 50.0, 121.0, 38.0, 20.0 ],
									"numoutlets" : 1,
									"id" : "obj-10",
									"fontname" : "Arial",
									"outlettype" : [ "int" ],
									"fontsize" : 12.0,
									"numinlets" : 2
								}

							}
, 							{
								"box" : 								{
									"maxclass" : "comment",
									"text" : "(* see below)",
									"patching_rect" : [ 137.0, 456.0, 81.0, 20.0 ],
									"numoutlets" : 0,
									"id" : "obj-28",
									"fontname" : "Arial",
									"fontsize" : 12.0,
									"numinlets" : 1
								}

							}
, 							{
								"box" : 								{
									"maxclass" : "comment",
									"text" : "Why -4? (see above)\nCalculating the analysis frames with an overlap of 8, the -4 above corresponds to half of the duration of an analysis frame.\nWe substract half of an analysis frame because:\n1. the analysis is one frame duration late (=> -8)\n2. mubu.granular defines the grain position at the middle of the frame (=> +4)",
									"linecount" : 8,
									"patching_rect" : [ 373.0, 696.0, 289.0, 117.0 ],
									"numoutlets" : 0,
									"id" : "obj-22",
									"fontname" : "Arial",
									"fontsize" : 12.0,
									"numinlets" : 1
								}

							}
, 							{
								"box" : 								{
									"maxclass" : "comment",
									"text" : "find best match",
									"linecount" : 3,
									"patching_rect" : [ 191.0, 355.0, 43.0, 48.0 ],
									"numoutlets" : 0,
									"id" : "obj-26",
									"fontname" : "Arial",
									"fontsize" : 12.0,
									"numinlets" : 1
								}

							}
, 							{
								"box" : 								{
									"maxclass" : "comment",
									"text" : "switch",
									"patching_rect" : [ 42.0, 55.0, 44.0, 20.0 ],
									"numoutlets" : 0,
									"id" : "obj-11",
									"fontname" : "Arial",
									"fontsize" : 12.0,
									"numinlets" : 1
								}

							}
, 							{
								"box" : 								{
									"maxclass" : "inlet",
									"patching_rect" : [ 50.0, 79.0, 25.0, 25.0 ],
									"numoutlets" : 1,
									"id" : "obj-16",
									"outlettype" : [ "int" ],
									"numinlets" : 0,
									"comment" : ""
								}

							}
, 							{
								"box" : 								{
									"maxclass" : "newobj",
									"text" : "t i i i",
									"patching_rect" : [ 50.0, 199.0, 201.0, 20.0 ],
									"numoutlets" : 3,
									"id" : "obj-3",
									"fontname" : "Arial",
									"outlettype" : [ "int", "int", "int" ],
									"fontsize" : 12.0,
									"numinlets" : 1
								}

							}
, 							{
								"box" : 								{
									"maxclass" : "comment",
									"text" : "match MFCCs",
									"patching_rect" : [ 31.0, 15.0, 126.0, 27.0 ],
									"numoutlets" : 0,
									"id" : "obj-24",
									"fontname" : "Arial",
									"fontsize" : 18.0,
									"numinlets" : 1
								}

							}
, 							{
								"box" : 								{
									"maxclass" : "newobj",
									"text" : "gate",
									"patching_rect" : [ 50.0, 258.0, 67.0, 20.0 ],
									"numoutlets" : 1,
									"id" : "obj-30",
									"fontname" : "Arial",
									"outlettype" : [ "" ],
									"fontsize" : 12.0,
									"numinlets" : 2
								}

							}
, 							{
								"box" : 								{
									"maxclass" : "comment",
									"text" : "frame duration",
									"patching_rect" : [ 431.0, 523.0, 88.0, 20.0 ],
									"numoutlets" : 0,
									"id" : "obj-6",
									"fontname" : "Arial",
									"fontsize" : 12.0,
									"numinlets" : 1
								}

							}
, 							{
								"box" : 								{
									"maxclass" : "comment",
									"text" : "frame overlap is 8",
									"patching_rect" : [ 402.0, 489.0, 106.0, 20.0 ],
									"numoutlets" : 0,
									"id" : "obj-21",
									"fontname" : "Arial",
									"fontsize" : 12.0,
									"numinlets" : 1
								}

							}
, 							{
								"box" : 								{
									"maxclass" : "comment",
									"text" : "frame period",
									"patching_rect" : [ 409.0, 385.0, 78.0, 20.0 ],
									"numoutlets" : 0,
									"id" : "obj-20",
									"fontname" : "Arial",
									"fontsize" : 12.0,
									"numinlets" : 1
								}

							}
, 							{
								"box" : 								{
									"maxclass" : "flonum",
									"patching_rect" : [ 369.0, 523.0, 60.0, 20.0 ],
									"numoutlets" : 2,
									"id" : "obj-9",
									"fontname" : "Arial",
									"outlettype" : [ "float", "bang" ],
									"fontsize" : 12.0,
									"numinlets" : 1
								}

							}
, 							{
								"box" : 								{
									"maxclass" : "newobj",
									"text" : "* 8.",
									"patching_rect" : [ 369.0, 489.0, 29.0, 20.0 ],
									"numoutlets" : 1,
									"id" : "obj-8",
									"fontname" : "Arial",
									"outlettype" : [ "float" ],
									"fontsize" : 12.0,
									"numinlets" : 2
								}

							}
, 							{
								"box" : 								{
									"maxclass" : "newobj",
									"text" : "prepend duration",
									"patching_rect" : [ 369.0, 558.0, 101.0, 20.0 ],
									"numoutlets" : 1,
									"id" : "obj-7",
									"fontname" : "Arial",
									"outlettype" : [ "" ],
									"fontsize" : 12.0,
									"numinlets" : 1
								}

							}
, 							{
								"box" : 								{
									"maxclass" : "comment",
									"text" : "time",
									"patching_rect" : [ 167.0, 523.0, 33.0, 20.0 ],
									"numoutlets" : 0,
									"id" : "obj-5",
									"fontname" : "Arial",
									"fontsize" : 12.0,
									"numinlets" : 1
								}

							}
, 							{
								"box" : 								{
									"maxclass" : "comment",
									"text" : "weights",
									"patching_rect" : [ 192.0, 55.0, 51.0, 20.0 ],
									"numoutlets" : 0,
									"id" : "obj-4",
									"fontname" : "Arial",
									"fontsize" : 12.0,
									"numinlets" : 1
								}

							}
, 							{
								"box" : 								{
									"maxclass" : "comment",
									"text" : "mfcc frames",
									"patching_rect" : [ 99.0, 55.0, 76.0, 20.0 ],
									"numoutlets" : 0,
									"id" : "obj-2",
									"fontname" : "Arial",
									"fontsize" : 12.0,
									"numinlets" : 1
								}

							}
, 							{
								"box" : 								{
									"maxclass" : "newobj",
									"text" : "- 4",
									"patching_rect" : [ 105.0, 456.0, 32.5, 20.0 ],
									"numoutlets" : 1,
									"id" : "obj-92",
									"fontname" : "Arial",
									"outlettype" : [ "int" ],
									"fontsize" : 12.0,
									"numinlets" : 2
								}

							}
, 							{
								"box" : 								{
									"maxclass" : "newobj",
									"text" : "* 1.",
									"patching_rect" : [ 232.0, 489.0, 111.5, 20.0 ],
									"numoutlets" : 1,
									"id" : "obj-90",
									"fontname" : "Arial",
									"outlettype" : [ "float" ],
									"fontsize" : 12.0,
									"numinlets" : 2
								}

							}
, 							{
								"box" : 								{
									"maxclass" : "comment",
									"text" : "index",
									"patching_rect" : [ 163.0, 423.0, 39.0, 20.0 ],
									"numoutlets" : 0,
									"id" : "obj-84",
									"fontname" : "Arial",
									"fontsize" : 12.0,
									"numinlets" : 1
								}

							}
, 							{
								"box" : 								{
									"maxclass" : "newobj",
									"text" : "prepend period",
									"patching_rect" : [ 232.0, 558.0, 91.0, 20.0 ],
									"numoutlets" : 1,
									"id" : "obj-82",
									"fontname" : "Arial",
									"outlettype" : [ "" ],
									"fontsize" : 12.0,
									"numinlets" : 1
								}

							}
, 							{
								"box" : 								{
									"maxclass" : "newobj",
									"text" : "sel 1",
									"patching_rect" : [ 141.0, 232.0, 36.0, 20.0 ],
									"numoutlets" : 2,
									"id" : "obj-54",
									"fontname" : "Arial",
									"outlettype" : [ "bang", "" ],
									"fontsize" : 12.0,
									"numinlets" : 2
								}

							}
, 							{
								"box" : 								{
									"maxclass" : "newobj",
									"text" : "t update",
									"patching_rect" : [ 141.0, 266.0, 54.0, 20.0 ],
									"numoutlets" : 1,
									"id" : "obj-61",
									"fontname" : "Arial",
									"outlettype" : [ "update" ],
									"fontsize" : 12.0,
									"numinlets" : 1
								}

							}
, 							{
								"box" : 								{
									"maxclass" : "newobj",
									"text" : "prepend weights",
									"patching_rect" : [ 199.0, 298.0, 99.0, 20.0 ],
									"numoutlets" : 1,
									"id" : "obj-27",
									"fontname" : "Arial",
									"outlettype" : [ "" ],
									"fontsize" : 12.0,
									"numinlets" : 1
								}

							}
, 							{
								"box" : 								{
									"maxclass" : "flonum",
									"patching_rect" : [ 105.0, 523.0, 60.0, 20.0 ],
									"numoutlets" : 2,
									"id" : "obj-17",
									"fontname" : "Arial",
									"outlettype" : [ "float", "bang" ],
									"fontsize" : 12.0,
									"numinlets" : 1
								}

							}
, 							{
								"box" : 								{
									"maxclass" : "newobj",
									"text" : "* 1.",
									"patching_rect" : [ 105.0, 489.0, 111.5, 20.0 ],
									"numoutlets" : 1,
									"id" : "obj-15",
									"fontname" : "Arial",
									"outlettype" : [ "float" ],
									"fontsize" : 12.0,
									"numinlets" : 2
								}

							}
, 							{
								"box" : 								{
									"maxclass" : "newobj",
									"text" : "prepend position",
									"patching_rect" : [ 105.0, 558.0, 100.0, 20.0 ],
									"numoutlets" : 1,
									"id" : "obj-14",
									"fontname" : "Arial",
									"outlettype" : [ "" ],
									"fontsize" : 12.0,
									"numinlets" : 1
								}

							}
, 							{
								"box" : 								{
									"maxclass" : "newobj",
									"text" : "mubu.granular~ sound @period 0 @duration 46.44 @positionvar 3 @level -8",
									"linecount" : 4,
									"patching_rect" : [ 163.0, 666.0, 153.0, 71.0 ],
									"numoutlets" : 2,
									"id" : "obj-12",
									"fontname" : "Arial",
									"outlettype" : [ "signal", "" ],
									"fontsize" : 14.0,
									"numinlets" : 1
								}

							}
, 							{
								"box" : 								{
									"maxclass" : "number",
									"patching_rect" : [ 105.0, 423.0, 56.0, 20.0 ],
									"numoutlets" : 2,
									"id" : "obj-58",
									"fontname" : "Arial",
									"outlettype" : [ "int", "bang" ],
									"fontsize" : 12.0,
									"numinlets" : 1
								}

							}
, 							{
								"box" : 								{
									"maxclass" : "newobj",
									"text" : "mubu.knn sound mfcc",
									"linecount" : 2,
									"patching_rect" : [ 105.0, 358.0, 85.0, 39.0 ],
									"numoutlets" : 4,
									"id" : "obj-56",
									"fontname" : "Arial",
									"outlettype" : [ "list", "list", "list", "list" ],
									"fontsize" : 14.0,
									"numinlets" : 1
								}

							}
, 							{
								"box" : 								{
									"maxclass" : "inlet",
									"patching_rect" : [ 98.0, 79.0, 25.0, 25.0 ],
									"numoutlets" : 1,
									"id" : "obj-13",
									"outlettype" : [ "" ],
									"numinlets" : 0,
									"comment" : ""
								}

							}
, 							{
								"box" : 								{
									"maxclass" : "inlet",
									"patching_rect" : [ 199.0, 79.0, 25.0, 25.0 ],
									"numoutlets" : 1,
									"id" : "obj-18",
									"outlettype" : [ "" ],
									"numinlets" : 0,
									"comment" : ""
								}

							}
, 							{
								"box" : 								{
									"maxclass" : "outlet",
									"patching_rect" : [ 163.0, 783.0, 25.0, 25.0 ],
									"numoutlets" : 0,
									"id" : "obj-19",
									"numinlets" : 1,
									"comment" : ""
								}

							}
, 							{
								"box" : 								{
									"maxclass" : "comment",
									"text" : "hop size",
									"patching_rect" : [ 402.0, 354.0, 55.0, 20.0 ],
									"numoutlets" : 0,
									"id" : "obj-1",
									"fontname" : "Arial",
									"fontsize" : 12.0,
									"numinlets" : 1
								}

							}
, 							{
								"box" : 								{
									"maxclass" : "flonum",
									"patching_rect" : [ 356.0, 385.0, 50.0, 20.0 ],
									"numoutlets" : 2,
									"id" : "obj-44",
									"fontname" : "Arial",
									"outlettype" : [ "float", "bang" ],
									"fontsize" : 12.0,
									"numinlets" : 1
								}

							}
, 							{
								"box" : 								{
									"maxclass" : "newobj",
									"text" : "* 256.",
									"patching_rect" : [ 356.0, 354.0, 42.0, 20.0 ],
									"numoutlets" : 1,
									"id" : "obj-42",
									"fontname" : "Arial",
									"outlettype" : [ "float" ],
									"fontsize" : 12.0,
									"numinlets" : 2
								}

							}
, 							{
								"box" : 								{
									"maxclass" : "newobj",
									"text" : "!/ 1000.",
									"patching_rect" : [ 356.0, 324.0, 51.0, 20.0 ],
									"numoutlets" : 1,
									"id" : "obj-41",
									"fontname" : "Arial",
									"outlettype" : [ "float" ],
									"fontsize" : 12.0,
									"numinlets" : 2
								}

							}
, 							{
								"box" : 								{
									"maxclass" : "flonum",
									"patching_rect" : [ 356.0, 292.0, 72.0, 20.0 ],
									"numoutlets" : 2,
									"id" : "obj-40",
									"fontname" : "Arial",
									"outlettype" : [ "float", "bang" ],
									"fontsize" : 12.0,
									"numinlets" : 1
								}

							}
, 							{
								"box" : 								{
									"maxclass" : "newobj",
									"text" : "dspstate~",
									"patching_rect" : [ 329.0, 261.0, 100.0, 20.0 ],
									"numoutlets" : 4,
									"id" : "obj-38",
									"fontname" : "Arial",
									"outlettype" : [ "int", "float", "int", "int" ],
									"fontsize" : 12.0,
									"numinlets" : 1
								}

							}
 ],
						"lines" : [ 							{
								"patchline" : 								{
									"source" : [ "obj-12", 0 ],
									"destination" : [ "obj-19", 0 ],
									"hidden" : 0,
									"midpoints" : [  ]
								}

							}
, 							{
								"patchline" : 								{
									"source" : [ "obj-14", 0 ],
									"destination" : [ "obj-12", 0 ],
									"hidden" : 0,
									"midpoints" : [  ]
								}

							}
, 							{
								"patchline" : 								{
									"source" : [ "obj-82", 0 ],
									"destination" : [ "obj-12", 0 ],
									"hidden" : 0,
									"midpoints" : [  ]
								}

							}
, 							{
								"patchline" : 								{
									"source" : [ "obj-7", 0 ],
									"destination" : [ "obj-12", 0 ],
									"hidden" : 0,
									"midpoints" : [  ]
								}

							}
, 							{
								"patchline" : 								{
									"source" : [ "obj-3", 1 ],
									"destination" : [ "obj-54", 0 ],
									"hidden" : 0,
									"midpoints" : [  ]
								}

							}
, 							{
								"patchline" : 								{
									"source" : [ "obj-3", 2 ],
									"destination" : [ "obj-90", 0 ],
									"hidden" : 0,
									"midpoints" : [  ]
								}

							}
, 							{
								"patchline" : 								{
									"source" : [ "obj-13", 0 ],
									"destination" : [ "obj-30", 1 ],
									"hidden" : 0,
									"midpoints" : [  ]
								}

							}
, 							{
								"patchline" : 								{
									"source" : [ "obj-30", 0 ],
									"destination" : [ "obj-56", 0 ],
									"hidden" : 0,
									"midpoints" : [  ]
								}

							}
, 							{
								"patchline" : 								{
									"source" : [ "obj-44", 0 ],
									"destination" : [ "obj-90", 1 ],
									"hidden" : 0,
									"midpoints" : [  ]
								}

							}
, 							{
								"patchline" : 								{
									"source" : [ "obj-90", 0 ],
									"destination" : [ "obj-82", 0 ],
									"hidden" : 0,
									"midpoints" : [  ]
								}

							}
, 							{
								"patchline" : 								{
									"source" : [ "obj-61", 0 ],
									"destination" : [ "obj-56", 0 ],
									"hidden" : 0,
									"midpoints" : [  ]
								}

							}
, 							{
								"patchline" : 								{
									"source" : [ "obj-56", 0 ],
									"destination" : [ "obj-58", 0 ],
									"hidden" : 0,
									"midpoints" : [  ]
								}

							}
, 							{
								"patchline" : 								{
									"source" : [ "obj-27", 0 ],
									"destination" : [ "obj-56", 0 ],
									"hidden" : 0,
									"midpoints" : [  ]
								}

							}
, 							{
								"patchline" : 								{
									"source" : [ "obj-58", 0 ],
									"destination" : [ "obj-92", 0 ],
									"hidden" : 0,
									"midpoints" : [  ]
								}

							}
, 							{
								"patchline" : 								{
									"source" : [ "obj-92", 0 ],
									"destination" : [ "obj-15", 0 ],
									"hidden" : 0,
									"midpoints" : [  ]
								}

							}
, 							{
								"patchline" : 								{
									"source" : [ "obj-9", 0 ],
									"destination" : [ "obj-7", 0 ],
									"hidden" : 0,
									"midpoints" : [  ]
								}

							}
, 							{
								"patchline" : 								{
									"source" : [ "obj-8", 0 ],
									"destination" : [ "obj-9", 0 ],
									"hidden" : 0,
									"midpoints" : [  ]
								}

							}
, 							{
								"patchline" : 								{
									"source" : [ "obj-17", 0 ],
									"destination" : [ "obj-14", 0 ],
									"hidden" : 0,
									"midpoints" : [  ]
								}

							}
, 							{
								"patchline" : 								{
									"source" : [ "obj-15", 0 ],
									"destination" : [ "obj-17", 0 ],
									"hidden" : 0,
									"midpoints" : [  ]
								}

							}
, 							{
								"patchline" : 								{
									"source" : [ "obj-54", 0 ],
									"destination" : [ "obj-61", 0 ],
									"hidden" : 0,
									"midpoints" : [  ]
								}

							}
, 							{
								"patchline" : 								{
									"source" : [ "obj-18", 0 ],
									"destination" : [ "obj-27", 0 ],
									"hidden" : 0,
									"midpoints" : [  ]
								}

							}
, 							{
								"patchline" : 								{
									"source" : [ "obj-42", 0 ],
									"destination" : [ "obj-44", 0 ],
									"hidden" : 0,
									"midpoints" : [  ]
								}

							}
, 							{
								"patchline" : 								{
									"source" : [ "obj-41", 0 ],
									"destination" : [ "obj-42", 0 ],
									"hidden" : 0,
									"midpoints" : [  ]
								}

							}
, 							{
								"patchline" : 								{
									"source" : [ "obj-40", 0 ],
									"destination" : [ "obj-41", 0 ],
									"hidden" : 0,
									"midpoints" : [  ]
								}

							}
, 							{
								"patchline" : 								{
									"source" : [ "obj-38", 1 ],
									"destination" : [ "obj-40", 0 ],
									"hidden" : 0,
									"midpoints" : [  ]
								}

							}
, 							{
								"patchline" : 								{
									"source" : [ "obj-44", 0 ],
									"destination" : [ "obj-15", 1 ],
									"hidden" : 0,
									"midpoints" : [  ]
								}

							}
, 							{
								"patchline" : 								{
									"source" : [ "obj-44", 0 ],
									"destination" : [ "obj-8", 0 ],
									"hidden" : 0,
									"midpoints" : [  ]
								}

							}
, 							{
								"patchline" : 								{
									"source" : [ "obj-3", 0 ],
									"destination" : [ "obj-30", 0 ],
									"hidden" : 0,
									"midpoints" : [  ]
								}

							}
, 							{
								"patchline" : 								{
									"source" : [ "obj-10", 0 ],
									"destination" : [ "obj-23", 0 ],
									"hidden" : 0,
									"midpoints" : [  ]
								}

							}
, 							{
								"patchline" : 								{
									"source" : [ "obj-16", 0 ],
									"destination" : [ "obj-10", 0 ],
									"hidden" : 0,
									"midpoints" : [  ]
								}

							}
, 							{
								"patchline" : 								{
									"source" : [ "obj-23", 0 ],
									"destination" : [ "obj-3", 0 ],
									"hidden" : 0,
									"midpoints" : [  ]
								}

							}
 ]
					}
,
					"saved_object_attributes" : 					{
						"fontname" : "Arial",
						"default_fontface" : 0,
						"default_fontname" : "Arial",
						"globalpatchername" : "",
						"fontface" : 0,
						"fontsize" : 12.0,
						"default_fontsize" : 12.0
					}

				}

			}
, 			{
				"box" : 				{
					"maxclass" : "newobj",
					"text" : "p record",
					"patching_rect" : [ 49.0, 463.0, 147.0, 23.0 ],
					"numoutlets" : 0,
					"id" : "obj-10",
					"fontname" : "Arial",
					"fontsize" : 14.0,
					"numinlets" : 3,
					"patcher" : 					{
						"fileversion" : 1,
						"rect" : [ 542.0, 44.0, 654.0, 671.0 ],
						"bglocked" : 0,
						"defrect" : [ 542.0, 44.0, 654.0, 671.0 ],
						"openrect" : [ 0.0, 0.0, 0.0, 0.0 ],
						"openinpresentation" : 0,
						"default_fontsize" : 12.0,
						"default_fontface" : 0,
						"default_fontname" : "Arial",
						"gridonopen" : 0,
						"gridsize" : [ 15.0, 15.0 ],
						"gridsnaponopen" : 0,
						"toolbarvisible" : 1,
						"boxanimatetime" : 200,
						"imprint" : 0,
						"enablehscroll" : 1,
						"enablevscroll" : 1,
						"devicewidth" : 0.0,
						"boxes" : [ 							{
								"box" : 								{
									"maxclass" : "comment",
									"text" : "audio sample rate",
									"patching_rect" : [ 518.0, 303.0, 106.0, 20.0 ],
									"numoutlets" : 0,
									"id" : "obj-12",
									"fontname" : "Arial",
									"fontsize" : 12.0,
									"numinlets" : 1
								}

							}
, 							{
								"box" : 								{
									"maxclass" : "newobj",
									"text" : "buffer~ sound 120000",
									"patching_rect" : [ 361.0, 596.0, 127.0, 20.0 ],
									"numoutlets" : 2,
									"id" : "obj-62",
									"fontname" : "Arial",
									"outlettype" : [ "float", "bang" ],
									"fontsize" : 12.0,
									"numinlets" : 1
								}

							}
, 							{
								"box" : 								{
									"maxclass" : "comment",
									"text" : "adapt sample period of the mfcc track (= frame period) to current audio sample rate",
									"linecount" : 3,
									"patching_rect" : [ 414.0, 216.0, 165.0, 48.0 ],
									"numoutlets" : 0,
									"id" : "obj-16",
									"fontname" : "Arial",
									"fontsize" : 12.0,
									"numinlets" : 1
								}

							}
, 							{
								"box" : 								{
									"maxclass" : "newobj",
									"text" : "prepend sampleperiod",
									"patching_rect" : [ 443.0, 430.0, 130.0, 20.0 ],
									"numoutlets" : 1,
									"id" : "obj-5",
									"fontname" : "Arial",
									"outlettype" : [ "" ],
									"fontsize" : 12.0,
									"numinlets" : 1
								}

							}
, 							{
								"box" : 								{
									"maxclass" : "comment",
									"text" : "frame period",
									"patching_rect" : [ 496.0, 395.0, 78.0, 20.0 ],
									"numoutlets" : 0,
									"id" : "obj-20",
									"fontname" : "Arial",
									"fontsize" : 12.0,
									"numinlets" : 1
								}

							}
, 							{
								"box" : 								{
									"maxclass" : "comment",
									"text" : "hop size",
									"patching_rect" : [ 489.0, 364.0, 55.0, 20.0 ],
									"numoutlets" : 0,
									"id" : "obj-4",
									"fontname" : "Arial",
									"fontsize" : 12.0,
									"numinlets" : 1
								}

							}
, 							{
								"box" : 								{
									"maxclass" : "flonum",
									"patching_rect" : [ 443.0, 395.0, 50.0, 20.0 ],
									"numoutlets" : 2,
									"id" : "obj-44",
									"fontname" : "Arial",
									"outlettype" : [ "float", "bang" ],
									"fontsize" : 12.0,
									"numinlets" : 1
								}

							}
, 							{
								"box" : 								{
									"maxclass" : "newobj",
									"text" : "* 256.",
									"patching_rect" : [ 443.0, 364.0, 42.0, 20.0 ],
									"numoutlets" : 1,
									"id" : "obj-42",
									"fontname" : "Arial",
									"outlettype" : [ "float" ],
									"fontsize" : 12.0,
									"numinlets" : 2
								}

							}
, 							{
								"box" : 								{
									"maxclass" : "newobj",
									"text" : "!/ 1000.",
									"patching_rect" : [ 443.0, 334.0, 51.0, 20.0 ],
									"numoutlets" : 1,
									"id" : "obj-41",
									"fontname" : "Arial",
									"outlettype" : [ "float" ],
									"fontsize" : 12.0,
									"numinlets" : 2
								}

							}
, 							{
								"box" : 								{
									"maxclass" : "flonum",
									"patching_rect" : [ 443.0, 302.0, 72.0, 20.0 ],
									"numoutlets" : 2,
									"id" : "obj-40",
									"fontname" : "Arial",
									"outlettype" : [ "float", "bang" ],
									"fontsize" : 12.0,
									"numinlets" : 1
								}

							}
, 							{
								"box" : 								{
									"maxclass" : "newobj",
									"text" : "dspstate~",
									"patching_rect" : [ 416.0, 271.0, 100.0, 20.0 ],
									"numoutlets" : 4,
									"id" : "obj-38",
									"fontname" : "Arial",
									"outlettype" : [ "int", "float", "int", "int" ],
									"fontsize" : 12.0,
									"numinlets" : 1
								}

							}
, 							{
								"box" : 								{
									"maxclass" : "comment",
									"text" : "start audio recording at next frame",
									"linecount" : 3,
									"patching_rect" : [ 214.0, 346.0, 75.0, 48.0 ],
									"numoutlets" : 0,
									"id" : "obj-17",
									"fontname" : "Arial",
									"fontsize" : 12.0,
									"numinlets" : 1
								}

							}
, 							{
								"box" : 								{
									"maxclass" : "newobj",
									"text" : "t 1",
									"patching_rect" : [ 184.0, 368.0, 24.0, 20.0 ],
									"numoutlets" : 1,
									"id" : "obj-15",
									"fontname" : "Arial",
									"outlettype" : [ "int" ],
									"fontsize" : 12.0,
									"numinlets" : 1
								}

							}
, 							{
								"box" : 								{
									"maxclass" : "newobj",
									"text" : "onebang",
									"patching_rect" : [ 184.0, 320.0, 57.0, 20.0 ],
									"numoutlets" : 2,
									"id" : "obj-14",
									"fontname" : "Arial",
									"outlettype" : [ "bang", "bang" ],
									"fontsize" : 12.0,
									"numinlets" : 2
								}

							}
, 							{
								"box" : 								{
									"maxclass" : "newobj",
									"text" : "t l b",
									"patching_rect" : [ 94.0, 172.0, 109.0, 20.0 ],
									"numoutlets" : 2,
									"id" : "obj-13",
									"fontname" : "Arial",
									"outlettype" : [ "", "bang" ],
									"fontsize" : 12.0,
									"numinlets" : 1
								}

							}
, 							{
								"box" : 								{
									"maxclass" : "toggle",
									"patching_rect" : [ 39.0, 176.0, 20.0, 20.0 ],
									"numoutlets" : 1,
									"id" : "obj-11",
									"outlettype" : [ "int" ],
									"numinlets" : 1
								}

							}
, 							{
								"box" : 								{
									"maxclass" : "comment",
									"text" : "switch",
									"patching_rect" : [ 31.0, 67.0, 44.0, 20.0 ],
									"numoutlets" : 0,
									"id" : "obj-10",
									"fontname" : "Arial",
									"fontsize" : 12.0,
									"numinlets" : 1
								}

							}
, 							{
								"box" : 								{
									"maxclass" : "newobj",
									"text" : "== 1",
									"patching_rect" : [ 39.0, 140.0, 35.0, 20.0 ],
									"numoutlets" : 1,
									"id" : "obj-8",
									"fontname" : "Arial",
									"outlettype" : [ "int" ],
									"fontsize" : 12.0,
									"numinlets" : 2
								}

							}
, 							{
								"box" : 								{
									"maxclass" : "inlet",
									"patching_rect" : [ 39.0, 91.0, 25.0, 25.0 ],
									"numoutlets" : 1,
									"id" : "obj-6",
									"outlettype" : [ "int" ],
									"numinlets" : 0,
									"comment" : ""
								}

							}
, 							{
								"box" : 								{
									"maxclass" : "newobj",
									"text" : "t i i",
									"patching_rect" : [ 39.0, 215.0, 123.0, 20.0 ],
									"numoutlets" : 2,
									"id" : "obj-3",
									"fontname" : "Arial",
									"outlettype" : [ "int", "int" ],
									"fontsize" : 12.0,
									"numinlets" : 1
								}

							}
, 							{
								"box" : 								{
									"maxclass" : "comment",
									"text" : "record MFCCs and sound",
									"patching_rect" : [ 20.0, 25.0, 217.0, 27.0 ],
									"numoutlets" : 0,
									"id" : "obj-24",
									"fontname" : "Arial",
									"fontsize" : 18.0,
									"numinlets" : 1
								}

							}
, 							{
								"box" : 								{
									"maxclass" : "newobj",
									"text" : "gate",
									"patching_rect" : [ 39.0, 262.0, 74.0, 20.0 ],
									"numoutlets" : 1,
									"id" : "obj-23",
									"fontname" : "Arial",
									"outlettype" : [ "" ],
									"fontsize" : 12.0,
									"numinlets" : 2
								}

							}
, 							{
								"box" : 								{
									"maxclass" : "comment",
									"text" : "mfcc frames",
									"patching_rect" : [ 90.0, 67.0, 76.0, 20.0 ],
									"numoutlets" : 0,
									"id" : "obj-2",
									"fontname" : "Arial",
									"fontsize" : 12.0,
									"numinlets" : 1
								}

							}
, 							{
								"box" : 								{
									"maxclass" : "comment",
									"text" : "audio signal",
									"patching_rect" : [ 352.0, 67.0, 75.0, 20.0 ],
									"numoutlets" : 0,
									"id" : "obj-1",
									"fontname" : "Arial",
									"fontsize" : 12.0,
									"numinlets" : 1
								}

							}
, 							{
								"box" : 								{
									"maxclass" : "comment",
									"text" : "clear track when beginning recording",
									"linecount" : 3,
									"patching_rect" : [ 151.0, 464.0, 99.0, 48.0 ],
									"numoutlets" : 0,
									"id" : "obj-87",
									"fontname" : "Arial",
									"fontsize" : 12.0,
									"numinlets" : 1
								}

							}
, 							{
								"box" : 								{
									"maxclass" : "newobj",
									"text" : "sel 1",
									"patching_rect" : [ 143.0, 253.0, 145.0, 20.0 ],
									"numoutlets" : 2,
									"id" : "obj-69",
									"fontname" : "Arial",
									"outlettype" : [ "bang", "" ],
									"fontsize" : 12.0,
									"numinlets" : 2
								}

							}
, 							{
								"box" : 								{
									"maxclass" : "newobj",
									"text" : "record~ sound",
									"patching_rect" : [ 361.0, 567.0, 88.0, 20.0 ],
									"numoutlets" : 1,
									"id" : "obj-63",
									"fontname" : "Arial",
									"outlettype" : [ "signal" ],
									"fontsize" : 12.0,
									"numinlets" : 3
								}

							}
, 							{
								"box" : 								{
									"maxclass" : "newobj",
									"text" : "t clear",
									"patching_rect" : [ 143.0, 439.0, 43.0, 20.0 ],
									"numoutlets" : 1,
									"id" : "obj-51",
									"fontname" : "Arial",
									"outlettype" : [ "clear" ],
									"fontsize" : 12.0,
									"numinlets" : 1
								}

							}
, 							{
								"box" : 								{
									"maxclass" : "newobj",
									"text" : "mubu.track sound mfcc",
									"patching_rect" : [ 99.0, 567.0, 135.0, 20.0 ],
									"numoutlets" : 3,
									"id" : "obj-49",
									"fontname" : "Arial",
									"outlettype" : [ "", "", "" ],
									"fontsize" : 12.0,
									"numinlets" : 1
								}

							}
, 							{
								"box" : 								{
									"maxclass" : "newobj",
									"text" : "prepend append",
									"patching_rect" : [ 39.0, 439.0, 98.0, 20.0 ],
									"numoutlets" : 1,
									"id" : "obj-48",
									"fontname" : "Arial",
									"outlettype" : [ "" ],
									"fontsize" : 12.0,
									"numinlets" : 1
								}

							}
, 							{
								"box" : 								{
									"maxclass" : "inlet",
									"patching_rect" : [ 361.0, 91.0, 25.0, 25.0 ],
									"numoutlets" : 1,
									"id" : "obj-7",
									"outlettype" : [ "signal" ],
									"numinlets" : 0,
									"comment" : ""
								}

							}
, 							{
								"box" : 								{
									"maxclass" : "inlet",
									"patching_rect" : [ 94.0, 91.0, 25.0, 25.0 ],
									"numoutlets" : 1,
									"id" : "obj-9",
									"outlettype" : [ "" ],
									"numinlets" : 0,
									"comment" : ""
								}

							}
 ],
						"lines" : [ 							{
								"patchline" : 								{
									"source" : [ "obj-5", 0 ],
									"destination" : [ "obj-49", 0 ],
									"hidden" : 0,
									"midpoints" : [  ]
								}

							}
, 							{
								"patchline" : 								{
									"source" : [ "obj-44", 0 ],
									"destination" : [ "obj-5", 0 ],
									"hidden" : 0,
									"midpoints" : [  ]
								}

							}
, 							{
								"patchline" : 								{
									"source" : [ "obj-38", 1 ],
									"destination" : [ "obj-40", 0 ],
									"hidden" : 0,
									"midpoints" : [  ]
								}

							}
, 							{
								"patchline" : 								{
									"source" : [ "obj-40", 0 ],
									"destination" : [ "obj-41", 0 ],
									"hidden" : 0,
									"midpoints" : [  ]
								}

							}
, 							{
								"patchline" : 								{
									"source" : [ "obj-41", 0 ],
									"destination" : [ "obj-42", 0 ],
									"hidden" : 0,
									"midpoints" : [  ]
								}

							}
, 							{
								"patchline" : 								{
									"source" : [ "obj-42", 0 ],
									"destination" : [ "obj-44", 0 ],
									"hidden" : 0,
									"midpoints" : [  ]
								}

							}
, 							{
								"patchline" : 								{
									"source" : [ "obj-8", 0 ],
									"destination" : [ "obj-11", 0 ],
									"hidden" : 0,
									"midpoints" : [  ]
								}

							}
, 							{
								"patchline" : 								{
									"source" : [ "obj-6", 0 ],
									"destination" : [ "obj-8", 0 ],
									"hidden" : 0,
									"midpoints" : [  ]
								}

							}
, 							{
								"patchline" : 								{
									"source" : [ "obj-23", 0 ],
									"destination" : [ "obj-48", 0 ],
									"hidden" : 0,
									"midpoints" : [  ]
								}

							}
, 							{
								"patchline" : 								{
									"source" : [ "obj-48", 0 ],
									"destination" : [ "obj-49", 0 ],
									"hidden" : 0,
									"midpoints" : [  ]
								}

							}
, 							{
								"patchline" : 								{
									"source" : [ "obj-7", 0 ],
									"destination" : [ "obj-63", 0 ],
									"hidden" : 0,
									"midpoints" : [  ]
								}

							}
, 							{
								"patchline" : 								{
									"source" : [ "obj-69", 1 ],
									"destination" : [ "obj-63", 0 ],
									"hidden" : 0,
									"midpoints" : [  ]
								}

							}
, 							{
								"patchline" : 								{
									"source" : [ "obj-13", 0 ],
									"destination" : [ "obj-23", 1 ],
									"hidden" : 0,
									"midpoints" : [  ]
								}

							}
, 							{
								"patchline" : 								{
									"source" : [ "obj-9", 0 ],
									"destination" : [ "obj-13", 0 ],
									"hidden" : 0,
									"midpoints" : [  ]
								}

							}
, 							{
								"patchline" : 								{
									"source" : [ "obj-13", 1 ],
									"destination" : [ "obj-14", 0 ],
									"hidden" : 0,
									"midpoints" : [  ]
								}

							}
, 							{
								"patchline" : 								{
									"source" : [ "obj-14", 0 ],
									"destination" : [ "obj-15", 0 ],
									"hidden" : 0,
									"midpoints" : [  ]
								}

							}
, 							{
								"patchline" : 								{
									"source" : [ "obj-15", 0 ],
									"destination" : [ "obj-63", 0 ],
									"hidden" : 0,
									"midpoints" : [  ]
								}

							}
, 							{
								"patchline" : 								{
									"source" : [ "obj-69", 0 ],
									"destination" : [ "obj-14", 1 ],
									"hidden" : 0,
									"midpoints" : [  ]
								}

							}
, 							{
								"patchline" : 								{
									"source" : [ "obj-51", 0 ],
									"destination" : [ "obj-49", 0 ],
									"hidden" : 0,
									"midpoints" : [  ]
								}

							}
, 							{
								"patchline" : 								{
									"source" : [ "obj-69", 0 ],
									"destination" : [ "obj-51", 0 ],
									"hidden" : 0,
									"midpoints" : [  ]
								}

							}
, 							{
								"patchline" : 								{
									"source" : [ "obj-3", 0 ],
									"destination" : [ "obj-23", 0 ],
									"hidden" : 0,
									"midpoints" : [  ]
								}

							}
, 							{
								"patchline" : 								{
									"source" : [ "obj-11", 0 ],
									"destination" : [ "obj-3", 0 ],
									"hidden" : 0,
									"midpoints" : [  ]
								}

							}
, 							{
								"patchline" : 								{
									"source" : [ "obj-3", 1 ],
									"destination" : [ "obj-69", 0 ],
									"hidden" : 0,
									"midpoints" : [  ]
								}

							}
 ]
					}
,
					"saved_object_attributes" : 					{
						"fontname" : "Arial",
						"default_fontface" : 0,
						"default_fontname" : "Arial",
						"globalpatchername" : "",
						"fontface" : 0,
						"fontsize" : 12.0,
						"default_fontsize" : 12.0
					}

				}

			}
, 			{
				"box" : 				{
					"maxclass" : "newobj",
					"text" : "p init",
					"patching_rect" : [ 396.0, 356.0, 36.0, 20.0 ],
					"numoutlets" : 1,
					"id" : "obj-89",
					"fontname" : "Arial",
					"outlettype" : [ "" ],
					"fontsize" : 12.0,
					"numinlets" : 0,
					"patcher" : 					{
						"fileversion" : 1,
						"rect" : [ 25.0, 69.0, 426.0, 251.0 ],
						"bglocked" : 0,
						"defrect" : [ 25.0, 69.0, 426.0, 251.0 ],
						"openrect" : [ 0.0, 0.0, 0.0, 0.0 ],
						"openinpresentation" : 0,
						"default_fontsize" : 12.0,
						"default_fontface" : 0,
						"default_fontname" : "Arial",
						"gridonopen" : 0,
						"gridsize" : [ 15.0, 15.0 ],
						"gridsnaponopen" : 0,
						"toolbarvisible" : 1,
						"boxanimatetime" : 200,
						"imprint" : 0,
						"enablehscroll" : 1,
						"enablevscroll" : 1,
						"devicewidth" : 0.0,
						"boxes" : [ 							{
								"box" : 								{
									"maxclass" : "message",
									"text" : "1. 1. 0.96 0.9 0.8 0.678 0.5 0.4 0.28 0.13 0.05 0.",
									"patching_rect" : [ 67.0, 91.0, 267.0, 18.0 ],
									"numoutlets" : 1,
									"id" : "obj-2",
									"fontname" : "Arial",
									"outlettype" : [ "" ],
									"fontsize" : 12.0,
									"numinlets" : 2
								}

							}
, 							{
								"box" : 								{
									"maxclass" : "newobj",
									"text" : "loadbang",
									"patching_rect" : [ 67.0, 52.0, 60.0, 20.0 ],
									"numoutlets" : 1,
									"id" : "obj-72",
									"fontname" : "Arial",
									"outlettype" : [ "bang" ],
									"fontsize" : 12.0,
									"numinlets" : 1
								}

							}
, 							{
								"box" : 								{
									"maxclass" : "outlet",
									"patching_rect" : [ 67.0, 174.0, 25.0, 25.0 ],
									"numoutlets" : 0,
									"id" : "obj-88",
									"numinlets" : 1,
									"comment" : ""
								}

							}
 ],
						"lines" : [ 							{
								"patchline" : 								{
									"source" : [ "obj-72", 0 ],
									"destination" : [ "obj-2", 0 ],
									"hidden" : 0,
									"midpoints" : [  ]
								}

							}
, 							{
								"patchline" : 								{
									"source" : [ "obj-2", 0 ],
									"destination" : [ "obj-88", 0 ],
									"hidden" : 0,
									"midpoints" : [  ]
								}

							}
 ]
					}
,
					"saved_object_attributes" : 					{
						"fontname" : "Arial",
						"default_fontface" : 0,
						"default_fontname" : "Arial",
						"globalpatchername" : "",
						"fontface" : 0,
						"fontsize" : 12.0,
						"default_fontsize" : 12.0
					}

				}

			}
, 			{
				"box" : 				{
					"maxclass" : "meter~",
					"patching_rect" : [ 138.0, 198.0, 13.0, 77.0 ],
					"numoutlets" : 1,
					"id" : "obj-86",
					"outlettype" : [ "float" ],
					"numinlets" : 1
				}

			}
, 			{
				"box" : 				{
					"maxclass" : "newobj",
					"text" : "sfplay~ 1",
					"patching_rect" : [ 113.0, 157.0, 59.0, 20.0 ],
					"numoutlets" : 2,
					"id" : "obj-75",
					"fontname" : "Arial",
					"outlettype" : [ "signal", "bang" ],
					"fontsize" : 12.0,
					"numinlets" : 2,
					"save" : [ "#N", "sfplay~", "", 1, 120960, 0, "", ";" ]
				}

			}
, 			{
				"box" : 				{
					"maxclass" : "newobj",
					"text" : "loadmess 128",
					"patching_rect" : [ 222.0, 580.0, 85.0, 20.0 ],
					"numoutlets" : 1,
					"id" : "obj-73",
					"fontname" : "Arial",
					"outlettype" : [ "" ],
					"fontsize" : 12.0,
					"numinlets" : 1,
					"hidden" : 1
				}

			}
, 			{
				"box" : 				{
					"maxclass" : "gain~",
					"patching_rect" : [ 242.0, 529.0, 22.0, 88.0 ],
					"numoutlets" : 2,
					"id" : "obj-67",
					"outlettype" : [ "signal", "int" ],
					"numinlets" : 2
				}

			}
, 			{
				"box" : 				{
					"maxclass" : "newobj",
					"text" : "p mfcc",
					"patching_rect" : [ 113.0, 373.0, 52.0, 23.0 ],
					"numoutlets" : 1,
					"id" : "obj-29",
					"fontname" : "Arial",
					"outlettype" : [ "" ],
					"fontsize" : 14.0,
					"numinlets" : 1,
					"patcher" : 					{
						"fileversion" : 1,
						"rect" : [ 285.0, 44.0, 485.0, 580.0 ],
						"bglocked" : 0,
						"defrect" : [ 285.0, 44.0, 485.0, 580.0 ],
						"openrect" : [ 0.0, 0.0, 0.0, 0.0 ],
						"openinpresentation" : 0,
						"default_fontsize" : 12.0,
						"default_fontface" : 0,
						"default_fontname" : "Arial",
						"gridonopen" : 0,
						"gridsize" : [ 15.0, 15.0 ],
						"gridsnaponopen" : 0,
						"toolbarvisible" : 1,
						"boxanimatetime" : 200,
						"imprint" : 0,
						"enablehscroll" : 1,
						"enablevscroll" : 1,
						"devicewidth" : 0.0,
						"boxes" : [ 							{
								"box" : 								{
									"maxclass" : "comment",
									"text" : "(requires FTM & Co  see http://ftm.ircam.fr)",
									"patching_rect" : [ 27.0, 36.0, 261.0, 20.0 ],
									"numoutlets" : 0,
									"id" : "obj-12",
									"fontname" : "Arial",
									"fontsize" : 12.0,
									"numinlets" : 1
								}

							}
, 							{
								"box" : 								{
									"maxclass" : "comment",
									"text" : "extract MFCCs",
									"patching_rect" : [ 27.0, 14.0, 131.0, 27.0 ],
									"numoutlets" : 0,
									"id" : "obj-23",
									"fontname" : "Arial",
									"fontsize" : 18.0,
									"numinlets" : 1
								}

							}
, 							{
								"box" : 								{
									"maxclass" : "comment",
									"text" : "MFCCs",
									"patching_rect" : [ 200.0, 412.0, 51.0, 20.0 ],
									"numoutlets" : 0,
									"id" : "obj-18",
									"fontname" : "Arial",
									"fontsize" : 12.0,
									"numinlets" : 1
								}

							}
, 							{
								"box" : 								{
									"maxclass" : "comment",
									"text" : "log MEL bands",
									"patching_rect" : [ 119.0, 374.0, 90.0, 20.0 ],
									"numoutlets" : 0,
									"id" : "obj-17",
									"fontname" : "Arial",
									"fontsize" : 12.0,
									"numinlets" : 1
								}

							}
, 							{
								"box" : 								{
									"maxclass" : "comment",
									"text" : "MEL bands",
									"patching_rect" : [ 259.0, 318.0, 71.0, 20.0 ],
									"numoutlets" : 0,
									"id" : "obj-15",
									"fontname" : "Arial",
									"fontsize" : 12.0,
									"numinlets" : 1
								}

							}
, 							{
								"box" : 								{
									"maxclass" : "comment",
									"text" : "power spectrum",
									"patching_rect" : [ 145.0, 263.0, 96.0, 20.0 ],
									"numoutlets" : 0,
									"id" : "obj-14",
									"fontname" : "Arial",
									"fontsize" : 12.0,
									"numinlets" : 1
								}

							}
, 							{
								"box" : 								{
									"maxclass" : "comment",
									"text" : "window frames",
									"patching_rect" : [ 134.0, 187.0, 91.0, 20.0 ],
									"numoutlets" : 0,
									"id" : "obj-11",
									"fontname" : "Arial",
									"fontsize" : 12.0,
									"numinlets" : 1
								}

							}
, 							{
								"box" : 								{
									"maxclass" : "comment",
									"text" : "raw frames",
									"patching_rect" : [ 200.0, 151.0, 70.0, 20.0 ],
									"numoutlets" : 0,
									"id" : "obj-10",
									"fontname" : "Arial",
									"fontsize" : 12.0,
									"numinlets" : 1
								}

							}
, 							{
								"box" : 								{
									"maxclass" : "ftm.object",
									"text" : "8",
									"patching_rect" : [ 310.0, 212.0, 59.802734, 19.0 ],
									"numoutlets" : 2,
									"ftm_scope" : 1,
									"id" : "obj-8",
									"fontname" : "Arial",
									"name" : "Nover",
									"outlettype" : [ "", "" ],
									"ftm_objref_conv" : 0,
									"persistence" : 0,
									"fontsize" : 12.0,
									"presentation_rect" : [ 310.0, 212.0, 59.802734, 19.0 ],
									"description" : "8",
									"scope" : 0,
									"numinlets" : 1
								}

							}
, 							{
								"box" : 								{
									"maxclass" : "ftm.object",
									"text" : "25",
									"patching_rect" : [ 310.0, 188.0, 68.462891, 19.0 ],
									"numoutlets" : 2,
									"ftm_scope" : 0,
									"id" : "obj-7",
									"fontname" : "Arial",
									"name" : "Nmfcc",
									"outlettype" : [ "", "" ],
									"ftm_objref_conv" : 0,
									"persistence" : 0,
									"fontsize" : 12.0,
									"presentation_rect" : [ 310.0, 188.0, 68.462891, 19.0 ],
									"description" : "25",
									"scope" : 0,
									"numinlets" : 1
								}

							}
, 							{
								"box" : 								{
									"maxclass" : "ftm.object",
									"text" : "25",
									"patching_rect" : [ 310.0, 164.0, 62.46875, 19.0 ],
									"numoutlets" : 2,
									"ftm_scope" : 0,
									"id" : "obj-6",
									"fontname" : "Arial",
									"name" : "Nmel",
									"outlettype" : [ "", "" ],
									"ftm_objref_conv" : 0,
									"persistence" : 0,
									"fontsize" : 12.0,
									"presentation_rect" : [ 310.0, 164.0, 62.46875, 19.0 ],
									"description" : "25",
									"scope" : 0,
									"numinlets" : 1
								}

							}
, 							{
								"box" : 								{
									"maxclass" : "ftm.object",
									"text" : "($Nfft / $Nover)",
									"patching_rect" : [ 310.0, 141.0, 131.609375, 19.0 ],
									"numoutlets" : 2,
									"ftm_scope" : 0,
									"id" : "obj-2",
									"fontname" : "Arial",
									"name" : "Nhop",
									"outlettype" : [ "", "" ],
									"ftm_objref_conv" : 0,
									"persistence" : 0,
									"fontsize" : 12.0,
									"presentation_rect" : [ 310.0, 141.0, 131.609375, 19.0 ],
									"description" : "($Nfft / $Nover)",
									"scope" : 0,
									"numinlets" : 1
								}

							}
, 							{
								"box" : 								{
									"maxclass" : "ftm.object",
									"text" : "2048",
									"patching_rect" : [ 310.0, 118.0, 66.265625, 19.0 ],
									"numoutlets" : 2,
									"ftm_scope" : 0,
									"id" : "obj-5",
									"fontname" : "Arial",
									"name" : "Nfft",
									"outlettype" : [ "", "" ],
									"ftm_objref_conv" : 0,
									"persistence" : 0,
									"fontsize" : 12.0,
									"presentation_rect" : [ 310.0, 118.0, 66.265625, 19.0 ],
									"description" : "2048",
									"scope" : 0,
									"numinlets" : 1
								}

							}
, 							{
								"box" : 								{
									"maxclass" : "newobj",
									"text" : "ftm.list",
									"patching_rect" : [ 67.0, 448.0, 45.0, 20.0 ],
									"numoutlets" : 1,
									"id" : "obj-47",
									"fontname" : "Arial",
									"outlettype" : [ "" ],
									"fontsize" : 12.0,
									"numinlets" : 1,
									"saved_object_attributes" : 									{
										"ftm_scope" : 0,
										"ftm_objref_conv" : 0
									}

								}

							}
, 							{
								"box" : 								{
									"maxclass" : "ftm.mess",
									"patching_rect" : [ 67.0, 374.0, 46.6875, 18.0 ],
									"numoutlets" : 1,
									"#triggerall" : 0,
									"ftm_scope" : 0,
									"id" : "obj-32",
									"fontname" : "Arial",
									"text" : [ "_($1 log)" ],
									"outlettype" : [ "" ],
									"#init" : "",
									"ftm_objref_conv" : 0,
									"fontsize" : 12.0,
									"presentation_rect" : [ 67.0, 374.0, 46.6875, 18.0 ],
									"#untuple" : 0,
									"numinlets" : 2,
									"#loadbang" : 0
								}

							}
, 							{
								"box" : 								{
									"maxclass" : "newobj",
									"text" : "gbr.dct $Nmel $Nmfcc",
									"patching_rect" : [ 67.0, 412.0, 129.0, 20.0 ],
									"numoutlets" : 2,
									"id" : "obj-26",
									"fontname" : "Arial",
									"outlettype" : [ "", "" ],
									"fontsize" : 12.0,
									"numinlets" : 1,
									"saved_object_attributes" : 									{
										"ftm_scope" : 0,
										"ftm_objref_conv" : 0
									}

								}

							}
, 							{
								"box" : 								{
									"maxclass" : "newobj",
									"text" : "gbr.bands ($Nfft / 2 + 1) $Nmel @mode mel @sr $FTM.audio.sr @maxfreq ($FTM.audio.sr / 2)",
									"linecount" : 3,
									"patching_rect" : [ 67.0, 305.0, 187.0, 48.0 ],
									"numoutlets" : 2,
									"id" : "obj-24",
									"fontname" : "Arial",
									"outlettype" : [ "", "" ],
									"fontsize" : 12.0,
									"numinlets" : 1,
									"saved_object_attributes" : 									{
										"ftm_scope" : 0,
										"ftm_objref_conv" : 0
									}

								}

							}
, 							{
								"box" : 								{
									"maxclass" : "ftm.mess",
									"patching_rect" : [ 67.0, 263.0, 72.691406, 18.0 ],
									"numoutlets" : 1,
									"#triggerall" : 0,
									"ftm_scope" : 0,
									"id" : "obj-13",
									"fontname" : "Arial",
									"text" : [ "_($1 csqrabs)" ],
									"outlettype" : [ "" ],
									"#init" : "",
									"ftm_objref_conv" : 0,
									"fontsize" : 12.0,
									"presentation_rect" : [ 67.0, 263.0, 72.691406, 18.0 ],
									"#untuple" : 0,
									"numinlets" : 2,
									"#loadbang" : 0
								}

							}
, 							{
								"box" : 								{
									"maxclass" : "newobj",
									"text" : "gbr.fft $Nfft @mode real",
									"patching_rect" : [ 67.0, 224.0, 138.0, 20.0 ],
									"numoutlets" : 1,
									"id" : "obj-4",
									"fontname" : "Arial",
									"outlettype" : [ "" ],
									"fontsize" : 12.0,
									"numinlets" : 1,
									"saved_object_attributes" : 									{
										"ftm_scope" : 0,
										"ftm_objref_conv" : 0
									}

								}

							}
, 							{
								"box" : 								{
									"maxclass" : "newobj",
									"text" : "gbr.wind=",
									"patching_rect" : [ 67.0, 187.0, 62.0, 20.0 ],
									"numoutlets" : 1,
									"id" : "obj-3",
									"fontname" : "Arial",
									"outlettype" : [ "" ],
									"fontsize" : 12.0,
									"numinlets" : 2,
									"saved_object_attributes" : 									{
										"ftm_scope" : 0,
										"ftm_objref_conv" : 0
									}

								}

							}
, 							{
								"box" : 								{
									"maxclass" : "newobj",
									"text" : "gbr.slice~ $Nfft $Nhop",
									"patching_rect" : [ 67.0, 151.0, 129.0, 20.0 ],
									"numoutlets" : 2,
									"id" : "obj-1",
									"fontname" : "Arial",
									"outlettype" : [ "", "" ],
									"fontsize" : 12.0,
									"numinlets" : 1,
									"saved_object_attributes" : 									{
										"ftm_scope" : 2,
										"ftm_objref_conv" : 0
									}

								}

							}
, 							{
								"box" : 								{
									"maxclass" : "inlet",
									"patching_rect" : [ 67.0, 76.0, 25.0, 25.0 ],
									"numoutlets" : 1,
									"id" : "obj-19",
									"outlettype" : [ "signal" ],
									"numinlets" : 0,
									"comment" : ""
								}

							}
, 							{
								"box" : 								{
									"maxclass" : "outlet",
									"patching_rect" : [ 67.0, 511.0, 25.0, 25.0 ],
									"numoutlets" : 0,
									"id" : "obj-28",
									"numinlets" : 1,
									"comment" : ""
								}

							}
 ],
						"lines" : [ 							{
								"patchline" : 								{
									"source" : [ "obj-47", 0 ],
									"destination" : [ "obj-28", 0 ],
									"hidden" : 0,
									"midpoints" : [  ]
								}

							}
, 							{
								"patchline" : 								{
									"source" : [ "obj-4", 0 ],
									"destination" : [ "obj-13", 0 ],
									"hidden" : 0,
									"midpoints" : [  ]
								}

							}
, 							{
								"patchline" : 								{
									"source" : [ "obj-3", 0 ],
									"destination" : [ "obj-4", 0 ],
									"hidden" : 0,
									"midpoints" : [  ]
								}

							}
, 							{
								"patchline" : 								{
									"source" : [ "obj-1", 0 ],
									"destination" : [ "obj-3", 0 ],
									"hidden" : 0,
									"midpoints" : [  ]
								}

							}
, 							{
								"patchline" : 								{
									"source" : [ "obj-19", 0 ],
									"destination" : [ "obj-1", 0 ],
									"hidden" : 0,
									"midpoints" : [  ]
								}

							}
, 							{
								"patchline" : 								{
									"source" : [ "obj-13", 0 ],
									"destination" : [ "obj-24", 0 ],
									"hidden" : 0,
									"midpoints" : [  ]
								}

							}
, 							{
								"patchline" : 								{
									"source" : [ "obj-24", 0 ],
									"destination" : [ "obj-32", 0 ],
									"hidden" : 0,
									"midpoints" : [  ]
								}

							}
, 							{
								"patchline" : 								{
									"source" : [ "obj-32", 0 ],
									"destination" : [ "obj-26", 0 ],
									"hidden" : 0,
									"midpoints" : [  ]
								}

							}
, 							{
								"patchline" : 								{
									"source" : [ "obj-26", 0 ],
									"destination" : [ "obj-47", 0 ],
									"hidden" : 0,
									"midpoints" : [  ]
								}

							}
 ]
					}
,
					"saved_object_attributes" : 					{
						"fontname" : "Arial",
						"default_fontface" : 0,
						"default_fontname" : "Arial",
						"globalpatchername" : "",
						"fontface" : 0,
						"fontsize" : 12.0,
						"default_fontsize" : 12.0
					}

				}

			}
, 			{
				"box" : 				{
					"maxclass" : "multislider",
					"patching_rect" : [ 396.0, 384.0, 124.0, 67.0 ],
					"numoutlets" : 2,
					"id" : "obj-25",
					"outlettype" : [ "", "" ],
					"spacing" : 1,
					"setstyle" : 1,
					"candycane" : 12,
					"size" : 12,
					"setminmax" : [ 0.0, 1.0 ],
					"numinlets" : 1
				}

			}
, 			{
				"box" : 				{
					"maxclass" : "gain~",
					"patching_rect" : [ 268.0, 529.0, 22.0, 88.0 ],
					"numoutlets" : 2,
					"id" : "obj-21",
					"outlettype" : [ "signal", "int" ],
					"numinlets" : 2
				}

			}
, 			{
				"box" : 				{
					"maxclass" : "imubu",
					"region_color" : [ 0.8, 0.7, 0.7, 1.0 ],
					"tabs_position" : 0,
					"domainscrollbar_visible" : 0,
					"patching_rect" : [ 361.0, 576.0, 320.0, 124.0 ],
					"toolbar_size" : 20,
					"cursor_position" : -1.0,
					"domainruler_bgcolor" : [ 1.0, 1.0, 1.0, 1.0 ],
					"autoupdate" : 1000.0,
					"numoutlets" : 1,
					"bufferchooser_position" : 1,
					"region_bounds" : [ 0.0, 0.0 ],
					"id" : "obj-35",
					"domainruler_size" : 15,
					"domainruler_unit" : 0,
					"name" : "sound",
					"split_visible" : 1,
					"outputvalues" : 0,
					"domain_bounds" : [ 0.0, 0.0 ],
					"opacity" : 0.0,
					"outputmouse" : 0,
					"outlettype" : [ "" ],
					"orientation" : 0,
					"cursor_visible" : 1,
					"domainscrollbar_size" : 10,
					"rangeruler_visible" : 0,
					"cursor_color" : [ 1.0, 1.0, 1.0, 1.0 ],
					"bgcolor" : [ 1.0, 1.0, 1.0, 1.0 ],
					"tabs_visible" : 1,
					"toolbar_visible" : 0,
					"windresize" : 0,
					"alignviewbounds" : 0,
					"domainruler_position" : 0,
					"domainruler_grid" : 0,
					"split_size" : 2,
					"content" : [  ],
					"tabs_size" : 20,
					"domainscrollbar_color" : [ 1.0, 1.0, 1.0, 1.0 ],
					"domainruler_visible" : 0,
					"bufferchooser_fgcolor" : [ 0.0, 0.0, 0.0, 1.0 ],
					"bufferchooser_bgcolor" : [ 1.0, 1.0, 1.0, 1.0 ],
					"rangeruler_size" : 35,
					"rangeruler_grid" : 0,
					"autoviewbounds" : 0,
					"split_color" : [ 1.0, 0.0, 0.0, 1.0 ],
					"bufferchooser_visible" : 0,
					"layout" : 0,
					"toolbar_position" : 1,
					"cursor_size" : 3,
					"domainruler_fgcolor" : [ 0.0, 0.0, 0.0, 1.0 ],
					"numinlets" : 1,
					"toolbar_bgcolor" : [ 1.0, 1.0, 1.0, 1.0 ],
					"bufferchooser_size" : 12,
					"embed" : 0
				}

			}
, 			{
				"box" : 				{
					"maxclass" : "ezdac~",
					"patching_rect" : [ 242.0, 636.0, 45.0, 45.0 ],
					"numoutlets" : 0,
					"id" : "obj-23",
					"local" : 1,
					"numinlets" : 2
				}

			}
, 			{
				"box" : 				{
					"maxclass" : "toggle",
					"patching_rect" : [ 103.0, 121.0, 20.0, 20.0 ],
					"numoutlets" : 1,
					"id" : "obj-22",
					"outlettype" : [ "int" ],
					"numinlets" : 1
				}

			}
, 			{
				"box" : 				{
					"maxclass" : "message",
					"text" : "open, loop 1, 1",
					"patching_rect" : [ 129.0, 121.0, 90.0, 18.0 ],
					"numoutlets" : 1,
					"id" : "obj-20",
					"fontname" : "Arial",
					"outlettype" : [ "" ],
					"fontsize" : 12.0,
					"numinlets" : 2
				}

			}
, 			{
				"box" : 				{
					"maxclass" : "gain~",
					"patching_rect" : [ 113.0, 198.0, 22.0, 77.0 ],
					"numoutlets" : 2,
					"id" : "obj-2",
					"outlettype" : [ "signal", "int" ],
					"numinlets" : 2
				}

			}
, 			{
				"box" : 				{
					"maxclass" : "fpic",
					"patching_rect" : [ 0.0, 0.0, 96.0, 97.0 ],
					"xoffset" : -1.0,
					"numoutlets" : 0,
					"id" : "obj-48",
					"yoffset" : -1.0,
					"numinlets" : 1,
					"embed" : 1,
					"data" : [ 1263, "", "IBkSG0fBZn....PCIgDQRA....F...PXHX....PJDSZm....DLmPIQEBHf.B7g.YHB..DXZRDEDU3wY6ctsbpBCEF9OmCPPAE8p99+xzGIEXegFKaa05AJq.IeyvL0oiMo4ibZwJJquuuGIHC4me9I00ARorrD444SZYx4b7wGeb5mmzRN.4vgCSdY100gttN.jD.IB..nssE.IAf11VPwzfGOdD.IA.fuZLlRR8.FfuwXJIMGv.7MFSIod.CH0CfXnnGPR.CfhUA4Kyj..MBvSR.H0CHJII.hgwX.HI..7UiAEkYR.fFA3II.j5APNb9z2L3Kyj..fPHl7xLIfAPQO.uzSB.od.jiTJm7xL0C3LBgfjUA4kdzK.kRQR4l5AbFJD.mySyA3gBALrLiZAvXLRl.NIfyn0ZRl.NIfyXLFRJWsVe4mSBf.RB.mZDnHDDWOrWzJfrrLRJ2g28CDoBfwXjM7y0kaTJfrrLxdJXVq8+dcTJfo9Dw3Qq0eKxqQm.rVKIge1W1WSzIfhhBxJ6nW.VqkjPO.bJ.b+zD+Qk.bNGYkcdd9ONwezHf77bxF6G3166HJD.myIcreNm+ii+CDIBnrrjjvN3onn3l66XwK.iwby69lJt2bOKZAv4brZ0JRqCZs9tO0sEs.VsZEoC8.76q7ZwJfhhBxB3lmGYx+Eo.zZMoq5wSYY4uFzuEm.DBAVudMo47umGYieKJAv4bTWWS939.mZ7ejM9QeMcjfwXnttlzc6NjGc0WKBA3a7oJPaWiy4d35xrW.9FepxwyqgwXO0dOBiaYdQ7i4GJ24CbZkOOS8Ibp4OIRoDUUUAyX9.u1NumkBvXLAyRMGRUU0SuBrYm.bNWPrIqq4U272rQ.9MXEJS1dMa1r4k5QNKDPVV1CssdpX0pUeKi2dTBZAHDh25eto.oTh0qW+5u+QrtLZvXL3bNRyfsGklll2pNFTBfwXHOOG444AQ7b9MVud8a26LHD.myQVV1rogG3zRgGim1FoBPoTHKKCVqM3GpYHbNGa2tcTpySt.DBArVKoYo16RSSynU2mjV.sVCsVCiwLaaz8TUUMpYYgrppBGNb.GOdDGOd7s9Tj0erOEBATJETJEjR4rZ3k6Qdd9nmkERiw7eO7599dz00g11Vz00c409eGvoFZ+k+TeKDhYyDnuBFiAa2tcz+69swCXLFDBQPEkQpQJku858uEK2aYGIDBA1ue+e1MjIAbG3bN1ue+e5BGRB3FvXLre+9+7nuNuWS3eDbNG61saRBBXR.WgeXmoJBrIAL.+DtS4C8IIfynTJra2tIem5IAfSmdxllFR1HYzK.myg55ZxBWRTKf55ZTVVRZcHJEfPHPSSC4GfCfHT.YYYXylMASrthFA3ShWJOs7+DQg.zZM1tcaPlTWKZAvXLTUUAmyErOTnEq.Bsw5uEKNAnTJTWWS9oi+QYwH.ex6duOWFBQl8BvenHbN2r7YROaEfOwcC4IXeDlcBPq0nrr7leBTM2XVH.eR65btfH7AiIAs.LFCJJJlUIs6yRvI.q0dISoC80vOFPt.jR4kj00ZsK16zuESt.FlntKgj08cQZs1KIk6X8U6MmygTJub4STWkRsHV4xXBqePqdaa6kjx0e022e45xa5bi3vjy0mftT8Ei1bk+U5Ott4BadTF.....jTQNQjqBAlf" ]
				}

			}
 ],
		"lines" : [ 			{
				"patchline" : 				{
					"source" : [ "obj-5", 0 ],
					"destination" : [ "obj-35", 0 ],
					"hidden" : 0,
					"midpoints" : [  ]
				}

			}
, 			{
				"patchline" : 				{
					"source" : [ "obj-21", 0 ],
					"destination" : [ "obj-23", 1 ],
					"hidden" : 0,
					"midpoints" : [  ]
				}

			}
, 			{
				"patchline" : 				{
					"source" : [ "obj-67", 0 ],
					"destination" : [ "obj-23", 0 ],
					"hidden" : 0,
					"midpoints" : [  ]
				}

			}
, 			{
				"patchline" : 				{
					"source" : [ "obj-55", 0 ],
					"destination" : [ "obj-67", 0 ],
					"hidden" : 0,
					"midpoints" : [ 122.5, 344.0, 251.0, 344.0 ]
				}

			}
, 			{
				"patchline" : 				{
					"source" : [ "obj-55", 0 ],
					"destination" : [ "obj-10", 2 ],
					"hidden" : 0,
					"midpoints" : [ 122.5, 344.5, 186.5, 344.5 ]
				}

			}
, 			{
				"patchline" : 				{
					"source" : [ "obj-50", 0 ],
					"destination" : [ "obj-24", 0 ],
					"hidden" : 0,
					"midpoints" : [ 58.5, 436.0, 277.5, 436.0 ]
				}

			}
, 			{
				"patchline" : 				{
					"source" : [ "obj-29", 0 ],
					"destination" : [ "obj-24", 1 ],
					"hidden" : 0,
					"midpoints" : [ 122.5, 415.0, 341.5, 415.0 ]
				}

			}
, 			{
				"patchline" : 				{
					"source" : [ "obj-29", 0 ],
					"destination" : [ "obj-10", 1 ],
					"hidden" : 0,
					"midpoints" : [  ]
				}

			}
, 			{
				"patchline" : 				{
					"source" : [ "obj-50", 0 ],
					"destination" : [ "obj-10", 0 ],
					"hidden" : 0,
					"midpoints" : [  ]
				}

			}
, 			{
				"patchline" : 				{
					"source" : [ "obj-54", 0 ],
					"destination" : [ "obj-55", 1 ],
					"hidden" : 0,
					"midpoints" : [  ]
				}

			}
, 			{
				"patchline" : 				{
					"source" : [ "obj-2", 0 ],
					"destination" : [ "obj-55", 0 ],
					"hidden" : 0,
					"midpoints" : [  ]
				}

			}
, 			{
				"patchline" : 				{
					"source" : [ "obj-55", 0 ],
					"destination" : [ "obj-29", 0 ],
					"hidden" : 0,
					"midpoints" : [  ]
				}

			}
, 			{
				"patchline" : 				{
					"source" : [ "obj-51", 0 ],
					"destination" : [ "obj-53", 0 ],
					"hidden" : 0,
					"midpoints" : [  ]
				}

			}
, 			{
				"patchline" : 				{
					"source" : [ "obj-51", 0 ],
					"destination" : [ "obj-54", 0 ],
					"hidden" : 0,
					"midpoints" : [  ]
				}

			}
, 			{
				"patchline" : 				{
					"source" : [ "obj-25", 0 ],
					"destination" : [ "obj-24", 2 ],
					"hidden" : 0,
					"midpoints" : [  ]
				}

			}
, 			{
				"patchline" : 				{
					"source" : [ "obj-24", 0 ],
					"destination" : [ "obj-21", 0 ],
					"hidden" : 0,
					"midpoints" : [  ]
				}

			}
, 			{
				"patchline" : 				{
					"source" : [ "obj-73", 0 ],
					"destination" : [ "obj-67", 0 ],
					"hidden" : 1,
					"midpoints" : [  ]
				}

			}
, 			{
				"patchline" : 				{
					"source" : [ "obj-22", 0 ],
					"destination" : [ "obj-75", 0 ],
					"hidden" : 0,
					"midpoints" : [  ]
				}

			}
, 			{
				"patchline" : 				{
					"source" : [ "obj-20", 0 ],
					"destination" : [ "obj-75", 0 ],
					"hidden" : 0,
					"midpoints" : [  ]
				}

			}
, 			{
				"patchline" : 				{
					"source" : [ "obj-75", 0 ],
					"destination" : [ "obj-86", 0 ],
					"hidden" : 0,
					"midpoints" : [  ]
				}

			}
, 			{
				"patchline" : 				{
					"source" : [ "obj-89", 0 ],
					"destination" : [ "obj-25", 0 ],
					"hidden" : 0,
					"midpoints" : [  ]
				}

			}
, 			{
				"patchline" : 				{
					"source" : [ "obj-75", 0 ],
					"destination" : [ "obj-2", 0 ],
					"hidden" : 0,
					"midpoints" : [  ]
				}

			}
, 			{
				"patchline" : 				{
					"source" : [ "obj-7", 0 ],
					"destination" : [ "obj-2", 0 ],
					"hidden" : 1,
					"midpoints" : [  ]
				}

			}
, 			{
				"patchline" : 				{
					"source" : [ "obj-73", 0 ],
					"destination" : [ "obj-21", 0 ],
					"hidden" : 1,
					"midpoints" : [  ]
				}

			}
 ]
	}

}
