{
	"patcher" : 	{
		"fileversion" : 1,
		"appversion" : 		{
			"major" : 9,
			"minor" : 0,
			"revision" : 7,
			"architecture" : "x64",
			"modernui" : 1
		}
,
		"classnamespace" : "box",
		"rect" : [ 59.0, 107.0, 1000.0, 730.0 ],
		"gridsize" : [ 15.0, 15.0 ],
		"boxes" : [ 			{
				"box" : 				{
					"comment" : "",
					"id" : "obj-1",
					"index" : 1,
					"maxclass" : "inlet",
					"numinlets" : 0,
					"numoutlets" : 1,
					"outlettype" : [ "bang" ],
					"patching_rect" : [ 164.547273225784238, 51.707318305969238, 30.0, 30.0 ]
				}

			}
, 			{
				"box" : 				{
					"id" : "obj-8",
					"maxclass" : "newobj",
					"numinlets" : 2,
					"numoutlets" : 1,
					"outlettype" : [ "bang" ],
					"patching_rect" : [ 164.547273225784238, 131.128204166888963, 55.0, 22.0 ],
					"presentation" : 1,
					"presentation_rect" : [ 1465.547273225784238, 146.128204166888963, 55.0, 22.0 ],
					"text" : "del 1000"
				}

			}
, 			{
				"box" : 				{
					"id" : "obj-204",
					"maxclass" : "newobj",
					"numinlets" : 1,
					"numoutlets" : 1,
					"outlettype" : [ "bang" ],
					"patching_rect" : [ 174.0, 99.5, 58.0, 22.0 ],
					"presentation" : 1,
					"presentation_rect" : [ 1465.547273225784238, 115.0, 58.0, 22.0 ],
					"text" : "loadbang"
				}

			}
, 			{
				"box" : 				{
					"fontname" : "Arial",
					"fontsize" : 10.0,
					"id" : "obj-194",
					"maxclass" : "newobj",
					"numinlets" : 1,
					"numoutlets" : 1,
					"outlettype" : [ "" ],
					"patching_rect" : [ 250.249411791563034, 134.294870495796204, 87.0, 20.0 ],
					"presentation" : 1,
					"presentation_rect" : [ 1551.249411791563034, 149.294870495796204, 87.0, 20.0 ],
					"text" : "sprintf symout %s"
				}

			}
, 			{
				"box" : 				{
					"color" : [ 1.0, 0.974635, 0.000194, 1.0 ],
					"fontname" : "Geneva",
					"fontsize" : 10.0,
					"id" : "obj-195",
					"maxclass" : "newobj",
					"numinlets" : 1,
					"numoutlets" : 0,
					"patching_rect" : [ 97.0, 231.254246957225632, 59.0, 21.0 ],
					"presentation" : 1,
					"presentation_rect" : [ 1398.0, 246.254246957225632, 59.0, 21.0 ],
					"text" : "s APPpath"
				}

			}
, 			{
				"box" : 				{
					"color" : [ 1.0, 0.974635, 0.000194, 1.0 ],
					"fontname" : "Geneva",
					"fontsize" : 10.0,
					"id" : "obj-196",
					"maxclass" : "newobj",
					"numinlets" : 0,
					"numoutlets" : 1,
					"outlettype" : [ "" ],
					"patching_rect" : [ 250.249411791563034, 100.0, 59.0, 21.0 ],
					"presentation" : 1,
					"presentation_rect" : [ 1551.249411791563034, 115.0, 59.0, 21.0 ],
					"text" : "r APPpath"
				}

			}
, 			{
				"box" : 				{
					"fontname" : "Geneva",
					"fontsize" : 10.0,
					"id" : "obj-197",
					"maxclass" : "newobj",
					"numinlets" : 1,
					"numoutlets" : 2,
					"outlettype" : [ "", "" ],
					"patching_rect" : [ 50.0, 198.128204166888963, 66.0, 21.0 ],
					"presentation" : 1,
					"presentation_rect" : [ 1351.0, 213.128204166888963, 66.0, 21.0 ],
					"save" : [ "#N", "thispatcher", ";", "#Q", "end", ";" ],
					"text" : "thispatcher"
				}

			}
, 			{
				"box" : 				{
					"fontname" : "Geneva",
					"fontsize" : 10.0,
					"id" : "obj-21",
					"maxclass" : "message",
					"numinlets" : 2,
					"numoutlets" : 1,
					"outlettype" : [ "" ],
					"patching_rect" : [ 50.0, 162.128204166888963, 32.0, 21.0 ],
					"presentation" : 1,
					"presentation_rect" : [ 1351.0, 177.128204166888963, 32.0, 21.0 ],
					"text" : "path"
				}

			}
, 			{
				"box" : 				{
					"fontname" : "Geneva",
					"fontsize" : 10.0,
					"id" : "obj-51",
					"maxclass" : "newobj",
					"numinlets" : 3,
					"numoutlets" : 3,
					"outlettype" : [ "bang", "bang", "" ],
					"patching_rect" : [ 75.5, 131.128204166888963, 46.0, 21.0 ],
					"presentation" : 1,
					"presentation_rect" : [ 1376.5, 146.128204166888963, 46.0, 21.0 ],
					"text" : "sel 0 1"
				}

			}
, 			{
				"box" : 				{
					"fontname" : "Geneva",
					"fontsize" : 10.0,
					"id" : "obj-200",
					"maxclass" : "newobj",
					"numinlets" : 0,
					"numoutlets" : 1,
					"outlettype" : [ "" ],
					"patching_rect" : [ 75.5, 107.128204166888963, 36.0, 21.0 ],
					"presentation" : 1,
					"presentation_rect" : [ 1376.5, 122.128204166888963, 36.0, 21.0 ],
					"text" : "r xxx"
				}

			}
, 			{
				"box" : 				{
					"bgcolor" : [ 1.0, 0.974635, 0.000194, 1.0 ],
					"bgfillcolor_autogradient" : 0.79,
					"bgfillcolor_color" : [ 0.2, 0.2, 0.2, 1 ],
					"bgfillcolor_color1" : [ 1.0, 0.974635, 0.000194, 1.0 ],
					"bgfillcolor_color2" : [ 0.685, 0.685, 0.685, 1.0 ],
					"bgfillcolor_type" : "gradient",
					"fontname" : "Geneva",
					"fontsize" : 10.0,
					"gradient" : 0,
					"id" : "obj-201",
					"linecount" : 2,
					"maxclass" : "message",
					"numinlets" : 2,
					"numoutlets" : 1,
					"outlettype" : [ "" ],
					"patching_rect" : [ 89.0, 162.128204166888963, 143.0, 34.0 ],
					"presentation" : 1,
					"presentation_linecount" : 2,
					"presentation_rect" : [ 1390.0, 177.128204166888963, 143.0, 34.0 ],
					"text" : ";\r\nmax sendapppath APPpath",
					"textcolor" : [ 0.0, 0.0, 0.0, 1.0 ]
				}

			}
, 			{
				"box" : 				{
					"comment" : "",
					"id" : "obj-52",
					"index" : 1,
					"maxclass" : "outlet",
					"numinlets" : 1,
					"numoutlets" : 0,
					"patching_rect" : [ 250.249389999999948, 312.254241999999977, 30.0, 30.0 ]
				}

			}
 ],
		"lines" : [ 			{
				"patchline" : 				{
					"destination" : [ "obj-8", 0 ],
					"source" : [ "obj-1", 0 ]
				}

			}
, 			{
				"patchline" : 				{
					"destination" : [ "obj-52", 0 ],
					"source" : [ "obj-194", 0 ]
				}

			}
, 			{
				"patchline" : 				{
					"destination" : [ "obj-194", 0 ],
					"source" : [ "obj-196", 0 ]
				}

			}
, 			{
				"patchline" : 				{
					"destination" : [ "obj-195", 0 ],
					"source" : [ "obj-197", 1 ]
				}

			}
, 			{
				"patchline" : 				{
					"destination" : [ "obj-51", 0 ],
					"source" : [ "obj-200", 0 ]
				}

			}
, 			{
				"patchline" : 				{
					"destination" : [ "obj-8", 0 ],
					"source" : [ "obj-204", 0 ]
				}

			}
, 			{
				"patchline" : 				{
					"destination" : [ "obj-197", 0 ],
					"source" : [ "obj-21", 0 ]
				}

			}
, 			{
				"patchline" : 				{
					"destination" : [ "obj-201", 0 ],
					"source" : [ "obj-51", 1 ]
				}

			}
, 			{
				"patchline" : 				{
					"destination" : [ "obj-21", 0 ],
					"midpoints" : [ 85.0, 156.128204166888963, 59.5, 156.128204166888963 ],
					"source" : [ "obj-51", 0 ]
				}

			}
, 			{
				"patchline" : 				{
					"destination" : [ "obj-201", 0 ],
					"source" : [ "obj-8", 0 ]
				}

			}
 ]
	}

}
