{
	"patcher" : 	{
		"fileversion" : 1,
		"appversion" : 		{
			"major" : 8,
			"minor" : 5,
			"revision" : 2,
			"architecture" : "x64",
			"modernui" : 1
		}
,
		"classnamespace" : "dsp.gen",
		"rect" : [ 1914.0, 381.0, 600.0, 943.0 ],
		"bglocked" : 0,
		"openinpresentation" : 0,
		"default_fontsize" : 12.0,
		"default_fontface" : 0,
		"default_fontname" : "Arial",
		"gridonopen" : 1,
		"gridsize" : [ 15.0, 15.0 ],
		"gridsnaponopen" : 1,
		"objectsnaponopen" : 1,
		"statusbarvisible" : 2,
		"toolbarvisible" : 1,
		"lefttoolbarpinned" : 0,
		"toptoolbarpinned" : 0,
		"righttoolbarpinned" : 0,
		"bottomtoolbarpinned" : 0,
		"toolbars_unpinned_last_save" : 0,
		"tallnewobj" : 0,
		"boxanimatetime" : 200,
		"enablehscroll" : 1,
		"enablevscroll" : 1,
		"devicewidth" : 0.0,
		"description" : "",
		"digest" : "",
		"tags" : "",
		"style" : "",
		"subpatcher_template" : "",
		"assistshowspatchername" : 0,
		"boxes" : [ 			{
				"box" : 				{
					"id" : "obj-1",
					"maxclass" : "newobj",
					"numinlets" : 0,
					"numoutlets" : 1,
					"outlettype" : [ "" ],
					"patching_rect" : [ 5.0, 9.0, 28.0, 22.0 ],
					"text" : "in 1"
				}

			}
, 			{
				"box" : 				{
					"id" : "obj-2",
					"maxclass" : "newobj",
					"numinlets" : 0,
					"numoutlets" : 1,
					"outlettype" : [ "" ],
					"patching_rect" : [ 466.0, 9.0, 28.0, 22.0 ],
					"text" : "in 2"
				}

			}
, 			{
				"box" : 				{
					"code" : "get_unused_index (id, index_to_id)\r\n{\r\n\t// find first free index\r\n\tindex = 0;\r\n\tn = dim(index_to_id);\r\n\twhile (index < n  &&  peek(index_to_id, index) == 0)\r\n\t{\r\n\t\tindex += 1;\r\n\t}\r\n\treturn index;\r\n}\r\n\r\nadd_id (id, index_to_id, id_to_index)\r\n{\r\n\tindex = get_unused_index(id, index_to_id);\r\n\tpoke(index_to_id, index, id);\r\n\tpoke(id_to_index, id,    index);\r\n\treturn index;\r\n}\r\n\r\nremove_id (id, index, index_to_id, id_to_index)\r\n{\r\n\tpoke(index_to_id, index, 0);\r\n\tpoke(id_to_index, id,    0);\r\n\treturn index;\r\n}\r\n\r\nData index_to_id (32);\r\nData id_to_index (32);\r\n\r\n// input: \r\n// in1: integer ID\r\n// in2: 'activation' value >0 is on\r\nid  = in1;\r\nvel = in2;\r\n\r\n// check if id is already known\r\nindex = peek(id_to_index, id);\r\n\r\nif (index == 0)\r\n{ // no: find first unused index and add id\r\n\tindex = add_id(id, index_to_id, id_to_index);\r\n}\t\r\n\r\n// check id off\r\nif (vel == 0)\r\n{\r\n\tremove_id(id, index, index_to_id, id_to_index);\r\n}\r\n\r\nout1 = index;\r\n",
					"fontface" : 0,
					"fontname" : "<Monospaced>",
					"fontsize" : 12.0,
					"id" : "obj-3",
					"maxclass" : "codebox",
					"numinlets" : 2,
					"numoutlets" : 1,
					"outlettype" : [ "" ],
					"patching_rect" : [ 5.0, 56.0, 587.0, 828.0 ]
				}

			}
, 			{
				"box" : 				{
					"id" : "obj-4",
					"maxclass" : "newobj",
					"numinlets" : 1,
					"numoutlets" : 0,
					"patching_rect" : [ 5.0, 889.0, 35.0, 22.0 ],
					"text" : "out 1"
				}

			}
 ],
		"lines" : [ 			{
				"patchline" : 				{
					"destination" : [ "obj-3", 0 ],
					"source" : [ "obj-1", 0 ]
				}

			}
, 			{
				"patchline" : 				{
					"destination" : [ "obj-3", 1 ],
					"source" : [ "obj-2", 0 ]
				}

			}
, 			{
				"patchline" : 				{
					"destination" : [ "obj-4", 0 ],
					"source" : [ "obj-3", 0 ]
				}

			}
 ]
	}

}
