{
    "patcher": {
        "fileversion": 1,
        "appversion": {
            "major": 9,
            "minor": 2,
            "revision": 0,
            "architecture": "x64",
            "modernui": 1
        },
        "classnamespace": "box",
        "rect": [ 763.0, 412.0, 1676.0, 935.0 ],
        "boxes": [
            {
                "box": {
                    "id": "obj-8",
                    "linecount": 3,
                    "maxclass": "comment",
                    "numinlets": 1,
                    "numoutlets": 0,
                    "patching_rect": [ 510.5, 150.0, 171.0, 47.0 ],
                    "text": "warning: \"list\" can not be sent out of umenu or live.tab, will be suppressed"
                }
            },
            {
                "box": {
                    "id": "obj-101",
                    "maxclass": "newobj",
                    "numinlets": 1,
                    "numoutlets": 2,
                    "outlettype": [ "bang", "bang" ],
                    "patching_rect": [ 6.5, 276.0, 63.83333498239517, 22.0 ],
                    "text": "t b b"
                }
            },
            {
                "box": {
                    "id": "obj-100",
                    "maxclass": "newobj",
                    "numinlets": 1,
                    "numoutlets": 2,
                    "outlettype": [ "bang", "bang" ],
                    "patching_rect": [ 6.5, 26.5, 162.0, 22.0 ],
                    "text": "t b b"
                }
            },
            {
                "box": {
                    "id": "obj-99",
                    "maxclass": "message",
                    "numinlets": 2,
                    "numoutlets": 1,
                    "outlettype": [ "" ],
                    "patching_rect": [ 6.5, 324.5, 41.0, 22.0 ],
                    "text": "0 0 0."
                }
            },
            {
                "box": {
                    "id": "obj-98",
                    "maxclass": "comment",
                    "numinlets": 1,
                    "numoutlets": 0,
                    "patching_rect": [ 216.5, 305.5, 131.0, 20.0 ],
                    "text": "minutes segments files"
                }
            },
            {
                "box": {
                    "id": "obj-97",
                    "maxclass": "newobj",
                    "numinlets": 4,
                    "numoutlets": 1,
                    "outlettype": [ "" ],
                    "patching_rect": [ 46.0, 461.0, 173.95052924752207, 22.0 ],
                    "text": "switch 3"
                }
            },
            {
                "box": {
                    "id": "obj-96",
                    "maxclass": "newobj",
                    "numinlets": 2,
                    "numoutlets": 2,
                    "outlettype": [ "", "" ],
                    "patching_rect": [ 201.0, 276.0, 37.0, 22.0 ],
                    "text": "zl rev"
                }
            },
            {
                "box": {
                    "id": "obj-95",
                    "maxclass": "newobj",
                    "numinlets": 1,
                    "numoutlets": 1,
                    "outlettype": [ "" ],
                    "patcher": {
                        "fileversion": 1,
                        "appversion": {
                            "major": 9,
                            "minor": 2,
                            "revision": 0,
                            "architecture": "x64",
                            "modernui": 1
                        },
                        "classnamespace": "box",
                        "rect": [ 59.0, 106.0, 1000.0, 780.0 ],
                        "boxes": [
                            {
                                "box": {
                                    "id": "obj-91",
                                    "maxclass": "newobj",
                                    "numinlets": 1,
                                    "numoutlets": 1,
                                    "outlettype": [ "" ],
                                    "patching_rect": [ 50.0, 266.0, 29.0, 22.0 ],
                                    "text": "thru"
                                }
                            },
                            {
                                "box": {
                                    "id": "obj-87",
                                    "maxclass": "newobj",
                                    "numinlets": 1,
                                    "numoutlets": 2,
                                    "outlettype": [ "bang", "" ],
                                    "patching_rect": [ 161.04165624082088, 144.00000429153442, 100.0, 22.0 ],
                                    "text": "t b s"
                                }
                            },
                            {
                                "box": {
                                    "id": "obj-88",
                                    "maxclass": "message",
                                    "numinlets": 2,
                                    "numoutlets": 1,
                                    "outlettype": [ "" ],
                                    "patching_rect": [ 161.37498958408833, 180.00000536441803, 97.0, 22.0 ],
                                    "text": "list list short long"
                                }
                            },
                            {
                                "box": {
                                    "id": "obj-89",
                                    "maxclass": "newobj",
                                    "numinlets": 2,
                                    "numoutlets": 2,
                                    "outlettype": [ "", "" ],
                                    "patching_rect": [ 161.04165624082088, 220.00000655651093, 110.0, 22.0 ],
                                    "text": "zl sub"
                                }
                            },
                            {
                                "box": {
                                    "id": "obj-86",
                                    "maxclass": "newobj",
                                    "numinlets": 1,
                                    "numoutlets": 6,
                                    "outlettype": [ "signal", "bang", "int", "float", "", "" ],
                                    "patching_rect": [ 50.0, 100.0, 157.8020703010261, 22.0 ],
                                    "text": "typeroute~"
                                }
                            },
                            {
                                "box": {
                                    "id": "obj-77",
                                    "maxclass": "newobj",
                                    "numinlets": 1,
                                    "numoutlets": 2,
                                    "outlettype": [ "bang", "int" ],
                                    "patching_rect": [ 50.0, 144.00000429153442, 100.0, 22.0 ],
                                    "text": "t b i"
                                }
                            },
                            {
                                "box": {
                                    "id": "obj-76",
                                    "maxclass": "message",
                                    "numinlets": 2,
                                    "numoutlets": 1,
                                    "outlettype": [ "" ],
                                    "patching_rect": [ 50.12499950826168, 180.00000536441803, 35.0, 22.0 ],
                                    "text": "0 1 2"
                                }
                            },
                            {
                                "box": {
                                    "id": "obj-70",
                                    "maxclass": "newobj",
                                    "numinlets": 2,
                                    "numoutlets": 2,
                                    "outlettype": [ "", "" ],
                                    "patching_rect": [ 50.12499950826168, 220.00000655651093, 100.33333632349968, 22.0 ],
                                    "text": "zl sub"
                                }
                            },
                            {
                                "box": {
                                    "comment": "",
                                    "id": "obj-92",
                                    "index": 1,
                                    "maxclass": "inlet",
                                    "numinlets": 0,
                                    "numoutlets": 1,
                                    "outlettype": [ "int" ],
                                    "patching_rect": [ 50.000000240820896, 40.0, 30.0, 30.0 ]
                                }
                            },
                            {
                                "box": {
                                    "comment": "",
                                    "id": "obj-93",
                                    "index": 1,
                                    "maxclass": "outlet",
                                    "numinlets": 1,
                                    "numoutlets": 0,
                                    "patching_rect": [ 50.125000240820896, 302.0, 30.0, 30.0 ]
                                }
                            }
                        ],
                        "lines": [
                            {
                                "patchline": {
                                    "destination": [ "obj-91", 0 ],
                                    "source": [ "obj-70", 0 ]
                                }
                            },
                            {
                                "patchline": {
                                    "destination": [ "obj-70", 0 ],
                                    "source": [ "obj-76", 0 ]
                                }
                            },
                            {
                                "patchline": {
                                    "destination": [ "obj-70", 1 ],
                                    "source": [ "obj-77", 1 ]
                                }
                            },
                            {
                                "patchline": {
                                    "destination": [ "obj-76", 0 ],
                                    "source": [ "obj-77", 0 ]
                                }
                            },
                            {
                                "patchline": {
                                    "destination": [ "obj-77", 0 ],
                                    "source": [ "obj-86", 3 ]
                                }
                            },
                            {
                                "patchline": {
                                    "destination": [ "obj-77", 0 ],
                                    "source": [ "obj-86", 2 ]
                                }
                            },
                            {
                                "patchline": {
                                    "destination": [ "obj-87", 0 ],
                                    "source": [ "obj-86", 4 ]
                                }
                            },
                            {
                                "patchline": {
                                    "destination": [ "obj-88", 0 ],
                                    "source": [ "obj-87", 0 ]
                                }
                            },
                            {
                                "patchline": {
                                    "destination": [ "obj-89", 1 ],
                                    "source": [ "obj-87", 1 ]
                                }
                            },
                            {
                                "patchline": {
                                    "destination": [ "obj-89", 0 ],
                                    "source": [ "obj-88", 0 ]
                                }
                            },
                            {
                                "patchline": {
                                    "destination": [ "obj-91", 0 ],
                                    "source": [ "obj-89", 0 ]
                                }
                            },
                            {
                                "patchline": {
                                    "destination": [ "obj-93", 0 ],
                                    "source": [ "obj-91", 0 ]
                                }
                            },
                            {
                                "patchline": {
                                    "destination": [ "obj-86", 0 ],
                                    "source": [ "obj-92", 0 ]
                                }
                            }
                        ]
                    },
                    "patching_rect": [ 370.0, 220.0, 95.0, 22.0 ],
                    "text": "p choose-format"
                }
            },
            {
                "box": {
                    "id": "obj-83",
                    "maxclass": "live.tab",
                    "num_lines_patching": 1,
                    "num_lines_presentation": 0,
                    "numinlets": 1,
                    "numoutlets": 3,
                    "outlettype": [ "", "", "float" ],
                    "parameter_enable": 1,
                    "patching_rect": [ 398.0, 180.0, 100.0, 20.0 ],
                    "saved_attribute_attributes": {
                        "valueof": {
                            "parameter_enum": [ "list", "short", "long" ],
                            "parameter_longname": "live.tab[8]",
                            "parameter_mmax": 2,
                            "parameter_modmode": 0,
                            "parameter_shortname": "live.tab[8]",
                            "parameter_type": 2,
                            "parameter_unitstyle": 9
                        }
                    },
                    "varname": "live.tab"
                }
            },
            {
                "box": {
                    "blanksym": "list",
                    "id": "obj-75",
                    "items": [ "list", ",", "short", ",", "long" ],
                    "maxclass": "umenu",
                    "numinlets": 1,
                    "numoutlets": 3,
                    "outlettype": [ "int", "", "" ],
                    "parameter_enable": 0,
                    "patching_rect": [ 389.0, 150.0, 100.0, 22.0 ]
                }
            },
            {
                "box": {
                    "id": "obj-67",
                    "maxclass": "newobj",
                    "numinlets": 4,
                    "numoutlets": 1,
                    "outlettype": [ "" ],
                    "patcher": {
                        "fileversion": 1,
                        "appversion": {
                            "major": 9,
                            "minor": 2,
                            "revision": 0,
                            "architecture": "x64",
                            "modernui": 1
                        },
                        "classnamespace": "box",
                        "rect": [ 1070.0, 322.0, 1626.0, 996.0 ],
                        "visible": 1,
                        "boxes": [
                            {
                                "box": {
                                    "fontsize": 12.0,
                                    "id": "obj-12",
                                    "maxclass": "newobj",
                                    "numinlets": 1,
                                    "numoutlets": 1,
                                    "outlettype": [ "" ],
                                    "patching_rect": [ 363.5333332518736, 100.0, 91.0, 22.0 ],
                                    "text": "prepend trackid"
                                }
                            },
                            {
                                "box": {
                                    "id": "obj-45",
                                    "maxclass": "comment",
                                    "numinlets": 1,
                                    "numoutlets": 0,
                                    "patching_rect": [ 202.0, 615.3950199999999, 108.0, 20.0 ],
                                    "text": "files segments min"
                                }
                            },
                            {
                                "box": {
                                    "id": "obj-42",
                                    "maxclass": "newobj",
                                    "numinlets": 3,
                                    "numoutlets": 1,
                                    "outlettype": [ "" ],
                                    "patching_rect": [ 163.53333325187361, 573.0, 103.0, 22.0 ],
                                    "text": "join 3 @triggers 2"
                                }
                            },
                            {
                                "box": {
                                    "fontsize": 12.0,
                                    "id": "obj-31",
                                    "maxclass": "newobj",
                                    "numinlets": 1,
                                    "numoutlets": 1,
                                    "outlettype": [ "" ],
                                    "patching_rect": [ 73.63620276252425, 128.0, 81.0, 22.0 ],
                                    "text": "prepend refer"
                                }
                            },
                            {
                                "box": {
                                    "id": "obj-26",
                                    "maxclass": "newobj",
                                    "numinlets": 3,
                                    "numoutlets": 1,
                                    "outlettype": [ "float" ],
                                    "patcher": {
                                        "fileversion": 1,
                                        "appversion": {
                                            "major": 9,
                                            "minor": 2,
                                            "revision": 0,
                                            "architecture": "x64",
                                            "modernui": 1
                                        },
                                        "classnamespace": "box",
                                        "rect": [ 657.0, 140.0, 1780.0, 1266.0 ],
                                        "boxes": [
                                            {
                                                "box": {
                                                    "id": "obj-2",
                                                    "maxclass": "comment",
                                                    "numinlets": 1,
                                                    "numoutlets": 0,
                                                    "patching_rect": [ 294.5984391272068, 49.09449052810669, 59.0, 20.0 ],
                                                    "text": "refer msg"
                                                }
                                            },
                                            {
                                                "box": {
                                                    "comment": "",
                                                    "id": "obj-4",
                                                    "index": 2,
                                                    "maxclass": "inlet",
                                                    "numinlets": 0,
                                                    "numoutlets": 1,
                                                    "outlettype": [ "" ],
                                                    "patching_rect": [ 262.5984391272068, 44.09449052810669, 30.0, 30.0 ]
                                                }
                                            },
                                            {
                                                "box": {
                                                    "id": "obj-12",
                                                    "maxclass": "newobj",
                                                    "numinlets": 1,
                                                    "numoutlets": 2,
                                                    "outlettype": [ "", "int" ],
                                                    "patching_rect": [ 412.0, 136.0, 29.5, 22.0 ],
                                                    "text": "t l 1"
                                                }
                                            },
                                            {
                                                "box": {
                                                    "id": "obj-28",
                                                    "linecount": 3,
                                                    "maxclass": "comment",
                                                    "numinlets": 1,
                                                    "numoutlets": 0,
                                                    "patching_rect": [ 412.0, 44.0, 99.0, 47.0 ],
                                                    "text": "audio track ID, or [audio] for polybuffer"
                                                }
                                            },
                                            {
                                                "box": {
                                                    "id": "obj-10",
                                                    "maxclass": "button",
                                                    "numinlets": 1,
                                                    "numoutlets": 1,
                                                    "outlettype": [ "bang" ],
                                                    "parameter_enable": 0,
                                                    "patching_rect": [ 555.0, 274.0, 24.0, 24.0 ]
                                                }
                                            },
                                            {
                                                "box": {
                                                    "id": "obj-8",
                                                    "linecount": 3,
                                                    "maxclass": "newobj",
                                                    "numinlets": 1,
                                                    "numoutlets": 1,
                                                    "outlettype": [ "" ],
                                                    "patching_rect": [ 597.0, 246.0, 138.0, 35.0 ],
                                                    "text": "sprintf set #1.%d"
                                                }
                                            },
                                            {
                                                "box": {
                                                    "id": "obj-7",
                                                    "maxclass": "newobj",
                                                    "numinlets": 2,
                                                    "numoutlets": 2,
                                                    "outlettype": [ "", "" ],
                                                    "patching_rect": [ 184.0, 183.0, 52.0, 22.0 ],
                                                    "text": "gate 2 1"
                                                }
                                            },
                                            {
                                                "box": {
                                                    "id": "obj-5",
                                                    "maxclass": "newobj",
                                                    "numinlets": 1,
                                                    "numoutlets": 1,
                                                    "outlettype": [ "int" ],
                                                    "patching_rect": [ 368.0, 136.0, 29.5, 22.0 ],
                                                    "text": "t 2"
                                                }
                                            },
                                            {
                                                "box": {
                                                    "id": "obj-3",
                                                    "maxclass": "comment",
                                                    "numinlets": 1,
                                                    "numoutlets": 0,
                                                    "patching_rect": [ 141.73229098320007, 49.0, 71.0, 20.0 ],
                                                    "text": "buffer index"
                                                }
                                            },
                                            {
                                                "box": {
                                                    "id": "obj-1",
                                                    "maxclass": "newobj",
                                                    "numinlets": 2,
                                                    "numoutlets": 2,
                                                    "outlettype": [ "bang", "" ],
                                                    "patching_rect": [ 368.0, 96.0, 63.0, 22.0 ],
                                                    "text": "sel [audio]"
                                                }
                                            },
                                            {
                                                "box": {
                                                    "fontsize": 12.0,
                                                    "id": "obj-11",
                                                    "maxclass": "newobj",
                                                    "numinlets": 1,
                                                    "numoutlets": 1,
                                                    "outlettype": [ "" ],
                                                    "patching_rect": [ 412.0, 242.0, 99.0, 22.0 ],
                                                    "text": "prepend trackid"
                                                }
                                            },
                                            {
                                                "box": {
                                                    "id": "obj-18",
                                                    "maxclass": "newobj",
                                                    "numinlets": 1,
                                                    "numoutlets": 10,
                                                    "outlettype": [ "float", "list", "float", "float", "float", "float", "float", "", "int", "" ],
                                                    "patching_rect": [ 597.0, 305.0, 184.0, 22.0 ],
                                                    "text": "info~"
                                                }
                                            },
                                            {
                                                "box": {
                                                    "id": "obj-19",
                                                    "maxclass": "newobj",
                                                    "numinlets": 2,
                                                    "numoutlets": 2,
                                                    "outlettype": [ "", "" ],
                                                    "patching_rect": [ 330.0, 420.0, 83.0, 22.0 ],
                                                    "text": "route duration",
                                                    "varname": "tt[2]"
                                                }
                                            },
                                            {
                                                "box": {
                                                    "id": "obj-32",
                                                    "linecount": 3,
                                                    "maxclass": "newobj",
                                                    "numinlets": 1,
                                                    "numoutlets": 3,
                                                    "outlettype": [ "", "", "" ],
                                                    "patching_rect": [ 184.0, 373.0, 157.0, 35.0 ],
                                                    "saved_object_attributes": {
                                                        "savegui": 0,
                                                        "verbose": 1
                                                    },
                                                    "text": "mubu.track #1 audio",
                                                    "varname": "tt[1]"
                                                }
                                            },
                                            {
                                                "box": {
                                                    "id": "obj-30",
                                                    "maxclass": "message",
                                                    "numinlets": 2,
                                                    "numoutlets": 1,
                                                    "outlettype": [ "" ],
                                                    "patching_rect": [ 184.0, 242.0, 151.0, 22.0 ],
                                                    "text": "bufferindex $1, getduration"
                                                }
                                            },
                                            {
                                                "box": {
                                                    "comment": "",
                                                    "id": "obj-21",
                                                    "index": 1,
                                                    "maxclass": "inlet",
                                                    "numinlets": 0,
                                                    "numoutlets": 1,
                                                    "outlettype": [ "int" ],
                                                    "patching_rect": [ 216.0, 44.0, 30.0, 30.0 ]
                                                }
                                            },
                                            {
                                                "box": {
                                                    "comment": "",
                                                    "id": "obj-22",
                                                    "index": 3,
                                                    "maxclass": "inlet",
                                                    "numinlets": 0,
                                                    "numoutlets": 1,
                                                    "outlettype": [ "" ],
                                                    "patching_rect": [ 368.0, 44.0, 30.0, 30.0 ]
                                                }
                                            },
                                            {
                                                "box": {
                                                    "comment": "",
                                                    "id": "obj-24",
                                                    "index": 1,
                                                    "maxclass": "outlet",
                                                    "numinlets": 1,
                                                    "numoutlets": 0,
                                                    "patching_rect": [ 330.0, 517.0, 30.0, 30.0 ]
                                                }
                                            }
                                        ],
                                        "lines": [
                                            {
                                                "patchline": {
                                                    "destination": [ "obj-12", 0 ],
                                                    "source": [ "obj-1", 1 ]
                                                }
                                            },
                                            {
                                                "patchline": {
                                                    "destination": [ "obj-5", 0 ],
                                                    "source": [ "obj-1", 0 ]
                                                }
                                            },
                                            {
                                                "patchline": {
                                                    "destination": [ "obj-18", 0 ],
                                                    "source": [ "obj-10", 0 ]
                                                }
                                            },
                                            {
                                                "patchline": {
                                                    "destination": [ "obj-32", 0 ],
                                                    "source": [ "obj-11", 0 ]
                                                }
                                            },
                                            {
                                                "patchline": {
                                                    "destination": [ "obj-11", 0 ],
                                                    "source": [ "obj-12", 0 ]
                                                }
                                            },
                                            {
                                                "patchline": {
                                                    "destination": [ "obj-7", 0 ],
                                                    "source": [ "obj-12", 1 ]
                                                }
                                            },
                                            {
                                                "patchline": {
                                                    "destination": [ "obj-24", 0 ],
                                                    "source": [ "obj-18", 6 ]
                                                }
                                            },
                                            {
                                                "patchline": {
                                                    "destination": [ "obj-24", 0 ],
                                                    "source": [ "obj-19", 0 ]
                                                }
                                            },
                                            {
                                                "patchline": {
                                                    "destination": [ "obj-7", 1 ],
                                                    "source": [ "obj-21", 0 ]
                                                }
                                            },
                                            {
                                                "patchline": {
                                                    "destination": [ "obj-1", 0 ],
                                                    "source": [ "obj-22", 0 ]
                                                }
                                            },
                                            {
                                                "patchline": {
                                                    "destination": [ "obj-32", 0 ],
                                                    "source": [ "obj-30", 0 ]
                                                }
                                            },
                                            {
                                                "patchline": {
                                                    "destination": [ "obj-19", 0 ],
                                                    "source": [ "obj-32", 2 ]
                                                }
                                            },
                                            {
                                                "patchline": {
                                                    "destination": [ "obj-32", 0 ],
                                                    "source": [ "obj-4", 0 ]
                                                }
                                            },
                                            {
                                                "patchline": {
                                                    "destination": [ "obj-7", 0 ],
                                                    "source": [ "obj-5", 0 ]
                                                }
                                            },
                                            {
                                                "patchline": {
                                                    "destination": [ "obj-30", 0 ],
                                                    "source": [ "obj-7", 0 ]
                                                }
                                            },
                                            {
                                                "patchline": {
                                                    "destination": [ "obj-8", 0 ],
                                                    "source": [ "obj-7", 1 ]
                                                }
                                            },
                                            {
                                                "patchline": {
                                                    "destination": [ "obj-10", 0 ],
                                                    "order": 1,
                                                    "source": [ "obj-8", 0 ]
                                                }
                                            },
                                            {
                                                "patchline": {
                                                    "destination": [ "obj-18", 0 ],
                                                    "order": 0,
                                                    "source": [ "obj-8", 0 ]
                                                }
                                            }
                                        ]
                                    },
                                    "patching_rect": [ 135.53333325187361, 336.0, 69.0, 22.0 ],
                                    "text": "p duration"
                                }
                            },
                            {
                                "box": {
                                    "id": "obj-14",
                                    "maxclass": "button",
                                    "numinlets": 1,
                                    "numoutlets": 1,
                                    "outlettype": [ "bang" ],
                                    "parameter_enable": 0,
                                    "patching_rect": [ 50.533333251873614, 168.0, 24.0, 24.0 ]
                                }
                            },
                            {
                                "box": {
                                    "id": "obj-7",
                                    "maxclass": "newobj",
                                    "numinlets": 1,
                                    "numoutlets": 2,
                                    "outlettype": [ "bang", "bang" ],
                                    "patching_rect": [ 50.533333251873614, 363.0, 69.0, 22.0 ],
                                    "text": "t b b"
                                }
                            },
                            {
                                "box": {
                                    "format": 6,
                                    "id": "obj-61",
                                    "maxclass": "flonum",
                                    "numinlets": 1,
                                    "numoutlets": 2,
                                    "outlettype": [ "", "bang" ],
                                    "parameter_enable": 0,
                                    "patching_rect": [ 112.53333325187361, 499.0, 50.0, 22.0 ]
                                }
                            },
                            {
                                "box": {
                                    "id": "obj-59",
                                    "maxclass": "newobj",
                                    "numinlets": 2,
                                    "numoutlets": 1,
                                    "outlettype": [ "float" ],
                                    "patching_rect": [ 112.53333325187361, 471.0, 64.0, 22.0 ],
                                    "text": "/ 60000.",
                                    "varname": "tt[5]"
                                }
                            },
                            {
                                "box": {
                                    "id": "obj-55",
                                    "maxclass": "number",
                                    "numinlets": 1,
                                    "numoutlets": 2,
                                    "outlettype": [ "", "bang" ],
                                    "parameter_enable": 0,
                                    "patching_rect": [ 163.53333325187361, 209.5000005364418, 50.0, 22.0 ]
                                }
                            },
                            {
                                "box": {
                                    "id": "obj-53",
                                    "maxclass": "number",
                                    "numinlets": 1,
                                    "numoutlets": 2,
                                    "outlettype": [ "", "bang" ],
                                    "parameter_enable": 0,
                                    "patching_rect": [ 277.5333332518736, 442.0, 82.0, 22.0 ]
                                }
                            },
                            {
                                "box": {
                                    "format": 6,
                                    "id": "obj-52",
                                    "maxclass": "flonum",
                                    "numinlets": 1,
                                    "numoutlets": 2,
                                    "outlettype": [ "", "bang" ],
                                    "parameter_enable": 0,
                                    "patching_rect": [ 112.53333325187361, 442.0, 79.0, 22.0 ]
                                }
                            },
                            {
                                "box": {
                                    "id": "obj-50",
                                    "maxclass": "newobj",
                                    "numinlets": 3,
                                    "numoutlets": 1,
                                    "outlettype": [ "int" ],
                                    "patching_rect": [ 277.5333332518736, 417.0, 64.0, 22.0 ],
                                    "text": "accum 0",
                                    "varname": "tt[9]"
                                }
                            },
                            {
                                "box": {
                                    "id": "obj-49",
                                    "maxclass": "newobj",
                                    "numinlets": 1,
                                    "numoutlets": 3,
                                    "outlettype": [ "bang", "bang", "int" ],
                                    "patching_rect": [ 50.0, 100.0, 247.0, 22.0 ],
                                    "text": "t b b 0"
                                }
                            },
                            {
                                "box": {
                                    "id": "obj-44",
                                    "maxclass": "newobj",
                                    "numinlets": 2,
                                    "numoutlets": 2,
                                    "outlettype": [ "", "" ],
                                    "patching_rect": [ 363.5333332518736, 375.0, 61.0, 22.0 ],
                                    "text": "route size",
                                    "varname": "tt[7]"
                                }
                            },
                            {
                                "box": {
                                    "id": "obj-46",
                                    "maxclass": "newobj",
                                    "numinlets": 1,
                                    "numoutlets": 3,
                                    "outlettype": [ "", "", "" ],
                                    "patching_rect": [ 218.53333325187361, 336.0, 263.0, 22.0 ],
                                    "saved_object_attributes": {
                                        "savegui": 0,
                                        "verbose": 1
                                    },
                                    "text": "mubu.track #1 descr",
                                    "varname": "tt[8]"
                                }
                            },
                            {
                                "box": {
                                    "id": "obj-47",
                                    "maxclass": "message",
                                    "numinlets": 2,
                                    "numoutlets": 1,
                                    "outlettype": [ "" ],
                                    "patching_rect": [ 218.53333325187361, 281.0, 129.0, 22.0 ],
                                    "text": "bufferindex $1, getsize"
                                }
                            },
                            {
                                "box": {
                                    "id": "obj-41",
                                    "maxclass": "newobj",
                                    "numinlets": 2,
                                    "numoutlets": 2,
                                    "outlettype": [ "", "" ],
                                    "patching_rect": [ 163.53333325187361, 180.0, 99.0, 22.0 ],
                                    "text": "route numbuffers",
                                    "varname": "tt[6]"
                                }
                            },
                            {
                                "box": {
                                    "id": "obj-34",
                                    "maxclass": "newobj",
                                    "numinlets": 3,
                                    "numoutlets": 1,
                                    "outlettype": [ "int" ],
                                    "patching_rect": [ 112.53333325187361, 417.0, 64.0, 22.0 ],
                                    "text": "accum",
                                    "varname": "tt[3]"
                                }
                            },
                            {
                                "box": {
                                    "id": "obj-25",
                                    "maxclass": "newobj",
                                    "numinlets": 2,
                                    "numoutlets": 3,
                                    "outlettype": [ "bang", "bang", "int" ],
                                    "patching_rect": [ 163.53333325187361, 246.0, 73.0, 22.0 ],
                                    "text": "uzi"
                                }
                            },
                            {
                                "box": {
                                    "id": "obj-23",
                                    "maxclass": "message",
                                    "numinlets": 2,
                                    "numoutlets": 1,
                                    "outlettype": [ "" ],
                                    "patching_rect": [ 164.0, 128.0, 85.0, 22.0 ],
                                    "text": "getnumbuffers"
                                }
                            },
                            {
                                "box": {
                                    "id": "obj-17",
                                    "maxclass": "newobj",
                                    "numinlets": 1,
                                    "numoutlets": 1,
                                    "outlettype": [ "" ],
                                    "patching_rect": [ 163.53333325187361, 155.0, 201.0, 22.0 ],
                                    "saved_object_attributes": {
                                        "dirtypatcher": 1,
                                        "embed": 0,
                                        "externalfiles": 1,
                                        "maintrack": -1,
                                        "parameter_enable": 0,
                                        "parameter_mappable": 0,
                                        "resamplefiles": 0,
                                        "ringmaster": -1,
                                        "savegui": 0,
                                        "snaprate": 1000.0,
                                        "verbose": 1
                                    },
                                    "text": "mubu #1"
                                }
                            },
                            {
                                "box": {
                                    "comment": "",
                                    "id": "obj-48",
                                    "index": 1,
                                    "maxclass": "inlet",
                                    "numinlets": 0,
                                    "numoutlets": 1,
                                    "outlettype": [ "bang" ],
                                    "patching_rect": [ 50.000000251873615, 40.0, 30.0, 30.0 ]
                                }
                            },
                            {
                                "box": {
                                    "comment": "",
                                    "id": "obj-51",
                                    "index": 2,
                                    "maxclass": "inlet",
                                    "numinlets": 0,
                                    "numoutlets": 1,
                                    "outlettype": [ "" ],
                                    "patching_rect": [ 112.53333325187361, 40.0, 30.0, 30.0 ]
                                }
                            },
                            {
                                "box": {
                                    "comment": "",
                                    "id": "obj-54",
                                    "index": 3,
                                    "maxclass": "inlet",
                                    "numinlets": 0,
                                    "numoutlets": 1,
                                    "outlettype": [ "" ],
                                    "patching_rect": [ 185.53333325187361, 40.0, 30.0, 30.0 ]
                                }
                            },
                            {
                                "box": {
                                    "comment": "",
                                    "id": "obj-56",
                                    "index": 4,
                                    "maxclass": "inlet",
                                    "numinlets": 0,
                                    "numoutlets": 1,
                                    "outlettype": [ "" ],
                                    "patching_rect": [ 363.5333332518736, 40.0, 30.0, 30.0 ]
                                }
                            },
                            {
                                "box": {
                                    "comment": "",
                                    "id": "obj-58",
                                    "index": 1,
                                    "maxclass": "outlet",
                                    "numinlets": 1,
                                    "numoutlets": 0,
                                    "patching_rect": [ 163.53333325187361, 610.39502, 30.0, 30.0 ]
                                }
                            }
                        ],
                        "lines": [
                            {
                                "patchline": {
                                    "destination": [ "obj-46", 0 ],
                                    "source": [ "obj-12", 0 ]
                                }
                            },
                            {
                                "patchline": {
                                    "destination": [ "obj-7", 0 ],
                                    "source": [ "obj-14", 0 ]
                                }
                            },
                            {
                                "patchline": {
                                    "destination": [ "obj-41", 0 ],
                                    "source": [ "obj-17", 0 ]
                                }
                            },
                            {
                                "patchline": {
                                    "destination": [ "obj-17", 0 ],
                                    "source": [ "obj-23", 0 ]
                                }
                            },
                            {
                                "patchline": {
                                    "destination": [ "obj-26", 0 ],
                                    "order": 1,
                                    "source": [ "obj-25", 2 ]
                                }
                            },
                            {
                                "patchline": {
                                    "destination": [ "obj-47", 0 ],
                                    "order": 0,
                                    "source": [ "obj-25", 2 ]
                                }
                            },
                            {
                                "patchline": {
                                    "destination": [ "obj-34", 1 ],
                                    "source": [ "obj-26", 0 ]
                                }
                            },
                            {
                                "patchline": {
                                    "color": [ 0.8696334807993378, 0.8696334807993378, 0.8696334807993378, 1.0 ],
                                    "destination": [ "obj-17", 0 ],
                                    "order": 2,
                                    "source": [ "obj-31", 0 ]
                                }
                            },
                            {
                                "patchline": {
                                    "color": [ 0.8696334807993378, 0.8696334807993378, 0.8696334807993378, 1.0 ],
                                    "destination": [ "obj-26", 1 ],
                                    "order": 1,
                                    "source": [ "obj-31", 0 ]
                                }
                            },
                            {
                                "patchline": {
                                    "color": [ 0.8696334807993378, 0.8696334807993378, 0.8696334807993378, 1.0 ],
                                    "destination": [ "obj-46", 0 ],
                                    "order": 0,
                                    "source": [ "obj-31", 0 ]
                                }
                            },
                            {
                                "patchline": {
                                    "destination": [ "obj-52", 0 ],
                                    "source": [ "obj-34", 0 ]
                                }
                            },
                            {
                                "patchline": {
                                    "destination": [ "obj-55", 0 ],
                                    "source": [ "obj-41", 0 ]
                                }
                            },
                            {
                                "patchline": {
                                    "destination": [ "obj-58", 0 ],
                                    "source": [ "obj-42", 0 ]
                                }
                            },
                            {
                                "patchline": {
                                    "destination": [ "obj-50", 1 ],
                                    "source": [ "obj-44", 0 ]
                                }
                            },
                            {
                                "patchline": {
                                    "destination": [ "obj-44", 0 ],
                                    "source": [ "obj-46", 2 ]
                                }
                            },
                            {
                                "patchline": {
                                    "destination": [ "obj-46", 0 ],
                                    "source": [ "obj-47", 0 ]
                                }
                            },
                            {
                                "patchline": {
                                    "destination": [ "obj-49", 0 ],
                                    "source": [ "obj-48", 0 ]
                                }
                            },
                            {
                                "patchline": {
                                    "destination": [ "obj-14", 0 ],
                                    "source": [ "obj-49", 0 ]
                                }
                            },
                            {
                                "patchline": {
                                    "destination": [ "obj-23", 0 ],
                                    "source": [ "obj-49", 1 ]
                                }
                            },
                            {
                                "patchline": {
                                    "destination": [ "obj-34", 0 ],
                                    "midpoints": [ 287.5, 411.4375, 122.03333325187361, 411.4375 ],
                                    "order": 1,
                                    "source": [ "obj-49", 2 ]
                                }
                            },
                            {
                                "patchline": {
                                    "destination": [ "obj-50", 0 ],
                                    "order": 0,
                                    "source": [ "obj-49", 2 ]
                                }
                            },
                            {
                                "patchline": {
                                    "destination": [ "obj-53", 0 ],
                                    "source": [ "obj-50", 0 ]
                                }
                            },
                            {
                                "patchline": {
                                    "destination": [ "obj-31", 0 ],
                                    "source": [ "obj-51", 0 ]
                                }
                            },
                            {
                                "patchline": {
                                    "destination": [ "obj-59", 0 ],
                                    "source": [ "obj-52", 0 ]
                                }
                            },
                            {
                                "patchline": {
                                    "destination": [ "obj-42", 1 ],
                                    "source": [ "obj-53", 0 ]
                                }
                            },
                            {
                                "patchline": {
                                    "destination": [ "obj-26", 2 ],
                                    "source": [ "obj-54", 0 ]
                                }
                            },
                            {
                                "patchline": {
                                    "destination": [ "obj-25", 0 ],
                                    "order": 1,
                                    "source": [ "obj-55", 0 ]
                                }
                            },
                            {
                                "patchline": {
                                    "destination": [ "obj-42", 0 ],
                                    "order": 0,
                                    "source": [ "obj-55", 0 ]
                                }
                            },
                            {
                                "patchline": {
                                    "destination": [ "obj-12", 0 ],
                                    "source": [ "obj-56", 0 ]
                                }
                            },
                            {
                                "patchline": {
                                    "destination": [ "obj-61", 0 ],
                                    "source": [ "obj-59", 0 ]
                                }
                            },
                            {
                                "patchline": {
                                    "destination": [ "obj-42", 2 ],
                                    "source": [ "obj-61", 0 ]
                                }
                            },
                            {
                                "patchline": {
                                    "destination": [ "obj-34", 0 ],
                                    "source": [ "obj-7", 0 ]
                                }
                            },
                            {
                                "patchline": {
                                    "destination": [ "obj-50", 0 ],
                                    "source": [ "obj-7", 1 ]
                                }
                            }
                        ]
                    },
                    "patching_rect": [ 97.5, 220.0, 174.07405856251717, 22.0 ],
                    "text": "p query"
                }
            },
            {
                "box": {
                    "id": "obj-45",
                    "maxclass": "comment",
                    "numinlets": 1,
                    "numoutlets": 0,
                    "patching_rect": [ 119.0, 248.0, 131.0, 20.0 ],
                    "text": "files segments minutes"
                }
            },
            {
                "box": {
                    "id": "obj-29",
                    "maxclass": "newobj",
                    "numinlets": 10,
                    "numoutlets": 10,
                    "outlettype": [ "", "", "", "", "", "", "", "", "", "" ],
                    "patching_rect": [ 46.0, 124.5, 383.5, 22.0 ],
                    "text": "route bang done alldone clearall readall refer audio trackid format"
                }
            },
            {
                "box": {
                    "id": "obj-27",
                    "maxclass": "newobj",
                    "numinlets": 1,
                    "numoutlets": 0,
                    "patching_rect": [ 888.5, 208.0, 189.0, 22.0 ],
                    "text": "print \"deprecated inlet 2\" @level 1"
                }
            },
            {
                "box": {
                    "id": "obj-24",
                    "maxclass": "newobj",
                    "numinlets": 1,
                    "numoutlets": 0,
                    "patching_rect": [ 945.0, 179.0, 189.0, 22.0 ],
                    "text": "print \"deprecated inlet 3\" @level 1"
                }
            },
            {
                "box": {
                    "id": "obj-22",
                    "maxclass": "newobj",
                    "numinlets": 1,
                    "numoutlets": 0,
                    "patching_rect": [ 1006.5, 148.5, 227.0, 22.0 ],
                    "text": "print \"deprecated inlet 4\" @level 1"
                }
            },
            {
                "box": {
                    "id": "obj-21",
                    "maxclass": "newobj",
                    "numinlets": 5,
                    "numoutlets": 5,
                    "outlettype": [ "", "", "", "", "" ],
                    "patching_rect": [ 750.0, 119.0, 181.0, 22.0 ],
                    "text": "route bang done alldone readall"
                }
            },
            {
                "box": {
                    "fontsize": 12.0,
                    "id": "obj-19",
                    "maxclass": "newobj",
                    "numinlets": 1,
                    "numoutlets": 4,
                    "outlettype": [ "", "", "", "" ],
                    "patching_rect": [ 149.5, 75.0, 174.08634784817684, 22.0 ],
                    "text": "unjoin 3"
                }
            },
            {
                "box": {
                    "fontsize": 12.0,
                    "id": "obj-18",
                    "maxclass": "newobj",
                    "numinlets": 1,
                    "numoutlets": 2,
                    "outlettype": [ "", "" ],
                    "patching_rect": [ 149.5, 51.0, 485.0, 22.0 ],
                    "text": "patcherargs corpus audio descr @format 1"
                }
            },
            {
                "box": {
                    "fontsize": 12.0,
                    "id": "obj-11",
                    "maxclass": "newobj",
                    "numinlets": 1,
                    "numoutlets": 1,
                    "outlettype": [ "bang" ],
                    "patching_rect": [ 6.5, 2.5, 58.0, 22.0 ],
                    "text": "loadbang"
                }
            },
            {
                "box": {
                    "id": "obj-30",
                    "maxclass": "comment",
                    "numinlets": 1,
                    "numoutlets": 0,
                    "patching_rect": [ 1027.0, 74.0, 83.0, 20.0 ],
                    "text": "descr track ID"
                }
            },
            {
                "box": {
                    "id": "obj-28",
                    "linecount": 3,
                    "maxclass": "comment",
                    "numinlets": 1,
                    "numoutlets": 0,
                    "patching_rect": [ 883.0, 70.0, 99.0, 47.0 ],
                    "text": "audio track ID, or [audio] for polybuffer"
                }
            },
            {
                "box": {
                    "id": "obj-16",
                    "maxclass": "button",
                    "numinlets": 1,
                    "numoutlets": 1,
                    "outlettype": [ "bang" ],
                    "parameter_enable": 0,
                    "patching_rect": [ 711.0, 73.0, 24.0, 24.0 ]
                }
            },
            {
                "box": {
                    "attr": "comment",
                    "bgcolor": [ 0.125490196078431, 0.125490196078431, 0.125490196078431, 0.34 ],
                    "id": "obj-15",
                    "maxclass": "attrui",
                    "numinlets": 1,
                    "numoutlets": 1,
                    "outlettype": [ "" ],
                    "parameter_enable": 0,
                    "patching_rect": [ 470.0, 435.5, 412.30000096559525, 22.0 ],
                    "text_width": 57.300000965595245
                }
            },
            {
                "box": {
                    "attr": "comment",
                    "bgcolor": [ 0.125490196078431, 0.125490196078431, 0.125490196078431, 0.34 ],
                    "id": "obj-13",
                    "maxclass": "attrui",
                    "numinlets": 1,
                    "numoutlets": 1,
                    "outlettype": [ "" ],
                    "parameter_enable": 0,
                    "patching_rect": [ 46.0, 527.0, 608.0, 22.0 ],
                    "text_width": 57.300000965595245
                }
            },
            {
                "box": {
                    "id": "obj-40",
                    "maxclass": "comment",
                    "numinlets": 1,
                    "numoutlets": 0,
                    "patching_rect": [ 15.5, 302.5, 91.0, 20.0 ],
                    "text": "clear on startup"
                }
            },
            {
                "box": {
                    "id": "obj-20",
                    "maxclass": "message",
                    "numinlets": 2,
                    "numoutlets": 1,
                    "outlettype": [ "" ],
                    "patching_rect": [ 51.5, 324.5, 41.0, 22.0 ],
                    "text": "empty"
                }
            },
            {
                "box": {
                    "comment": "",
                    "id": "obj-10",
                    "index": 4,
                    "maxclass": "inlet",
                    "numinlets": 0,
                    "numoutlets": 1,
                    "outlettype": [ "" ],
                    "patching_rect": [ 991.0, 70.0, 30.0, 30.0 ]
                }
            },
            {
                "box": {
                    "comment": "",
                    "id": "obj-4",
                    "index": 3,
                    "maxclass": "inlet",
                    "numinlets": 0,
                    "numoutlets": 1,
                    "outlettype": [ "" ],
                    "patching_rect": [ 844.0, 70.0, 30.0, 30.0 ]
                }
            },
            {
                "box": {
                    "id": "obj-9",
                    "maxclass": "comment",
                    "numinlets": 1,
                    "numoutlets": 0,
                    "patching_rect": [ 508.0, 497.0, 88.0, 20.0 ],
                    "text": "short summary"
                }
            },
            {
                "box": {
                    "id": "obj-5",
                    "maxclass": "button",
                    "numinlets": 1,
                    "numoutlets": 1,
                    "outlettype": [ "bang" ],
                    "parameter_enable": 0,
                    "patching_rect": [ 20.0, 123.5, 24.0, 24.0 ]
                }
            },
            {
                "box": {
                    "id": "obj-6",
                    "maxclass": "newobj",
                    "numinlets": 1,
                    "numoutlets": 2,
                    "outlettype": [ " ", "bang" ],
                    "patching_rect": [ 750.0, 168.0, 50.5, 22.0 ],
                    "text": "t \" \" b"
                }
            },
            {
                "box": {
                    "id": "obj-3",
                    "maxclass": "newobj",
                    "numinlets": 3,
                    "numoutlets": 1,
                    "outlettype": [ "" ],
                    "patching_rect": [ 149.5, 382.0, 246.0, 22.0 ],
                    "text": "sprintf %d files / %d segments / %.2f min"
                }
            },
            {
                "box": {
                    "comment": "",
                    "id": "obj-2",
                    "index": 2,
                    "maxclass": "inlet",
                    "numinlets": 0,
                    "numoutlets": 1,
                    "outlettype": [ "" ],
                    "patching_rect": [ 750.0, 70.0, 30.0, 30.0 ]
                }
            },
            {
                "box": {
                    "comment": "Output short progress text and summary (to print or put into comment over progress bar).",
                    "id": "obj-1",
                    "index": 2,
                    "maxclass": "outlet",
                    "numinlets": 1,
                    "numoutlets": 0,
                    "patching_rect": [ 470.0, 488.0, 30.0, 30.0 ]
                }
            },
            {
                "box": {
                    "id": "obj-63",
                    "maxclass": "newobj",
                    "numinlets": 3,
                    "numoutlets": 1,
                    "outlettype": [ "" ],
                    "patching_rect": [ 201.0, 331.5, 345.0, 22.0 ],
                    "text": "sprintf %.2f minutes of audio in %d segments in %d buffers."
                }
            },
            {
                "box": {
                    "comment": "",
                    "id": "obj-65",
                    "index": 1,
                    "maxclass": "inlet",
                    "numinlets": 0,
                    "numoutlets": 1,
                    "outlettype": [ "bang" ],
                    "patching_rect": [ 46.0, 71.0, 30.0, 30.0 ]
                }
            },
            {
                "box": {
                    "comment": "Output progress as list or short or long text summary (to print or put into comment over progress bar).",
                    "id": "obj-66",
                    "index": 1,
                    "maxclass": "outlet",
                    "numinlets": 1,
                    "numoutlets": 0,
                    "patching_rect": [ 46.0, 488.0, 30.0, 30.0 ]
                }
            }
        ],
        "lines": [
            {
                "patchline": {
                    "destination": [ "obj-22", 0 ],
                    "source": [ "obj-10", 0 ]
                }
            },
            {
                "patchline": {
                    "destination": [ "obj-101", 0 ],
                    "source": [ "obj-100", 0 ]
                }
            },
            {
                "patchline": {
                    "destination": [ "obj-18", 0 ],
                    "source": [ "obj-100", 1 ]
                }
            },
            {
                "patchline": {
                    "destination": [ "obj-20", 0 ],
                    "source": [ "obj-101", 1 ]
                }
            },
            {
                "patchline": {
                    "destination": [ "obj-99", 0 ],
                    "source": [ "obj-101", 0 ]
                }
            },
            {
                "patchline": {
                    "destination": [ "obj-100", 0 ],
                    "source": [ "obj-11", 0 ]
                }
            },
            {
                "patchline": {
                    "destination": [ "obj-66", 0 ],
                    "source": [ "obj-13", 0 ]
                }
            },
            {
                "patchline": {
                    "destination": [ "obj-1", 0 ],
                    "source": [ "obj-15", 0 ]
                }
            },
            {
                "patchline": {
                    "destination": [ "obj-6", 0 ],
                    "source": [ "obj-16", 0 ]
                }
            },
            {
                "patchline": {
                    "destination": [ "obj-19", 0 ],
                    "source": [ "obj-18", 0 ]
                }
            },
            {
                "patchline": {
                    "destination": [ "obj-29", 0 ],
                    "source": [ "obj-18", 1 ]
                }
            },
            {
                "patchline": {
                    "destination": [ "obj-67", 3 ],
                    "source": [ "obj-19", 2 ]
                }
            },
            {
                "patchline": {
                    "destination": [ "obj-67", 2 ],
                    "source": [ "obj-19", 1 ]
                }
            },
            {
                "patchline": {
                    "destination": [ "obj-67", 1 ],
                    "source": [ "obj-19", 0 ]
                }
            },
            {
                "patchline": {
                    "destination": [ "obj-21", 0 ],
                    "order": 1,
                    "source": [ "obj-2", 0 ]
                }
            },
            {
                "patchline": {
                    "destination": [ "obj-27", 0 ],
                    "order": 0,
                    "source": [ "obj-2", 0 ]
                }
            },
            {
                "patchline": {
                    "destination": [ "obj-97", 3 ],
                    "order": 0,
                    "source": [ "obj-20", 0 ]
                }
            },
            {
                "patchline": {
                    "destination": [ "obj-97", 2 ],
                    "order": 1,
                    "source": [ "obj-20", 0 ]
                }
            },
            {
                "patchline": {
                    "destination": [ "obj-6", 0 ],
                    "source": [ "obj-21", 3 ]
                }
            },
            {
                "patchline": {
                    "destination": [ "obj-6", 0 ],
                    "source": [ "obj-21", 2 ]
                }
            },
            {
                "patchline": {
                    "destination": [ "obj-6", 0 ],
                    "source": [ "obj-21", 1 ]
                }
            },
            {
                "patchline": {
                    "destination": [ "obj-6", 0 ],
                    "source": [ "obj-21", 0 ]
                }
            },
            {
                "patchline": {
                    "destination": [ "obj-67", 3 ],
                    "source": [ "obj-29", 7 ]
                }
            },
            {
                "patchline": {
                    "destination": [ "obj-67", 2 ],
                    "source": [ "obj-29", 6 ]
                }
            },
            {
                "patchline": {
                    "destination": [ "obj-67", 1 ],
                    "source": [ "obj-29", 5 ]
                }
            },
            {
                "patchline": {
                    "destination": [ "obj-67", 0 ],
                    "source": [ "obj-29", 4 ]
                }
            },
            {
                "patchline": {
                    "destination": [ "obj-67", 0 ],
                    "source": [ "obj-29", 3 ]
                }
            },
            {
                "patchline": {
                    "destination": [ "obj-67", 0 ],
                    "source": [ "obj-29", 2 ]
                }
            },
            {
                "patchline": {
                    "destination": [ "obj-67", 0 ],
                    "source": [ "obj-29", 1 ]
                }
            },
            {
                "patchline": {
                    "destination": [ "obj-67", 0 ],
                    "source": [ "obj-29", 0 ]
                }
            },
            {
                "patchline": {
                    "destination": [ "obj-95", 0 ],
                    "source": [ "obj-29", 8 ]
                }
            },
            {
                "patchline": {
                    "destination": [ "obj-97", 2 ],
                    "source": [ "obj-3", 0 ]
                }
            },
            {
                "patchline": {
                    "destination": [ "obj-24", 0 ],
                    "source": [ "obj-4", 0 ]
                }
            },
            {
                "patchline": {
                    "destination": [ "obj-67", 0 ],
                    "source": [ "obj-5", 0 ]
                }
            },
            {
                "patchline": {
                    "destination": [ "obj-67", 0 ],
                    "source": [ "obj-6", 1 ]
                }
            },
            {
                "patchline": {
                    "destination": [ "obj-97", 3 ],
                    "source": [ "obj-63", 0 ]
                }
            },
            {
                "patchline": {
                    "destination": [ "obj-29", 0 ],
                    "source": [ "obj-65", 0 ]
                }
            },
            {
                "patchline": {
                    "destination": [ "obj-3", 0 ],
                    "order": 1,
                    "source": [ "obj-67", 0 ]
                }
            },
            {
                "patchline": {
                    "destination": [ "obj-96", 0 ],
                    "order": 0,
                    "source": [ "obj-67", 0 ]
                }
            },
            {
                "patchline": {
                    "destination": [ "obj-97", 1 ],
                    "order": 2,
                    "source": [ "obj-67", 0 ]
                }
            },
            {
                "patchline": {
                    "destination": [ "obj-95", 0 ],
                    "source": [ "obj-75", 0 ]
                }
            },
            {
                "patchline": {
                    "destination": [ "obj-95", 0 ],
                    "source": [ "obj-83", 1 ]
                }
            },
            {
                "patchline": {
                    "destination": [ "obj-97", 0 ],
                    "source": [ "obj-95", 0 ]
                }
            },
            {
                "patchline": {
                    "destination": [ "obj-63", 0 ],
                    "source": [ "obj-96", 0 ]
                }
            },
            {
                "patchline": {
                    "destination": [ "obj-66", 0 ],
                    "source": [ "obj-97", 0 ]
                }
            },
            {
                "patchline": {
                    "destination": [ "obj-97", 1 ],
                    "source": [ "obj-99", 0 ]
                }
            }
        ]
    }
}