{
    "patcher": {
        "fileversion": 1,
        "appversion": {
            "major": 9,
            "minor": 2,
            "revision": 0,
            "architecture": "x64",
            "modernui": 1
        },
        "classnamespace": "box",
        "rect": [ 1448.0, 255.0, 1156.0, 1135.0 ],
        "boxes": [
            {
                "box": {
                    "id": "obj-65",
                    "maxclass": "newobj",
                    "numinlets": 1,
                    "numoutlets": 1,
                    "outlettype": [ "" ],
                    "patching_rect": [ 394.6000055670738, 805.0, 54.0, 22.0 ],
                    "text": "deferlow"
                }
            },
            {
                "box": {
                    "id": "obj-64",
                    "maxclass": "newobj",
                    "numinlets": 2,
                    "numoutlets": 1,
                    "outlettype": [ "" ],
                    "patcher": {
                        "fileversion": 1,
                        "appversion": {
                            "major": 9,
                            "minor": 2,
                            "revision": 0,
                            "architecture": "x64",
                            "modernui": 1
                        },
                        "classnamespace": "box",
                        "rect": [ 2571.0, 747.0, 622.0, 593.0 ],
                        "boxes": [
                            {
                                "box": {
                                    "id": "obj-9",
                                    "maxclass": "number",
                                    "numinlets": 1,
                                    "numoutlets": 2,
                                    "outlettype": [ "", "bang" ],
                                    "parameter_enable": 0,
                                    "patching_rect": [ 35.0, 239.0, 50.0, 22.0 ]
                                }
                            },
                            {
                                "box": {
                                    "id": "obj-7",
                                    "maxclass": "message",
                                    "numinlets": 2,
                                    "numoutlets": 1,
                                    "outlettype": [ "" ],
                                    "patching_rect": [ 91.0, 161.0, 50.0, 22.0 ],
                                    "text": "1"
                                }
                            },
                            {
                                "box": {
                                    "id": "obj-5",
                                    "maxclass": "newobj",
                                    "numinlets": 5,
                                    "numoutlets": 4,
                                    "outlettype": [ "int", "", "", "int" ],
                                    "patching_rect": [ 36.0, 202.0, 128.0, 22.0 ],
                                    "text": "counter"
                                }
                            },
                            {
                                "box": {
                                    "id": "obj-4",
                                    "linecount": 2,
                                    "maxclass": "comment",
                                    "numinlets": 1,
                                    "numoutlets": 0,
                                    "patching_rect": [ 224.0, 8.0, 220.0, 33.0 ],
                                    "presentation_linecount": 2,
                                    "text": "mubu output to query of just created track's maxsize"
                                }
                            },
                            {
                                "box": {
                                    "id": "obj-3",
                                    "linecount": 2,
                                    "maxclass": "comment",
                                    "numinlets": 1,
                                    "numoutlets": 0,
                                    "patching_rect": [ 32.0, 8.0, 187.0, 33.0 ],
                                    "text": "bang before frame is added: check that there is enough space"
                                }
                            },
                            {
                                "box": {
                                    "id": "obj-55",
                                    "maxclass": "newobj",
                                    "numinlets": 2,
                                    "numoutlets": 2,
                                    "outlettype": [ "", "" ],
                                    "patching_rect": [ 224.0, 142.0, 55.0, 22.0 ],
                                    "text": "zl slice 1"
                                }
                            },
                            {
                                "box": {
                                    "id": "obj-54",
                                    "maxclass": "newobj",
                                    "numinlets": 2,
                                    "numoutlets": 2,
                                    "outlettype": [ "", "" ],
                                    "patching_rect": [ 224.0, 106.0, 65.0, 22.0 ],
                                    "text": "route track"
                                }
                            },
                            {
                                "box": {
                                    "id": "obj-45",
                                    "maxclass": "newobj",
                                    "numinlets": 2,
                                    "numoutlets": 1,
                                    "outlettype": [ "int" ],
                                    "patching_rect": [ 35.0, 312.0, 39.0, 22.0 ],
                                    "text": "+ 256"
                                }
                            },
                            {
                                "box": {
                                    "id": "obj-36",
                                    "maxclass": "message",
                                    "numinlets": 2,
                                    "numoutlets": 1,
                                    "outlettype": [ "" ],
                                    "patching_rect": [ 35.0, 401.0, 69.0, 22.0 ],
                                    "text": "maxsize $1"
                                }
                            },
                            {
                                "box": {
                                    "id": "obj-31",
                                    "maxclass": "newobj",
                                    "numinlets": 2,
                                    "numoutlets": 1,
                                    "outlettype": [ "" ],
                                    "patching_rect": [ 35.0, 271.0, 134.0, 22.0 ],
                                    "text": "if $i1 >= $i2 - 1 then $i2"
                                }
                            },
                            {
                                "box": {
                                    "id": "obj-28",
                                    "maxclass": "newobj",
                                    "numinlets": 2,
                                    "numoutlets": 2,
                                    "outlettype": [ "", "" ],
                                    "patching_rect": [ 260.0, 170.0, 101.0, 22.0 ],
                                    "text": "route maxsize"
                                }
                            },
                            {
                                "box": {
                                    "comment": "",
                                    "id": "obj-57",
                                    "index": 2,
                                    "maxclass": "inlet",
                                    "numinlets": 0,
                                    "numoutlets": 1,
                                    "outlettype": [ "" ],
                                    "patching_rect": [ 224.0, 60.0, 30.0, 30.0 ]
                                }
                            },
                            {
                                "box": {
                                    "comment": "",
                                    "id": "obj-60",
                                    "index": 1,
                                    "maxclass": "inlet",
                                    "numinlets": 0,
                                    "numoutlets": 1,
                                    "outlettype": [ "bang" ],
                                    "patching_rect": [ 36.0, 64.0, 30.0, 30.0 ]
                                }
                            },
                            {
                                "box": {
                                    "comment": "",
                                    "id": "obj-62",
                                    "index": 1,
                                    "maxclass": "outlet",
                                    "numinlets": 1,
                                    "numoutlets": 0,
                                    "patching_rect": [ 35.0, 451.0, 30.0, 30.0 ]
                                }
                            }
                        ],
                        "lines": [
                            {
                                "patchline": {
                                    "destination": [ "obj-31", 1 ],
                                    "midpoints": [ 269.5, 231.5, 159.5, 231.5 ],
                                    "order": 0,
                                    "source": [ "obj-28", 0 ]
                                }
                            },
                            {
                                "patchline": {
                                    "destination": [ "obj-7", 0 ],
                                    "order": 1,
                                    "source": [ "obj-28", 0 ]
                                }
                            },
                            {
                                "patchline": {
                                    "destination": [ "obj-45", 0 ],
                                    "source": [ "obj-31", 0 ]
                                }
                            },
                            {
                                "patchline": {
                                    "destination": [ "obj-62", 0 ],
                                    "source": [ "obj-36", 0 ]
                                }
                            },
                            {
                                "patchline": {
                                    "destination": [ "obj-31", 1 ],
                                    "midpoints": [ 44.5, 348.37890625, 192.8359375, 348.37890625, 192.8359375, 261.0, 159.5, 261.0 ],
                                    "order": 0,
                                    "source": [ "obj-45", 0 ]
                                }
                            },
                            {
                                "patchline": {
                                    "destination": [ "obj-36", 0 ],
                                    "order": 1,
                                    "source": [ "obj-45", 0 ]
                                }
                            },
                            {
                                "patchline": {
                                    "destination": [ "obj-9", 0 ],
                                    "source": [ "obj-5", 0 ]
                                }
                            },
                            {
                                "patchline": {
                                    "destination": [ "obj-55", 0 ],
                                    "midpoints": [ 233.5, 135.0, 233.5, 135.0 ],
                                    "source": [ "obj-54", 0 ]
                                }
                            },
                            {
                                "patchline": {
                                    "destination": [ "obj-28", 0 ],
                                    "source": [ "obj-55", 1 ]
                                }
                            },
                            {
                                "patchline": {
                                    "destination": [ "obj-54", 0 ],
                                    "source": [ "obj-57", 0 ]
                                }
                            },
                            {
                                "patchline": {
                                    "destination": [ "obj-5", 0 ],
                                    "source": [ "obj-60", 0 ]
                                }
                            },
                            {
                                "patchline": {
                                    "destination": [ "obj-5", 2 ],
                                    "source": [ "obj-7", 0 ]
                                }
                            },
                            {
                                "patchline": {
                                    "destination": [ "obj-31", 0 ],
                                    "source": [ "obj-9", 0 ]
                                }
                            }
                        ]
                    },
                    "patching_rect": [ 963.0, 718.0, 75.0, 22.0 ],
                    "text": "p grow-track"
                }
            },
            {
                "box": {
                    "id": "obj-53",
                    "maxclass": "message",
                    "numinlets": 2,
                    "numoutlets": 1,
                    "outlettype": [ "" ],
                    "patching_rect": [ 792.0, 718.0, 69.0, 22.0 ],
                    "text": "getmaxsize"
                }
            },
            {
                "box": {
                    "id": "obj-52",
                    "maxclass": "newobj",
                    "numinlets": 1,
                    "numoutlets": 1,
                    "outlettype": [ "" ],
                    "patching_rect": [ 725.0, 844.0, 115.0, 22.0 ],
                    "text": "prepend track #2"
                }
            },
            {
                "box": {
                    "id": "obj-5",
                    "maxclass": "newobj",
                    "numinlets": 1,
                    "numoutlets": 2,
                    "outlettype": [ "bang", "bang" ],
                    "patching_rect": [ 725.0, 645.0, 180.0, 22.0 ],
                    "text": "t b b"
                }
            },
            {
                "box": {
                    "id": "obj-30",
                    "maxclass": "comment",
                    "numinlets": 1,
                    "numoutlets": 0,
                    "patching_rect": [ 431.6000055670738, 850.0, 166.0, 20.0 ],
                    "text": "bang when loading is finished"
                }
            },
            {
                "box": {
                    "id": "obj-26",
                    "maxclass": "comment",
                    "numinlets": 1,
                    "numoutlets": 0,
                    "patching_rect": [ 208.5, 225.0, 88.0, 20.0 ],
                    "text": "skip empty line"
                }
            },
            {
                "box": {
                    "id": "obj-24",
                    "maxclass": "newobj",
                    "numinlets": 2,
                    "numoutlets": 2,
                    "outlettype": [ "", "" ],
                    "patching_rect": [ 244.83333331346512, 201.0, 66.0, 22.0 ],
                    "text": "route bang"
                }
            },
            {
                "box": {
                    "id": "obj-16",
                    "maxclass": "comment",
                    "numinlets": 1,
                    "numoutlets": 0,
                    "patching_rect": [ 507.0, 457.0, 163.0, 20.0 ],
                    "text": "stop uzi for async file read"
                }
            },
            {
                "box": {
                    "id": "obj-10",
                    "maxclass": "message",
                    "numinlets": 2,
                    "numoutlets": 1,
                    "outlettype": [ "" ],
                    "patching_rect": [ 603.0, 142.0, 50.0, 22.0 ],
                    "text": "break"
                }
            },
            {
                "box": {
                    "id": "obj-12",
                    "maxclass": "message",
                    "numinlets": 2,
                    "numoutlets": 1,
                    "outlettype": [ "" ],
                    "patching_rect": [ 381.80000364780426, 18.299987999999985, 179.0, 22.0 ],
                    "presentation": 1,
                    "presentation_linecount": 3,
                    "presentation_rect": [ 147.12819819344713, 150.0, 146.0, 49.0 ],
                    "text": "read embeddings-format-test.txt"
                }
            },
            {
                "box": {
                    "id": "obj-13",
                    "linecount": 2,
                    "maxclass": "message",
                    "numinlets": 2,
                    "numoutlets": 1,
                    "outlettype": [ "" ],
                    "patching_rect": [ 901.0, 13.0, 130.0, 35.0 ],
                    "text": ";\rmax clearmaxwindow"
                }
            },
            {
                "box": {
                    "id": "obj-11",
                    "maxclass": "newobj",
                    "numinlets": 1,
                    "numoutlets": 2,
                    "outlettype": [ "", "pause" ],
                    "patching_rect": [ 452.0, 452.0, 54.0, 22.0 ],
                    "text": "t l pause"
                }
            },
            {
                "box": {
                    "id": "obj-56",
                    "maxclass": "message",
                    "numinlets": 2,
                    "numoutlets": 1,
                    "outlettype": [ "" ],
                    "patching_rect": [ 191.20000284910202, 154.68333667516708, 42.0, 22.0 ],
                    "text": "open"
                }
            },
            {
                "box": {
                    "id": "obj-51",
                    "maxclass": "message",
                    "numinlets": 2,
                    "numoutlets": 1,
                    "outlettype": [ "" ],
                    "patching_rect": [ 552.0, 329.0, 50.0, 22.0 ],
                    "text": "zlclear"
                }
            },
            {
                "box": {
                    "id": "obj-48",
                    "maxclass": "newobj",
                    "numinlets": 1,
                    "numoutlets": 0,
                    "patching_rect": [ 184.0, 456.0, 120.0, 22.0 ],
                    "text": "print external-file-def"
                }
            },
            {
                "box": {
                    "id": "obj-47",
                    "maxclass": "message",
                    "numinlets": 2,
                    "numoutlets": 1,
                    "outlettype": [ "" ],
                    "patching_rect": [ 507.0, 744.0, 68.0, 22.0 ],
                    "text": "set append"
                }
            },
            {
                "box": {
                    "id": "obj-46",
                    "maxclass": "message",
                    "numinlets": 2,
                    "numoutlets": 1,
                    "outlettype": [ "" ],
                    "patching_rect": [ 426.0, 744.0, 78.0, 22.0 ],
                    "text": "set append 0"
                }
            },
            {
                "box": {
                    "id": "obj-44",
                    "maxclass": "newobj",
                    "numinlets": 3,
                    "numoutlets": 3,
                    "outlettype": [ "bang", "bang", "" ],
                    "patching_rect": [ 426.0, 703.0, 181.0, 22.0 ],
                    "text": "sel 0 1"
                }
            },
            {
                "box": {
                    "id": "obj-43",
                    "maxclass": "newobj",
                    "numinlets": 2,
                    "numoutlets": 2,
                    "outlettype": [ "bang", "" ],
                    "patching_rect": [ 725.0, 488.0, 34.0, 22.0 ],
                    "text": "sel 0"
                }
            },
            {
                "box": {
                    "id": "obj-39",
                    "maxclass": "comment",
                    "numinlets": 1,
                    "numoutlets": 0,
                    "patching_rect": [ 461.0, 434.0, 252.0, 20.0 ],
                    "text": "directly repeated file names will not load twice"
                }
            },
            {
                "box": {
                    "id": "obj-37",
                    "maxclass": "newobj",
                    "numinlets": 2,
                    "numoutlets": 2,
                    "outlettype": [ "", "" ],
                    "patching_rect": [ 452.0, 410.0, 293.0, 22.0 ],
                    "text": "zl change"
                }
            },
            {
                "box": {
                    "id": "obj-32",
                    "maxclass": "newobj",
                    "numinlets": 1,
                    "numoutlets": 2,
                    "outlettype": [ "int", "bang" ],
                    "patching_rect": [ 373.6000055670738, 180.80000269412994, 287.2000042796135, 22.0 ],
                    "text": "t i b"
                }
            },
            {
                "box": {
                    "id": "obj-61",
                    "linecount": 3,
                    "maxclass": "comment",
                    "numinlets": 1,
                    "numoutlets": 0,
                    "patching_rect": [ 172.0, 356.0, 191.0, 47.0 ],
                    "text": "first line must contain list of <any symbol> <descr names...>, defines descr track"
                }
            },
            {
                "box": {
                    "id": "obj-29",
                    "maxclass": "newobj",
                    "numinlets": 1,
                    "numoutlets": 2,
                    "outlettype": [ "", "int" ],
                    "patcher": {
                        "fileversion": 1,
                        "appversion": {
                            "major": 9,
                            "minor": 2,
                            "revision": 0,
                            "architecture": "x64",
                            "modernui": 1
                        },
                        "classnamespace": "box",
                        "rect": [ 1609.0, 603.0, 1246.0, 701.0 ],
                        "boxes": [
                            {
                                "box": {
                                    "id": "obj-27",
                                    "maxclass": "newobj",
                                    "numinlets": 1,
                                    "numoutlets": 1,
                                    "outlettype": [ "" ],
                                    "patching_rect": [ 256.0, 317.0, 71.0, 22.0 ],
                                    "text": "array.tolist"
                                }
                            },
                            {
                                "box": {
                                    "id": "obj-25",
                                    "maxclass": "newobj",
                                    "numinlets": 2,
                                    "numoutlets": 1,
                                    "outlettype": [ "" ],
                                    "patching_rect": [ 256.0, 270.0, 72.0, 22.0 ],
                                    "text": "array.slice 0"
                                }
                            },
                            {
                                "box": {
                                    "id": "obj-23",
                                    "linecount": 4,
                                    "maxclass": "comment",
                                    "numinlets": 1,
                                    "numoutlets": 0,
                                    "patching_rect": [ 270.0, 180.0, 150.0, 60.0 ],
                                    "text": "if descr. list contains \"start\" at first pos, this doesn't count as column and is remoed"
                                }
                            },
                            {
                                "box": {
                                    "id": "obj-20",
                                    "maxclass": "message",
                                    "numinlets": 2,
                                    "numoutlets": 1,
                                    "outlettype": [ "" ],
                                    "patching_rect": [ 568.0, 197.0, 32.0, 22.0 ],
                                    "text": "start"
                                }
                            },
                            {
                                "box": {
                                    "id": "obj-14",
                                    "maxclass": "message",
                                    "numinlets": 2,
                                    "numoutlets": 1,
                                    "outlettype": [ "" ],
                                    "patching_rect": [ 813.0, 197.0, 71.0, 22.0 ],
                                    "text": "a b c"
                                }
                            },
                            {
                                "box": {
                                    "id": "obj-13",
                                    "maxclass": "toggle",
                                    "numinlets": 1,
                                    "numoutlets": 1,
                                    "outlettype": [ "int" ],
                                    "parameter_enable": 0,
                                    "patching_rect": [ 568.0, 330.0, 24.0, 24.0 ]
                                }
                            },
                            {
                                "box": {
                                    "id": "obj-9",
                                    "maxclass": "message",
                                    "numinlets": 2,
                                    "numoutlets": 1,
                                    "outlettype": [ "" ],
                                    "patching_rect": [ 735.0, 197.0, 71.0, 22.0 ],
                                    "text": "start x start"
                                }
                            },
                            {
                                "box": {
                                    "id": "obj-7",
                                    "maxclass": "newobj",
                                    "numinlets": 2,
                                    "numoutlets": 1,
                                    "outlettype": [ "int" ],
                                    "patching_rect": [ 568.0, 269.0, 33.0, 22.0 ],
                                    "text": "== 0"
                                }
                            },
                            {
                                "box": {
                                    "id": "obj-6",
                                    "maxclass": "newobj",
                                    "numinlets": 2,
                                    "numoutlets": 1,
                                    "outlettype": [ "" ],
                                    "patching_rect": [ 568.0, 232.0, 104.0, 22.0 ],
                                    "text": "array.indexof start"
                                }
                            },
                            {
                                "box": {
                                    "id": "obj-4",
                                    "maxclass": "comment",
                                    "numinlets": 1,
                                    "numoutlets": 0,
                                    "patching_rect": [ 600.0, 452.0, 200.0, 20.0 ],
                                    "text": "descr. list contains \"start\" at first pos"
                                }
                            },
                            {
                                "box": {
                                    "id": "obj-3",
                                    "maxclass": "comment",
                                    "numinlets": 1,
                                    "numoutlets": 0,
                                    "patching_rect": [ 290.0, 458.0, 52.0, 20.0 ],
                                    "text": "to mubu"
                                }
                            },
                            {
                                "box": {
                                    "comment": "",
                                    "id": "obj-1",
                                    "index": 2,
                                    "maxclass": "outlet",
                                    "numinlets": 1,
                                    "numoutlets": 0,
                                    "patching_rect": [ 568.0, 447.0, 30.0, 30.0 ]
                                }
                            },
                            {
                                "box": {
                                    "id": "obj-26",
                                    "maxclass": "newobj",
                                    "numinlets": 1,
                                    "numoutlets": 0,
                                    "patching_rect": [ 50.0, 229.0, 194.0, 22.0 ],
                                    "text": "print external-file-descriptor-names"
                                }
                            },
                            {
                                "box": {
                                    "id": "obj-24",
                                    "maxclass": "newobj",
                                    "numinlets": 2,
                                    "numoutlets": 2,
                                    "outlettype": [ "", "" ],
                                    "patching_rect": [ 255.83333331346512, 100.0, 55.0, 22.0 ],
                                    "text": "zl slice 1"
                                }
                            },
                            {
                                "box": {
                                    "id": "obj-5",
                                    "linecount": 2,
                                    "maxclass": "comment",
                                    "numinlets": 1,
                                    "numoutlets": 0,
                                    "patching_rect": [ 270.0, 389.0, 140.5, 33.0 ],
                                    "text": "create track with given #columns and names"
                                }
                            },
                            {
                                "box": {
                                    "id": "obj-61",
                                    "linecount": 2,
                                    "maxclass": "comment",
                                    "numinlets": 1,
                                    "numoutlets": 0,
                                    "patching_rect": [ 323.8333333134651, 100.0, 180.0, 33.0 ],
                                    "text": "first line must contain list of <any symbol> <descr names...>"
                                }
                            },
                            {
                                "box": {
                                    "id": "obj-60",
                                    "maxclass": "newobj",
                                    "numinlets": 1,
                                    "numoutlets": 1,
                                    "outlettype": [ "int" ],
                                    "patching_rect": [ 412.0, 317.0, 71.0, 22.0 ],
                                    "text": "array.length"
                                }
                            },
                            {
                                "box": {
                                    "id": "obj-57",
                                    "linecount": 4,
                                    "maxclass": "message",
                                    "numinlets": 2,
                                    "numoutlets": 1,
                                    "outlettype": [ "" ],
                                    "patching_rect": [ 412.0, 351.0, 95.0, 62.0 ],
                                    "text": "addtrack @name #2 @matrixcols $1 @timetagged 1"
                                }
                            },
                            {
                                "box": {
                                    "id": "obj-51",
                                    "maxclass": "newobj",
                                    "numinlets": 1,
                                    "numoutlets": 4,
                                    "outlettype": [ "", "", "bang", "" ],
                                    "patching_rect": [ 256.0, 152.5, 486.9999999999999, 22.0 ],
                                    "text": "t l l b l"
                                }
                            },
                            {
                                "box": {
                                    "id": "obj-48",
                                    "linecount": 2,
                                    "maxclass": "newobj",
                                    "numinlets": 1,
                                    "numoutlets": 1,
                                    "outlettype": [ "" ],
                                    "patching_rect": [ 256.0, 347.0, 118.0, 35.0 ],
                                    "text": "prepend track #2 matrixcolnames"
                                }
                            },
                            {
                                "box": {
                                    "comment": "",
                                    "id": "obj-16",
                                    "index": 1,
                                    "maxclass": "inlet",
                                    "numinlets": 0,
                                    "numoutlets": 1,
                                    "outlettype": [ "" ],
                                    "patching_rect": [ 255.833328, 40.00000025411225, 30.0, 30.0 ]
                                }
                            },
                            {
                                "box": {
                                    "comment": "",
                                    "id": "obj-28",
                                    "index": 1,
                                    "maxclass": "outlet",
                                    "numinlets": 1,
                                    "numoutlets": 0,
                                    "patching_rect": [ 255.0, 450.0, 30.0, 30.0 ]
                                }
                            }
                        ],
                        "lines": [
                            {
                                "patchline": {
                                    "destination": [ "obj-1", 0 ],
                                    "source": [ "obj-13", 0 ]
                                }
                            },
                            {
                                "patchline": {
                                    "destination": [ "obj-6", 1 ],
                                    "source": [ "obj-14", 0 ]
                                }
                            },
                            {
                                "patchline": {
                                    "destination": [ "obj-24", 0 ],
                                    "source": [ "obj-16", 0 ]
                                }
                            },
                            {
                                "patchline": {
                                    "destination": [ "obj-6", 0 ],
                                    "source": [ "obj-20", 0 ]
                                }
                            },
                            {
                                "patchline": {
                                    "destination": [ "obj-51", 0 ],
                                    "source": [ "obj-24", 1 ]
                                }
                            },
                            {
                                "patchline": {
                                    "destination": [ "obj-27", 0 ],
                                    "order": 1,
                                    "source": [ "obj-25", 0 ]
                                }
                            },
                            {
                                "patchline": {
                                    "destination": [ "obj-60", 0 ],
                                    "order": 0,
                                    "source": [ "obj-25", 0 ]
                                }
                            },
                            {
                                "patchline": {
                                    "destination": [ "obj-48", 0 ],
                                    "source": [ "obj-27", 0 ]
                                }
                            },
                            {
                                "patchline": {
                                    "destination": [ "obj-28", 0 ],
                                    "source": [ "obj-48", 0 ]
                                }
                            },
                            {
                                "patchline": {
                                    "destination": [ "obj-20", 0 ],
                                    "source": [ "obj-51", 2 ]
                                }
                            },
                            {
                                "patchline": {
                                    "destination": [ "obj-25", 0 ],
                                    "source": [ "obj-51", 0 ]
                                }
                            },
                            {
                                "patchline": {
                                    "destination": [ "obj-6", 1 ],
                                    "source": [ "obj-51", 3 ]
                                }
                            },
                            {
                                "patchline": {
                                    "destination": [ "obj-28", 0 ],
                                    "source": [ "obj-57", 0 ]
                                }
                            },
                            {
                                "patchline": {
                                    "destination": [ "obj-7", 0 ],
                                    "source": [ "obj-6", 0 ]
                                }
                            },
                            {
                                "patchline": {
                                    "destination": [ "obj-57", 0 ],
                                    "source": [ "obj-60", 0 ]
                                }
                            },
                            {
                                "patchline": {
                                    "destination": [ "obj-13", 0 ],
                                    "order": 0,
                                    "source": [ "obj-7", 0 ]
                                }
                            },
                            {
                                "patchline": {
                                    "destination": [ "obj-25", 1 ],
                                    "order": 1,
                                    "source": [ "obj-7", 0 ]
                                }
                            },
                            {
                                "patchline": {
                                    "destination": [ "obj-6", 1 ],
                                    "source": [ "obj-9", 0 ]
                                }
                            }
                        ]
                    },
                    "patching_rect": [ 155.0, 410.0, 156.0, 22.0 ],
                    "text": "p first-line"
                }
            },
            {
                "box": {
                    "id": "obj-38",
                    "linecount": 2,
                    "maxclass": "comment",
                    "numinlets": 1,
                    "numoutlets": 0,
                    "patching_rect": [ 742.0, 13.0, 150.0, 33.0 ],
                    "text": "arguments: corpus name, descr. track name"
                }
            },
            {
                "box": {
                    "id": "obj-41",
                    "maxclass": "newobj",
                    "numinlets": 1,
                    "numoutlets": 1,
                    "outlettype": [ "" ],
                    "patcher": {
                        "fileversion": 1,
                        "appversion": {
                            "major": 9,
                            "minor": 2,
                            "revision": 0,
                            "architecture": "x64",
                            "modernui": 1
                        },
                        "classnamespace": "box",
                        "rect": [ 1020.0, 96.0, 640.0, 480.0 ],
                        "boxes": [
                            {
                                "box": {
                                    "id": "obj-2",
                                    "maxclass": "message",
                                    "numinlets": 2,
                                    "numoutlets": 1,
                                    "outlettype": [ "" ],
                                    "patching_rect": [ 50.0, 123.85000574588776, 39.0, 22.0 ],
                                    "text": "TEXT"
                                }
                            },
                            {
                                "box": {
                                    "id": "obj-37",
                                    "maxclass": "comment",
                                    "numinlets": 1,
                                    "numoutlets": 0,
                                    "patching_rect": [ 163.0, 106.85000574588776, 79.0, 20.0 ],
                                    "text": "with filename"
                                }
                            },
                            {
                                "box": {
                                    "id": "obj-32",
                                    "maxclass": "newobj",
                                    "numinlets": 1,
                                    "numoutlets": 2,
                                    "outlettype": [ "", "bang" ],
                                    "patching_rect": [ 50.0, 151.85000574588776, 91.0, 22.0 ],
                                    "text": "opendialog"
                                }
                            },
                            {
                                "box": {
                                    "id": "obj-29",
                                    "maxclass": "newobj",
                                    "numinlets": 1,
                                    "numoutlets": 1,
                                    "outlettype": [ "" ],
                                    "patching_rect": [ 50.0, 193.0, 80.0, 22.0 ],
                                    "text": "prepend read"
                                }
                            },
                            {
                                "box": {
                                    "id": "obj-28",
                                    "maxclass": "newobj",
                                    "numinlets": 2,
                                    "numoutlets": 2,
                                    "outlettype": [ "bang", "" ],
                                    "patching_rect": [ 50.0, 78.0, 120.5, 22.0 ],
                                    "text": "sel bang"
                                }
                            },
                            {
                                "box": {
                                    "comment": "",
                                    "id": "obj-38",
                                    "index": 1,
                                    "maxclass": "inlet",
                                    "numinlets": 0,
                                    "numoutlets": 1,
                                    "outlettype": [ "" ],
                                    "patching_rect": [ 50.0, 40.0, 30.0, 30.0 ]
                                }
                            },
                            {
                                "box": {
                                    "comment": "",
                                    "id": "obj-39",
                                    "index": 1,
                                    "maxclass": "outlet",
                                    "numinlets": 1,
                                    "numoutlets": 0,
                                    "patching_rect": [ 50.0, 231.0, 30.0, 30.0 ]
                                }
                            }
                        ],
                        "lines": [
                            {
                                "patchline": {
                                    "destination": [ "obj-32", 0 ],
                                    "source": [ "obj-2", 0 ]
                                }
                            },
                            {
                                "patchline": {
                                    "destination": [ "obj-2", 0 ],
                                    "source": [ "obj-28", 0 ]
                                }
                            },
                            {
                                "patchline": {
                                    "destination": [ "obj-29", 0 ],
                                    "midpoints": [ 161.0, 182.0, 59.5, 182.0 ],
                                    "source": [ "obj-28", 1 ]
                                }
                            },
                            {
                                "patchline": {
                                    "destination": [ "obj-39", 0 ],
                                    "source": [ "obj-29", 0 ]
                                }
                            },
                            {
                                "patchline": {
                                    "destination": [ "obj-29", 0 ],
                                    "source": [ "obj-32", 0 ]
                                }
                            },
                            {
                                "patchline": {
                                    "destination": [ "obj-28", 0 ],
                                    "source": [ "obj-38", 0 ]
                                }
                            }
                        ]
                    },
                    "patching_rect": [ 245.5, 85.29998799999998, 69.0, 22.0 ],
                    "text": "p safe-read"
                }
            },
            {
                "box": {
                    "id": "obj-1",
                    "maxclass": "newobj",
                    "numinlets": 2,
                    "numoutlets": 2,
                    "outlettype": [ "", "" ],
                    "patching_rect": [ 245.5, 55.799987999999985, 98.0, 22.0 ],
                    "text": "route read"
                }
            },
            {
                "box": {
                    "id": "obj-27",
                    "maxclass": "newobj",
                    "numinlets": 1,
                    "numoutlets": 0,
                    "patching_rect": [ 623.0, 605.0, 125.0, 22.0 ],
                    "text": "print external-file-read"
                }
            },
            {
                "box": {
                    "id": "obj-23",
                    "maxclass": "newobj",
                    "numinlets": 1,
                    "numoutlets": 3,
                    "outlettype": [ "int", "int", "int" ],
                    "patching_rect": [ 417.0, 248.00000369548798, 113.0, 22.0 ],
                    "text": "t i i i"
                }
            },
            {
                "box": {
                    "id": "obj-20",
                    "maxclass": "comment",
                    "numinlets": 1,
                    "numoutlets": 0,
                    "patching_rect": [ 425.5, 154.68333667516708, 229.0, 20.0 ],
                    "text": "number of lines in response to query msg"
                }
            },
            {
                "box": {
                    "id": "obj-18",
                    "linecount": 3,
                    "maxclass": "comment",
                    "numinlets": 1,
                    "numoutlets": 0,
                    "patching_rect": [ 33.0, 130.29998799999998, 116.0, 47.0 ],
                    "text": "clearall is deferred, defer rebuilding of mubu, just in case"
                }
            },
            {
                "box": {
                    "id": "obj-17",
                    "maxclass": "newobj",
                    "numinlets": 1,
                    "numoutlets": 1,
                    "outlettype": [ "" ],
                    "patching_rect": [ 22.0, 105.01667058467865, 54.0, 22.0 ],
                    "text": "deferlow"
                }
            },
            {
                "box": {
                    "id": "obj-2",
                    "maxclass": "message",
                    "numinlets": 2,
                    "numoutlets": 1,
                    "outlettype": [ "" ],
                    "patching_rect": [ 208.5, 85.29998799999998, 35.0, 22.0 ],
                    "text": "clear"
                }
            },
            {
                "box": {
                    "comment": "",
                    "id": "obj-9",
                    "index": 1,
                    "maxclass": "outlet",
                    "numinlets": 1,
                    "numoutlets": 0,
                    "patching_rect": [ 394.6000055670738, 840.0, 30.0, 30.0 ]
                }
            },
            {
                "box": {
                    "id": "obj-7",
                    "linecount": 2,
                    "maxclass": "comment",
                    "numinlets": 1,
                    "numoutlets": 0,
                    "patching_rect": [ 734.0, 748.0, 245.0, 33.0 ],
                    "text": "after reading the audio file or at next line we can store the data in the descr track"
                }
            },
            {
                "box": {
                    "id": "obj-6",
                    "linecount": 2,
                    "maxclass": "comment",
                    "numinlets": 1,
                    "numoutlets": 0,
                    "patching_rect": [ 774.0, 399.0, 221.0, 33.0 ],
                    "text": "because read is async, we must temporarily store the descr. values"
                }
            },
            {
                "box": {
                    "id": "obj-4",
                    "linecount": 2,
                    "maxclass": "comment",
                    "numinlets": 1,
                    "numoutlets": 0,
                    "patching_rect": [ 50.0, 29.299987999999985, 149.0, 33.0 ],
                    "text": "text file read finished: query #lines"
                }
            },
            {
                "box": {
                    "id": "obj-3",
                    "maxclass": "comment",
                    "numinlets": 1,
                    "numoutlets": 0,
                    "patching_rect": [ 289.0, 19.299987999999985, 90.0, 20.0 ],
                    "text": "text file reading"
                }
            },
            {
                "box": {
                    "id": "obj-98",
                    "maxclass": "message",
                    "numinlets": 2,
                    "numoutlets": 1,
                    "outlettype": [ "" ],
                    "patching_rect": [ 139.0, 105.01667058467865, 50.0, 22.0 ],
                    "text": "clearall"
                }
            },
            {
                "box": {
                    "id": "obj-77",
                    "maxclass": "button",
                    "numinlets": 1,
                    "numoutlets": 1,
                    "outlettype": [ "bang" ],
                    "parameter_enable": 0,
                    "patching_rect": [ 22.0, 29.299987999999985, 24.0, 24.0 ]
                }
            },
            {
                "box": {
                    "id": "obj-72",
                    "maxclass": "newobj",
                    "numinlets": 1,
                    "numoutlets": 2,
                    "outlettype": [ "bang", "bang" ],
                    "patching_rect": [ 22.0, 67.85000574588776, 136.0, 22.0 ],
                    "text": "t b b"
                }
            },
            {
                "box": {
                    "id": "obj-71",
                    "maxclass": "newobj",
                    "numinlets": 2,
                    "numoutlets": 2,
                    "outlettype": [ "", "" ],
                    "patching_rect": [ 155.0, 329.0, 316.0, 22.0 ],
                    "text": "gate 2"
                }
            },
            {
                "box": {
                    "id": "obj-14",
                    "maxclass": "newobj",
                    "numinlets": 2,
                    "numoutlets": 2,
                    "outlettype": [ "", "" ],
                    "patching_rect": [ 725.0, 718.0, 55.0, 22.0 ],
                    "text": "zl reg"
                }
            },
            {
                "box": {
                    "id": "obj-97",
                    "maxclass": "newobj",
                    "numinlets": 1,
                    "numoutlets": 1,
                    "outlettype": [ "" ],
                    "patching_rect": [ 155.0, 487.0, 109.0, 22.0 ],
                    "saved_object_attributes": {
                        "dirtypatcher": 1,
                        "embed": 0,
                        "externalfiles": 1,
                        "maintrack": -1,
                        "parameter_enable": 0,
                        "parameter_mappable": 0,
                        "resamplefiles": 0,
                        "ringmaster": -1,
                        "savegui": 0,
                        "snaprate": 1000.0,
                        "verbose": 1
                    },
                    "text": "mubu #1"
                }
            },
            {
                "box": {
                    "id": "obj-93",
                    "maxclass": "newobj",
                    "numinlets": 1,
                    "numoutlets": 1,
                    "outlettype": [ "" ],
                    "patching_rect": [ 725.0, 918.0, 171.0, 22.0 ],
                    "saved_object_attributes": {
                        "dirtypatcher": 1,
                        "embed": 0,
                        "externalfiles": 1,
                        "maintrack": -1,
                        "parameter_enable": 0,
                        "parameter_mappable": 0,
                        "resamplefiles": 0,
                        "ringmaster": -1,
                        "savegui": 0,
                        "snaprate": 1000.0,
                        "verbose": 1
                    },
                    "text": "mubu #1"
                }
            },
            {
                "box": {
                    "id": "obj-90",
                    "maxclass": "newobj",
                    "numinlets": 1,
                    "numoutlets": 1,
                    "outlettype": [ "" ],
                    "patching_rect": [ 725.0, 792.0, 106.0, 22.0 ],
                    "text": "prepend append 0"
                }
            },
            {
                "box": {
                    "id": "obj-88",
                    "maxclass": "newobj",
                    "numinlets": 1,
                    "numoutlets": 4,
                    "outlettype": [ "resume", "bang", "bang", "" ],
                    "patching_rect": [ 452.0, 602.0, 157.0, 22.0 ],
                    "text": "t resume b b l"
                }
            },
            {
                "box": {
                    "id": "obj-76",
                    "maxclass": "message",
                    "numinlets": 2,
                    "numoutlets": 1,
                    "outlettype": [ "" ],
                    "patching_rect": [ 866.0, 718.0, 84.0, 22.0 ],
                    "text": "bufferindex $1"
                }
            },
            {
                "box": {
                    "id": "obj-63",
                    "maxclass": "newobj",
                    "numinlets": 2,
                    "numoutlets": 2,
                    "outlettype": [ "", "" ],
                    "patching_rect": [ 452.0, 556.0, 103.0, 22.0 ],
                    "text": "route readappend"
                }
            },
            {
                "box": {
                    "id": "obj-58",
                    "maxclass": "newobj",
                    "numinlets": 1,
                    "numoutlets": 1,
                    "outlettype": [ "" ],
                    "patching_rect": [ 452.0, 519.0, 109.0, 22.0 ],
                    "saved_object_attributes": {
                        "dirtypatcher": 1,
                        "embed": 0,
                        "externalfiles": 1,
                        "maintrack": -1,
                        "parameter_enable": 0,
                        "parameter_mappable": 0,
                        "resamplefiles": 0,
                        "ringmaster": -1,
                        "savegui": 0,
                        "snaprate": 1000.0,
                        "verbose": 1
                    },
                    "text": "mubu #1"
                }
            },
            {
                "box": {
                    "id": "obj-8",
                    "maxclass": "newobj",
                    "numinlets": 2,
                    "numoutlets": 2,
                    "outlettype": [ "", "" ],
                    "patching_rect": [ 452.0, 369.0, 328.0, 22.0 ],
                    "text": "zl slice 1"
                }
            },
            {
                "box": {
                    "id": "obj-15",
                    "maxclass": "message",
                    "numinlets": 2,
                    "numoutlets": 1,
                    "outlettype": [ "" ],
                    "patching_rect": [ 452.0, 488.0, 263.0, 22.0 ],
                    "text": "readappend $1 @name audio @bufferinfo data"
                }
            },
            {
                "box": {
                    "id": "obj-19",
                    "maxclass": "number",
                    "numinlets": 1,
                    "numoutlets": 2,
                    "outlettype": [ "", "bang" ],
                    "parameter_enable": 0,
                    "patching_rect": [ 386.5, 57.0, 50.0, 22.0 ]
                }
            },
            {
                "box": {
                    "id": "obj-21",
                    "maxclass": "newobj",
                    "numinlets": 2,
                    "numoutlets": 2,
                    "outlettype": [ "", "" ],
                    "patching_rect": [ 244.83333331346512, 159.68333667516708, 55.0, 22.0 ],
                    "text": "route set"
                }
            },
            {
                "box": {
                    "id": "obj-33",
                    "maxclass": "message",
                    "numinlets": 2,
                    "numoutlets": 1,
                    "outlettype": [ "" ],
                    "patching_rect": [ 386.5, 90.0, 48.0, 22.0 ],
                    "text": "line $1"
                }
            },
            {
                "box": {
                    "id": "obj-34",
                    "maxclass": "newobj",
                    "numinlets": 2,
                    "numoutlets": 3,
                    "outlettype": [ "bang", "bang", "int" ],
                    "patching_rect": [ 373.6000055670738, 220.00000327825546, 61.0, 22.0 ],
                    "text": "uzi"
                }
            },
            {
                "box": {
                    "id": "obj-35",
                    "maxclass": "number",
                    "numinlets": 1,
                    "numoutlets": 2,
                    "outlettype": [ "", "bang" ],
                    "parameter_enable": 0,
                    "patching_rect": [ 373.5, 154.68333667516708, 50.0, 22.0 ]
                }
            },
            {
                "box": {
                    "id": "obj-40",
                    "maxclass": "message",
                    "numinlets": 2,
                    "numoutlets": 1,
                    "outlettype": [ "" ],
                    "patching_rect": [ 22.0, 192.01667058467865, 39.0, 22.0 ],
                    "text": "query"
                }
            },
            {
                "box": {
                    "id": "obj-42",
                    "maxclass": "newobj",
                    "numinlets": 1,
                    "numoutlets": 3,
                    "outlettype": [ "", "bang", "int" ],
                    "patching_rect": [ 245.5, 121.01667058467865, 147.0, 22.0 ],
                    "text": "text"
                }
            },
            {
                "box": {
                    "comment": "",
                    "id": "obj-100",
                    "index": 1,
                    "maxclass": "inlet",
                    "numinlets": 0,
                    "numoutlets": 1,
                    "outlettype": [ "" ],
                    "patching_rect": [ 245.5, 19.299987999999985, 30.0, 30.0 ]
                }
            }
        ],
        "lines": [
            {
                "patchline": {
                    "destination": [ "obj-41", 0 ],
                    "source": [ "obj-1", 0 ]
                }
            },
            {
                "patchline": {
                    "destination": [ "obj-42", 0 ],
                    "midpoints": [ 334.0, 117.90832929233932, 255.0, 117.90832929233932 ],
                    "source": [ "obj-1", 1 ]
                }
            },
            {
                "patchline": {
                    "destination": [ "obj-34", 0 ],
                    "source": [ "obj-10", 0 ]
                }
            },
            {
                "patchline": {
                    "destination": [ "obj-1", 0 ],
                    "source": [ "obj-100", 0 ]
                }
            },
            {
                "patchline": {
                    "destination": [ "obj-15", 0 ],
                    "source": [ "obj-11", 0 ]
                }
            },
            {
                "patchline": {
                    "destination": [ "obj-34", 0 ],
                    "midpoints": [ 496.5, 452.39375626435503, 631.4218817937654, 452.39375626435503, 631.4218817937654, 210.00000327825546, 383.1000055670738, 210.00000327825546 ],
                    "source": [ "obj-11", 1 ]
                }
            },
            {
                "patchline": {
                    "destination": [ "obj-1", 0 ],
                    "source": [ "obj-12", 0 ]
                }
            },
            {
                "patchline": {
                    "destination": [ "obj-90", 0 ],
                    "source": [ "obj-14", 0 ]
                }
            },
            {
                "patchline": {
                    "destination": [ "obj-58", 0 ],
                    "source": [ "obj-15", 0 ]
                }
            },
            {
                "patchline": {
                    "destination": [ "obj-40", 0 ],
                    "source": [ "obj-17", 0 ]
                }
            },
            {
                "patchline": {
                    "destination": [ "obj-33", 0 ],
                    "midpoints": [ 396.0, 84.0 ],
                    "source": [ "obj-19", 0 ]
                }
            },
            {
                "patchline": {
                    "destination": [ "obj-42", 0 ],
                    "source": [ "obj-2", 0 ]
                }
            },
            {
                "patchline": {
                    "destination": [ "obj-24", 0 ],
                    "source": [ "obj-21", 0 ]
                }
            },
            {
                "patchline": {
                    "destination": [ "obj-19", 0 ],
                    "midpoints": [ 426.5, 279.97812921670265, 694.3500011563301, 279.97812921670265, 694.3500011563301, 49.01667058467865, 396.0, 49.01667058467865 ],
                    "source": [ "obj-23", 0 ]
                }
            },
            {
                "patchline": {
                    "destination": [ "obj-71", 0 ],
                    "source": [ "obj-23", 1 ]
                }
            },
            {
                "patchline": {
                    "destination": [ "obj-71", 1 ],
                    "midpoints": [ 301.3333333134651, 308.26171875, 461.5, 308.26171875 ],
                    "source": [ "obj-24", 1 ]
                }
            },
            {
                "patchline": {
                    "destination": [ "obj-44", 0 ],
                    "source": [ "obj-29", 1 ]
                }
            },
            {
                "patchline": {
                    "destination": [ "obj-48", 0 ],
                    "order": 0,
                    "source": [ "obj-29", 0 ]
                }
            },
            {
                "patchline": {
                    "destination": [ "obj-97", 0 ],
                    "order": 1,
                    "source": [ "obj-29", 0 ]
                }
            },
            {
                "patchline": {
                    "destination": [ "obj-34", 0 ],
                    "source": [ "obj-32", 0 ]
                }
            },
            {
                "patchline": {
                    "destination": [ "obj-51", 0 ],
                    "source": [ "obj-32", 1 ]
                }
            },
            {
                "patchline": {
                    "destination": [ "obj-42", 0 ],
                    "midpoints": [ 396.0, 117.50833529233932, 255.0, 117.50833529233932 ],
                    "source": [ "obj-33", 0 ]
                }
            },
            {
                "patchline": {
                    "destination": [ "obj-23", 0 ],
                    "midpoints": [ 425.1000055670738, 250.24167826771736, 426.5, 250.24167826771736 ],
                    "source": [ "obj-34", 2 ]
                }
            },
            {
                "patchline": {
                    "destination": [ "obj-65", 0 ],
                    "source": [ "obj-34", 1 ]
                }
            },
            {
                "patchline": {
                    "destination": [ "obj-32", 0 ],
                    "source": [ "obj-35", 0 ]
                }
            },
            {
                "patchline": {
                    "destination": [ "obj-11", 0 ],
                    "source": [ "obj-37", 0 ]
                }
            },
            {
                "patchline": {
                    "destination": [ "obj-43", 0 ],
                    "source": [ "obj-37", 1 ]
                }
            },
            {
                "patchline": {
                    "destination": [ "obj-42", 0 ],
                    "source": [ "obj-40", 0 ]
                }
            },
            {
                "patchline": {
                    "destination": [ "obj-42", 0 ],
                    "source": [ "obj-41", 0 ]
                }
            },
            {
                "patchline": {
                    "destination": [ "obj-21", 0 ],
                    "source": [ "obj-42", 0 ]
                }
            },
            {
                "patchline": {
                    "destination": [ "obj-35", 0 ],
                    "source": [ "obj-42", 2 ]
                }
            },
            {
                "patchline": {
                    "destination": [ "obj-77", 0 ],
                    "midpoints": [ 319.0, 290.5729210251011, 720.0, 290.5729210251011, 720.0, 13.299987999999985, 31.5, 13.299987999999985 ],
                    "source": [ "obj-42", 1 ]
                }
            },
            {
                "patchline": {
                    "destination": [ "obj-5", 0 ],
                    "source": [ "obj-43", 0 ]
                }
            },
            {
                "patchline": {
                    "destination": [ "obj-46", 0 ],
                    "source": [ "obj-44", 0 ]
                }
            },
            {
                "patchline": {
                    "destination": [ "obj-47", 0 ],
                    "source": [ "obj-44", 1 ]
                }
            },
            {
                "patchline": {
                    "destination": [ "obj-90", 0 ],
                    "source": [ "obj-46", 0 ]
                }
            },
            {
                "patchline": {
                    "destination": [ "obj-90", 0 ],
                    "source": [ "obj-47", 0 ]
                }
            },
            {
                "patchline": {
                    "destination": [ "obj-14", 0 ],
                    "source": [ "obj-5", 0 ]
                }
            },
            {
                "patchline": {
                    "destination": [ "obj-64", 0 ],
                    "source": [ "obj-5", 1 ]
                }
            },
            {
                "patchline": {
                    "destination": [ "obj-37", 0 ],
                    "source": [ "obj-51", 0 ]
                }
            },
            {
                "patchline": {
                    "destination": [ "obj-93", 0 ],
                    "source": [ "obj-52", 0 ]
                }
            },
            {
                "patchline": {
                    "destination": [ "obj-52", 0 ],
                    "source": [ "obj-53", 0 ]
                }
            },
            {
                "patchline": {
                    "destination": [ "obj-42", 0 ],
                    "source": [ "obj-56", 0 ]
                }
            },
            {
                "patchline": {
                    "destination": [ "obj-63", 0 ],
                    "source": [ "obj-58", 0 ]
                }
            },
            {
                "patchline": {
                    "destination": [ "obj-27", 0 ],
                    "order": 0,
                    "source": [ "obj-63", 0 ]
                }
            },
            {
                "patchline": {
                    "destination": [ "obj-88", 0 ],
                    "order": 1,
                    "source": [ "obj-63", 0 ]
                }
            },
            {
                "patchline": {
                    "destination": [ "obj-52", 0 ],
                    "source": [ "obj-64", 0 ]
                }
            },
            {
                "patchline": {
                    "destination": [ "obj-9", 0 ],
                    "source": [ "obj-65", 0 ]
                }
            },
            {
                "patchline": {
                    "destination": [ "obj-29", 0 ],
                    "source": [ "obj-71", 0 ]
                }
            },
            {
                "patchline": {
                    "destination": [ "obj-8", 0 ],
                    "source": [ "obj-71", 1 ]
                }
            },
            {
                "patchline": {
                    "destination": [ "obj-17", 0 ],
                    "source": [ "obj-72", 0 ]
                }
            },
            {
                "patchline": {
                    "destination": [ "obj-98", 0 ],
                    "source": [ "obj-72", 1 ]
                }
            },
            {
                "patchline": {
                    "destination": [ "obj-93", 0 ],
                    "midpoints": [ 875.5, 903.6086025433615, 734.5, 903.6086025433615 ],
                    "source": [ "obj-76", 0 ]
                }
            },
            {
                "patchline": {
                    "destination": [ "obj-72", 0 ],
                    "source": [ "obj-77", 0 ]
                }
            },
            {
                "patchline": {
                    "destination": [ "obj-14", 1 ],
                    "source": [ "obj-8", 1 ]
                }
            },
            {
                "patchline": {
                    "destination": [ "obj-37", 0 ],
                    "source": [ "obj-8", 0 ]
                }
            },
            {
                "patchline": {
                    "destination": [ "obj-14", 0 ],
                    "source": [ "obj-88", 1 ]
                }
            },
            {
                "patchline": {
                    "destination": [ "obj-34", 0 ],
                    "midpoints": [ 461.5, 634.561727407854, 1069.9718920569867, 634.561727407854, 1069.9718920569867, 210.00000327825546, 383.1000055670738, 210.00000327825546 ],
                    "source": [ "obj-88", 0 ]
                }
            },
            {
                "patchline": {
                    "destination": [ "obj-53", 0 ],
                    "source": [ "obj-88", 2 ]
                }
            },
            {
                "patchline": {
                    "destination": [ "obj-76", 0 ],
                    "source": [ "obj-88", 3 ]
                }
            },
            {
                "patchline": {
                    "destination": [ "obj-52", 0 ],
                    "source": [ "obj-90", 0 ]
                }
            },
            {
                "patchline": {
                    "destination": [ "obj-64", 1 ],
                    "midpoints": [ 734.5, 950.0, 1064.08984375, 950.0, 1064.08984375, 704.82421875, 1028.5, 704.82421875 ],
                    "source": [ "obj-93", 0 ]
                }
            },
            {
                "patchline": {
                    "destination": [ "obj-97", 0 ],
                    "midpoints": [ 148.5, 472.9575540423393, 164.5, 472.9575540423393 ],
                    "source": [ "obj-98", 0 ]
                }
            }
        ]
    }
}