{
	"patcher" : 	{
		"fileversion" : 1,
		"appversion" : 		{
			"major" : 7,
			"minor" : 3,
			"revision" : 5,
			"architecture" : "x64",
			"modernui" : 1
		}
,
		"rect" : [ 0.0, 45.0, 1280.0, 279.0 ],
		"bglocked" : 0,
		"openinpresentation" : 1,
		"default_fontsize" : 9.0,
		"default_fontface" : 0,
		"default_fontname" : "Geneva",
		"gridonopen" : 1,
		"gridsize" : [ 10.0, 10.0 ],
		"gridsnaponopen" : 1,
		"objectsnaponopen" : 1,
		"statusbarvisible" : 2,
		"toolbarvisible" : 0,
		"lefttoolbarpinned" : 2,
		"toptoolbarpinned" : 2,
		"righttoolbarpinned" : 2,
		"bottomtoolbarpinned" : 2,
		"toolbars_unpinned_last_save" : 15,
		"tallnewobj" : 0,
		"boxanimatetime" : 200,
		"enablehscroll" : 1,
		"enablevscroll" : 1,
		"devicewidth" : 0.0,
		"description" : "",
		"digest" : "",
		"tags" : "",
		"style" : "",
		"subpatcher_template" : "",
		"boxes" : [ 			{
				"box" : 				{
					"fontname" : "Arial",
					"fontsize" : 9.0,
					"id" : "obj-69",
					"maxclass" : "newobj",
					"numinlets" : 1,
					"numoutlets" : 3,
					"outlettype" : [ "", "", "" ],
					"patching_rect" : [ 957.0, 147.700012, 240.0, 19.0 ],
					"restore" : [ 0.0 ],
					"saved_object_attributes" : 					{
						"parameter_enable" : 0
					}
,
					"style" : "",
					"text" : "pattr onseg-maxsize @bindto pipo-onseg::onseg.maxsize",
					"varname" : "onseg-maxsize[1]"
				}

			}
, 			{
				"box" : 				{
					"fontname" : "Arial",
					"fontsize" : 9.0,
					"id" : "obj-2",
					"maxclass" : "newobj",
					"numinlets" : 1,
					"numoutlets" : 3,
					"outlettype" : [ "", "", "" ],
					"patching_rect" : [ 957.0, 210.700012, 266.0, 19.0 ],
					"restore" : [ 0 ],
					"saved_object_attributes" : 					{
						"parameter_enable" : 0
					}
,
					"style" : "",
					"text" : "pattr onseg-startisonset @bindto pipo-onseg::onseg.startisonset",
					"varname" : "onseg-startisonset[1]"
				}

			}
, 			{
				"box" : 				{
					"fontname" : "Arial",
					"fontsize" : 9.0,
					"id" : "obj-4",
					"maxclass" : "newobj",
					"numinlets" : 1,
					"numoutlets" : 3,
					"outlettype" : [ "", "", "" ],
					"patching_rect" : [ 957.0, 189.700012, 244.0, 19.0 ],
					"restore" : [ 0 ],
					"saved_object_attributes" : 					{
						"parameter_enable" : 0
					}
,
					"style" : "",
					"text" : "pattr onseg-odfmode @bindto pipo-onseg::onseg.odfmode",
					"varname" : "onseg-odfmode[1]"
				}

			}
, 			{
				"box" : 				{
					"fontname" : "Arial",
					"fontsize" : 9.0,
					"id" : "obj-5",
					"maxclass" : "newobj",
					"numinlets" : 1,
					"numoutlets" : 3,
					"outlettype" : [ "", "", "" ],
					"patching_rect" : [ 957.0, 168.700012, 240.0, 19.0 ],
					"restore" : [ 0 ],
					"saved_object_attributes" : 					{
						"parameter_enable" : 0
					}
,
					"style" : "",
					"text" : "pattr onseg-filtersize @bindto pipo-onseg::onseg.filtersize",
					"varname" : "onseg-filtersize[1]"
				}

			}
, 			{
				"box" : 				{
					"fontname" : "Arial",
					"fontsize" : 9.0,
					"id" : "obj-9",
					"maxclass" : "newobj",
					"numinlets" : 1,
					"numoutlets" : 3,
					"outlettype" : [ "", "", "" ],
					"patching_rect" : [ 957.0, 126.700012, 238.0, 19.0 ],
					"restore" : [ 0.0 ],
					"saved_object_attributes" : 					{
						"parameter_enable" : 0
					}
,
					"style" : "",
					"text" : "pattr onseg-mininter @bindto pipo-onseg::onseg.mininter",
					"varname" : "onseg-mininter[1]"
				}

			}
, 			{
				"box" : 				{
					"fontname" : "Arial",
					"fontsize" : 9.0,
					"id" : "obj-12",
					"maxclass" : "newobj",
					"numinlets" : 1,
					"numoutlets" : 3,
					"outlettype" : [ "", "", "" ],
					"patching_rect" : [ 957.0, 105.700012, 250.0, 19.0 ],
					"restore" : [ 0.0 ],
					"saved_object_attributes" : 					{
						"parameter_enable" : 0
					}
,
					"style" : "",
					"text" : "pattr onseg-durthresh @bindto pipo-onseg::onseg.durthresh",
					"varname" : "onseg-durthresh[1]"
				}

			}
, 			{
				"box" : 				{
					"fontname" : "Arial",
					"fontsize" : 9.0,
					"id" : "obj-13",
					"maxclass" : "newobj",
					"numinlets" : 1,
					"numoutlets" : 3,
					"outlettype" : [ "", "", "" ],
					"patching_rect" : [ 957.0, 84.700012, 243.0, 19.0 ],
					"restore" : [ 0.0 ],
					"saved_object_attributes" : 					{
						"parameter_enable" : 0
					}
,
					"style" : "",
					"text" : "pattr onseg-offthresh @bindto pipo-onseg::onseg.offthresh",
					"varname" : "onseg-offthresh[1]"
				}

			}
, 			{
				"box" : 				{
					"fontname" : "Arial",
					"fontsize" : 9.0,
					"id" : "obj-14",
					"maxclass" : "newobj",
					"numinlets" : 1,
					"numoutlets" : 3,
					"outlettype" : [ "", "", "" ],
					"patching_rect" : [ 957.0, 63.700012, 248.0, 19.0 ],
					"restore" : [ 0.0 ],
					"saved_object_attributes" : 					{
						"parameter_enable" : 0
					}
,
					"style" : "",
					"text" : "pattr onseg-threshold @bindto pipo-onseg::onseg.threshold",
					"varname" : "onseg-threshold[1]"
				}

			}
, 			{
				"box" : 				{
					"fontname" : "Arial",
					"fontsize" : 9.0,
					"id" : "obj-15",
					"maxclass" : "comment",
					"numinlets" : 1,
					"numoutlets" : 0,
					"patching_rect" : [ 379.25, 401.200012, 100.0, 17.0 ],
					"style" : "",
					"text" : "analyze real-time input"
				}

			}
, 			{
				"box" : 				{
					"comment" : "",
					"id" : "obj-1",
					"index" : 0,
					"maxclass" : "outlet",
					"numinlets" : 1,
					"numoutlets" : 0,
					"patching_rect" : [ 923.5, 238.700012, 25.0, 25.0 ],
					"style" : ""
				}

			}
, 			{
				"box" : 				{
					"comment" : "",
					"id" : "obj-7",
					"index" : 0,
					"maxclass" : "inlet",
					"numinlets" : 0,
					"numoutlets" : 1,
					"outlettype" : [ "" ],
					"patching_rect" : [ 392.0, 1.0, 25.0, 25.0 ],
					"style" : ""
				}

			}
, 			{
				"box" : 				{
					"fontname" : "Geneva",
					"fontsize" : 10.0,
					"id" : "obj-87",
					"maxclass" : "comment",
					"numinlets" : 1,
					"numoutlets" : 0,
					"patching_rect" : [ 161.0, 113.5, 222.0, 19.0 ],
					"presentation" : 1,
					"presentation_rect" : [ 161.0, 112.5, 222.0, 19.0 ],
					"style" : "",
					"text" : "Maximum Segment Duration (0 = unlimited)"
				}

			}
, 			{
				"box" : 				{
					"fontname" : "Geneva",
					"fontsize" : 10.0,
					"id" : "obj-35",
					"maxclass" : "comment",
					"numinlets" : 1,
					"numoutlets" : 0,
					"patching_rect" : [ 161.0, 179.5, 175.0, 19.0 ],
					"presentation" : 1,
					"presentation_rect" : [ 161.0, 178.5, 175.0, 19.0 ],
					"style" : "",
					"text" : "Mark start of buffer"
				}

			}
, 			{
				"box" : 				{
					"attr" : "onseg.startisonset",
					"fontname" : "Geneva",
					"fontsize" : 10.0,
					"id" : "obj-8",
					"maxclass" : "attrui",
					"numinlets" : 1,
					"numoutlets" : 1,
					"outlettype" : [ "" ],
					"patching_rect" : [ 1.0, 179.5, 150.0, 21.0 ],
					"presentation" : 1,
					"presentation_rect" : [ 1.0, 178.5, 150.0, 21.0 ],
					"style" : "",
					"text_width" : 109.519897
				}

			}
, 			{
				"box" : 				{
					"fontname" : "Geneva",
					"fontsize" : 10.0,
					"id" : "obj-57",
					"maxclass" : "comment",
					"numinlets" : 1,
					"numoutlets" : 0,
					"patching_rect" : [ 161.0, 157.5, 175.0, 19.0 ],
					"presentation" : 1,
					"presentation_rect" : [ 161.0, 156.5, 175.0, 19.0 ],
					"style" : "",
					"text" : "Onset Detection Calculation Mode"
				}

			}
, 			{
				"box" : 				{
					"fontname" : "Geneva",
					"fontsize" : 10.0,
					"id" : "obj-56",
					"maxclass" : "comment",
					"numinlets" : 1,
					"numoutlets" : 0,
					"patching_rect" : [ 161.0, 135.5, 151.0, 19.0 ],
					"presentation" : 1,
					"presentation_rect" : [ 161.0, 134.5, 151.0, 19.0 ],
					"style" : "",
					"text" : "Median Filter Size"
				}

			}
, 			{
				"box" : 				{
					"fontname" : "Geneva",
					"fontsize" : 10.0,
					"id" : "obj-55",
					"maxclass" : "comment",
					"numinlets" : 1,
					"numoutlets" : 0,
					"patching_rect" : [ 161.0, 91.700012, 151.0, 19.0 ],
					"presentation" : 1,
					"presentation_rect" : [ 161.0, 90.700012, 151.0, 19.0 ],
					"style" : "",
					"text" : "Minimum Onset Interval"
				}

			}
, 			{
				"box" : 				{
					"fontname" : "Geneva",
					"fontsize" : 10.0,
					"id" : "obj-53",
					"maxclass" : "comment",
					"numinlets" : 1,
					"numoutlets" : 0,
					"patching_rect" : [ 161.0, 69.700012, 151.0, 19.0 ],
					"presentation" : 1,
					"presentation_rect" : [ 161.0, 68.700012, 151.0, 19.0 ],
					"style" : "",
					"text" : "Duration Threshold"
				}

			}
, 			{
				"box" : 				{
					"fontname" : "Geneva",
					"fontsize" : 10.0,
					"id" : "obj-52",
					"maxclass" : "comment",
					"numinlets" : 1,
					"numoutlets" : 0,
					"patching_rect" : [ 161.0, 47.700012, 151.0, 19.0 ],
					"presentation" : 1,
					"presentation_rect" : [ 161.0, 46.700012, 151.0, 19.0 ],
					"style" : "",
					"text" : "Offset Threshold (dB)"
				}

			}
, 			{
				"box" : 				{
					"fontname" : "Geneva",
					"fontsize" : 10.0,
					"id" : "obj-51",
					"maxclass" : "comment",
					"numinlets" : 1,
					"numoutlets" : 0,
					"patching_rect" : [ 161.0, 26.0, 151.0, 19.0 ],
					"presentation" : 1,
					"presentation_rect" : [ 161.0, 25.0, 151.0, 19.0 ],
					"style" : "",
					"text" : "Onset Threshold (dB)"
				}

			}
, 			{
				"box" : 				{
					"attr" : "onseg.durthresh",
					"fontname" : "Geneva",
					"fontsize" : 10.0,
					"id" : "obj-34",
					"maxclass" : "attrui",
					"numinlets" : 1,
					"numoutlets" : 1,
					"outlettype" : [ "" ],
					"patching_rect" : [ 1.0, 69.700012, 151.0, 21.0 ],
					"presentation" : 1,
					"presentation_rect" : [ 1.0, 68.700012, 151.0, 21.0 ],
					"style" : ""
				}

			}
, 			{
				"box" : 				{
					"attr" : "onseg.filtersize",
					"fontname" : "Geneva",
					"fontsize" : 10.0,
					"id" : "obj-11",
					"maxclass" : "attrui",
					"numinlets" : 1,
					"numoutlets" : 1,
					"outlettype" : [ "" ],
					"patching_rect" : [ 1.0, 135.5, 151.0, 21.0 ],
					"presentation" : 1,
					"presentation_rect" : [ 1.0, 134.5, 151.0, 21.0 ],
					"style" : ""
				}

			}
, 			{
				"box" : 				{
					"attr" : "onseg.mininter",
					"fontname" : "Geneva",
					"fontsize" : 10.0,
					"id" : "obj-42",
					"maxclass" : "attrui",
					"numinlets" : 1,
					"numoutlets" : 1,
					"outlettype" : [ "" ],
					"patching_rect" : [ 1.0, 91.700012, 151.0, 21.0 ],
					"presentation" : 1,
					"presentation_rect" : [ 1.0, 90.700012, 151.0, 21.0 ],
					"style" : ""
				}

			}
, 			{
				"box" : 				{
					"attr" : "onseg.odfmode",
					"fontname" : "Geneva",
					"fontsize" : 10.0,
					"id" : "obj-44",
					"maxclass" : "attrui",
					"numinlets" : 1,
					"numoutlets" : 1,
					"outlettype" : [ "" ],
					"patching_rect" : [ 1.0, 157.5, 158.0, 21.0 ],
					"presentation" : 1,
					"presentation_rect" : [ 1.0, 156.5, 158.0, 21.0 ],
					"style" : ""
				}

			}
, 			{
				"box" : 				{
					"attr" : "onseg.threshold",
					"fontname" : "Geneva",
					"fontsize" : 10.0,
					"id" : "obj-47",
					"maxclass" : "attrui",
					"numinlets" : 1,
					"numoutlets" : 1,
					"outlettype" : [ "" ],
					"patching_rect" : [ 1.0, 26.0, 151.0, 21.0 ],
					"presentation" : 1,
					"presentation_rect" : [ 1.0, 25.0, 151.0, 21.0 ],
					"style" : ""
				}

			}
, 			{
				"box" : 				{
					"attr" : "onseg.offthresh",
					"fontname" : "Geneva",
					"fontsize" : 10.0,
					"id" : "obj-49",
					"maxclass" : "attrui",
					"numinlets" : 1,
					"numoutlets" : 1,
					"outlettype" : [ "" ],
					"patching_rect" : [ 1.0, 47.700012, 151.0, 21.0 ],
					"presentation" : 1,
					"presentation_rect" : [ 1.0, 46.700012, 151.0, 21.0 ],
					"style" : ""
				}

			}
, 			{
				"box" : 				{
					"color" : [ 0.815686, 0.094118, 0.094118, 1.0 ],
					"fontface" : 0,
					"fontname" : "Arial",
					"fontsize" : 9.0,
					"id" : "obj-6",
					"linecount" : 3,
					"maxclass" : "newobj",
					"numinlets" : 1,
					"numoutlets" : 3,
					"outlettype" : [ "", "float", "" ],
					"patching_rect" : [ 392.0, 63.700012, 550.5, 39.0 ],
					"style" : "",
					"text" : "pipo~ descr:onseg @descr.winsize 2048 @descr.hopsize 512 @descr.minfreq 24 @onseg.colindex 4 @onseg.numcols 1 @onseg.mean 1 @onseg.stddev 1 @onseg.threshold 5 @onseg.filtersize 5 @onseg.duration 1 @onseg.offthresh -100 @onseg.startisonset 1",
					"varname" : "pipo-onseg"
				}

			}
, 			{
				"box" : 				{
					"comment" : "",
					"id" : "obj-3",
					"index" : 0,
					"maxclass" : "outlet",
					"numinlets" : 1,
					"numoutlets" : 0,
					"patching_rect" : [ 392.0, 238.700012, 25.0, 25.0 ],
					"style" : ""
				}

			}
, 			{
				"box" : 				{
					"attr" : "onseg.maxsize",
					"fontname" : "Geneva",
					"fontsize" : 10.0,
					"id" : "obj-58",
					"maxclass" : "attrui",
					"numinlets" : 1,
					"numoutlets" : 1,
					"outlettype" : [ "" ],
					"patching_rect" : [ 1.0, 113.5, 151.0, 21.0 ],
					"presentation" : 1,
					"presentation_rect" : [ 1.0, 112.5, 151.0, 21.0 ],
					"style" : ""
				}

			}
, 			{
				"box" : 				{
					"bgcolor" : [ 1.0, 0.592157, 0.0, 0.741176 ],
					"fontname" : "Arial",
					"fontsize" : 16.0,
					"id" : "obj-54",
					"maxclass" : "comment",
					"numinlets" : 1,
					"numoutlets" : 0,
					"patching_rect" : [ 1.0, 1.0, 310.0, 24.0 ],
					"presentation" : 1,
					"presentation_rect" : [ 1.0, 0.0, 310.0, 24.0 ],
					"style" : "",
					"text" : "> Attributes: descr-onseg (target)"
				}

			}
 ],
		"lines" : [ 			{
				"patchline" : 				{
					"destination" : [ "obj-6", 0 ],
					"hidden" : 1,
					"source" : [ "obj-11", 0 ]
				}

			}
, 			{
				"patchline" : 				{
					"destination" : [ "obj-6", 0 ],
					"hidden" : 1,
					"source" : [ "obj-34", 0 ]
				}

			}
, 			{
				"patchline" : 				{
					"destination" : [ "obj-6", 0 ],
					"hidden" : 1,
					"source" : [ "obj-42", 0 ]
				}

			}
, 			{
				"patchline" : 				{
					"destination" : [ "obj-6", 0 ],
					"hidden" : 1,
					"source" : [ "obj-44", 0 ]
				}

			}
, 			{
				"patchline" : 				{
					"destination" : [ "obj-6", 0 ],
					"hidden" : 1,
					"source" : [ "obj-47", 0 ]
				}

			}
, 			{
				"patchline" : 				{
					"destination" : [ "obj-6", 0 ],
					"hidden" : 1,
					"source" : [ "obj-49", 0 ]
				}

			}
, 			{
				"patchline" : 				{
					"destination" : [ "obj-6", 0 ],
					"hidden" : 1,
					"source" : [ "obj-58", 0 ]
				}

			}
, 			{
				"patchline" : 				{
					"destination" : [ "obj-1", 0 ],
					"source" : [ "obj-6", 2 ]
				}

			}
, 			{
				"patchline" : 				{
					"destination" : [ "obj-3", 0 ],
					"source" : [ "obj-6", 0 ]
				}

			}
, 			{
				"patchline" : 				{
					"destination" : [ "obj-6", 0 ],
					"source" : [ "obj-7", 0 ]
				}

			}
, 			{
				"patchline" : 				{
					"destination" : [ "obj-6", 0 ],
					"hidden" : 1,
					"source" : [ "obj-8", 0 ]
				}

			}
 ],
		"dependency_cache" : [ 			{
				"name" : "pipo~.mxo",
				"type" : "iLaX"
			}
 ],
		"autosave" : 0
	}

}
