{
	"patcher" : 	{
		"fileversion" : 1,
		"appversion" : 		{
			"major" : 8,
			"minor" : 5,
			"revision" : 6,
			"architecture" : "x64",
			"modernui" : 1
		}
,
		"classnamespace" : "box",
		"rect" : [ 66.0, 79.0, 692.0, 726.0 ],
		"bglocked" : 0,
		"openinpresentation" : 0,
		"default_fontsize" : 12.0,
		"default_fontface" : 0,
		"default_fontname" : "Arial",
		"gridonopen" : 1,
		"gridsize" : [ 15.0, 15.0 ],
		"gridsnaponopen" : 1,
		"objectsnaponopen" : 1,
		"statusbarvisible" : 2,
		"toolbarvisible" : 1,
		"lefttoolbarpinned" : 0,
		"toptoolbarpinned" : 0,
		"righttoolbarpinned" : 0,
		"bottomtoolbarpinned" : 0,
		"toolbars_unpinned_last_save" : 0,
		"tallnewobj" : 0,
		"boxanimatetime" : 200,
		"enablehscroll" : 1,
		"enablevscroll" : 1,
		"devicewidth" : 0.0,
		"description" : "",
		"digest" : "",
		"tags" : "",
		"style" : "",
		"subpatcher_template" : "",
		"assistshowspatchername" : 0,
		"boxes" : [ 			{
				"box" : 				{
					"color" : [ 0.4549019608, 0.0, 0.9450980392, 1.0 ],
					"id" : "obj-89",
					"maxclass" : "newobj",
					"numinlets" : 2,
					"numoutlets" : 1,
					"outlettype" : [ "int" ],
					"patcher" : 					{
						"fileversion" : 1,
						"appversion" : 						{
							"major" : 8,
							"minor" : 5,
							"revision" : 6,
							"architecture" : "x64",
							"modernui" : 1
						}
,
						"classnamespace" : "box",
						"rect" : [ 879.0, 79.0, 1229.0, 803.0 ],
						"bglocked" : 0,
						"openinpresentation" : 0,
						"default_fontsize" : 12.0,
						"default_fontface" : 0,
						"default_fontname" : "Arial",
						"gridonopen" : 1,
						"gridsize" : [ 15.0, 15.0 ],
						"gridsnaponopen" : 1,
						"objectsnaponopen" : 1,
						"statusbarvisible" : 2,
						"toolbarvisible" : 1,
						"lefttoolbarpinned" : 0,
						"toptoolbarpinned" : 0,
						"righttoolbarpinned" : 0,
						"bottomtoolbarpinned" : 0,
						"toolbars_unpinned_last_save" : 0,
						"tallnewobj" : 0,
						"boxanimatetime" : 200,
						"enablehscroll" : 1,
						"enablevscroll" : 1,
						"devicewidth" : 0.0,
						"description" : "",
						"digest" : "",
						"tags" : "",
						"style" : "",
						"subpatcher_template" : "",
						"assistshowspatchername" : 0,
						"visible" : 1,
						"boxes" : [ 							{
								"box" : 								{
									"hidden" : 1,
									"id" : "obj-30",
									"maxclass" : "newobj",
									"numinlets" : 2,
									"numoutlets" : 2,
									"outlettype" : [ "", "" ],
									"patching_rect" : [ 780.0, 616.24609363079071, 104.0, 22.0 ],
									"text" : "routepass domain"
								}

							}
, 							{
								"box" : 								{
									"hidden" : 1,
									"id" : "obj-29",
									"maxclass" : "newobj",
									"numinlets" : 2,
									"numoutlets" : 2,
									"outlettype" : [ "", "" ],
									"patching_rect" : [ 780.0, 440.162758946418762, 104.0, 22.0 ],
									"text" : "routepass domain"
								}

							}
, 							{
								"box" : 								{
									"hidden" : 1,
									"id" : "obj-28",
									"maxclass" : "newobj",
									"numinlets" : 1,
									"numoutlets" : 1,
									"outlettype" : [ "bang" ],
									"patching_rect" : [ 697.0, 231.12109375, 58.0, 22.0 ],
									"text" : "loadbang"
								}

							}
, 							{
								"box" : 								{
									"id" : "obj-27",
									"maxclass" : "message",
									"numinlets" : 2,
									"numoutlets" : 1,
									"outlettype" : [ "" ],
									"patching_rect" : [ 697.0, 616.24609363079071, 75.0, 22.0 ],
									"text" : "foremost ok"
								}

							}
, 							{
								"box" : 								{
									"id" : "obj-26",
									"maxclass" : "message",
									"numinlets" : 2,
									"numoutlets" : 1,
									"outlettype" : [ "" ],
									"patching_rect" : [ 697.0, 440.162758946418762, 75.0, 22.0 ],
									"text" : "foremost out"
								}

							}
, 							{
								"box" : 								{
									"id" : "obj-24",
									"maxclass" : "message",
									"numinlets" : 2,
									"numoutlets" : 1,
									"outlettype" : [ "" ],
									"patching_rect" : [ 697.0, 261.0, 107.0, 22.0 ],
									"text" : "foremost expected"
								}

							}
, 							{
								"box" : 								{
									"alignviewbounds" : 0,
									"autobounds" : 0,
									"autorefreshrate" : 0,
									"autoupdate" : 120.0,
									"bgcolor" : [ 1.0, 1.0, 1.0, 1.0 ],
									"bufferchooser_bgcolor" : [ 1.0, 1.0, 1.0, 1.0 ],
									"bufferchooser_fgcolor" : [ 0.0, 0.0, 0.0, 1.0 ],
									"bufferchooser_position" : 1,
									"bufferchooser_shape" : "buttons",
									"bufferchooser_size" : 15,
									"bufferchooser_visible" : 1,
									"continousediting" : 0,
									"cursor_circleedgecolor" : [ 1.0, 0.0, 0.0, 1.0 ],
									"cursor_circlefillcolor" : [ 1.0, 0.0, 0.0, 1.0 ],
									"cursor_circlefilled" : 1,
									"cursor_circleheight" : 3.0,
									"cursor_circlewidth" : 3.0,
									"cursor_color" : [ 1.0, 0.0, 0.0, 1.0 ],
									"cursor_followmouse" : 0,
									"cursor_nearest" : 0,
									"cursor_nearestcolor" : [ 1.0, 0.0, 0.0, 1.0 ],
									"cursor_noringoffset" : 0,
									"cursor_position" : -1.0,
									"cursor_shape" : "bar",
									"cursor_size" : 3,
									"cursor_sizeunit" : 0,
									"cursor_visible" : 1,
									"domain_bounds" : [ -7.131487707954872, 64.819165954498018 ],
									"domainruler_bgcolor" : [ 1.0, 1.0, 1.0, 1.0 ],
									"domainruler_fgcolor" : [ 0.0, 0.0, 0.0, 1.0 ],
									"domainruler_grid" : 0,
									"domainruler_position" : 0,
									"domainruler_size" : 15,
									"domainruler_unit" : 3,
									"domainruler_visible" : 1,
									"domainscrollbar_color" : [ 1.0, 1.0, 1.0, 1.0 ],
									"domainscrollbar_size" : 10,
									"domainscrollbar_visible" : 1,
									"embed" : 0,
									"externalfiles" : 1,
									"freeze" : 0,
									"id" : "obj-9",
									"layout" : 0,
									"maintrack" : -1,
									"maxclass" : "imubu",
									"mousewheelscroll" : 0,
									"name" : "metrotest",
									"numinlets" : 1,
									"numoutlets" : 1,
									"opacity" : 1.0,
									"opacityprogressive" : 0,
									"orientation" : 0,
									"outlettype" : [ "" ],
									"outputkeys" : 0,
									"outputmouse" : 0,
									"outputselection" : 0,
									"outputtimeselection" : 0,
									"outputvalues" : 0,
									"outputviewname" : 0,
									"parameter_enable" : 0,
									"patching_rect" : [ 697.12499988079071, 644.24609363079071, 473.0, 142.0 ],
									"rangeruler_grid" : 0,
									"rangeruler_size" : 30,
									"rangeruler_visible" : 1,
									"region_bounds" : [ 0.0, 0.0 ],
									"region_color" : [ 0.800000011920929, 0.699999988079071, 0.699999988079071, 1.0 ],
									"region_visible" : 1,
									"resamplefiles" : 0,
									"snaprate" : 1000.0,
									"splitbars_color" : [ 0.0, 0.0, 0.0, 1.0 ],
									"splitbars_size" : 2,
									"splitbars_visible" : 1,
									"tabs_bgcolor" : [ 1.0, 1.0, 1.0, 1.0 ],
									"tabs_fgcolor" : [ 0.0, 0.0, 0.0, 1.0 ],
									"tabs_position" : 0,
									"tabs_size" : 20,
									"tabs_visible" : 1,
									"tool" : "edit",
									"toolbar_bgcolor" : [ 1.0, 1.0, 1.0, 1.0 ],
									"toolbar_position" : 1,
									"toolbar_size" : 30,
									"toolbar_transposition" : 0,
									"toolbar_visible" : 1,
									"useplaceholders" : 1,
									"verbose" : 1,
									"windresize" : 0
								}

							}
, 							{
								"box" : 								{
									"alignviewbounds" : 0,
									"autobounds" : 0,
									"autorefreshrate" : 0,
									"autoupdate" : 120.0,
									"bgcolor" : [ 1.0, 1.0, 1.0, 1.0 ],
									"bufferchooser_bgcolor" : [ 1.0, 1.0, 1.0, 1.0 ],
									"bufferchooser_fgcolor" : [ 0.0, 0.0, 0.0, 1.0 ],
									"bufferchooser_position" : 1,
									"bufferchooser_shape" : "buttons",
									"bufferchooser_size" : 15,
									"bufferchooser_visible" : 1,
									"continousediting" : 0,
									"cursor_circleedgecolor" : [ 1.0, 0.0, 0.0, 1.0 ],
									"cursor_circlefillcolor" : [ 1.0, 0.0, 0.0, 1.0 ],
									"cursor_circlefilled" : 1,
									"cursor_circleheight" : 3.0,
									"cursor_circlewidth" : 3.0,
									"cursor_color" : [ 1.0, 0.0, 0.0, 1.0 ],
									"cursor_followmouse" : 0,
									"cursor_nearest" : 0,
									"cursor_nearestcolor" : [ 1.0, 0.0, 0.0, 1.0 ],
									"cursor_noringoffset" : 0,
									"cursor_position" : -1.0,
									"cursor_shape" : "bar",
									"cursor_size" : 3,
									"cursor_sizeunit" : 0,
									"cursor_visible" : 1,
									"domain_bounds" : [ -7.131487707954872, 64.819165954498018 ],
									"domainruler_bgcolor" : [ 1.0, 1.0, 1.0, 1.0 ],
									"domainruler_fgcolor" : [ 0.0, 0.0, 0.0, 1.0 ],
									"domainruler_grid" : 0,
									"domainruler_position" : 0,
									"domainruler_size" : 15,
									"domainruler_unit" : 3,
									"domainruler_visible" : 1,
									"domainscrollbar_color" : [ 1.0, 1.0, 1.0, 1.0 ],
									"domainscrollbar_size" : 10,
									"domainscrollbar_visible" : 1,
									"embed" : 0,
									"externalfiles" : 1,
									"freeze" : 0,
									"id" : "obj-7",
									"layout" : 0,
									"maintrack" : -1,
									"maxclass" : "imubu",
									"mousewheelscroll" : 0,
									"name" : "metrotest",
									"numinlets" : 1,
									"numoutlets" : 1,
									"opacity" : 1.0,
									"opacityprogressive" : 0,
									"orientation" : 0,
									"outlettype" : [ "" ],
									"outputkeys" : 0,
									"outputmouse" : 0,
									"outputselection" : 0,
									"outputtimeselection" : 0,
									"outputvalues" : 0,
									"outputviewname" : 0,
									"parameter_enable" : 0,
									"patching_rect" : [ 697.12499988079071, 468.287758827209473, 473.0, 142.0 ],
									"rangeruler_grid" : 0,
									"rangeruler_size" : 30,
									"rangeruler_visible" : 1,
									"region_bounds" : [ 0.0, 0.0 ],
									"region_color" : [ 0.800000011920929, 0.699999988079071, 0.699999988079071, 1.0 ],
									"region_visible" : 1,
									"resamplefiles" : 0,
									"snaprate" : 1000.0,
									"splitbars_color" : [ 0.0, 0.0, 0.0, 1.0 ],
									"splitbars_size" : 2,
									"splitbars_visible" : 1,
									"tabs_bgcolor" : [ 1.0, 1.0, 1.0, 1.0 ],
									"tabs_fgcolor" : [ 0.0, 0.0, 0.0, 1.0 ],
									"tabs_position" : 0,
									"tabs_size" : 20,
									"tabs_visible" : 1,
									"tool" : "edit",
									"toolbar_bgcolor" : [ 1.0, 1.0, 1.0, 1.0 ],
									"toolbar_position" : 1,
									"toolbar_size" : 30,
									"toolbar_transposition" : 0,
									"toolbar_visible" : 1,
									"useplaceholders" : 1,
									"verbose" : 1,
									"windresize" : 0
								}

							}
, 							{
								"box" : 								{
									"alignviewbounds" : 0,
									"autobounds" : 0,
									"autorefreshrate" : 0,
									"autoupdate" : 120.0,
									"bgcolor" : [ 1.0, 1.0, 1.0, 1.0 ],
									"bufferchooser_bgcolor" : [ 1.0, 1.0, 1.0, 1.0 ],
									"bufferchooser_fgcolor" : [ 0.0, 0.0, 0.0, 1.0 ],
									"bufferchooser_position" : 1,
									"bufferchooser_shape" : "buttons",
									"bufferchooser_size" : 15,
									"bufferchooser_visible" : 1,
									"continousediting" : 0,
									"cursor_circleedgecolor" : [ 1.0, 0.0, 0.0, 1.0 ],
									"cursor_circlefillcolor" : [ 1.0, 0.0, 0.0, 1.0 ],
									"cursor_circlefilled" : 1,
									"cursor_circleheight" : 3.0,
									"cursor_circlewidth" : 3.0,
									"cursor_color" : [ 1.0, 0.0, 0.0, 1.0 ],
									"cursor_followmouse" : 0,
									"cursor_nearest" : 0,
									"cursor_nearestcolor" : [ 1.0, 0.0, 0.0, 1.0 ],
									"cursor_noringoffset" : 0,
									"cursor_position" : -1.0,
									"cursor_shape" : "bar",
									"cursor_size" : 3,
									"cursor_sizeunit" : 0,
									"cursor_visible" : 1,
									"domain_bounds" : [ -7.131487707954872, 60.236321772176183 ],
									"domainruler_bgcolor" : [ 1.0, 1.0, 1.0, 1.0 ],
									"domainruler_fgcolor" : [ 0.0, 0.0, 0.0, 1.0 ],
									"domainruler_grid" : 0,
									"domainruler_position" : 0,
									"domainruler_size" : 15,
									"domainruler_unit" : 3,
									"domainruler_visible" : 1,
									"domainscrollbar_color" : [ 1.0, 1.0, 1.0, 1.0 ],
									"domainscrollbar_size" : 10,
									"domainscrollbar_visible" : 1,
									"embed" : 0,
									"externalfiles" : 1,
									"freeze" : 0,
									"id" : "obj-6",
									"layout" : 0,
									"maintrack" : -1,
									"maxclass" : "imubu",
									"mousewheelscroll" : 0,
									"name" : "metrotest",
									"numinlets" : 1,
									"numoutlets" : 1,
									"opacity" : 1.0,
									"opacityprogressive" : 0,
									"orientation" : 0,
									"outlettype" : [ "" ],
									"outputkeys" : 0,
									"outputmouse" : 0,
									"outputselection" : 0,
									"outputtimeselection" : 0,
									"outputvalues" : 0,
									"outputviewname" : 0,
									"parameter_enable" : 0,
									"patching_rect" : [ 697.12499988079071, 290.12109375, 473.0, 142.0 ],
									"rangeruler_grid" : 0,
									"rangeruler_size" : 30,
									"rangeruler_visible" : 1,
									"region_bounds" : [ 0.0, 0.0 ],
									"region_color" : [ 0.800000011920929, 0.699999988079071, 0.699999988079071, 1.0 ],
									"region_visible" : 1,
									"resamplefiles" : 0,
									"snaprate" : 1000.0,
									"splitbars_color" : [ 0.0, 0.0, 0.0, 1.0 ],
									"splitbars_size" : 2,
									"splitbars_visible" : 1,
									"tabs_bgcolor" : [ 1.0, 1.0, 1.0, 1.0 ],
									"tabs_fgcolor" : [ 0.0, 0.0, 0.0, 1.0 ],
									"tabs_position" : 0,
									"tabs_size" : 20,
									"tabs_visible" : 1,
									"tool" : "edit",
									"toolbar_bgcolor" : [ 1.0, 1.0, 1.0, 1.0 ],
									"toolbar_position" : 1,
									"toolbar_size" : 30,
									"toolbar_transposition" : 0,
									"toolbar_visible" : 1,
									"useplaceholders" : 1,
									"verbose" : 1,
									"windresize" : 0
								}

							}
, 							{
								"box" : 								{
									"alignviewbounds" : 0,
									"autobounds" : 0,
									"autorefreshrate" : 0,
									"autoupdate" : 120.0,
									"bgcolor" : [ 1.0, 1.0, 1.0, 1.0 ],
									"bufferchooser_bgcolor" : [ 1.0, 1.0, 1.0, 1.0 ],
									"bufferchooser_fgcolor" : [ 0.0, 0.0, 0.0, 1.0 ],
									"bufferchooser_position" : 1,
									"bufferchooser_shape" : "buttons",
									"bufferchooser_size" : 15,
									"bufferchooser_visible" : 0,
									"continousediting" : 0,
									"cursor_circleedgecolor" : [ 1.0, 0.0, 0.0, 1.0 ],
									"cursor_circlefillcolor" : [ 1.0, 0.0, 0.0, 1.0 ],
									"cursor_circlefilled" : 1,
									"cursor_circleheight" : 3.0,
									"cursor_circlewidth" : 3.0,
									"cursor_color" : [ 1.0, 0.0, 0.0, 1.0 ],
									"cursor_followmouse" : 0,
									"cursor_nearest" : 0,
									"cursor_nearestcolor" : [ 1.0, 0.0, 0.0, 1.0 ],
									"cursor_noringoffset" : 0,
									"cursor_position" : -1.0,
									"cursor_shape" : "bar",
									"cursor_size" : 3,
									"cursor_sizeunit" : 0,
									"cursor_visible" : 1,
									"domain_bounds" : [ -1.0, 60.0 ],
									"domainruler_bgcolor" : [ 1.0, 1.0, 1.0, 1.0 ],
									"domainruler_fgcolor" : [ 0.0, 0.0, 0.0, 1.0 ],
									"domainruler_grid" : 0,
									"domainruler_position" : 0,
									"domainruler_size" : 15,
									"domainruler_unit" : 3,
									"domainruler_visible" : 0,
									"domainscrollbar_color" : [ 1.0, 1.0, 1.0, 1.0 ],
									"domainscrollbar_size" : 10,
									"domainscrollbar_visible" : 0,
									"embed" : 0,
									"externalfiles" : 1,
									"freeze" : 0,
									"id" : "obj-4",
									"layout" : 0,
									"maintrack" : -1,
									"maxclass" : "imubu",
									"mousewheelscroll" : 0,
									"name" : "metrotest",
									"numinlets" : 1,
									"numoutlets" : 1,
									"opacity" : 0.0,
									"opacityprogressive" : 0,
									"orientation" : 0,
									"outlettype" : [ "" ],
									"outputkeys" : 0,
									"outputmouse" : 0,
									"outputselection" : 0,
									"outputtimeselection" : 0,
									"outputvalues" : 0,
									"outputviewname" : 0,
									"parameter_enable" : 0,
									"patching_rect" : [ 697.0, 76.12109375, 350.0, 156.0 ],
									"rangeruler_grid" : 0,
									"rangeruler_size" : 30,
									"rangeruler_visible" : 0,
									"region_bounds" : [ 0.0, 0.0 ],
									"region_color" : [ 0.800000011920929, 0.699999988079071, 0.699999988079071, 1.0 ],
									"region_visible" : 1,
									"resamplefiles" : 0,
									"snaprate" : 1000.0,
									"splitbars_color" : [ 0.0, 0.0, 0.0, 1.0 ],
									"splitbars_size" : 2,
									"splitbars_visible" : 1,
									"tabs_bgcolor" : [ 1.0, 1.0, 1.0, 1.0 ],
									"tabs_fgcolor" : [ 0.0, 0.0, 0.0, 1.0 ],
									"tabs_position" : 0,
									"tabs_size" : 20,
									"tabs_visible" : 0,
									"tool" : "edit",
									"toolbar_bgcolor" : [ 1.0, 1.0, 1.0, 1.0 ],
									"toolbar_position" : 1,
									"toolbar_size" : 30,
									"toolbar_transposition" : 0,
									"toolbar_visible" : 1,
									"useplaceholders" : 1,
									"verbose" : 1,
									"windresize" : 0
								}

							}
, 							{
								"box" : 								{
									"id" : "obj-25",
									"maxclass" : "comment",
									"numinlets" : 1,
									"numoutlets" : 0,
									"patching_rect" : [ 459.12499988079071, 320.12109375, 178.0, 20.0 ],
									"text" : "send period only when changed"
								}

							}
, 							{
								"box" : 								{
									"id" : "obj-23",
									"maxclass" : "newobj",
									"numinlets" : 1,
									"numoutlets" : 3,
									"outlettype" : [ "", "int", "int" ],
									"patching_rect" : [ 389.0, 320.12109375, 62.0, 22.0 ],
									"text" : "change -1"
								}

							}
, 							{
								"box" : 								{
									"id" : "obj-20",
									"maxclass" : "message",
									"numinlets" : 2,
									"numoutlets" : 1,
									"outlettype" : [ "" ],
									"patching_rect" : [ 389.0, 348.0, 67.0, 22.0 ],
									"text" : "getlabel $1"
								}

							}
, 							{
								"box" : 								{
									"color" : [ 0.4549019608, 0.0, 0.9450980392, 1.0 ],
									"id" : "obj-22",
									"maxclass" : "newobj",
									"numinlets" : 1,
									"numoutlets" : 3,
									"outlettype" : [ "", "", "" ],
									"patching_rect" : [ 389.0, 376.12109375, 161.0, 22.0 ],
									"saved_object_attributes" : 									{
										"verbose" : 1
									}
,
									"text" : "mubu.track metrotest period"
								}

							}
, 							{
								"box" : 								{
									"id" : "obj-10",
									"maxclass" : "number",
									"numinlets" : 1,
									"numoutlets" : 2,
									"outlettype" : [ "", "bang" ],
									"parameter_enable" : 0,
									"patching_rect" : [ 173.666666666666686, 250.0, 50.0, 22.0 ]
								}

							}
, 							{
								"box" : 								{
									"id" : "obj-8",
									"linecount" : 3,
									"maxclass" : "comment",
									"numinlets" : 1,
									"numoutlets" : 0,
									"patching_rect" : [ 358.0, 100.12109375, 150.0, 47.0 ],
									"text" : "stop and reset transport, ticks will be given by counter"
								}

							}
, 							{
								"box" : 								{
									"id" : "obj-5",
									"maxclass" : "button",
									"numinlets" : 1,
									"numoutlets" : 1,
									"outlettype" : [ "bang" ],
									"parameter_enable" : 0,
									"patching_rect" : [ 8.0, 44.0, 24.0, 24.0 ]
								}

							}
, 							{
								"box" : 								{
									"id" : "obj-64",
									"maxclass" : "newobj",
									"numinlets" : 1,
									"numoutlets" : 1,
									"outlettype" : [ "" ],
									"patching_rect" : [ 47.0, 44.0, 92.0, 22.0 ],
									"saved_object_attributes" : 									{
										"embed" : 0,
										"externalfiles" : 1,
										"parameter_enable" : 0,
										"parameter_mappable" : 0,
										"resamplefiles" : 0,
										"savegui" : 0,
										"snaprate" : 1000.0,
										"verbose" : 1
									}
,
									"text" : "mubu metrotest"
								}

							}
, 							{
								"box" : 								{
									"id" : "obj-50",
									"maxclass" : "newobj",
									"numinlets" : 1,
									"numoutlets" : 0,
									"patching_rect" : [ 113.0, 751.496076226234436, 82.0, 22.0 ],
									"text" : "print RESULT"
								}

							}
, 							{
								"box" : 								{
									"id" : "obj-44",
									"maxclass" : "newobj",
									"numinlets" : 1,
									"numoutlets" : 0,
									"patching_rect" : [ 579.0, 209.62109375, 81.0, 22.0 ],
									"text" : "print PERIOD"
								}

							}
, 							{
								"box" : 								{
									"id" : "obj-17",
									"maxclass" : "newobj",
									"numinlets" : 2,
									"numoutlets" : 1,
									"outlettype" : [ "int" ],
									"patching_rect" : [ 71.299987999999985, 717.975908756256104, 36.0, 22.0 ],
									"text" : "== 1."
								}

							}
, 							{
								"box" : 								{
									"id" : "obj-12",
									"maxclass" : "newobj",
									"numinlets" : 2,
									"numoutlets" : 2,
									"outlettype" : [ "", "" ],
									"patching_rect" : [ 71.299987999999985, 685.975908756256104, 59.0, 22.0 ],
									"text" : "route min"
								}

							}
, 							{
								"box" : 								{
									"id" : "obj-2",
									"maxclass" : "message",
									"numinlets" : 2,
									"numoutlets" : 1,
									"outlettype" : [ "" ],
									"patching_rect" : [ 8.0, 619.204429864883423, 48.0, 22.0 ],
									"text" : "getmin"
								}

							}
, 							{
								"box" : 								{
									"id" : "obj-101",
									"maxclass" : "message",
									"numinlets" : 2,
									"numoutlets" : 1,
									"outlettype" : [ "" ],
									"patching_rect" : [ 468.5, 243.12109375, 144.0, 22.0 ],
									"text" : "append $1, setlabel -1 $2"
								}

							}
, 							{
								"box" : 								{
									"id" : "obj-100",
									"maxclass" : "newobj",
									"numinlets" : 2,
									"numoutlets" : 2,
									"outlettype" : [ "", "" ],
									"patching_rect" : [ 468.5, 209.62109375, 47.0, 22.0 ],
									"text" : "zl iter 2"
								}

							}
, 							{
								"box" : 								{
									"id" : "obj-99",
									"maxclass" : "message",
									"numinlets" : 2,
									"numoutlets" : 1,
									"outlettype" : [ "" ],
									"patching_rect" : [ 625.0, 243.12109375, 35.0, 22.0 ],
									"text" : "clear"
								}

							}
, 							{
								"box" : 								{
									"id" : "obj-98",
									"maxclass" : "newobj",
									"numinlets" : 1,
									"numoutlets" : 3,
									"outlettype" : [ "", "bang", "" ],
									"patching_rect" : [ 468.5, 179.12109375, 129.5, 22.0 ],
									"text" : "t l b l"
								}

							}
, 							{
								"box" : 								{
									"id" : "obj-95",
									"maxclass" : "newobj",
									"numinlets" : 0,
									"numoutlets" : 1,
									"outlettype" : [ "" ],
									"patching_rect" : [ 297.12499988079071, 384.412758708000183, 65.0, 22.0 ],
									"text" : "r expected"
								}

							}
, 							{
								"box" : 								{
									"id" : "obj-94",
									"maxclass" : "newobj",
									"numinlets" : 0,
									"numoutlets" : 1,
									"outlettype" : [ "" ],
									"patching_rect" : [ 468.5, 150.12109375, 49.0, 22.0 ],
									"text" : "r period"
								}

							}
, 							{
								"box" : 								{
									"id" : "obj-93",
									"maxclass" : "newobj",
									"numinlets" : 1,
									"numoutlets" : 2,
									"outlettype" : [ "bang", "int" ],
									"patching_rect" : [ 432.12499988079071, 130.12109375, 32.0, 22.0 ],
									"text" : "t b 0"
								}

							}
, 							{
								"box" : 								{
									"id" : "obj-92",
									"maxclass" : "message",
									"numinlets" : 2,
									"numoutlets" : 1,
									"outlettype" : [ "" ],
									"patching_rect" : [ 389.0, 243.12109375, 77.0, 22.0 ],
									"text" : "getindex $1"
								}

							}
, 							{
								"box" : 								{
									"color" : [ 0.4549019608, 0.0, 0.9450980392, 1.0 ],
									"id" : "obj-86",
									"linecount" : 2,
									"maxclass" : "newobj",
									"numinlets" : 1,
									"numoutlets" : 3,
									"outlettype" : [ "", "", "" ],
									"patching_rect" : [ 389.0, 278.12109375, 271.0, 35.0 ],
									"saved_object_attributes" : 									{
										"verbose" : 1
									}
,
									"text" : "mubu.track metrotest period @predef 1 @timetagged 1 @matrixcols 0 @extradata label"
								}

							}
, 							{
								"box" : 								{
									"id" : "obj-81",
									"maxclass" : "newobj",
									"numinlets" : 1,
									"numoutlets" : 7,
									"outlettype" : [ "bang", "bang", "bang", "bang", "bang", "int", "int" ],
									"patching_rect" : [ 8.0, 76.12109375, 620.666666666666515, 22.0 ],
									"text" : "t b b b b b 0 -1"
								}

							}
, 							{
								"box" : 								{
									"id" : "obj-79",
									"maxclass" : "message",
									"numinlets" : 2,
									"numoutlets" : 1,
									"outlettype" : [ "" ],
									"patching_rect" : [ 354.62499988079071, 442.412758708000183, 35.0, 22.0 ],
									"text" : "clear"
								}

							}
, 							{
								"box" : 								{
									"id" : "obj-78",
									"maxclass" : "newobj",
									"numinlets" : 1,
									"numoutlets" : 1,
									"outlettype" : [ "" ],
									"patching_rect" : [ 319.12499988079071, 442.412758708000183, 29.5, 22.0 ],
									"text" : "iter"
								}

							}
, 							{
								"box" : 								{
									"id" : "obj-77",
									"maxclass" : "newobj",
									"numinlets" : 1,
									"numoutlets" : 3,
									"outlettype" : [ "", "", "bang" ],
									"patching_rect" : [ 297.12499988079071, 413.412758708000183, 63.5, 22.0 ],
									"text" : "t l l b"
								}

							}
, 							{
								"box" : 								{
									"id" : "obj-75",
									"maxclass" : "newobj",
									"numinlets" : 1,
									"numoutlets" : 1,
									"outlettype" : [ "" ],
									"patching_rect" : [ 319.12499988079071, 470.162758946418762, 280.0, 22.0 ],
									"text" : "jstrigger \"(['append', a[0] - 1, 0, a[0], 1, a[0] + 1, 0])\""
								}

							}
, 							{
								"box" : 								{
									"color" : [ 0.4549019608, 0.0, 0.9450980392, 1.0 ],
									"id" : "obj-76",
									"maxclass" : "newobj",
									"numinlets" : 1,
									"numoutlets" : 3,
									"outlettype" : [ "", "", "" ],
									"patching_rect" : [ 319.12499988079071, 505.74609363079071, 318.0, 22.0 ],
									"saved_object_attributes" : 									{
										"verbose" : 1
									}
,
									"text" : "mubu.track metrotest expected @predef 1 @timetagged 1"
								}

							}
, 							{
								"box" : 								{
									"id" : "obj-74",
									"maxclass" : "message",
									"numinlets" : 2,
									"numoutlets" : 1,
									"outlettype" : [ "" ],
									"patching_rect" : [ 304.666666666666686, 284.62109375, 39.0, 22.0 ],
									"text" : "0 0 1"
								}

							}
, 							{
								"box" : 								{
									"id" : "obj-72",
									"maxclass" : "newobj",
									"numinlets" : 2,
									"numoutlets" : 1,
									"outlettype" : [ "" ],
									"patching_rect" : [ 71.299987999999985, 588.12109375, 61.0, 22.0 ],
									"text" : "pack 1. 2."
								}

							}
, 							{
								"box" : 								{
									"id" : "obj-70",
									"maxclass" : "message",
									"numinlets" : 2,
									"numoutlets" : 1,
									"outlettype" : [ "" ],
									"patching_rect" : [ 71.299987999999985, 619.204429864883423, 82.0, 22.0 ],
									"text" : "append $1 $2"
								}

							}
, 							{
								"box" : 								{
									"color" : [ 0.4549019608, 0.0, 0.9450980392, 1.0 ],
									"id" : "obj-71",
									"maxclass" : "newobj",
									"numinlets" : 1,
									"numoutlets" : 3,
									"outlettype" : [ "", "", "" ],
									"patching_rect" : [ 71.299987999999985, 656.037764310836792, 282.0, 22.0 ],
									"saved_object_attributes" : 									{
										"verbose" : 1
									}
,
									"text" : "mubu.track metrotest ok @predef 1 @timetagged 1"
								}

							}
, 							{
								"box" : 								{
									"hidden" : 1,
									"id" : "obj-69",
									"maxclass" : "message",
									"numinlets" : 2,
									"numoutlets" : 1,
									"outlettype" : [ "" ],
									"patching_rect" : [ 549.5, 595.329428791999817, 35.0, 22.0 ],
									"text" : "clear"
								}

							}
, 							{
								"box" : 								{
									"id" : "obj-67",
									"maxclass" : "message",
									"numinlets" : 2,
									"numoutlets" : 1,
									"outlettype" : [ "" ],
									"patching_rect" : [ 312.791666865348816, 601.371095418930054, 82.0, 22.0 ],
									"text" : "append $1 $2"
								}

							}
, 							{
								"box" : 								{
									"color" : [ 0.4549019608, 0.0, 0.9450980392, 1.0 ],
									"id" : "obj-65",
									"maxclass" : "newobj",
									"numinlets" : 1,
									"numoutlets" : 3,
									"outlettype" : [ "", "", "" ],
									"patching_rect" : [ 312.791666865348816, 627.371095418930054, 286.0, 22.0 ],
									"saved_object_attributes" : 									{
										"verbose" : 1
									}
,
									"text" : "mubu.track metrotest out @predef 1 @timetagged 1"
								}

							}
, 							{
								"box" : 								{
									"id" : "obj-61",
									"maxclass" : "newobj",
									"numinlets" : 2,
									"numoutlets" : 3,
									"outlettype" : [ "bang", "bang", "int" ],
									"patching_rect" : [ 34.333333333333314, 159.12109375, 51.0, 22.0 ],
									"text" : "uzi 60 0"
								}

							}
, 							{
								"box" : 								{
									"id" : "obj-60",
									"maxclass" : "newobj",
									"numinlets" : 1,
									"numoutlets" : 3,
									"outlettype" : [ "", "int", "int" ],
									"patching_rect" : [ 135.6666666666666, 159.12109375, 100.0, 22.0 ],
									"text" : "t l 0 0"
								}

							}
, 							{
								"box" : 								{
									"attr" : "js.p",
									"id" : "obj-59",
									"maxclass" : "attrui",
									"numinlets" : 1,
									"numoutlets" : 1,
									"outlettype" : [ "" ],
									"parameter_enable" : 0,
									"patching_rect" : [ 132.12499988079071, 506.74609363079071, 170.0, 22.0 ],
									"text_width" : 44.0
								}

							}
, 							{
								"box" : 								{
									"id" : "obj-51",
									"maxclass" : "comment",
									"numinlets" : 1,
									"numoutlets" : 0,
									"patching_rect" : [ 132.12499988079071, 563.24609363079071, 319.0, 20.0 ],
									"text" : "output: 1 if tick has triggered at expected time, 0 otherwise"
								}

							}
, 							{
								"box" : 								{
									"id" : "obj-43",
									"maxclass" : "newobj",
									"numinlets" : 2,
									"numoutlets" : 3,
									"outlettype" : [ "", "float", "" ],
									"patching_rect" : [ 110.0, 539.24609363079071, 543.0, 22.0 ],
									"text" : "pipo js @js.expr \"var tickexpected = p.indexOf(a[0]) >= 0; res = tickexpected == (a[1] == 1.); res + 0.\""
								}

							}
, 							{
								"box" : 								{
									"id" : "obj-41",
									"maxclass" : "newobj",
									"numinlets" : 1,
									"numoutlets" : 4,
									"outlettype" : [ "int", "int", "int", "int" ],
									"patching_rect" : [ 66.0, 215.12109375, 342.0, 22.0 ],
									"text" : "t i i 0 i"
								}

							}
, 							{
								"box" : 								{
									"id" : "obj-39",
									"maxclass" : "newobj",
									"numinlets" : 2,
									"numoutlets" : 1,
									"outlettype" : [ "" ],
									"patching_rect" : [ 110.0, 465.12109375, 61.0, 22.0 ],
									"text" : "pack 1. 2."
								}

							}
, 							{
								"box" : 								{
									"id" : "obj-38",
									"maxclass" : "message",
									"numinlets" : 2,
									"numoutlets" : 1,
									"outlettype" : [ "" ],
									"patching_rect" : [ 144.666666666666686, 390.12109375, 29.5, 22.0 ],
									"text" : "1"
								}

							}
, 							{
								"box" : 								{
									"id" : "obj-32",
									"linecount" : 2,
									"maxclass" : "comment",
									"numinlets" : 1,
									"numoutlets" : 0,
									"patching_rect" : [ 404.12499988079071, 656.037764310836792, 229.0, 33.0 ],
									"text" : "compare ticks with 0/1 vs. expected ticks (where 1)"
								}

							}
, 							{
								"box" : 								{
									"id" : "obj-21",
									"linecount" : 2,
									"maxclass" : "comment",
									"numinlets" : 1,
									"numoutlets" : 0,
									"patching_rect" : [ 186.5, 446.12109375, 96.0, 33.0 ],
									"text" : "128nd = 22 ticks\n128n = 15 ticks"
								}

							}
, 							{
								"box" : 								{
									"id" : "obj-19",
									"maxclass" : "message",
									"numinlets" : 2,
									"numoutlets" : 1,
									"outlettype" : [ "" ],
									"patching_rect" : [ 173.666666666666686, 284.62109375, 50.0, 22.0 ],
									"text" : "tick $1"
								}

							}
, 							{
								"box" : 								{
									"id" : "obj-18",
									"maxclass" : "number",
									"numinlets" : 1,
									"numoutlets" : 2,
									"outlettype" : [ "", "bang" ],
									"parameter_enable" : 0,
									"patching_rect" : [ 66.333333333333314, 191.12109375, 50.0, 22.0 ]
								}

							}
, 							{
								"box" : 								{
									"id" : "obj-14",
									"maxclass" : "toggle",
									"numinlets" : 1,
									"numoutlets" : 1,
									"outlettype" : [ "int" ],
									"parameter_enable" : 0,
									"patching_rect" : [ 338.12499988079071, 130.12109375, 24.0, 24.0 ]
								}

							}
, 							{
								"box" : 								{
									"id" : "obj-15",
									"maxclass" : "newobj",
									"numinlets" : 2,
									"numoutlets" : 9,
									"outlettype" : [ "int", "int", "float", "float", "float", "", "int", "float", "" ],
									"patching_rect" : [ 338.12499988079071, 159.12109375, 113.0, 22.0 ],
									"text" : "transport"
								}

							}
, 							{
								"box" : 								{
									"format" : 6,
									"id" : "obj-13",
									"maxclass" : "flonum",
									"numinlets" : 1,
									"numoutlets" : 2,
									"outlettype" : [ "", "bang" ],
									"parameter_enable" : 0,
									"patching_rect" : [ 277.791666666666686, 347.62109375, 45.75, 22.0 ]
								}

							}
, 							{
								"box" : 								{
									"id" : "obj-11",
									"maxclass" : "message",
									"numinlets" : 2,
									"numoutlets" : 1,
									"outlettype" : [ "" ],
									"patching_rect" : [ 135.6666666666666, 121.12109375, 97.0, 22.0 ],
									"text" : "reset, 1, active 0"
								}

							}
, 							{
								"box" : 								{
									"id" : "obj-3",
									"maxclass" : "button",
									"numinlets" : 1,
									"numoutlets" : 1,
									"outlettype" : [ "bang" ],
									"parameter_enable" : 0,
									"patching_rect" : [ 144.666666666666686, 359.62109375, 24.0, 24.0 ]
								}

							}
, 							{
								"box" : 								{
									"color" : [ 1.0, 0.5, 0.0, 1.0 ],
									"id" : "obj-1",
									"maxclass" : "newobj",
									"numinlets" : 3,
									"numoutlets" : 2,
									"outlettype" : [ "int", "int" ],
									"patching_rect" : [ 144.666666666666686, 315.87109375, 179.0, 22.0 ],
									"text" : "camu.syncmetro 128n 0.0.1"
								}

							}
, 							{
								"box" : 								{
									"comment" : "",
									"id" : "obj-84",
									"index" : 1,
									"maxclass" : "inlet",
									"numinlets" : 0,
									"numoutlets" : 1,
									"outlettype" : [ "bang" ],
									"patching_rect" : [ 7.5, 7.999999750000001, 30.0, 30.0 ]
								}

							}
, 							{
								"box" : 								{
									"comment" : "",
									"id" : "obj-87",
									"index" : 2,
									"maxclass" : "inlet",
									"numinlets" : 0,
									"numoutlets" : 1,
									"outlettype" : [ "bang" ],
									"patching_rect" : [ 380.0, 7.999999750000001, 30.0, 30.0 ]
								}

							}
, 							{
								"box" : 								{
									"comment" : "",
									"id" : "obj-88",
									"index" : 1,
									"maxclass" : "outlet",
									"numinlets" : 1,
									"numoutlets" : 0,
									"patching_rect" : [ 71.299988000000013, 750.49609375, 30.0, 30.0 ]
								}

							}
 ],
						"lines" : [ 							{
								"patchline" : 								{
									"destination" : [ "obj-13", 0 ],
									"source" : [ "obj-1", 1 ]
								}

							}
, 							{
								"patchline" : 								{
									"destination" : [ "obj-3", 0 ],
									"source" : [ "obj-1", 0 ]
								}

							}
, 							{
								"patchline" : 								{
									"destination" : [ "obj-19", 0 ],
									"source" : [ "obj-10", 0 ]
								}

							}
, 							{
								"patchline" : 								{
									"destination" : [ "obj-101", 0 ],
									"source" : [ "obj-100", 0 ]
								}

							}
, 							{
								"patchline" : 								{
									"destination" : [ "obj-86", 0 ],
									"source" : [ "obj-101", 0 ]
								}

							}
, 							{
								"patchline" : 								{
									"destination" : [ "obj-60", 0 ],
									"source" : [ "obj-11", 0 ]
								}

							}
, 							{
								"patchline" : 								{
									"destination" : [ "obj-17", 0 ],
									"source" : [ "obj-12", 0 ]
								}

							}
, 							{
								"patchline" : 								{
									"destination" : [ "obj-15", 0 ],
									"source" : [ "obj-14", 0 ]
								}

							}
, 							{
								"patchline" : 								{
									"destination" : [ "obj-50", 0 ],
									"order" : 0,
									"source" : [ "obj-17", 0 ]
								}

							}
, 							{
								"patchline" : 								{
									"destination" : [ "obj-88", 0 ],
									"order" : 1,
									"source" : [ "obj-17", 0 ]
								}

							}
, 							{
								"patchline" : 								{
									"destination" : [ "obj-41", 0 ],
									"source" : [ "obj-18", 0 ]
								}

							}
, 							{
								"patchline" : 								{
									"destination" : [ "obj-1", 0 ],
									"source" : [ "obj-19", 0 ]
								}

							}
, 							{
								"patchline" : 								{
									"destination" : [ "obj-71", 0 ],
									"source" : [ "obj-2", 0 ]
								}

							}
, 							{
								"patchline" : 								{
									"destination" : [ "obj-22", 0 ],
									"source" : [ "obj-20", 0 ]
								}

							}
, 							{
								"patchline" : 								{
									"destination" : [ "obj-1", 1 ],
									"source" : [ "obj-22", 0 ]
								}

							}
, 							{
								"patchline" : 								{
									"destination" : [ "obj-20", 0 ],
									"source" : [ "obj-23", 0 ]
								}

							}
, 							{
								"patchline" : 								{
									"destination" : [ "obj-6", 0 ],
									"source" : [ "obj-24", 0 ]
								}

							}
, 							{
								"patchline" : 								{
									"destination" : [ "obj-7", 0 ],
									"source" : [ "obj-26", 0 ]
								}

							}
, 							{
								"patchline" : 								{
									"destination" : [ "obj-9", 0 ],
									"source" : [ "obj-27", 0 ]
								}

							}
, 							{
								"patchline" : 								{
									"destination" : [ "obj-24", 0 ],
									"hidden" : 1,
									"order" : 2,
									"source" : [ "obj-28", 0 ]
								}

							}
, 							{
								"patchline" : 								{
									"destination" : [ "obj-26", 0 ],
									"hidden" : 1,
									"order" : 1,
									"source" : [ "obj-28", 0 ]
								}

							}
, 							{
								"patchline" : 								{
									"destination" : [ "obj-27", 0 ],
									"hidden" : 1,
									"order" : 0,
									"source" : [ "obj-28", 0 ]
								}

							}
, 							{
								"patchline" : 								{
									"destination" : [ "obj-7", 0 ],
									"hidden" : 1,
									"order" : 1,
									"source" : [ "obj-29", 0 ]
								}

							}
, 							{
								"patchline" : 								{
									"destination" : [ "obj-9", 0 ],
									"hidden" : 1,
									"order" : 0,
									"source" : [ "obj-29", 0 ]
								}

							}
, 							{
								"patchline" : 								{
									"destination" : [ "obj-38", 0 ],
									"source" : [ "obj-3", 0 ]
								}

							}
, 							{
								"patchline" : 								{
									"destination" : [ "obj-6", 0 ],
									"hidden" : 1,
									"order" : 1,
									"source" : [ "obj-30", 0 ]
								}

							}
, 							{
								"patchline" : 								{
									"destination" : [ "obj-9", 0 ],
									"hidden" : 1,
									"order" : 0,
									"source" : [ "obj-30", 0 ]
								}

							}
, 							{
								"patchline" : 								{
									"destination" : [ "obj-39", 1 ],
									"source" : [ "obj-38", 0 ]
								}

							}
, 							{
								"patchline" : 								{
									"destination" : [ "obj-43", 0 ],
									"order" : 1,
									"source" : [ "obj-39", 0 ]
								}

							}
, 							{
								"patchline" : 								{
									"destination" : [ "obj-67", 0 ],
									"order" : 0,
									"source" : [ "obj-39", 0 ]
								}

							}
, 							{
								"patchline" : 								{
									"destination" : [ "obj-10", 0 ],
									"source" : [ "obj-41", 1 ]
								}

							}
, 							{
								"patchline" : 								{
									"destination" : [ "obj-39", 1 ],
									"source" : [ "obj-41", 2 ]
								}

							}
, 							{
								"patchline" : 								{
									"destination" : [ "obj-39", 0 ],
									"order" : 0,
									"source" : [ "obj-41", 0 ]
								}

							}
, 							{
								"patchline" : 								{
									"destination" : [ "obj-72", 0 ],
									"order" : 1,
									"source" : [ "obj-41", 0 ]
								}

							}
, 							{
								"patchline" : 								{
									"destination" : [ "obj-92", 0 ],
									"source" : [ "obj-41", 3 ]
								}

							}
, 							{
								"patchline" : 								{
									"destination" : [ "obj-72", 1 ],
									"source" : [ "obj-43", 0 ]
								}

							}
, 							{
								"patchline" : 								{
									"destination" : [ "obj-81", 0 ],
									"source" : [ "obj-5", 0 ]
								}

							}
, 							{
								"patchline" : 								{
									"destination" : [ "obj-43", 0 ],
									"source" : [ "obj-59", 0 ]
								}

							}
, 							{
								"patchline" : 								{
									"destination" : [ "obj-29", 0 ],
									"hidden" : 1,
									"source" : [ "obj-6", 0 ]
								}

							}
, 							{
								"patchline" : 								{
									"destination" : [ "obj-1", 0 ],
									"source" : [ "obj-60", 0 ]
								}

							}
, 							{
								"patchline" : 								{
									"destination" : [ "obj-18", 0 ],
									"source" : [ "obj-60", 2 ]
								}

							}
, 							{
								"patchline" : 								{
									"destination" : [ "obj-18", 0 ],
									"source" : [ "obj-60", 1 ]
								}

							}
, 							{
								"patchline" : 								{
									"destination" : [ "obj-18", 0 ],
									"source" : [ "obj-61", 2 ]
								}

							}
, 							{
								"patchline" : 								{
									"destination" : [ "obj-65", 0 ],
									"source" : [ "obj-67", 0 ]
								}

							}
, 							{
								"patchline" : 								{
									"destination" : [ "obj-65", 0 ],
									"hidden" : 1,
									"order" : 0,
									"source" : [ "obj-69", 0 ]
								}

							}
, 							{
								"patchline" : 								{
									"destination" : [ "obj-71", 0 ],
									"hidden" : 1,
									"order" : 1,
									"source" : [ "obj-69", 0 ]
								}

							}
, 							{
								"patchline" : 								{
									"destination" : [ "obj-30", 0 ],
									"hidden" : 1,
									"source" : [ "obj-7", 0 ]
								}

							}
, 							{
								"patchline" : 								{
									"destination" : [ "obj-71", 0 ],
									"source" : [ "obj-70", 0 ]
								}

							}
, 							{
								"patchline" : 								{
									"destination" : [ "obj-12", 0 ],
									"source" : [ "obj-71", 0 ]
								}

							}
, 							{
								"patchline" : 								{
									"destination" : [ "obj-70", 0 ],
									"source" : [ "obj-72", 0 ]
								}

							}
, 							{
								"patchline" : 								{
									"destination" : [ "obj-1", 2 ],
									"source" : [ "obj-74", 0 ]
								}

							}
, 							{
								"patchline" : 								{
									"destination" : [ "obj-76", 0 ],
									"source" : [ "obj-75", 0 ]
								}

							}
, 							{
								"patchline" : 								{
									"destination" : [ "obj-59", 0 ],
									"source" : [ "obj-77", 0 ]
								}

							}
, 							{
								"patchline" : 								{
									"destination" : [ "obj-78", 0 ],
									"source" : [ "obj-77", 1 ]
								}

							}
, 							{
								"patchline" : 								{
									"destination" : [ "obj-79", 0 ],
									"source" : [ "obj-77", 2 ]
								}

							}
, 							{
								"patchline" : 								{
									"destination" : [ "obj-75", 0 ],
									"source" : [ "obj-78", 0 ]
								}

							}
, 							{
								"patchline" : 								{
									"destination" : [ "obj-76", 0 ],
									"source" : [ "obj-79", 0 ]
								}

							}
, 							{
								"patchline" : 								{
									"destination" : [ "obj-11", 0 ],
									"source" : [ "obj-81", 2 ]
								}

							}
, 							{
								"patchline" : 								{
									"destination" : [ "obj-14", 0 ],
									"source" : [ "obj-81", 5 ]
								}

							}
, 							{
								"patchline" : 								{
									"destination" : [ "obj-2", 0 ],
									"source" : [ "obj-81", 0 ]
								}

							}
, 							{
								"patchline" : 								{
									"destination" : [ "obj-23", 0 ],
									"source" : [ "obj-81", 6 ]
								}

							}
, 							{
								"patchline" : 								{
									"destination" : [ "obj-61", 0 ],
									"source" : [ "obj-81", 1 ]
								}

							}
, 							{
								"patchline" : 								{
									"destination" : [ "obj-69", 0 ],
									"hidden" : 1,
									"source" : [ "obj-81", 3 ]
								}

							}
, 							{
								"patchline" : 								{
									"destination" : [ "obj-93", 0 ],
									"source" : [ "obj-81", 4 ]
								}

							}
, 							{
								"patchline" : 								{
									"destination" : [ "obj-5", 0 ],
									"source" : [ "obj-84", 0 ]
								}

							}
, 							{
								"patchline" : 								{
									"destination" : [ "obj-23", 0 ],
									"source" : [ "obj-86", 0 ]
								}

							}
, 							{
								"patchline" : 								{
									"destination" : [ "obj-74", 0 ],
									"source" : [ "obj-87", 0 ]
								}

							}
, 							{
								"patchline" : 								{
									"destination" : [ "obj-86", 0 ],
									"source" : [ "obj-92", 0 ]
								}

							}
, 							{
								"patchline" : 								{
									"destination" : [ "obj-15", 1 ],
									"source" : [ "obj-93", 1 ]
								}

							}
, 							{
								"patchline" : 								{
									"destination" : [ "obj-15", 1 ],
									"source" : [ "obj-93", 0 ]
								}

							}
, 							{
								"patchline" : 								{
									"destination" : [ "obj-98", 0 ],
									"source" : [ "obj-94", 0 ]
								}

							}
, 							{
								"patchline" : 								{
									"destination" : [ "obj-77", 0 ],
									"source" : [ "obj-95", 0 ]
								}

							}
, 							{
								"patchline" : 								{
									"destination" : [ "obj-100", 0 ],
									"source" : [ "obj-98", 0 ]
								}

							}
, 							{
								"patchline" : 								{
									"destination" : [ "obj-44", 0 ],
									"source" : [ "obj-98", 2 ]
								}

							}
, 							{
								"patchline" : 								{
									"destination" : [ "obj-99", 0 ],
									"source" : [ "obj-98", 1 ]
								}

							}
, 							{
								"patchline" : 								{
									"destination" : [ "obj-86", 0 ],
									"source" : [ "obj-99", 0 ]
								}

							}
 ]
					}
,
					"patching_rect" : [ 98.799988953674301, 344.503898728233366, 67.0, 22.0 ],
					"saved_object_attributes" : 					{
						"description" : "",
						"digest" : "",
						"globalpatchername" : "",
						"tags" : ""
					}
,
					"text" : "p test-case"
				}

			}
, 			{
				"box" : 				{
					"id" : "obj-52",
					"maxclass" : "newobj",
					"numinlets" : 3,
					"numoutlets" : 1,
					"outlettype" : [ "int" ],
					"patching_rect" : [ 48.799988953674301, 413.46222924028018, 119.0, 22.0 ],
					"text" : "all-ok"
				}

			}
, 			{
				"box" : 				{
					"id" : "obj-40",
					"maxclass" : "message",
					"numinlets" : 2,
					"numoutlets" : 1,
					"outlettype" : [ "" ],
					"patching_rect" : [ 298.927105575799942, 414.297709513050108, 61.0, 22.0 ],
					"text" : "set result:"
				}

			}
, 			{
				"box" : 				{
					"id" : "obj-35",
					"maxclass" : "newobj",
					"numinlets" : 1,
					"numoutlets" : 1,
					"outlettype" : [ "" ],
					"patching_rect" : [ 193.177109628915787, 414.381059933048277, 96.0, 22.0 ],
					"text" : "prepend append"
				}

			}
, 			{
				"box" : 				{
					"id" : "obj-34",
					"maxclass" : "newobj",
					"numinlets" : 0,
					"numoutlets" : 1,
					"outlettype" : [ "" ],
					"patching_rect" : [ 193.177109628915787, 388.839391875606566, 49.0, 22.0 ],
					"text" : "r period"
				}

			}
, 			{
				"box" : 				{
					"id" : "obj-33",
					"linecount" : 3,
					"maxclass" : "message",
					"numinlets" : 2,
					"numoutlets" : 1,
					"outlettype" : [ "" ],
					"patching_rect" : [ 193.177109628915787, 446.297709513050108, 332.0, 49.0 ],
					"text" : "result: 0 128n 0 128nd 0 128n 3 128nd 0 128n 1 0 128nd 0 0 128n 3 128nd 0 0 128n 3 128nd 0 0 128n 3 128nd 0 0 128n 3 128nd 0 0 128n 3 128nd 0 0 128n 3 128nd 0 0 128nd 1"
				}

			}
, 			{
				"box" : 				{
					"id" : "obj-30",
					"maxclass" : "comment",
					"numinlets" : 1,
					"numoutlets" : 0,
					"patching_rect" : [ 218.583359003067017, 138.874996304512024, 85.0, 20.0 ],
					"text" : "baseline tests "
				}

			}
, 			{
				"box" : 				{
					"id" : "obj-28",
					"maxclass" : "button",
					"numinlets" : 1,
					"numoutlets" : 1,
					"outlettype" : [ "bang" ],
					"parameter_enable" : 0,
					"patching_rect" : [ 70.541661977767944, 383.750003099441528, 24.0, 24.0 ]
				}

			}
, 			{
				"box" : 				{
					"id" : "obj-106",
					"maxclass" : "newobj",
					"numinlets" : 0,
					"numoutlets" : 1,
					"outlettype" : [ "" ],
					"patching_rect" : [ 98.799988953674301, 276.083335161209106, 35.0, 22.0 ],
					"text" : "r test"
				}

			}
, 			{
				"box" : 				{
					"id" : "obj-104",
					"linecount" : 4,
					"maxclass" : "message",
					"numinlets" : 2,
					"numoutlets" : 1,
					"outlettype" : [ "" ],
					"patching_rect" : [ 218.583359003067017, 194.625004172325134, 138.0, 62.0 ],
					"text" : ";\rperiod 0 128nd;\rexpected 0 22 44;\rtest bang"
				}

			}
, 			{
				"box" : 				{
					"id" : "obj-105",
					"maxclass" : "comment",
					"numinlets" : 1,
					"numoutlets" : 0,
					"patching_rect" : [ 218.583359003067017, 164.625004172325134, 131.0, 20.0 ],
					"text" : "128nd"
				}

			}
, 			{
				"box" : 				{
					"id" : "obj-102",
					"linecount" : 4,
					"maxclass" : "message",
					"numinlets" : 2,
					"numoutlets" : 1,
					"outlettype" : [ "" ],
					"patching_rect" : [ 365.083359003067017, 193.125004172325134, 138.0, 62.0 ],
					"text" : ";\rperiod 0 128n;\rexpected 0 15 30 45;\rtest bang"
				}

			}
, 			{
				"box" : 				{
					"id" : "obj-103",
					"maxclass" : "comment",
					"numinlets" : 1,
					"numoutlets" : 0,
					"patching_rect" : [ 365.083359003067017, 162.125004172325134, 131.0, 20.0 ],
					"text" : "128n"
				}

			}
, 			{
				"box" : 				{
					"id" : "obj-97",
					"linecount" : 4,
					"maxclass" : "message",
					"numinlets" : 2,
					"numoutlets" : 1,
					"outlettype" : [ "" ],
					"patching_rect" : [ 75.083359003067017, 194.625004172325134, 138.0, 62.0 ],
					"text" : ";\rperiod 0 128n 3 128nd;\rexpected 0 15 37 59;\rtest bang"
				}

			}
, 			{
				"box" : 				{
					"id" : "obj-85",
					"linecount" : 2,
					"maxclass" : "comment",
					"numinlets" : 1,
					"numoutlets" : 0,
					"patching_rect" : [ 75.083359003067017, 151.625004172325134, 131.0, 33.0 ],
					"text" : "start with 128n then switch to 128nd"
				}

			}
, 			{
				"box" : 				{
					"id" : "obj-64",
					"maxclass" : "newobj",
					"numinlets" : 1,
					"numoutlets" : 1,
					"outlettype" : [ "" ],
					"patching_rect" : [ 132.291673541069031, 593.702739477157593, 92.0, 22.0 ],
					"saved_object_attributes" : 					{
						"embed" : 0,
						"externalfiles" : 1,
						"parameter_enable" : 0,
						"parameter_mappable" : 0,
						"resamplefiles" : 0,
						"savegui" : 0,
						"snaprate" : 1000.0,
						"verbose" : 1
					}
,
					"text" : "mubu metrotest"
				}

			}
, 			{
				"box" : 				{
					"id" : "obj-63",
					"maxclass" : "button",
					"numinlets" : 1,
					"numoutlets" : 1,
					"outlettype" : [ "bang" ],
					"parameter_enable" : 0,
					"patching_rect" : [ 98.799988953674301, 306.333327293395996, 24.0, 24.0 ]
				}

			}
, 			{
				"box" : 				{
					"id" : "obj-9",
					"linecount" : 2,
					"maxclass" : "message",
					"numinlets" : 2,
					"numoutlets" : 1,
					"outlettype" : [ "" ],
					"patching_rect" : [ 236.0, 50.0, 130.0, 35.0 ],
					"text" : ";\rmax clearmaxwindow"
				}

			}
, 			{
				"box" : 				{
					"fontname" : "Arial",
					"fontsize" : 12.0,
					"id" : "obj-4",
					"maxclass" : "newobj",
					"numinlets" : 1,
					"numoutlets" : 7,
					"outlettype" : [ "bang", "bang", "bang", "bang", "bang", "bang", "bang" ],
					"patching_rect" : [ 16.0, 110.124988436698914, 515.916671514511108, 22.0 ],
					"text" : "t b b b b b b b"
				}

			}
, 			{
				"box" : 				{
					"color" : [ 0.7, 0.4, 0.3, 1.0 ],
					"id" : "obj-124",
					"maxclass" : "newobj",
					"numinlets" : 1,
					"numoutlets" : 1,
					"outlettype" : [ "" ],
					"patching_rect" : [ 48.799988953674301, 442.131043005329161, 129.0, 22.0 ],
					"text" : "test.assert all_ticks_ok"
				}

			}
, 			{
				"box" : 				{
					"id" : "obj-125",
					"maxclass" : "toggle",
					"numinlets" : 1,
					"numoutlets" : 1,
					"outlettype" : [ "int" ],
					"parameter_enable" : 0,
					"patching_rect" : [ 98.799988953674301, 383.750003099441528, 24.0, 24.0 ]
				}

			}
, 			{
				"box" : 				{
					"id" : "obj-10",
					"maxclass" : "comment",
					"numinlets" : 1,
					"numoutlets" : 0,
					"patching_rect" : [ 236.0, 10.0, 285.0, 20.0 ],
					"text" : "test "
				}

			}
, 			{
				"box" : 				{
					"id" : "obj-45",
					"maxclass" : "button",
					"numinlets" : 1,
					"numoutlets" : 1,
					"outlettype" : [ "bang" ],
					"parameter_enable" : 0,
					"patching_rect" : [ 61.416666269302368, 530.702739477157593, 24.0, 24.0 ]
				}

			}
, 			{
				"box" : 				{
					"id" : "obj-36",
					"maxclass" : "toggle",
					"numinlets" : 1,
					"numoutlets" : 1,
					"outlettype" : [ "int" ],
					"parameter_enable" : 0,
					"patching_rect" : [ 26.416666269302368, 530.702739477157593, 24.0, 24.0 ]
				}

			}
, 			{
				"box" : 				{
					"color" : [ 0.7, 0.4, 0.3, 1.0 ],
					"fontname" : "Arial",
					"fontsize" : 12.0,
					"id" : "obj-47",
					"maxclass" : "newobj",
					"numinlets" : 0,
					"numoutlets" : 1,
					"outlettype" : [ "" ],
					"patching_rect" : [ 26.416666269302368, 495.202739477157593, 128.0, 22.0 ],
					"text" : "r test.terminate.closes"
				}

			}
, 			{
				"box" : 				{
					"fontname" : "Arial",
					"fontsize" : 12.0,
					"id" : "obj-7",
					"maxclass" : "newobj",
					"numinlets" : 2,
					"numoutlets" : 1,
					"outlettype" : [ "" ],
					"patching_rect" : [ 26.416666269302368, 562.702739477157593, 54.0, 22.0 ],
					"text" : "gate 1 1"
				}

			}
, 			{
				"box" : 				{
					"color" : [ 0.7, 0.4, 0.3, 1.0 ],
					"fontname" : "Arial",
					"fontsize" : 12.0,
					"id" : "obj-48",
					"maxclass" : "newobj",
					"numinlets" : 1,
					"numoutlets" : 0,
					"patching_rect" : [ 26.416666269302368, 593.702739477157593, 83.0, 22.0 ],
					"text" : "test.terminate"
				}

			}
, 			{
				"box" : 				{
					"color" : [ 0.7, 0.4, 0.3, 1.0 ],
					"fontname" : "Arial",
					"fontsize" : 12.0,
					"id" : "obj-16",
					"maxclass" : "newobj",
					"numinlets" : 1,
					"numoutlets" : 0,
					"patching_rect" : [ 152.5, 42.0, 66.0, 22.0 ],
					"text" : "s test.start"
				}

			}
, 			{
				"box" : 				{
					"id" : "obj-54",
					"maxclass" : "button",
					"numinlets" : 1,
					"numoutlets" : 1,
					"outlettype" : [ "bang" ],
					"parameter_enable" : 0,
					"patching_rect" : [ 114.299987999999985, 41.0, 24.0, 24.0 ]
				}

			}
, 			{
				"box" : 				{
					"id" : "obj-55",
					"maxclass" : "toggle",
					"numinlets" : 1,
					"numoutlets" : 1,
					"outlettype" : [ "int" ],
					"parameter_enable" : 0,
					"patching_rect" : [ 16.0, 41.0, 24.0, 24.0 ]
				}

			}
, 			{
				"box" : 				{
					"color" : [ 0.7, 0.4, 0.3, 1.0 ],
					"fontname" : "Arial",
					"fontsize" : 12.0,
					"id" : "obj-56",
					"maxclass" : "newobj",
					"numinlets" : 0,
					"numoutlets" : 1,
					"outlettype" : [ "" ],
					"patching_rect" : [ 16.0, 10.0, 87.0, 22.0 ],
					"text" : "r test.autostart"
				}

			}
, 			{
				"box" : 				{
					"fontname" : "Arial",
					"fontsize" : 12.0,
					"id" : "obj-57",
					"maxclass" : "newobj",
					"numinlets" : 2,
					"numoutlets" : 1,
					"outlettype" : [ "" ],
					"patching_rect" : [ 16.0, 74.0, 117.299987999999999, 22.0 ],
					"text" : "gate 1 1"
				}

			}
, 			{
				"box" : 				{
					"fontname" : "Arial",
					"fontsize" : 12.0,
					"id" : "obj-58",
					"maxclass" : "newobj",
					"numinlets" : 1,
					"numoutlets" : 1,
					"outlettype" : [ "bang" ],
					"patching_rect" : [ 114.299987999999985, 10.0, 60.0, 22.0 ],
					"text" : "loadbang"
				}

			}
 ],
		"lines" : [ 			{
				"patchline" : 				{
					"destination" : [ "obj-63", 0 ],
					"source" : [ "obj-106", 0 ]
				}

			}
, 			{
				"patchline" : 				{
					"destination" : [ "obj-52", 1 ],
					"source" : [ "obj-125", 0 ]
				}

			}
, 			{
				"patchline" : 				{
					"destination" : [ "obj-35", 0 ],
					"source" : [ "obj-34", 0 ]
				}

			}
, 			{
				"patchline" : 				{
					"destination" : [ "obj-33", 0 ],
					"source" : [ "obj-35", 0 ]
				}

			}
, 			{
				"patchline" : 				{
					"destination" : [ "obj-7", 0 ],
					"source" : [ "obj-36", 0 ]
				}

			}
, 			{
				"patchline" : 				{
					"destination" : [ "obj-102", 0 ],
					"source" : [ "obj-4", 4 ]
				}

			}
, 			{
				"patchline" : 				{
					"destination" : [ "obj-104", 0 ],
					"source" : [ "obj-4", 3 ]
				}

			}
, 			{
				"patchline" : 				{
					"destination" : [ "obj-40", 0 ],
					"midpoints" : [ 522.416671514511108, 398.52081423997879, 308.427105575799942, 398.52081423997879 ],
					"order" : 0,
					"source" : [ "obj-4", 6 ]
				}

			}
, 			{
				"patchline" : 				{
					"destination" : [ "obj-45", 0 ],
					"midpoints" : [ 25.5, 483.416662931442261, 70.916666269302368, 483.416662931442261 ],
					"source" : [ "obj-4", 0 ]
				}

			}
, 			{
				"patchline" : 				{
					"destination" : [ "obj-52", 2 ],
					"midpoints" : [ 522.416671514511108, 397.037788540124893, 158.299988953674301, 397.037788540124893 ],
					"order" : 1,
					"source" : [ "obj-4", 6 ]
				}

			}
, 			{
				"patchline" : 				{
					"destination" : [ "obj-52", 0 ],
					"midpoints" : [ 108.319445252418518, 142.87113156914711, 58.299988953674301, 142.87113156914711 ],
					"source" : [ "obj-4", 1 ]
				}

			}
, 			{
				"patchline" : 				{
					"destination" : [ "obj-89", 1 ],
					"midpoints" : [ 439.59722626209259, 147.0, 513.0, 147.0, 513.0, 330.0, 156.299988953674301, 330.0 ],
					"source" : [ "obj-4", 5 ]
				}

			}
, 			{
				"patchline" : 				{
					"destination" : [ "obj-97", 0 ],
					"source" : [ "obj-4", 2 ]
				}

			}
, 			{
				"patchline" : 				{
					"destination" : [ "obj-33", 0 ],
					"midpoints" : [ 308.427105575799942, 438.714376259189635, 202.677109628915787, 438.714376259189635 ],
					"source" : [ "obj-40", 0 ]
				}

			}
, 			{
				"patchline" : 				{
					"destination" : [ "obj-7", 1 ],
					"source" : [ "obj-45", 0 ]
				}

			}
, 			{
				"patchline" : 				{
					"destination" : [ "obj-36", 0 ],
					"source" : [ "obj-47", 0 ]
				}

			}
, 			{
				"patchline" : 				{
					"destination" : [ "obj-124", 0 ],
					"source" : [ "obj-52", 0 ]
				}

			}
, 			{
				"patchline" : 				{
					"destination" : [ "obj-57", 1 ],
					"source" : [ "obj-54", 0 ]
				}

			}
, 			{
				"patchline" : 				{
					"destination" : [ "obj-57", 0 ],
					"source" : [ "obj-55", 0 ]
				}

			}
, 			{
				"patchline" : 				{
					"destination" : [ "obj-55", 0 ],
					"source" : [ "obj-56", 0 ]
				}

			}
, 			{
				"patchline" : 				{
					"destination" : [ "obj-4", 0 ],
					"source" : [ "obj-57", 0 ]
				}

			}
, 			{
				"patchline" : 				{
					"destination" : [ "obj-16", 0 ],
					"order" : 0,
					"source" : [ "obj-58", 0 ]
				}

			}
, 			{
				"patchline" : 				{
					"destination" : [ "obj-54", 0 ],
					"order" : 1,
					"source" : [ "obj-58", 0 ]
				}

			}
, 			{
				"patchline" : 				{
					"destination" : [ "obj-89", 0 ],
					"source" : [ "obj-63", 0 ]
				}

			}
, 			{
				"patchline" : 				{
					"destination" : [ "obj-48", 0 ],
					"source" : [ "obj-7", 0 ]
				}

			}
, 			{
				"patchline" : 				{
					"destination" : [ "obj-125", 0 ],
					"order" : 1,
					"source" : [ "obj-89", 0 ]
				}

			}
, 			{
				"patchline" : 				{
					"destination" : [ "obj-28", 0 ],
					"order" : 2,
					"source" : [ "obj-89", 0 ]
				}

			}
, 			{
				"patchline" : 				{
					"destination" : [ "obj-35", 0 ],
					"order" : 0,
					"source" : [ "obj-89", 0 ]
				}

			}
 ],
		"parameters" : 		{
			"obj-89::obj-1::obj-37" : [ "SyncPeriod[1]", "SyncPeriod", 0 ],
			"obj-89::obj-1::obj-95" : [ "SyncPeriod", "SyncPeriod", 0 ],
			"parameterbanks" : 			{
				"0" : 				{
					"index" : 0,
					"name" : "",
					"parameters" : [ "-", "-", "-", "-", "-", "-", "-", "-" ]
				}

			}
,
			"inherited_shortname" : 1
		}
,
		"dependency_cache" : [ 			{
				"name" : "all-ok.maxpat",
				"bootpath" : "~/src/mubu-and-co/maxmubu/patches/maxtest/util",
				"patcherrelativepath" : "../../../mubu-and-co/maxmubu/patches/maxtest/util",
				"type" : "JSON",
				"implicit" : 1
			}
, 			{
				"name" : "camu.syncmetro.maxpat",
				"bootpath" : "~/src/catart-mubu/patchers/lib",
				"patcherrelativepath" : "../lib",
				"type" : "JSON",
				"implicit" : 1
			}
, 			{
				"name" : "imubu.mxo",
				"type" : "iLaX"
			}
, 			{
				"name" : "mubu.mxo",
				"type" : "iLaX"
			}
, 			{
				"name" : "mubu.track.mxo",
				"type" : "iLaX"
			}
, 			{
				"name" : "pipo.mxo",
				"type" : "iLaX"
			}
, 			{
				"name" : "test.assert.mxo",
				"type" : "iLaX"
			}
, 			{
				"name" : "test.terminate.mxo",
				"type" : "iLaX"
			}
 ],
		"autosave" : 0
	}

}
