{
	"patcher" : 	{
		"fileversion" : 1,
		"appversion" : 		{
			"major" : 8,
			"minor" : 3,
			"revision" : 1,
			"architecture" : "x64",
			"modernui" : 1
		}
,
		"classnamespace" : "box",
		"rect" : [ 147.0, 79.0, 1080.0, 946.0 ],
		"bglocked" : 1,
		"openinpresentation" : 0,
		"default_fontsize" : 12.0,
		"default_fontface" : 0,
		"default_fontname" : "Arial",
		"gridonopen" : 1,
		"gridsize" : [ 15.0, 15.0 ],
		"gridsnaponopen" : 1,
		"objectsnaponopen" : 1,
		"statusbarvisible" : 2,
		"toolbarvisible" : 1,
		"lefttoolbarpinned" : 0,
		"toptoolbarpinned" : 0,
		"righttoolbarpinned" : 0,
		"bottomtoolbarpinned" : 0,
		"toolbars_unpinned_last_save" : 0,
		"tallnewobj" : 0,
		"boxanimatetime" : 200,
		"enablehscroll" : 1,
		"enablevscroll" : 1,
		"devicewidth" : 0.0,
		"description" : "",
		"digest" : "",
		"tags" : "",
		"style" : "",
		"subpatcher_template" : "",
		"showrootpatcherontab" : 0,
		"showontab" : 0,
		"assistshowspatchername" : 0,
		"boxes" : [ 			{
				"box" : 				{
					"id" : "obj-2",
					"maxclass" : "newobj",
					"numinlets" : 0,
					"numoutlets" : 0,
					"patcher" : 					{
						"fileversion" : 1,
						"appversion" : 						{
							"major" : 8,
							"minor" : 3,
							"revision" : 1,
							"architecture" : "x64",
							"modernui" : 1
						}
,
						"classnamespace" : "box",
						"rect" : [ 0.0, 26.0, 1080.0, 920.0 ],
						"bglocked" : 0,
						"openinpresentation" : 0,
						"default_fontsize" : 12.0,
						"default_fontface" : 0,
						"default_fontname" : "Arial",
						"gridonopen" : 1,
						"gridsize" : [ 5.0, 5.0 ],
						"gridsnaponopen" : 1,
						"objectsnaponopen" : 1,
						"statusbarvisible" : 2,
						"toolbarvisible" : 1,
						"lefttoolbarpinned" : 0,
						"toptoolbarpinned" : 0,
						"righttoolbarpinned" : 0,
						"bottomtoolbarpinned" : 0,
						"toolbars_unpinned_last_save" : 0,
						"tallnewobj" : 0,
						"boxanimatetime" : 200,
						"enablehscroll" : 1,
						"enablevscroll" : 1,
						"devicewidth" : 0.0,
						"description" : "",
						"digest" : "",
						"tags" : "",
						"style" : "",
						"subpatcher_template" : "",
						"showontab" : 1,
						"assistshowspatchername" : 0,
						"boxes" : [ 							{
								"box" : 								{
									"fontname" : "Arial",
									"fontsize" : 18.0,
									"id" : "obj-1",
									"linecount" : 2,
									"maxclass" : "comment",
									"numinlets" : 1,
									"numoutlets" : 0,
									"patching_rect" : [ 570.5, 73.0, 361.375, 47.0 ],
									"text" : "Requirements: MuBu package\noptional: sensel, blocks, bach, cage, spat5"
								}

							}
, 							{
								"box" : 								{
									"hidden" : 1,
									"id" : "obj-66",
									"linecount" : 3,
									"maxclass" : "message",
									"numinlets" : 2,
									"numoutlets" : 1,
									"outlettype" : [ "" ],
									"patching_rect" : [ 656.0, 695.5, 233.0, 49.0 ],
									"text" : ";\rmax launchbrowser https://forum.ircam.fr/projects/detail/mubu/"
								}

							}
, 							{
								"box" : 								{
									"bgcolor" : [ 0.290196, 0.309804, 0.301961, 0.0 ],
									"id" : "obj-63",
									"maxclass" : "textbutton",
									"numinlets" : 1,
									"numoutlets" : 3,
									"outlettype" : [ "", "", "int" ],
									"parameter_enable" : 0,
									"patching_rect" : [ 349.0, 724.5, 289.0, 15.0 ],
									"text" : "https://forum.ircam.fr/projects/detail/catart-mubu/",
									"textoncolor" : [ 0.011765, 0.396078, 0.752941, 1.0 ],
									"textovercolor" : [ 0.317647, 0.654902, 0.976471, 1.0 ]
								}

							}
, 							{
								"box" : 								{
									"id" : "obj-65",
									"maxclass" : "comment",
									"numinlets" : 1,
									"numoutlets" : 0,
									"patching_rect" : [ 282.5, 722.0, 99.0, 20.0 ],
									"text" : "@ Ircam Forum :"
								}

							}
, 							{
								"box" : 								{
									"bgcolor" : [ 0.290196, 0.309804, 0.301961, 0.0 ],
									"id" : "obj-8",
									"maxclass" : "textbutton",
									"numinlets" : 1,
									"numoutlets" : 3,
									"outlettype" : [ "", "", "int" ],
									"parameter_enable" : 0,
									"patching_rect" : [ 350.0, 745.5, 289.0, 15.0 ],
									"text" : " https://forum.ircam.fr/article/detail/skatart/",
									"textoncolor" : [ 0.011765, 0.396078, 0.752941, 1.0 ],
									"textovercolor" : [ 0.317647, 0.654902, 0.976471, 1.0 ]
								}

							}
, 							{
								"box" : 								{
									"hidden" : 1,
									"id" : "obj-53",
									"linecount" : 3,
									"maxclass" : "message",
									"numinlets" : 2,
									"numoutlets" : 1,
									"outlettype" : [ "" ],
									"patching_rect" : [ 647.5, 723.5, 269.0, 49.0 ],
									"text" : ";\rmax launchbrowser https://forum.ircam.fr/article/detail/tutoriels-mubu/"
								}

							}
, 							{
								"box" : 								{
									"fontname" : "Arial",
									"fontsize" : 18.0,
									"id" : "obj-56",
									"linecount" : 3,
									"maxclass" : "comment",
									"numinlets" : 1,
									"numoutlets" : 0,
									"patching_rect" : [ 417.5, 6.0, 514.375, 67.0 ],
									"text" : "CataRT-MuBu is a collection of Max patches for corpus-based concatenative synthesis, audio mosaicing, descriptor analysis, transcription, and composition."
								}

							}
, 							{
								"box" : 								{
									"fontface" : 3,
									"fontsize" : 24.0,
									"id" : "obj-64",
									"maxclass" : "comment",
									"numinlets" : 1,
									"numoutlets" : 0,
									"patching_rect" : [ 11.75, 73.0, 429.0, 33.0 ],
									"text" : "Intro: a working minimal catart patch"
								}

							}
, 							{
								"box" : 								{
									"bgcolor" : [ 0.290196, 0.309804, 0.301961, 0.0 ],
									"id" : "obj-38",
									"maxclass" : "textbutton",
									"numinlets" : 1,
									"numoutlets" : 3,
									"outlettype" : [ "", "", "int" ],
									"parameter_enable" : 0,
									"patching_rect" : [ 417.5, 703.0, 311.0, 18.5 ],
									"text" : "https://ircam-ismm.github.io/max-msp/catart.html",
									"textoncolor" : [ 0.011765, 0.396078, 0.752941, 1.0 ],
									"textovercolor" : [ 0.317647, 0.654902, 0.976471, 1.0 ]
								}

							}
, 							{
								"box" : 								{
									"hidden" : 1,
									"id" : "obj-33",
									"linecount" : 3,
									"maxclass" : "message",
									"numinlets" : 2,
									"numoutlets" : 1,
									"outlettype" : [ "" ],
									"patching_rect" : [ 664.875, 672.0, 267.0, 49.0 ],
									"text" : ";\rmax launchbrowser https://ircam-ismm.github.io/max-msp/mubu.html"
								}

							}
, 							{
								"box" : 								{
									"id" : "obj-31",
									"maxclass" : "comment",
									"numinlets" : 1,
									"numoutlets" : 0,
									"patching_rect" : [ 218.5, 702.0, 401.0, 20.0 ],
									"text" : "developed at IRCAM by the ISMM team :"
								}

							}
, 							{
								"box" : 								{
									"fontname" : "Arial",
									"fontsize" : 14.0,
									"id" : "obj-59",
									"linecount" : 3,
									"maxclass" : "comment",
									"numinlets" : 1,
									"numoutlets" : 0,
									"patching_rect" : [ 11.75, 108.0, 429.0, 53.0 ],
									"text" : "CataRT needs a mubu container and just 3 mubu objects.  See the sequence of tutorials to build up more powerful and convenient instruments or composition systems from there."
								}

							}
, 							{
								"box" : 								{
									"background" : 1,
									"fontface" : 3,
									"fontname" : "Arial",
									"fontsize" : 36.0,
									"id" : "obj-21",
									"maxclass" : "comment",
									"numinlets" : 1,
									"numoutlets" : 0,
									"patching_rect" : [ 16.0, 12.0, 387.0, 47.0 ],
									"text" : "catart-mubu Overview",
									"varname" : "HelpTitle"
								}

							}
 ],
						"lines" : [  ],
						"bgcolor" : [ 0.898, 0.898, 0.898, 1.0 ],
						"editing_bgcolor" : [ 0.898, 0.898, 0.898, 1.0 ]
					}
,
					"patching_rect" : [ 62.0, 97.0, 44.0, 22.0 ],
					"saved_object_attributes" : 					{
						"description" : "",
						"digest" : "",
						"editing_bgcolor" : [ 0.898, 0.898, 0.898, 1.0 ],
						"globalpatchername" : "",
						"locked_bgcolor" : [ 0.898, 0.898, 0.898, 1.0 ],
						"tags" : ""
					}
,
					"text" : "p intro",
					"varname" : "basic_tab[3]"
				}

			}
, 			{
				"box" : 				{
					"id" : "obj-5",
					"maxclass" : "newobj",
					"numinlets" : 0,
					"numoutlets" : 0,
					"patcher" : 					{
						"fileversion" : 1,
						"appversion" : 						{
							"major" : 8,
							"minor" : 3,
							"revision" : 1,
							"architecture" : "x64",
							"modernui" : 1
						}
,
						"classnamespace" : "box",
						"rect" : [ 0.0, 26.0, 1080.0, 920.0 ],
						"bglocked" : 0,
						"openinpresentation" : 0,
						"default_fontsize" : 12.0,
						"default_fontface" : 2,
						"default_fontname" : "Arial",
						"gridonopen" : 1,
						"gridsize" : [ 5.0, 5.0 ],
						"gridsnaponopen" : 1,
						"objectsnaponopen" : 1,
						"statusbarvisible" : 2,
						"toolbarvisible" : 1,
						"lefttoolbarpinned" : 0,
						"toptoolbarpinned" : 0,
						"righttoolbarpinned" : 0,
						"bottomtoolbarpinned" : 0,
						"toolbars_unpinned_last_save" : 0,
						"tallnewobj" : 0,
						"boxanimatetime" : 200,
						"enablehscroll" : 1,
						"enablevscroll" : 1,
						"devicewidth" : 0.0,
						"description" : "",
						"digest" : "",
						"tags" : "",
						"style" : "",
						"subpatcher_template" : "",
						"showontab" : 1,
						"assistshowspatchername" : 0,
						"boxes" : [ 							{
								"box" : 								{
									"fontface" : 0,
									"id" : "obj-76",
									"maxclass" : "message",
									"numinlets" : 2,
									"numoutlets" : 1,
									"outlettype" : [ "" ],
									"patching_rect" : [ 16.0, 531.5, 129.0, 22.0 ],
									"text" : "catart-mubu-SOM"
								}

							}
, 							{
								"box" : 								{
									"bubble" : 1,
									"fontface" : 0,
									"fontname" : "Arial",
									"id" : "obj-74",
									"linecount" : 2,
									"maxclass" : "comment",
									"numinlets" : 1,
									"numoutlets" : 0,
									"patching_rect" : [ 169.0, 497.0, 232.0, 37.0 ],
									"text" : "catart with per-grain HOA spatialisation"
								}

							}
, 							{
								"box" : 								{
									"fontface" : 0,
									"id" : "obj-75",
									"maxclass" : "message",
									"numinlets" : 2,
									"numoutlets" : 1,
									"outlettype" : [ "" ],
									"patching_rect" : [ 16.0, 504.5, 129.0, 22.0 ],
									"text" : "catart-mubu-spat-mc"
								}

							}
, 							{
								"box" : 								{
									"fontface" : 0,
									"id" : "obj-73",
									"maxclass" : "message",
									"numinlets" : 2,
									"numoutlets" : 1,
									"outlettype" : [ "" ],
									"patching_rect" : [ 16.0, 374.625, 129.0, 22.0 ],
									"text" : "catoracle+keymixer"
								}

							}
, 							{
								"box" : 								{
									"bubble" : 1,
									"fontface" : 0,
									"fontname" : "Arial",
									"id" : "obj-71",
									"linecount" : 3,
									"maxclass" : "comment",
									"numinlets" : 1,
									"numoutlets" : 0,
									"patching_rect" : [ 169.0, 351.5, 220.0, 51.0 ],
									"text" : "CataRT controlled by a factor oracle (a la OMax) running in python (contributed by Aaron Einbond)"
								}

							}
, 							{
								"box" : 								{
									"fontface" : 0,
									"id" : "obj-72",
									"maxclass" : "message",
									"numinlets" : 2,
									"numoutlets" : 1,
									"outlettype" : [ "" ],
									"patching_rect" : [ 16.0, 351.5, 129.0, 22.0 ],
									"text" : "catoracle"
								}

							}
, 							{
								"box" : 								{
									"bubbleside" : 2,
									"fontface" : 1,
									"fontname" : "Arial",
									"fontsize" : 14.0,
									"id" : "obj-70",
									"maxclass" : "comment",
									"numinlets" : 1,
									"numoutlets" : 0,
									"patching_rect" : [ 16.0, 474.0, 186.0, 22.0 ],
									"text" : "experimental patches"
								}

							}
, 							{
								"box" : 								{
									"bubbleside" : 2,
									"fontface" : 1,
									"fontname" : "Arial",
									"fontsize" : 14.0,
									"id" : "obj-69",
									"maxclass" : "comment",
									"numinlets" : 1,
									"numoutlets" : 0,
									"patching_rect" : [ 16.0, 325.0, 186.0, 22.0 ],
									"text" : "advanced CataRT patches"
								}

							}
, 							{
								"box" : 								{
									"bubbleside" : 2,
									"fontface" : 1,
									"fontname" : "Arial",
									"fontsize" : 14.0,
									"id" : "obj-15",
									"maxclass" : "comment",
									"numinlets" : 1,
									"numoutlets" : 0,
									"patching_rect" : [ 16.0, 118.0, 186.0, 22.0 ],
									"text" : "basic CataRT patches"
								}

							}
, 							{
								"box" : 								{
									"hidden" : 1,
									"id" : "obj-66",
									"linecount" : 3,
									"maxclass" : "message",
									"numinlets" : 2,
									"numoutlets" : 1,
									"outlettype" : [ "" ],
									"patching_rect" : [ 641.0, 695.5, 233.0, 49.0 ],
									"text" : ";\rmax launchbrowser https://forum.ircam.fr/projects/detail/mubu/"
								}

							}
, 							{
								"box" : 								{
									"bgcolor" : [ 0.290196, 0.309804, 0.301961, 0.0 ],
									"fontface" : 0,
									"id" : "obj-63",
									"maxclass" : "textbutton",
									"numinlets" : 1,
									"numoutlets" : 3,
									"outlettype" : [ "", "", "int" ],
									"parameter_enable" : 0,
									"patching_rect" : [ 334.0, 724.5, 289.0, 15.0 ],
									"text" : "https://forum.ircam.fr/projects/detail/mubu/",
									"textoncolor" : [ 0.011765, 0.396078, 0.752941, 1.0 ],
									"textovercolor" : [ 0.317647, 0.654902, 0.976471, 1.0 ]
								}

							}
, 							{
								"box" : 								{
									"fontface" : 0,
									"id" : "obj-65",
									"maxclass" : "comment",
									"numinlets" : 1,
									"numoutlets" : 0,
									"patching_rect" : [ 267.5, 722.0, 99.0, 20.0 ],
									"text" : "@ Ircam Forum :"
								}

							}
, 							{
								"box" : 								{
									"bgcolor" : [ 0.290196, 0.309804, 0.301961, 0.0 ],
									"fontface" : 0,
									"id" : "obj-31",
									"maxclass" : "textbutton",
									"numinlets" : 1,
									"numoutlets" : 3,
									"outlettype" : [ "", "", "int" ],
									"parameter_enable" : 0,
									"patching_rect" : [ 335.0, 745.5, 289.0, 15.0 ],
									"text" : " https://forum.ircam.fr/article/detail/tutoriels-mubu/",
									"textoncolor" : [ 0.011765, 0.396078, 0.752941, 1.0 ],
									"textovercolor" : [ 0.317647, 0.654902, 0.976471, 1.0 ]
								}

							}
, 							{
								"box" : 								{
									"hidden" : 1,
									"id" : "obj-33",
									"linecount" : 3,
									"maxclass" : "message",
									"numinlets" : 2,
									"numoutlets" : 1,
									"outlettype" : [ "" ],
									"patching_rect" : [ 632.5, 723.5, 269.0, 49.0 ],
									"text" : ";\rmax launchbrowser https://forum.ircam.fr/article/detail/tutoriels-mubu/"
								}

							}
, 							{
								"box" : 								{
									"fontface" : 0,
									"id" : "obj-38",
									"maxclass" : "comment",
									"numinlets" : 1,
									"numoutlets" : 0,
									"patching_rect" : [ 256.5, 743.5, 89.0, 20.0 ],
									"text" : "video tutorials :"
								}

							}
, 							{
								"box" : 								{
									"bgcolor" : [ 0.290196, 0.309804, 0.301961, 0.0 ],
									"fontface" : 0,
									"id" : "obj-46",
									"maxclass" : "textbutton",
									"numinlets" : 1,
									"numoutlets" : 3,
									"outlettype" : [ "", "", "int" ],
									"parameter_enable" : 0,
									"patching_rect" : [ 402.5, 703.0, 311.0, 18.5 ],
									"text" : "https://ircam-ismm.github.io/max-msp/mubu.html",
									"textoncolor" : [ 0.011765, 0.396078, 0.752941, 1.0 ],
									"textovercolor" : [ 0.317647, 0.654902, 0.976471, 1.0 ]
								}

							}
, 							{
								"box" : 								{
									"hidden" : 1,
									"id" : "obj-57",
									"linecount" : 3,
									"maxclass" : "message",
									"numinlets" : 2,
									"numoutlets" : 1,
									"outlettype" : [ "" ],
									"patching_rect" : [ 649.875, 672.0, 267.0, 49.0 ],
									"text" : ";\rmax launchbrowser https://ircam-ismm.github.io/max-msp/mubu.html"
								}

							}
, 							{
								"box" : 								{
									"fontface" : 0,
									"id" : "obj-67",
									"maxclass" : "comment",
									"numinlets" : 1,
									"numoutlets" : 0,
									"patching_rect" : [ 203.5, 702.0, 401.0, 20.0 ],
									"text" : "developed at IRCAM by the ISMM team :"
								}

							}
, 							{
								"box" : 								{
									"bubble" : 1,
									"fontface" : 0,
									"fontname" : "Arial",
									"id" : "obj-36",
									"linecount" : 2,
									"maxclass" : "comment",
									"numinlets" : 1,
									"numoutlets" : 0,
									"patching_rect" : [ 169.0, 178.625, 217.0, 37.0 ],
									"text" : "CataRT-style synthesis on principal components of MFCC spectrum"
								}

							}
, 							{
								"box" : 								{
									"fontface" : 0,
									"id" : "obj-37",
									"maxclass" : "message",
									"numinlets" : 2,
									"numoutlets" : 1,
									"outlettype" : [ "" ],
									"patching_rect" : [ 16.0, 184.5, 129.0, 22.0 ],
									"text" : "catart-mubu-mfcc"
								}

							}
, 							{
								"box" : 								{
									"hidden" : 1,
									"id" : "obj-3",
									"maxclass" : "newobj",
									"numinlets" : 1,
									"numoutlets" : 1,
									"outlettype" : [ "" ],
									"patching_rect" : [ 64.0, 665.0, 106.0, 22.0 ],
									"text" : "sprintf %s.maxpat"
								}

							}
, 							{
								"box" : 								{
									"bubble" : 1,
									"fontface" : 0,
									"fontname" : "Arial",
									"id" : "obj-13",
									"linecount" : 2,
									"maxclass" : "comment",
									"numinlets" : 1,
									"numoutlets" : 0,
									"patching_rect" : [ 169.0, 142.0, 232.0, 37.0 ],
									"text" : "interactive corpus-based concatenative synthesis"
								}

							}
, 							{
								"box" : 								{
									"fontface" : 3,
									"fontsize" : 24.0,
									"id" : "obj-64",
									"maxclass" : "comment",
									"numinlets" : 1,
									"numoutlets" : 0,
									"patching_rect" : [ 16.0, 59.0, 351.0, 33.0 ],
									"text" : "fully working CataRT patches "
								}

							}
, 							{
								"box" : 								{
									"fontface" : 0,
									"id" : "obj-4",
									"maxclass" : "message",
									"numinlets" : 2,
									"numoutlets" : 1,
									"outlettype" : [ "" ],
									"patching_rect" : [ 16.0, 149.5, 129.0, 22.0 ],
									"text" : "catart-mubu-simple"
								}

							}
, 							{
								"box" : 								{
									"hidden" : 1,
									"id" : "obj-2",
									"maxclass" : "newobj",
									"numinlets" : 1,
									"numoutlets" : 1,
									"outlettype" : [ "" ],
									"patching_rect" : [ 35.0, 702.0, 117.0, 22.0 ],
									"text" : "prepend loadunique"
								}

							}
, 							{
								"box" : 								{
									"hidden" : 1,
									"id" : "obj-1",
									"maxclass" : "newobj",
									"numinlets" : 1,
									"numoutlets" : 1,
									"outlettype" : [ "" ],
									"patching_rect" : [ 35.0, 733.5, 53.0, 22.0 ],
									"text" : "pcontrol"
								}

							}
, 							{
								"box" : 								{
									"background" : 1,
									"fontface" : 3,
									"fontname" : "Arial",
									"fontsize" : 36.0,
									"id" : "obj-21",
									"maxclass" : "comment",
									"numinlets" : 1,
									"numoutlets" : 0,
									"patching_rect" : [ 16.0, 12.0, 387.0, 47.0 ],
									"text" : "catart-mubu Overview",
									"varname" : "HelpTitle"
								}

							}
 ],
						"lines" : [ 							{
								"patchline" : 								{
									"destination" : [ "obj-1", 0 ],
									"hidden" : 1,
									"source" : [ "obj-2", 0 ]
								}

							}
, 							{
								"patchline" : 								{
									"destination" : [ "obj-2", 0 ],
									"hidden" : 1,
									"midpoints" : [ 73.5, 693.75, 44.5, 693.75 ],
									"source" : [ "obj-3", 0 ]
								}

							}
, 							{
								"patchline" : 								{
									"destination" : [ "obj-33", 0 ],
									"hidden" : 1,
									"source" : [ "obj-31", 0 ]
								}

							}
, 							{
								"patchline" : 								{
									"destination" : [ "obj-2", 0 ],
									"hidden" : 1,
									"midpoints" : [ 25.5, 312.0, 3.0, 312.0, 3.0, 687.0, 44.5, 687.0 ],
									"source" : [ "obj-37", 0 ]
								}

							}
, 							{
								"patchline" : 								{
									"destination" : [ "obj-2", 0 ],
									"hidden" : 1,
									"midpoints" : [ 25.5, 174.0, 3.0, 174.0, 3.0, 687.0, 44.5, 687.0 ],
									"source" : [ "obj-4", 0 ]
								}

							}
, 							{
								"patchline" : 								{
									"destination" : [ "obj-57", 0 ],
									"hidden" : 1,
									"source" : [ "obj-46", 0 ]
								}

							}
, 							{
								"patchline" : 								{
									"destination" : [ "obj-66", 0 ],
									"hidden" : 1,
									"source" : [ "obj-63", 0 ]
								}

							}
, 							{
								"patchline" : 								{
									"destination" : [ "obj-2", 0 ],
									"hidden" : 1,
									"midpoints" : [ 25.5, 375.0, 3.0, 375.0, 3.0, 687.0, 44.5, 687.0 ],
									"source" : [ "obj-72", 0 ]
								}

							}
, 							{
								"patchline" : 								{
									"destination" : [ "obj-2", 0 ],
									"hidden" : 1,
									"midpoints" : [ 25.5, 459.0, 3.0, 459.0, 3.0, 687.0, 44.5, 687.0 ],
									"source" : [ "obj-73", 0 ]
								}

							}
, 							{
								"patchline" : 								{
									"destination" : [ "obj-2", 0 ],
									"hidden" : 1,
									"midpoints" : [ 25.5, 687.0, 44.5, 687.0 ],
									"source" : [ "obj-75", 0 ]
								}

							}
 ],
						"bgcolor" : [ 0.898, 0.898, 0.898, 1.0 ],
						"editing_bgcolor" : [ 0.898, 0.898, 0.898, 1.0 ]
					}
,
					"patching_rect" : [ 115.0, 130.0, 72.0, 22.0 ],
					"saved_object_attributes" : 					{
						"description" : "",
						"digest" : "",
						"editing_bgcolor" : [ 0.898, 0.898, 0.898, 1.0 ],
						"fontface" : 2,
						"globalpatchername" : "",
						"locked_bgcolor" : [ 0.898, 0.898, 0.898, 1.0 ],
						"tags" : ""
					}
,
					"text" : "p patches",
					"varname" : "basic_tab[2]"
				}

			}
, 			{
				"box" : 				{
					"id" : "obj-4",
					"maxclass" : "newobj",
					"numinlets" : 0,
					"numoutlets" : 0,
					"patcher" : 					{
						"fileversion" : 1,
						"appversion" : 						{
							"major" : 8,
							"minor" : 3,
							"revision" : 1,
							"architecture" : "x64",
							"modernui" : 1
						}
,
						"classnamespace" : "box",
						"rect" : [ 147.0, 105.0, 1080.0, 920.0 ],
						"bglocked" : 0,
						"openinpresentation" : 0,
						"default_fontsize" : 12.0,
						"default_fontface" : 0,
						"default_fontname" : "Arial",
						"gridonopen" : 1,
						"gridsize" : [ 5.0, 5.0 ],
						"gridsnaponopen" : 1,
						"objectsnaponopen" : 1,
						"statusbarvisible" : 2,
						"toolbarvisible" : 1,
						"lefttoolbarpinned" : 0,
						"toptoolbarpinned" : 0,
						"righttoolbarpinned" : 0,
						"bottomtoolbarpinned" : 0,
						"toolbars_unpinned_last_save" : 0,
						"tallnewobj" : 0,
						"boxanimatetime" : 200,
						"enablehscroll" : 1,
						"enablevscroll" : 1,
						"devicewidth" : 0.0,
						"description" : "",
						"digest" : "",
						"tags" : "",
						"style" : "",
						"subpatcher_template" : "",
						"showontab" : 1,
						"assistshowspatchername" : 0,
						"boxes" : [ 							{
								"box" : 								{
									"hidden" : 1,
									"id" : "obj-24",
									"maxclass" : "newobj",
									"numinlets" : 1,
									"numoutlets" : 1,
									"outlettype" : [ "" ],
									"patching_rect" : [ 26.125, 692.5, 117.0, 22.0 ],
									"text" : "prepend loadunique"
								}

							}
, 							{
								"box" : 								{
									"hidden" : 1,
									"id" : "obj-66",
									"linecount" : 3,
									"maxclass" : "message",
									"numinlets" : 2,
									"numoutlets" : 1,
									"outlettype" : [ "" ],
									"patching_rect" : [ 656.0, 695.5, 233.0, 49.0 ],
									"text" : ";\rmax launchbrowser https://forum.ircam.fr/projects/detail/mubu/"
								}

							}
, 							{
								"box" : 								{
									"bgcolor" : [ 0.290196, 0.309804, 0.301961, 0.0 ],
									"id" : "obj-63",
									"maxclass" : "textbutton",
									"numinlets" : 1,
									"numoutlets" : 3,
									"outlettype" : [ "", "", "int" ],
									"parameter_enable" : 0,
									"patching_rect" : [ 349.0, 724.5, 289.0, 15.0 ],
									"text" : "https://forum.ircam.fr/projects/detail/mubu/",
									"textoncolor" : [ 0.011765, 0.396078, 0.752941, 1.0 ],
									"textovercolor" : [ 0.317647, 0.654902, 0.976471, 1.0 ]
								}

							}
, 							{
								"box" : 								{
									"id" : "obj-65",
									"maxclass" : "comment",
									"numinlets" : 1,
									"numoutlets" : 0,
									"patching_rect" : [ 282.5, 722.0, 99.0, 20.0 ],
									"text" : "@ Ircam Forum :"
								}

							}
, 							{
								"box" : 								{
									"bgcolor" : [ 0.290196, 0.309804, 0.301961, 0.0 ],
									"id" : "obj-23",
									"maxclass" : "textbutton",
									"numinlets" : 1,
									"numoutlets" : 3,
									"outlettype" : [ "", "", "int" ],
									"parameter_enable" : 0,
									"patching_rect" : [ 350.0, 745.5, 289.0, 15.0 ],
									"text" : " https://forum.ircam.fr/article/detail/tutoriels-mubu/",
									"textoncolor" : [ 0.011765, 0.396078, 0.752941, 1.0 ],
									"textovercolor" : [ 0.317647, 0.654902, 0.976471, 1.0 ]
								}

							}
, 							{
								"box" : 								{
									"hidden" : 1,
									"id" : "obj-53",
									"linecount" : 3,
									"maxclass" : "message",
									"numinlets" : 2,
									"numoutlets" : 1,
									"outlettype" : [ "" ],
									"patching_rect" : [ 647.5, 723.5, 269.0, 49.0 ],
									"text" : ";\rmax launchbrowser https://forum.ircam.fr/article/detail/tutoriels-mubu/"
								}

							}
, 							{
								"box" : 								{
									"id" : "obj-61",
									"maxclass" : "comment",
									"numinlets" : 1,
									"numoutlets" : 0,
									"patching_rect" : [ 271.5, 743.5, 89.0, 20.0 ],
									"text" : "video tutorials :"
								}

							}
, 							{
								"box" : 								{
									"bgcolor" : [ 0.290196, 0.309804, 0.301961, 0.0 ],
									"id" : "obj-38",
									"maxclass" : "textbutton",
									"numinlets" : 1,
									"numoutlets" : 3,
									"outlettype" : [ "", "", "int" ],
									"parameter_enable" : 0,
									"patching_rect" : [ 417.5, 703.0, 311.0, 18.5 ],
									"text" : "https://ircam-ismm.github.io/max-msp/mubu.html",
									"textoncolor" : [ 0.011765, 0.396078, 0.752941, 1.0 ],
									"textovercolor" : [ 0.317647, 0.654902, 0.976471, 1.0 ]
								}

							}
, 							{
								"box" : 								{
									"hidden" : 1,
									"id" : "obj-33",
									"linecount" : 3,
									"maxclass" : "message",
									"numinlets" : 2,
									"numoutlets" : 1,
									"outlettype" : [ "" ],
									"patching_rect" : [ 664.875, 672.0, 267.0, 49.0 ],
									"text" : ";\rmax launchbrowser https://ircam-ismm.github.io/max-msp/mubu.html"
								}

							}
, 							{
								"box" : 								{
									"id" : "obj-31",
									"maxclass" : "comment",
									"numinlets" : 1,
									"numoutlets" : 0,
									"patching_rect" : [ 218.5, 702.0, 401.0, 20.0 ],
									"text" : "developed at IRCAM by the ISMM team :"
								}

							}
, 							{
								"box" : 								{
									"bubble" : 1,
									"fontsize" : 12.0,
									"id" : "obj-22",
									"maxclass" : "comment",
									"numinlets" : 1,
									"numoutlets" : 0,
									"patching_rect" : [ 329.0, 240.125, 350.0, 24.0 ],
									"text" : "Creating and using markers track for concatenative synthesis"
								}

							}
, 							{
								"box" : 								{
									"bubble" : 1,
									"fontsize" : 12.0,
									"id" : "obj-19",
									"maxclass" : "comment",
									"numinlets" : 1,
									"numoutlets" : 0,
									"patching_rect" : [ 329.0, 206.125, 434.0, 24.0 ],
									"text" : "Creating and using bpf track to control filter frequency of a granular synthesis"
								}

							}
, 							{
								"box" : 								{
									"bubble" : 1,
									"fontsize" : 12.0,
									"id" : "obj-18",
									"maxclass" : "comment",
									"numinlets" : 1,
									"numoutlets" : 0,
									"patching_rect" : [ 329.0, 172.125, 342.0, 24.0 ],
									"text" : "Creating and using bpf tracks to control simple fm synthesis"
								}

							}
, 							{
								"box" : 								{
									"bubble" : 1,
									"fontsize" : 12.0,
									"id" : "obj-17",
									"maxclass" : "comment",
									"numinlets" : 1,
									"numoutlets" : 0,
									"patching_rect" : [ 329.0, 138.125, 309.0, 24.0 ],
									"text" : "How to create a bpf track, insert data and read from it"
								}

							}
, 							{
								"box" : 								{
									"bubbleside" : 2,
									"fontface" : 1,
									"fontname" : "Arial",
									"fontsize" : 14.0,
									"id" : "obj-16",
									"maxclass" : "comment",
									"numinlets" : 1,
									"numoutlets" : 0,
									"patching_rect" : [ 26.125, 366.125, 95.0, 22.0 ],
									"text" : "To go further"
								}

							}
, 							{
								"box" : 								{
									"bubbleside" : 2,
									"fontface" : 1,
									"fontname" : "Arial",
									"fontsize" : 14.0,
									"id" : "obj-15",
									"maxclass" : "comment",
									"numinlets" : 1,
									"numoutlets" : 0,
									"patching_rect" : [ 26.125, 109.125, 186.0, 22.0 ],
									"text" : "Incremental basic tutorials"
								}

							}
, 							{
								"box" : 								{
									"fontsize" : 12.0,
									"id" : "obj-14",
									"maxclass" : "message",
									"numinlets" : 2,
									"numoutlets" : 1,
									"outlettype" : [ "" ],
									"patching_rect" : [ 41.125, 243.125, 288.0, 22.0 ],
									"text" : "catart-mubu-tutorial 1d random"
								}

							}
, 							{
								"box" : 								{
									"fontsize" : 12.0,
									"id" : "obj-12",
									"maxclass" : "message",
									"numinlets" : 2,
									"numoutlets" : 1,
									"outlettype" : [ "" ],
									"patching_rect" : [ 41.125, 208.125, 287.0, 22.0 ],
									"text" : "catart-mubu-tutorial 1c cont trigger mode"
								}

							}
, 							{
								"box" : 								{
									"fontsize" : 12.0,
									"id" : "obj-11",
									"maxclass" : "message",
									"numinlets" : 2,
									"numoutlets" : 1,
									"outlettype" : [ "" ],
									"patching_rect" : [ 41.125, 174.125, 288.0, 22.0 ],
									"text" : "catart-mubu-tutorial 1b simple trigger modes"
								}

							}
, 							{
								"box" : 								{
									"fontsize" : 12.0,
									"id" : "obj-8",
									"maxclass" : "message",
									"numinlets" : 2,
									"numoutlets" : 1,
									"outlettype" : [ "" ],
									"patching_rect" : [ 41.125, 139.125, 288.0, 22.0 ],
									"text" : "catart-mubu-tutorial 1a selection"
								}

							}
, 							{
								"box" : 								{
									"bubble" : 1,
									"fontsize" : 12.0,
									"id" : "obj-3",
									"maxclass" : "comment",
									"numinlets" : 1,
									"numoutlets" : 0,
									"patching_rect" : [ 328.0, 503.5, 255.0, 24.0 ],
									"text" : "audio mosaicing step by step"
								}

							}
, 							{
								"box" : 								{
									"bubble" : 1,
									"fontsize" : 12.0,
									"id" : "obj-10",
									"maxclass" : "comment",
									"numinlets" : 1,
									"numoutlets" : 0,
									"patching_rect" : [ 328.0, 469.5, 255.0, 24.0 ],
									"text" : "using imubu's scatterplot view"
								}

							}
, 							{
								"box" : 								{
									"bubble" : 1,
									"fontsize" : 12.0,
									"id" : "obj-9",
									"maxclass" : "comment",
									"numinlets" : 1,
									"numoutlets" : 0,
									"patching_rect" : [ 328.0, 435.5, 252.0, 24.0 ],
									"text" : "segmenting audio files with mubu and pipo"
								}

							}
, 							{
								"box" : 								{
									"bubble" : 1,
									"fontsize" : 12.0,
									"id" : "obj-13",
									"maxclass" : "comment",
									"numinlets" : 1,
									"numoutlets" : 0,
									"patching_rect" : [ 329.0, 401.5, 253.0, 24.0 ],
									"text" : "recording and playing audio with mubu"
								}

							}
, 							{
								"box" : 								{
									"fontface" : 3,
									"fontsize" : 24.0,
									"id" : "obj-64",
									"maxclass" : "comment",
									"numinlets" : 1,
									"numoutlets" : 0,
									"patching_rect" : [ 50.5, 54.0, 799.0, 33.0 ],
									"text" : "step-by-step tutorials to learn how to build or adapt your own CataRT"
								}

							}
, 							{
								"box" : 								{
									"fontsize" : 12.0,
									"id" : "obj-35",
									"maxclass" : "message",
									"numinlets" : 2,
									"numoutlets" : 1,
									"outlettype" : [ "" ],
									"patching_rect" : [ 37.125, 504.5, 290.0, 22.0 ],
									"text" : "catart-mubu-tutorial 10 import external descriptors"
								}

							}
, 							{
								"box" : 								{
									"fontsize" : 12.0,
									"id" : "obj-7",
									"maxclass" : "message",
									"numinlets" : 2,
									"numoutlets" : 1,
									"outlettype" : [ "" ],
									"patching_rect" : [ 37.125, 470.5, 291.0, 22.0 ],
									"text" : "catart-mubu-tutorial 9 transcription"
								}

							}
, 							{
								"box" : 								{
									"fontsize" : 12.0,
									"id" : "obj-20",
									"maxclass" : "message",
									"numinlets" : 2,
									"numoutlets" : 1,
									"outlettype" : [ "" ],
									"patching_rect" : [ 37.125, 402.5, 291.0, 22.0 ],
									"text" : "catart-mubu-tutorial 7 key mixer"
								}

							}
, 							{
								"box" : 								{
									"fontsize" : 12.0,
									"id" : "obj-70",
									"maxclass" : "message",
									"numinlets" : 2,
									"numoutlets" : 1,
									"outlettype" : [ "" ],
									"patching_rect" : [ 37.125, 436.5, 290.0, 22.0 ],
									"text" : "catart-mubu-tutorial 8 targeted transposition"
								}

							}
, 							{
								"box" : 								{
									"hidden" : 1,
									"id" : "obj-2",
									"maxclass" : "newobj",
									"numinlets" : 1,
									"numoutlets" : 1,
									"outlettype" : [ "" ],
									"patching_rect" : [ 26.125, 661.5, 57.0, 22.0 ],
									"text" : "tosymbol"
								}

							}
, 							{
								"box" : 								{
									"hidden" : 1,
									"id" : "obj-1",
									"maxclass" : "newobj",
									"numinlets" : 1,
									"numoutlets" : 1,
									"outlettype" : [ "" ],
									"patching_rect" : [ 26.125, 722.0, 53.0, 22.0 ],
									"text" : "pcontrol"
								}

							}
, 							{
								"box" : 								{
									"background" : 1,
									"fontface" : 3,
									"fontname" : "Arial",
									"fontsize" : 36.0,
									"id" : "obj-21",
									"maxclass" : "comment",
									"numinlets" : 1,
									"numoutlets" : 0,
									"patching_rect" : [ 16.0, 12.0, 387.0, 47.0 ],
									"text" : "catart-mubu Overview",
									"varname" : "HelpTitle"
								}

							}
, 							{
								"box" : 								{
									"angle" : 270.0,
									"background" : 1,
									"bgcolor" : [ 1.0, 1.0, 1.0, 0.0 ],
									"border" : 1,
									"bordercolor" : [ 0.65098, 0.666667, 0.662745, 1.0 ],
									"id" : "obj-55",
									"maxclass" : "panel",
									"mode" : 0,
									"numinlets" : 1,
									"numoutlets" : 0,
									"patching_rect" : [ 26.125, 564.25, 866.0, 224.25 ],
									"proportion" : 0.39
								}

							}
 ],
						"lines" : [ 							{
								"patchline" : 								{
									"destination" : [ "obj-2", 0 ],
									"hidden" : 1,
									"midpoints" : [ 50.625, 660.5, 35.625, 660.5 ],
									"source" : [ "obj-11", 0 ]
								}

							}
, 							{
								"patchline" : 								{
									"destination" : [ "obj-2", 0 ],
									"hidden" : 1,
									"midpoints" : [ 50.625, 660.5, 35.625, 660.5 ],
									"source" : [ "obj-12", 0 ]
								}

							}
, 							{
								"patchline" : 								{
									"destination" : [ "obj-2", 0 ],
									"hidden" : 1,
									"midpoints" : [ 50.625, 661.0, 35.625, 661.0 ],
									"source" : [ "obj-14", 0 ]
								}

							}
, 							{
								"patchline" : 								{
									"destination" : [ "obj-24", 0 ],
									"source" : [ "obj-2", 0 ]
								}

							}
, 							{
								"patchline" : 								{
									"destination" : [ "obj-2", 0 ],
									"hidden" : 1,
									"midpoints" : [ 46.625, 661.5, 35.625, 661.5 ],
									"source" : [ "obj-20", 0 ]
								}

							}
, 							{
								"patchline" : 								{
									"destination" : [ "obj-53", 0 ],
									"hidden" : 1,
									"source" : [ "obj-23", 0 ]
								}

							}
, 							{
								"patchline" : 								{
									"destination" : [ "obj-1", 0 ],
									"source" : [ "obj-24", 0 ]
								}

							}
, 							{
								"patchline" : 								{
									"destination" : [ "obj-2", 0 ],
									"hidden" : 1,
									"midpoints" : [ 46.625, 660.5, 35.625, 660.5 ],
									"source" : [ "obj-35", 0 ]
								}

							}
, 							{
								"patchline" : 								{
									"destination" : [ "obj-33", 0 ],
									"hidden" : 1,
									"source" : [ "obj-38", 0 ]
								}

							}
, 							{
								"patchline" : 								{
									"destination" : [ "obj-66", 0 ],
									"hidden" : 1,
									"source" : [ "obj-63", 0 ]
								}

							}
, 							{
								"patchline" : 								{
									"destination" : [ "obj-2", 0 ],
									"hidden" : 1,
									"midpoints" : [ 46.625, 661.0, 35.625, 661.0 ],
									"source" : [ "obj-7", 0 ]
								}

							}
, 							{
								"patchline" : 								{
									"destination" : [ "obj-2", 0 ],
									"hidden" : 1,
									"midpoints" : [ 46.625, 660.5, 35.625, 660.5 ],
									"source" : [ "obj-70", 0 ]
								}

							}
, 							{
								"patchline" : 								{
									"destination" : [ "obj-2", 0 ],
									"hidden" : 1,
									"midpoints" : [ 50.625, 660.0, 35.625, 660.0 ],
									"source" : [ "obj-8", 0 ]
								}

							}
 ],
						"bgcolor" : [ 0.898, 0.898, 0.898, 1.0 ],
						"editing_bgcolor" : [ 0.898, 0.898, 0.898, 1.0 ]
					}
,
					"patching_rect" : [ 266.0, 212.0, 63.0, 22.0 ],
					"saved_object_attributes" : 					{
						"description" : "",
						"digest" : "",
						"editing_bgcolor" : [ 0.898, 0.898, 0.898, 1.0 ],
						"globalpatchername" : "",
						"locked_bgcolor" : [ 0.898, 0.898, 0.898, 1.0 ],
						"tags" : ""
					}
,
					"text" : "p tutorials",
					"varname" : "basic_tab[1]"
				}

			}
, 			{
				"box" : 				{
					"background" : 1,
					"fontface" : 3,
					"fontname" : "Arial",
					"fontsize" : 36.0,
					"id" : "obj-21",
					"maxclass" : "comment",
					"numinlets" : 1,
					"numoutlets" : 0,
					"patching_rect" : [ 16.0, 12.0, 457.0, 47.0 ],
					"text" : "MuBu & Friends Overview",
					"varname" : "HelpTitle"
				}

			}
, 			{
				"box" : 				{
					"id" : "obj-1",
					"maxclass" : "newobj",
					"numinlets" : 0,
					"numoutlets" : 0,
					"patcher" : 					{
						"fileversion" : 1,
						"appversion" : 						{
							"major" : 8,
							"minor" : 3,
							"revision" : 1,
							"architecture" : "x64",
							"modernui" : 1
						}
,
						"classnamespace" : "box",
						"rect" : [ 0.0, 26.0, 1080.0, 920.0 ],
						"bglocked" : 0,
						"openinpresentation" : 0,
						"default_fontsize" : 12.0,
						"default_fontface" : 0,
						"default_fontname" : "Arial",
						"gridonopen" : 1,
						"gridsize" : [ 5.0, 5.0 ],
						"gridsnaponopen" : 1,
						"objectsnaponopen" : 1,
						"statusbarvisible" : 2,
						"toolbarvisible" : 1,
						"lefttoolbarpinned" : 0,
						"toptoolbarpinned" : 0,
						"righttoolbarpinned" : 0,
						"bottomtoolbarpinned" : 0,
						"toolbars_unpinned_last_save" : 0,
						"tallnewobj" : 0,
						"boxanimatetime" : 200,
						"enablehscroll" : 1,
						"enablevscroll" : 1,
						"devicewidth" : 0.0,
						"description" : "",
						"digest" : "",
						"tags" : "",
						"style" : "",
						"subpatcher_template" : "",
						"showontab" : 1,
						"assistshowspatchername" : 0,
						"boxes" : [ 							{
								"box" : 								{
									"bubble" : 1,
									"id" : "obj-6",
									"maxclass" : "comment",
									"numinlets" : 1,
									"numoutlets" : 0,
									"patching_rect" : [ 141.0, 528.0, 164.0, 24.0 ],
									"text" : "mubu javascript support"
								}

							}
, 							{
								"box" : 								{
									"id" : "obj-12",
									"maxclass" : "message",
									"numinlets" : 2,
									"numoutlets" : 1,
									"outlettype" : [ "" ],
									"patching_rect" : [ 43.5, 528.5, 96.0, 22.0 ],
									"text" : "csmu.select"
								}

							}
, 							{
								"box" : 								{
									"id" : "obj-39",
									"maxclass" : "comment",
									"numinlets" : 1,
									"numoutlets" : 0,
									"patching_rect" : [ 443.25, 453.5, 173.0, 20.0 ],
									"text" : "interface to external controllers"
								}

							}
, 							{
								"box" : 								{
									"id" : "obj-36",
									"linecount" : 2,
									"maxclass" : "comment",
									"numinlets" : 1,
									"numoutlets" : 0,
									"patching_rect" : [ 37.0, 443.0, 292.0, 33.0 ],
									"text" : "(some come with a gui and can go into a bpatcher or be opened with double click)"
								}

							}
, 							{
								"box" : 								{
									"id" : "obj-30",
									"maxclass" : "comment",
									"numinlets" : 1,
									"numoutlets" : 0,
									"patching_rect" : [ 294.5, 54.0, 283.0, 20.0 ],
									"text" : "these are best seen in context in one of the tutorials"
								}

							}
, 							{
								"box" : 								{
									"id" : "obj-14",
									"maxclass" : "comment",
									"numinlets" : 1,
									"numoutlets" : 0,
									"patching_rect" : [ 129.5, 97.0, 126.0, 20.0 ],
									"text" : "(to go into a bpatcher)"
								}

							}
, 							{
								"box" : 								{
									"hidden" : 1,
									"id" : "obj-31",
									"linecount" : 3,
									"maxclass" : "message",
									"numinlets" : 2,
									"numoutlets" : 1,
									"outlettype" : [ "" ],
									"patching_rect" : [ 656.0, 695.5, 233.0, 49.0 ],
									"text" : ";\rmax launchbrowser https://forum.ircam.fr/projects/detail/mubu/"
								}

							}
, 							{
								"box" : 								{
									"bgcolor" : [ 0.290196, 0.309804, 0.301961, 0.0 ],
									"id" : "obj-33",
									"maxclass" : "textbutton",
									"numinlets" : 1,
									"numoutlets" : 3,
									"outlettype" : [ "", "", "int" ],
									"parameter_enable" : 0,
									"patching_rect" : [ 349.0, 724.5, 289.0, 15.0 ],
									"text" : "https://forum.ircam.fr/projects/detail/mubu/",
									"textoncolor" : [ 0.011765, 0.396078, 0.752941, 1.0 ],
									"textovercolor" : [ 0.317647, 0.654902, 0.976471, 1.0 ]
								}

							}
, 							{
								"box" : 								{
									"id" : "obj-38",
									"maxclass" : "comment",
									"numinlets" : 1,
									"numoutlets" : 0,
									"patching_rect" : [ 282.5, 722.0, 99.0, 20.0 ],
									"text" : "@ Ircam Forum :"
								}

							}
, 							{
								"box" : 								{
									"bgcolor" : [ 0.290196, 0.309804, 0.301961, 0.0 ],
									"id" : "obj-70",
									"maxclass" : "textbutton",
									"numinlets" : 1,
									"numoutlets" : 3,
									"outlettype" : [ "", "", "int" ],
									"parameter_enable" : 0,
									"patching_rect" : [ 350.0, 745.5, 289.0, 15.0 ],
									"text" : " https://forum.ircam.fr/article/detail/tutoriels-mubu/",
									"textoncolor" : [ 0.011765, 0.396078, 0.752941, 1.0 ],
									"textovercolor" : [ 0.317647, 0.654902, 0.976471, 1.0 ]
								}

							}
, 							{
								"box" : 								{
									"hidden" : 1,
									"id" : "obj-73",
									"linecount" : 3,
									"maxclass" : "message",
									"numinlets" : 2,
									"numoutlets" : 1,
									"outlettype" : [ "" ],
									"patching_rect" : [ 647.5, 723.5, 269.0, 49.0 ],
									"text" : ";\rmax launchbrowser https://forum.ircam.fr/article/detail/tutoriels-mubu/"
								}

							}
, 							{
								"box" : 								{
									"id" : "obj-75",
									"maxclass" : "comment",
									"numinlets" : 1,
									"numoutlets" : 0,
									"patching_rect" : [ 271.5, 743.5, 89.0, 20.0 ],
									"text" : "video tutorials :"
								}

							}
, 							{
								"box" : 								{
									"bgcolor" : [ 0.290196, 0.309804, 0.301961, 0.0 ],
									"id" : "obj-76",
									"maxclass" : "textbutton",
									"numinlets" : 1,
									"numoutlets" : 3,
									"outlettype" : [ "", "", "int" ],
									"parameter_enable" : 0,
									"patching_rect" : [ 417.5, 703.0, 311.0, 18.5 ],
									"text" : "https://ircam-ismm.github.io/max-msp/mubu.html",
									"textoncolor" : [ 0.011765, 0.396078, 0.752941, 1.0 ],
									"textovercolor" : [ 0.317647, 0.654902, 0.976471, 1.0 ]
								}

							}
, 							{
								"box" : 								{
									"hidden" : 1,
									"id" : "obj-77",
									"linecount" : 3,
									"maxclass" : "message",
									"numinlets" : 2,
									"numoutlets" : 1,
									"outlettype" : [ "" ],
									"patching_rect" : [ 664.875, 672.0, 267.0, 49.0 ],
									"text" : ";\rmax launchbrowser https://ircam-ismm.github.io/max-msp/mubu.html"
								}

							}
, 							{
								"box" : 								{
									"id" : "obj-78",
									"maxclass" : "comment",
									"numinlets" : 1,
									"numoutlets" : 0,
									"patching_rect" : [ 218.5, 702.0, 401.0, 20.0 ],
									"text" : "developed at IRCAM by the ISMM team :"
								}

							}
, 							{
								"box" : 								{
									"bubble" : 1,
									"fontface" : 0,
									"fontname" : "Arial",
									"fontsize" : 12.0,
									"id" : "obj-74",
									"maxclass" : "comment",
									"numinlets" : 1,
									"numoutlets" : 0,
									"patching_rect" : [ 732.5, 568.0, 182.0, 24.0 ],
									"text" : "reverse time scroll of vectors"
								}

							}
, 							{
								"box" : 								{
									"id" : "obj-72",
									"maxclass" : "message",
									"numinlets" : 2,
									"numoutlets" : 1,
									"outlettype" : [ "" ],
									"patching_rect" : [ 657.0, 569.0, 81.0, 22.0 ],
									"text" : "camu.autotag"
								}

							}
, 							{
								"box" : 								{
									"bubble" : 1,
									"id" : "obj-68",
									"linecount" : 2,
									"maxclass" : "comment",
									"numinlets" : 1,
									"numoutlets" : 0,
									"patching_rect" : [ 432.0, 184.5, 192.0, 37.0 ],
									"text" : "real-time gesture recognition with variations estimation"
								}

							}
, 							{
								"box" : 								{
									"id" : "obj-67",
									"maxclass" : "message",
									"numinlets" : 2,
									"numoutlets" : 1,
									"outlettype" : [ "" ],
									"patching_rect" : [ 342.25, 192.0, 58.0, 22.0 ],
									"text" : "mubu.gvf"
								}

							}
, 							{
								"box" : 								{
									"bubble" : 1,
									"id" : "obj-11",
									"maxclass" : "comment",
									"numinlets" : 1,
									"numoutlets" : 0,
									"patching_rect" : [ 141.0, 488.0, 164.0, 24.0 ],
									"text" : "mubu javascript support"
								}

							}
, 							{
								"box" : 								{
									"id" : "obj-9",
									"maxclass" : "message",
									"numinlets" : 2,
									"numoutlets" : 1,
									"outlettype" : [ "" ],
									"patching_rect" : [ 43.5, 488.5, 96.0, 22.0 ],
									"text" : "csmu.analysis"
								}

							}
, 							{
								"box" : 								{
									"bubble" : 1,
									"id" : "obj-4",
									"linecount" : 2,
									"maxclass" : "comment",
									"numinlets" : 1,
									"numoutlets" : 0,
									"patching_rect" : [ 742.375, 277.0, 165.0, 37.0 ],
									"text" : "mimo data processing and modeling host"
								}

							}
, 							{
								"box" : 								{
									"id" : "obj-5",
									"maxclass" : "message",
									"numinlets" : 2,
									"numoutlets" : 1,
									"outlettype" : [ "" ],
									"patching_rect" : [ 654.5, 284.5, 86.0, 22.0 ],
									"text" : "mubu.model"
								}

							}
, 							{
								"box" : 								{
									"bubble" : 1,
									"id" : "obj-2",
									"maxclass" : "comment",
									"numinlets" : 1,
									"numoutlets" : 0,
									"patching_rect" : [ 432.0, 534.5, 192.0, 24.0 ],
									"text" : "Dynamic time warping"
								}

							}
, 							{
								"box" : 								{
									"id" : "obj-1",
									"maxclass" : "message",
									"numinlets" : 2,
									"numoutlets" : 1,
									"outlettype" : [ "" ],
									"patching_rect" : [ 342.25, 536.0, 86.0, 22.0 ],
									"text" : "mubu.dtw"
								}

							}
, 							{
								"box" : 								{
									"bubble" : 1,
									"id" : "obj-53",
									"linecount" : 3,
									"maxclass" : "comment",
									"numinlets" : 1,
									"numoutlets" : 0,
									"patching_rect" : [ 432.0, 474.0, 195.0, 51.0 ],
									"text" : "Hierarchical Multimodal Hidden Markov Models for continuous recognition and mapping"
								}

							}
, 							{
								"box" : 								{
									"bubble" : 1,
									"id" : "obj-52",
									"linecount" : 3,
									"maxclass" : "comment",
									"numinlets" : 1,
									"numoutlets" : 0,
									"patching_rect" : [ 432.0, 390.0, 192.0, 51.0 ],
									"text" : "Hierarchical Hidden Markov Models for real-time continuous gesture recognition"
								}

							}
, 							{
								"box" : 								{
									"bubble" : 1,
									"id" : "obj-51",
									"linecount" : 2,
									"maxclass" : "comment",
									"numinlets" : 1,
									"numoutlets" : 0,
									"patching_rect" : [ 432.0, 338.5, 192.0, 37.0 ],
									"text" : "Gaussian Mixture Regression for motion-sound mapping"
								}

							}
, 							{
								"box" : 								{
									"bubble" : 1,
									"id" : "obj-49",
									"linecount" : 2,
									"maxclass" : "comment",
									"numinlets" : 1,
									"numoutlets" : 0,
									"patching_rect" : [ 432.0, 289.0, 192.0, 37.0 ],
									"text" : "Gaussian Mixture Models for real-time recognition"
								}

							}
, 							{
								"box" : 								{
									"bubble" : 1,
									"id" : "obj-48",
									"linecount" : 2,
									"maxclass" : "comment",
									"numinlets" : 1,
									"numoutlets" : 0,
									"patching_rect" : [ 432.0, 237.0, 192.0, 37.0 ],
									"text" : "k-NN unit selection based on a kD-tree algorithm"
								}

							}
, 							{
								"box" : 								{
									"bubble" : 1,
									"id" : "obj-44",
									"linecount" : 2,
									"maxclass" : "comment",
									"numinlets" : 1,
									"numoutlets" : 0,
									"patching_rect" : [ 432.0, 121.5, 192.0, 37.0 ],
									"text" : "real-time following and recognition of time profiles"
								}

							}
, 							{
								"box" : 								{
									"bubble" : 1,
									"id" : "obj-43",
									"linecount" : 2,
									"maxclass" : "comment",
									"numinlets" : 1,
									"numoutlets" : 0,
									"patching_rect" : [ 742.375, 168.5, 165.0, 37.0 ],
									"text" : "simple pipo host with list-input list-output"
								}

							}
, 							{
								"box" : 								{
									"bubble" : 1,
									"id" : "obj-42",
									"linecount" : 2,
									"maxclass" : "comment",
									"numinlets" : 1,
									"numoutlets" : 0,
									"patching_rect" : [ 743.0, 121.5, 165.0, 37.0 ],
									"text" : "simple pipo host with audio-input and list-output"
								}

							}
, 							{
								"box" : 								{
									"bubble" : 1,
									"id" : "obj-41",
									"linecount" : 2,
									"maxclass" : "comment",
									"numinlets" : 1,
									"numoutlets" : 0,
									"patching_rect" : [ 742.375, 226.5, 165.0, 37.0 ],
									"text" : "pipo host processing mubu tracks"
								}

							}
, 							{
								"box" : 								{
									"bubble" : 1,
									"id" : "obj-35",
									"maxclass" : "comment",
									"numinlets" : 1,
									"numoutlets" : 0,
									"patching_rect" : [ 140.0, 324.5, 164.0, 24.0 ],
									"text" : "mubu audio tracks player"
								}

							}
, 							{
								"box" : 								{
									"bubble" : 1,
									"id" : "obj-32",
									"maxclass" : "comment",
									"numinlets" : 1,
									"numoutlets" : 0,
									"patching_rect" : [ 140.0, 294.5, 164.0, 24.0 ],
									"text" : "mubu data tracks player"
								}

							}
, 							{
								"box" : 								{
									"bubble" : 1,
									"id" : "obj-23",
									"linecount" : 2,
									"maxclass" : "comment",
									"numinlets" : 1,
									"numoutlets" : 0,
									"patching_rect" : [ 140.0, 255.5, 164.0, 37.0 ],
									"text" : "records audio stream into a mubu track"
								}

							}
, 							{
								"box" : 								{
									"bubble" : 1,
									"id" : "obj-20",
									"linecount" : 2,
									"maxclass" : "comment",
									"numinlets" : 1,
									"numoutlets" : 0,
									"patching_rect" : [ 140.0, 218.0, 164.0, 37.0 ],
									"text" : "records data stream into a mubu track"
								}

							}
, 							{
								"box" : 								{
									"bubble" : 1,
									"id" : "obj-10",
									"maxclass" : "comment",
									"numinlets" : 1,
									"numoutlets" : 0,
									"patching_rect" : [ 140.0, 192.0, 164.0, 24.0 ],
									"text" : "mubu track reference"
								}

							}
, 							{
								"box" : 								{
									"bubble" : 1,
									"id" : "obj-8",
									"maxclass" : "comment",
									"numinlets" : 1,
									"numoutlets" : 0,
									"patching_rect" : [ 140.0, 162.0, 164.0, 24.0 ],
									"text" : "mubu with gui"
								}

							}
, 							{
								"box" : 								{
									"bubble" : 1,
									"id" : "obj-7",
									"linecount" : 2,
									"maxclass" : "comment",
									"numinlets" : 1,
									"numoutlets" : 0,
									"patching_rect" : [ 140.0, 121.5, 164.0, 37.0 ],
									"text" : "multibuffer container for sound and motion data"
								}

							}
, 							{
								"box" : 								{
									"id" : "obj-15",
									"maxclass" : "message",
									"numinlets" : 2,
									"numoutlets" : 1,
									"outlettype" : [ "" ],
									"patching_rect" : [ 43.5, 327.0, 96.0, 22.0 ],
									"text" : "mubu.play~"
								}

							}
, 							{
								"box" : 								{
									"id" : "obj-3",
									"maxclass" : "message",
									"numinlets" : 2,
									"numoutlets" : 1,
									"outlettype" : [ "" ],
									"patching_rect" : [ 342.25, 129.0, 113.0, 22.0 ],
									"text" : "camu.imubu.control"
								}

							}
, 							{
								"box" : 								{
									"id" : "obj-45",
									"maxclass" : "message",
									"numinlets" : 2,
									"numoutlets" : 1,
									"outlettype" : [ "" ],
									"patching_rect" : [ 342.25, 489.0, 115.0, 22.0 ],
									"text" : "camu.control.blocks"
								}

							}
, 							{
								"box" : 								{
									"id" : "obj-46",
									"maxclass" : "message",
									"numinlets" : 2,
									"numoutlets" : 1,
									"outlettype" : [ "" ],
									"patching_rect" : [ 342.25, 404.5, 86.0, 22.0 ],
									"text" : "mubu.hhmm"
								}

							}
, 							{
								"box" : 								{
									"id" : "obj-47",
									"maxclass" : "message",
									"numinlets" : 2,
									"numoutlets" : 1,
									"outlettype" : [ "" ],
									"patching_rect" : [ 342.25, 347.5, 86.0, 22.0 ],
									"text" : "mubu.gmr"
								}

							}
, 							{
								"box" : 								{
									"id" : "obj-50",
									"maxclass" : "message",
									"numinlets" : 2,
									"numoutlets" : 1,
									"outlettype" : [ "" ],
									"patching_rect" : [ 342.25, 296.5, 86.0, 22.0 ],
									"text" : "mubu.gmm"
								}

							}
, 							{
								"box" : 								{
									"id" : "obj-18",
									"maxclass" : "message",
									"numinlets" : 2,
									"numoutlets" : 1,
									"outlettype" : [ "" ],
									"patching_rect" : [ 342.25, 244.5, 86.0, 22.0 ],
									"text" : "mubu.knn"
								}

							}
, 							{
								"box" : 								{
									"id" : "obj-28",
									"maxclass" : "message",
									"numinlets" : 2,
									"numoutlets" : 1,
									"outlettype" : [ "" ],
									"patching_rect" : [ 654.5, 176.0, 86.0, 22.0 ],
									"text" : "camu.random"
								}

							}
, 							{
								"box" : 								{
									"id" : "obj-27",
									"maxclass" : "message",
									"numinlets" : 2,
									"numoutlets" : 1,
									"outlettype" : [ "" ],
									"patching_rect" : [ 654.5, 129.0, 91.0, 22.0 ],
									"text" : "camu.process.*"
								}

							}
, 							{
								"box" : 								{
									"id" : "obj-26",
									"maxclass" : "message",
									"numinlets" : 2,
									"numoutlets" : 1,
									"outlettype" : [ "" ],
									"patching_rect" : [ 654.5, 232.5, 86.0, 22.0 ],
									"text" : "mubu.process"
								}

							}
, 							{
								"box" : 								{
									"id" : "obj-25",
									"maxclass" : "message",
									"numinlets" : 2,
									"numoutlets" : 1,
									"outlettype" : [ "" ],
									"patching_rect" : [ 43.5, 294.0, 96.0, 22.0 ],
									"text" : "mubu.play"
								}

							}
, 							{
								"box" : 								{
									"id" : "obj-24",
									"maxclass" : "message",
									"numinlets" : 2,
									"numoutlets" : 1,
									"outlettype" : [ "" ],
									"patching_rect" : [ 43.5, 261.0, 96.0, 22.0 ],
									"text" : "mubu.record~"
								}

							}
, 							{
								"box" : 								{
									"id" : "obj-16",
									"maxclass" : "message",
									"numinlets" : 2,
									"numoutlets" : 1,
									"outlettype" : [ "" ],
									"patching_rect" : [ 43.5, 228.0, 96.0, 22.0 ],
									"text" : "mubu.record"
								}

							}
, 							{
								"box" : 								{
									"id" : "obj-22",
									"maxclass" : "message",
									"numinlets" : 2,
									"numoutlets" : 1,
									"outlettype" : [ "" ],
									"patching_rect" : [ 43.5, 195.0, 96.0, 22.0 ],
									"text" : "mubu.track"
								}

							}
, 							{
								"box" : 								{
									"id" : "obj-19",
									"maxclass" : "message",
									"numinlets" : 2,
									"numoutlets" : 1,
									"outlettype" : [ "" ],
									"patching_rect" : [ 43.5, 162.0, 96.0, 22.0 ],
									"text" : "imubu"
								}

							}
, 							{
								"box" : 								{
									"id" : "obj-17",
									"maxclass" : "message",
									"numinlets" : 2,
									"numoutlets" : 1,
									"outlettype" : [ "" ],
									"patching_rect" : [ 43.5, 129.0, 96.0, 22.0 ],
									"text" : "camu.menu"
								}

							}
, 							{
								"box" : 								{
									"fontface" : 3,
									"fontsize" : 24.0,
									"id" : "obj-64",
									"maxclass" : "comment",
									"numinlets" : 1,
									"numoutlets" : 0,
									"patching_rect" : [ 50.5, 54.0, 237.0, 33.0 ],
									"text" : "helpful abstractions"
								}

							}
, 							{
								"box" : 								{
									"hidden" : 1,
									"id" : "obj-58",
									"maxclass" : "newobj",
									"numinlets" : 1,
									"numoutlets" : 0,
									"patcher" : 									{
										"fileversion" : 1,
										"appversion" : 										{
											"major" : 8,
											"minor" : 3,
											"revision" : 1,
											"architecture" : "x64",
											"modernui" : 1
										}
,
										"classnamespace" : "box",
										"rect" : [ 1116.0, 565.0, 290.0, 244.0 ],
										"bglocked" : 0,
										"openinpresentation" : 0,
										"default_fontsize" : 12.0,
										"default_fontface" : 0,
										"default_fontname" : "Arial",
										"gridonopen" : 1,
										"gridsize" : [ 15.0, 15.0 ],
										"gridsnaponopen" : 1,
										"objectsnaponopen" : 1,
										"statusbarvisible" : 2,
										"toolbarvisible" : 1,
										"lefttoolbarpinned" : 0,
										"toptoolbarpinned" : 0,
										"righttoolbarpinned" : 0,
										"bottomtoolbarpinned" : 0,
										"toolbars_unpinned_last_save" : 0,
										"tallnewobj" : 0,
										"boxanimatetime" : 200,
										"enablehscroll" : 1,
										"enablevscroll" : 1,
										"devicewidth" : 0.0,
										"description" : "",
										"digest" : "",
										"tags" : "",
										"style" : "",
										"subpatcher_template" : "",
										"assistshowspatchername" : 0,
										"boxes" : [ 											{
												"box" : 												{
													"id" : "obj-14",
													"maxclass" : "newobj",
													"numinlets" : 1,
													"numoutlets" : 1,
													"outlettype" : [ "" ],
													"patching_rect" : [ 86.0, 171.0, 53.0, 22.0 ],
													"text" : "pcontrol"
												}

											}
, 											{
												"box" : 												{
													"id" : "obj-13",
													"maxclass" : "newobj",
													"numinlets" : 1,
													"numoutlets" : 1,
													"outlettype" : [ "" ],
													"patching_rect" : [ 86.0, 143.0, 117.0, 22.0 ],
													"text" : "prepend loadunique"
												}

											}
, 											{
												"box" : 												{
													"id" : "obj-3",
													"maxclass" : "newobj",
													"numinlets" : 1,
													"numoutlets" : 1,
													"outlettype" : [ "" ],
													"patching_rect" : [ 120.0, 115.0, 112.0, 22.0 ],
													"text" : "sprintf %s.maxhelp"
												}

											}
, 											{
												"box" : 												{
													"comment" : "",
													"id" : "obj-1",
													"index" : 1,
													"maxclass" : "inlet",
													"numinlets" : 0,
													"numoutlets" : 1,
													"outlettype" : [ "" ],
													"patching_rect" : [ 86.0, 70.0, 30.0, 30.0 ]
												}

											}
 ],
										"lines" : [ 											{
												"patchline" : 												{
													"destination" : [ "obj-13", 0 ],
													"source" : [ "obj-1", 0 ]
												}

											}
, 											{
												"patchline" : 												{
													"destination" : [ "obj-14", 0 ],
													"source" : [ "obj-13", 0 ]
												}

											}
 ]
									}
,
									"patching_rect" : [ 351.5, 607.734375, 91.0, 22.0 ],
									"saved_object_attributes" : 									{
										"description" : "",
										"digest" : "",
										"globalpatchername" : "",
										"tags" : ""
									}
,
									"text" : "p load-helpfiles"
								}

							}
, 							{
								"box" : 								{
									"hidden" : 1,
									"id" : "obj-34",
									"maxclass" : "newobj",
									"numinlets" : 1,
									"numoutlets" : 0,
									"patcher" : 									{
										"fileversion" : 1,
										"appversion" : 										{
											"major" : 8,
											"minor" : 3,
											"revision" : 1,
											"architecture" : "x64",
											"modernui" : 1
										}
,
										"classnamespace" : "box",
										"rect" : [ 84.0, 129.0, 640.0, 480.0 ],
										"bglocked" : 0,
										"openinpresentation" : 0,
										"default_fontsize" : 12.0,
										"default_fontface" : 0,
										"default_fontname" : "Arial",
										"gridonopen" : 1,
										"gridsize" : [ 15.0, 15.0 ],
										"gridsnaponopen" : 1,
										"objectsnaponopen" : 1,
										"statusbarvisible" : 2,
										"toolbarvisible" : 1,
										"lefttoolbarpinned" : 0,
										"toptoolbarpinned" : 0,
										"righttoolbarpinned" : 0,
										"bottomtoolbarpinned" : 0,
										"toolbars_unpinned_last_save" : 0,
										"tallnewobj" : 0,
										"boxanimatetime" : 200,
										"enablehscroll" : 1,
										"enablevscroll" : 1,
										"devicewidth" : 0.0,
										"description" : "",
										"digest" : "",
										"tags" : "",
										"style" : "",
										"subpatcher_template" : "",
										"assistshowspatchername" : 0,
										"boxes" : [ 											{
												"box" : 												{
													"comment" : "",
													"id" : "obj-30",
													"index" : 1,
													"maxclass" : "inlet",
													"numinlets" : 0,
													"numoutlets" : 1,
													"outlettype" : [ "" ],
													"patching_rect" : [ 241.0, 171.5, 30.0, 30.0 ]
												}

											}
, 											{
												"box" : 												{
													"id" : "obj-14",
													"maxclass" : "newobj",
													"numinlets" : 1,
													"numoutlets" : 1,
													"outlettype" : [ "" ],
													"patching_rect" : [ 241.0, 271.0, 53.0, 22.0 ],
													"text" : "pcontrol"
												}

											}
, 											{
												"box" : 												{
													"id" : "obj-13",
													"maxclass" : "newobj",
													"numinlets" : 1,
													"numoutlets" : 1,
													"outlettype" : [ "" ],
													"patching_rect" : [ 241.0, 243.0, 117.0, 22.0 ],
													"text" : "prepend loadunique"
												}

											}
, 											{
												"box" : 												{
													"id" : "obj-3",
													"maxclass" : "newobj",
													"numinlets" : 1,
													"numoutlets" : 1,
													"outlettype" : [ "" ],
													"patching_rect" : [ 241.0, 215.0, 112.0, 22.0 ],
													"text" : "sprintf %s.maxhelp"
												}

											}
 ],
										"lines" : [ 											{
												"patchline" : 												{
													"destination" : [ "obj-14", 0 ],
													"source" : [ "obj-13", 0 ]
												}

											}
, 											{
												"patchline" : 												{
													"destination" : [ "obj-13", 0 ],
													"source" : [ "obj-3", 0 ]
												}

											}
, 											{
												"patchline" : 												{
													"destination" : [ "obj-3", 0 ],
													"source" : [ "obj-30", 0 ]
												}

											}
 ]
									}
,
									"patching_rect" : [ 653.5, 623.734375, 70.0, 22.0 ],
									"saved_object_attributes" : 									{
										"description" : "",
										"digest" : "",
										"globalpatchername" : "",
										"tags" : ""
									}
,
									"text" : "p load-help"
								}

							}
, 							{
								"box" : 								{
									"background" : 1,
									"fontface" : 1,
									"fontsize" : 14.0,
									"id" : "obj-37",
									"maxclass" : "comment",
									"numinlets" : 1,
									"numoutlets" : 0,
									"patching_rect" : [ 337.25, 453.5, 104.0, 22.0 ],
									"text" : "input modules"
								}

							}
, 							{
								"box" : 								{
									"background" : 1,
									"fontface" : 1,
									"fontsize" : 14.0,
									"id" : "obj-29",
									"maxclass" : "comment",
									"numinlets" : 1,
									"numoutlets" : 0,
									"patching_rect" : [ 37.0, 419.0, 158.0, 22.0 ],
									"text" : "bigger building blocks"
								}

							}
, 							{
								"box" : 								{
									"background" : 1,
									"fontface" : 3,
									"fontname" : "Arial",
									"fontsize" : 36.0,
									"id" : "obj-21",
									"maxclass" : "comment",
									"numinlets" : 1,
									"numoutlets" : 0,
									"patching_rect" : [ 16.0, 12.0, 387.0, 47.0 ],
									"text" : "catart-mubu Overview",
									"varname" : "HelpTitle"
								}

							}
, 							{
								"box" : 								{
									"background" : 1,
									"bubbleside" : 2,
									"fontface" : 1,
									"fontsize" : 14.0,
									"id" : "obj-71",
									"maxclass" : "comment",
									"numinlets" : 1,
									"numoutlets" : 0,
									"patching_rect" : [ 649.5, 540.5, 135.0, 22.0 ],
									"text" : "advanced modules"
								}

							}
, 							{
								"box" : 								{
									"angle" : 270.0,
									"background" : 1,
									"bgcolor" : [ 1.0, 1.0, 1.0, 0.0 ],
									"border" : 1,
									"bordercolor" : [ 0.65098, 0.666667, 0.662745, 1.0 ],
									"id" : "obj-69",
									"maxclass" : "panel",
									"mode" : 0,
									"numinlets" : 1,
									"numoutlets" : 0,
									"patching_rect" : [ 40.375, 695.5, 275.0, 65.0 ],
									"proportion" : 0.39
								}

							}
, 							{
								"box" : 								{
									"background" : 1,
									"fontface" : 1,
									"fontsize" : 14.0,
									"id" : "obj-56",
									"maxclass" : "comment",
									"numinlets" : 1,
									"numoutlets" : 0,
									"patching_rect" : [ 654.5, 97.0, 198.875, 22.0 ],
									"text" : "inner workings"
								}

							}
, 							{
								"box" : 								{
									"background" : 1,
									"fontface" : 1,
									"fontsize" : 14.0,
									"id" : "obj-60",
									"maxclass" : "comment",
									"numinlets" : 1,
									"numoutlets" : 0,
									"patching_rect" : [ 337.25, 96.5, 138.0, 22.0 ],
									"text" : "helper abstractions"
								}

							}
, 							{
								"box" : 								{
									"background" : 1,
									"bubbleside" : 2,
									"fontface" : 1,
									"fontsize" : 14.0,
									"id" : "obj-59",
									"maxclass" : "comment",
									"numinlets" : 1,
									"numoutlets" : 0,
									"patching_rect" : [ 27.5, 97.0, 100.0, 22.0 ],
									"text" : "user interface"
								}

							}
 ],
						"lines" : [ 							{
								"patchline" : 								{
									"destination" : [ "obj-58", 0 ],
									"hidden" : 1,
									"midpoints" : [ 351.75, 590.867187999999942, 361.0, 590.867187999999942 ],
									"source" : [ "obj-1", 0 ]
								}

							}
, 							{
								"patchline" : 								{
									"destination" : [ "obj-58", 0 ],
									"source" : [ "obj-12", 0 ]
								}

							}
, 							{
								"patchline" : 								{
									"destination" : [ "obj-58", 0 ],
									"hidden" : 1,
									"midpoints" : [ 53.0, 589.867187999999942, 361.0, 589.867187999999942 ],
									"source" : [ "obj-15", 0 ]
								}

							}
, 							{
								"patchline" : 								{
									"destination" : [ "obj-58", 0 ],
									"hidden" : 1,
									"midpoints" : [ 53.0, 590.367187999999942, 361.0, 590.367187999999942 ],
									"source" : [ "obj-16", 0 ]
								}

							}
, 							{
								"patchline" : 								{
									"destination" : [ "obj-58", 0 ],
									"hidden" : 1,
									"midpoints" : [ 53.0, 588.867187999999942, 361.0, 588.867187999999942 ],
									"source" : [ "obj-17", 0 ]
								}

							}
, 							{
								"patchline" : 								{
									"destination" : [ "obj-58", 0 ],
									"hidden" : 1,
									"midpoints" : [ 351.75, 591.617187999999942, 361.0, 591.617187999999942 ],
									"source" : [ "obj-18", 0 ]
								}

							}
, 							{
								"patchline" : 								{
									"destination" : [ "obj-58", 0 ],
									"hidden" : 1,
									"midpoints" : [ 53.0, 589.367187999999942, 361.0, 589.367187999999942 ],
									"source" : [ "obj-19", 0 ]
								}

							}
, 							{
								"patchline" : 								{
									"destination" : [ "obj-58", 0 ],
									"hidden" : 1,
									"midpoints" : [ 53.0, 591.867187999999942, 361.0, 591.867187999999942 ],
									"source" : [ "obj-22", 0 ]
								}

							}
, 							{
								"patchline" : 								{
									"destination" : [ "obj-16", 0 ],
									"hidden" : 1,
									"source" : [ "obj-24", 0 ]
								}

							}
, 							{
								"patchline" : 								{
									"destination" : [ "obj-58", 0 ],
									"hidden" : 1,
									"midpoints" : [ 53.0, 589.367187999999942, 361.0, 589.367187999999942 ],
									"source" : [ "obj-25", 0 ]
								}

							}
, 							{
								"patchline" : 								{
									"destination" : [ "obj-58", 0 ],
									"hidden" : 1,
									"midpoints" : [ 664.0, 587.867187999999942, 361.0, 587.867187999999942 ],
									"source" : [ "obj-26", 0 ]
								}

							}
, 							{
								"patchline" : 								{
									"destination" : [ "obj-58", 0 ],
									"hidden" : 1,
									"midpoints" : [ 664.0, 587.867187999999942, 361.0, 587.867187999999942 ],
									"source" : [ "obj-27", 0 ]
								}

							}
, 							{
								"patchline" : 								{
									"destination" : [ "obj-58", 0 ],
									"hidden" : 1,
									"midpoints" : [ 664.0, 585.367187999999942, 361.0, 585.367187999999942 ],
									"source" : [ "obj-28", 0 ]
								}

							}
, 							{
								"patchline" : 								{
									"destination" : [ "obj-58", 0 ],
									"hidden" : 1,
									"midpoints" : [ 351.75, 590.617187999999942, 361.0, 590.617187999999942 ],
									"source" : [ "obj-3", 0 ]
								}

							}
, 							{
								"patchline" : 								{
									"destination" : [ "obj-31", 0 ],
									"hidden" : 1,
									"source" : [ "obj-33", 0 ]
								}

							}
, 							{
								"patchline" : 								{
									"destination" : [ "obj-58", 0 ],
									"hidden" : 1,
									"midpoints" : [ 351.75, 590.867187999999942, 361.0, 590.867187999999942 ],
									"source" : [ "obj-45", 0 ]
								}

							}
, 							{
								"patchline" : 								{
									"destination" : [ "obj-58", 0 ],
									"hidden" : 1,
									"midpoints" : [ 351.75, 590.617187999999942, 361.0, 590.617187999999942 ],
									"source" : [ "obj-46", 0 ]
								}

							}
, 							{
								"patchline" : 								{
									"destination" : [ "obj-58", 0 ],
									"hidden" : 1,
									"midpoints" : [ 351.75, 591.117187999999942, 361.0, 591.117187999999942 ],
									"source" : [ "obj-47", 0 ]
								}

							}
, 							{
								"patchline" : 								{
									"destination" : [ "obj-34", 0 ],
									"hidden" : 1,
									"source" : [ "obj-5", 0 ]
								}

							}
, 							{
								"patchline" : 								{
									"destination" : [ "obj-58", 0 ],
									"hidden" : 1,
									"midpoints" : [ 351.75, 590.117187999999942, 361.0, 590.117187999999942 ],
									"source" : [ "obj-50", 0 ]
								}

							}
, 							{
								"patchline" : 								{
									"destination" : [ "obj-58", 0 ],
									"hidden" : 1,
									"midpoints" : [ 351.75, 589.3671875, 361.0, 589.3671875 ],
									"source" : [ "obj-67", 0 ]
								}

							}
, 							{
								"patchline" : 								{
									"destination" : [ "obj-73", 0 ],
									"hidden" : 1,
									"source" : [ "obj-70", 0 ]
								}

							}
, 							{
								"patchline" : 								{
									"destination" : [ "obj-58", 0 ],
									"hidden" : 1,
									"midpoints" : [ 666.5, 585.8671875, 361.0, 585.8671875 ],
									"source" : [ "obj-72", 0 ]
								}

							}
, 							{
								"patchline" : 								{
									"destination" : [ "obj-77", 0 ],
									"hidden" : 1,
									"source" : [ "obj-76", 0 ]
								}

							}
, 							{
								"patchline" : 								{
									"destination" : [ "obj-58", 0 ],
									"hidden" : 1,
									"midpoints" : [ 53.0, 590.3671875, 361.0, 590.3671875 ],
									"source" : [ "obj-9", 0 ]
								}

							}
 ],
						"bgcolor" : [ 0.898, 0.898, 0.898, 1.0 ],
						"editing_bgcolor" : [ 0.898, 0.898, 0.898, 1.0 ]
					}
,
					"patching_rect" : [ 193.0, 179.0, 83.0, 22.0 ],
					"saved_object_attributes" : 					{
						"description" : "",
						"digest" : "",
						"editing_bgcolor" : [ 0.898, 0.898, 0.898, 1.0 ],
						"globalpatchername" : "",
						"locked_bgcolor" : [ 0.898, 0.898, 0.898, 1.0 ],
						"tags" : ""
					}
,
					"text" : "p abstractions",
					"varname" : "basic_tab"
				}

			}
 ],
		"lines" : [  ],
		"dependency_cache" : [  ],
		"autosave" : 0
	}

}
